<?xml version="1.0" encoding="utf-8"?>
<!-- Generator: Adobe Illustrator 17.0.0, SVG Export Plug-In . SVG Version: 6.00 Build 0)  -->
<!DOCTYPE svg PUBLIC "-//W3C//DTD SVG 1.1//EN" "http://www.w3.org/Graphics/SVG/1.1/DTD/svg11.dtd">
<svg version="1.1" id="Слой_1" xmlns="http://www.w3.org/2000/svg" xmlns:xlink="http://www.w3.org/1999/xlink" x="0px" y="0px"
	 width="260px" height="360px" viewBox="0 0 260 360" enable-background="new 0 0 260 360" xml:space="preserve">
<ellipse fill="#262828" cx="125.922" cy="219.985" rx="101.896" ry="104.783"/>
<path fill="none" stroke="#00FFFF" stroke-width="4" stroke-miterlimit="10" d="M138.005,141.638c0,0,42.48-111.089,59.308-125.745
	c0,0-33.72-4.355-59.232-16.297c0,0-27.716,115.612-36.401,127.011L59.066,68.523c0,0-17.119,20.625-36.117,34.195
	c0,0,71.647,71.831,81.96,110.371l-22.802,48.775h48.834"/>
<path fill="#082B5E" d="M152.943,261.626c4.342-4.071,8.685-30.688,8.685-30.688c4.071,1.238,5.118-0.868,5.118-0.868l4.381-7.393
	l4.342-7.735c0,0-3.438-1.696-13.842-1.696c0,0-4.342-25.546-8.685-29.617c-4.342-4.071,79.567-35.181,79.567-35.181
	s-4.275-56.882-12.96-61.586c0,0-90.977,59.946-93.51,66.098c0,0,19.032,56.147,17.947,78.402
	c1.086,22.255-17.947,60.975-17.947,60.975c2.533,6.152,93.51,66.042,93.51,66.042c8.685-4.704,12.96-61.586,12.96-61.586
	S148.6,265.697,152.943,261.626z"/>
<path fill="none" stroke="#00FFCE" stroke-width="1.0856" stroke-miterlimit="10" d="M148.691,183.414
	c9.137,15.515,9.771,34.197,9.771,34.197l11.831,1.023l-5.68,10.014"/>
<path fill="none" stroke="#00FFCE" stroke-width="1.0856" stroke-miterlimit="10" d="M206.41,325.992l-10.132-6.514l2.533-15.922
	l17.189,9.228c1.731,6.875-3.257,23.884-3.257,23.884l-62.423-39.263c4.35-5.472,2.895-27.502,2.895-27.502
	c6.152,5.066,69.841,36.911,69.841,36.911c1.447,17.008-6.056,40.892-6.056,40.892l-87.307-55.366c37.997-67.67,0-139.683,0-139.683
	l88.116-60.433c9.771,26.779,11.58,53.557,11.58,53.557s-44.052,15.473-78.526,34.378"/>
</svg>
