<?xml version="1.0" encoding="utf-8"?>
<!-- Generator: Adobe Illustrator 17.0.0, SVG Export Plug-In . SVG Version: 6.00 Build 0)  -->
<!DOCTYPE svg PUBLIC "-//W3C//DTD SVG 1.1//EN" "http://www.w3.org/Graphics/SVG/1.1/DTD/svg11.dtd">
<svg version="1.1" id="Слой_1" xmlns="http://www.w3.org/2000/svg" xmlns:xlink="http://www.w3.org/1999/xlink" x="0px" y="0px"
	 width="438.047px" height="691.726px" viewBox="0 0 438.047 691.726" enable-background="new 0 0 438.047 691.726"
	 xml:space="preserve">
<g>
	<path fill="none" stroke="#00B7FF" stroke-width="4" stroke-miterlimit="10" d="M232.237,313.591
		c0,0,97.727-253.615,128.727-280.615c0,0-62-8.125-109-30.125c0,0-51,212.938-67,233.938L69.487,57.758
		c0,0-31.523,37.984-66.523,62.984c0,0,121,137.492,140,208.492l6,157.492h51"/>
	<path fill="#082B5E" d="M276.464,513.481c8-7.5,16-56.536,16-56.536c17,0,24.428-1.599,24.428-1.599l8.072-13.619l8-14.25
		c0,0-21.333-3.125-40.5-3.125c0,0-8-47.062-16-54.562s161.583-64.812,161.583-64.812s-7.875-104.792-23.875-113.458
		c0,0-182.604,110.438-187.271,121.771c0,0,30.562,87.438,28.562,128.438c2,41-28.562,128.333-28.562,128.333
		c4.667,11.333,187.271,121.667,187.271,121.667c16-8.667,23.875-113.458,23.875-113.458S268.464,520.981,276.464,513.481z"/>
	<path fill="none" stroke="#00FFCE" stroke-width="2" stroke-miterlimit="10" d="M389.964,632.06l-18.667-12l4.667-29.333l31.667,17
		c3.188,12.665-6,44-6,44l-130-72.333c8.015-10.082,5.333-50.667,5.333-50.667c11.333,9.333,143.667,68,143.667,68
		c2.667,31.333-11.156,75.333-11.156,75.333l-175.844-102c70-124.667,0-257.333,0-257.333l177.333-111.333
		c18,49.333,21.333,98.667,21.333,98.667s-92.667,30-110.667,40"/>
</g>
</svg>
