<?xml version="1.0" encoding="utf-8"?>
<!-- Generator: Adobe Illustrator 17.0.0, SVG Export Plug-In . SVG Version: 6.00 Build 0)  -->
<!DOCTYPE svg PUBLIC "-//W3C//DTD SVG 1.1//EN" "http://www.w3.org/Graphics/SVG/1.1/DTD/svg11.dtd">
<svg version="1.1" id="Слой_1" xmlns="http://www.w3.org/2000/svg" xmlns:xlink="http://www.w3.org/1999/xlink" x="0px" y="0px"
	 width="40px" height="40px" viewBox="0 0 40 40" enable-background="new 0 0 40 40" xml:space="preserve">
<ellipse fill="#262828" cx="19.997" cy="20.077" rx="19.971" ry="20.077"/>
<path fill="#FFFFFF" d="M24.913,6.22c0,0-3.231-0.891-6.416-3.458c0,0-4.181,9.848-5.237,11.234L8.077,6.932
	c0,0-2.082,2.508-4.393,4.159c0,0,7.657,5.288,8.912,9.975l-2.203,7.797h7.712c0,0-1.811-5.231-1.296-7.544
	C18.795,12.396,24.913,6.22,24.913,6.22z"/>
<path fill="#FFFFFF" d="M20.852,30.811c0.458-0.317,0.916-2.393,0.916-2.393c0.429,0.097,0.54-0.068,0.54-0.068l0.462-0.577
	l0.458-0.603c0,0-0.362-0.132-1.459-0.132c0,0-0.458-1.992-0.916-2.31c-0.458-0.317,8.389-2.744,8.389-2.744
	s-0.451-4.436-1.366-4.803c0,0-9.592,4.675-9.859,5.155c0,0,2.007,4.379,1.892,6.115c0.114,1.736-1.892,4.755-1.892,4.755
	c0.267,0.48,9.859,5.151,9.859,5.151c0.916-0.367,1.366-4.803,1.366-4.803S20.394,31.129,20.852,30.811z"/>
</svg>
