<?xml version="1.0" encoding="utf-8"?>
<!-- Generator: Adobe Illustrator 17.0.0, SVG Export Plug-In . SVG Version: 6.00 Build 0)  -->
<!DOCTYPE svg PUBLIC "-//W3C//DTD SVG 1.1//EN" "http://www.w3.org/Graphics/SVG/1.1/DTD/svg11.dtd">
<svg version="1.1" id="objects" xmlns="http://www.w3.org/2000/svg" xmlns:xlink="http://www.w3.org/1999/xlink" x="0px" y="0px"
	 width="1404px" height="800px" viewBox="0 0 1404 800" enable-background="new 0 0 1404 800" xml:space="preserve">
<g>
	<g>
		<g>
			<path fill="#4D4D4D" d="M304.086,345h-3.302c0,0-19.392-5.015-19.392-59.163c0-15.95-85.635-16.014-85.635,1.114
				c0,52.134-19.897,58.049-19.897,58.049h-2.679c-2.39,0-4.182,2.163-4.182,4.553v2.163c0,2.39,1.792,4.284,4.182,4.284h130.904
				c2.39,0,4.914-1.894,4.914-4.284v-2.163C309,347.163,306.476,345,304.086,345z"/>
			<path fill="#4D4D4D" d="M390.528,74H86.195C80.332,74,75,77.477,75,83.339v184.112v28.214C75,301.53,80.332,309,86.195,309
				h304.333c5.865,0,8.472-7.47,8.472-13.335v-28.214V83.339C399,77.477,396.393,74,390.528,74z"/>
			<rect x="91" y="92" fill="#F2F2F2" width="293" height="168"/>
			<path fill="#B3B3B3" d="M251.649,284.968c0,7.342-5.952,13.29-13.29,13.29l0,0c-7.337,0-13.287-5.948-13.287-13.29l0,0
				c0-7.34,5.95-13.288,13.287-13.288l0,0C245.697,271.679,251.649,277.628,251.649,284.968L251.649,284.968z"/>
		</g>
	</g>
	<g>
		<path fill="#FF4522" d="M204,115.337c0,2.401-1.707,4.663-4.535,4.663h-54.71c-2.827,0-5.755-2.261-5.755-4.663v-8.595
			c0-2.401,2.928-4.742,5.755-4.742h54.71c2.827,0,4.535,2.341,4.535,4.742V115.337z"/>
		<path fill="#47DEE5" d="M334,170.505c0,2.401-1.811,4.495-4.637,4.495H144.755c-2.827,0-5.755-2.094-5.755-4.495v-40.707
			c0-2.401,2.928-4.797,5.755-4.797h184.608c2.826,0,4.637,2.396,4.637,4.797V170.505z"/>
		<path fill="#999999" d="M199,205.087c0,2.401-1.554,3.913-4.381,3.913h-49.863c-2.827,0-5.755-1.511-5.755-3.913v-21.769
			c0-2.401,2.928-4.318,5.755-4.318h49.863c2.827,0,4.381,1.917,4.381,4.318V205.087z"/>
		<path fill="#999999" d="M265,205.087c0,2.401-1.637,3.913-4.463,3.913h-49.864c-2.827,0-5.673-1.511-5.673-3.913v-21.769
			c0-2.401,2.846-4.318,5.673-4.318h49.864c2.826,0,4.463,1.917,4.463,4.318V205.087z"/>
		<path fill="#999999" d="M334,205.087c0,2.401-1.811,3.913-4.637,3.913h-49.864c-2.826,0-5.498-1.511-5.498-3.913v-21.769
			c0-2.401,2.672-4.318,5.498-4.318h49.864c2.826,0,4.637,1.917,4.637,4.318V205.087z"/>
		<g>
			<path fill="#B3B3B3" d="M265,217.659c0,1.001-0.346,1.341-1.491,1.341h-55.576c-1.145,0-2.933-0.341-2.933-1.341v-0.725
				c0-1.001,1.788-1.934,2.933-1.934h55.576c1.145,0,1.491,0.933,1.491,1.934V217.659z"/>
			<path fill="#B3B3B3" d="M265,224.905c0,1.001-0.346,2.095-1.491,2.095h-55.576c-1.145,0-2.933-1.094-2.933-2.095v-0.725
				c0-1.001,1.788-1.181,2.933-1.181h55.576c1.145,0,1.491,0.18,1.491,1.181V224.905z"/>
			<path fill="#B3B3B3" d="M265,232.152c0,1.001-0.346,1.848-1.491,1.848h-55.576c-1.145,0-2.933-0.847-2.933-1.848v-0.725
				c0-1.001,1.788-1.428,2.933-1.428h55.576c1.145,0,1.491,0.427,1.491,1.428V232.152z"/>
			<path fill="#B3B3B3" d="M265,239.399c0,1.001-0.346,2.601-1.491,2.601h-55.576c-1.145,0-2.933-1.6-2.933-2.601v-0.725
				c0-1,1.788-1.674,2.933-1.674h55.576c1.145,0,1.491,0.674,1.491,1.674V239.399z"/>
			<path fill="#B3B3B3" d="M238,246.646c0,1.001-0.648,1.354-1.792,1.354h-28.275c-1.145,0-2.933-0.353-2.933-1.354v-0.725
				c0-1.001,1.788-1.921,2.933-1.921h28.275c1.144,0,1.792,0.92,1.792,1.921V246.646z"/>
		</g>
		<g>
			<path fill="#B3B3B3" d="M333,217.659c0,1.001-0.094,1.341-1.239,1.341h-55.575c-1.144,0-2.186-0.341-2.186-1.341v-0.725
				c0-1.001,1.042-1.934,2.186-1.934h55.575c1.145,0,1.239,0.933,1.239,1.934V217.659z"/>
			<path fill="#B3B3B3" d="M333,224.905c0,1.001-0.094,2.095-1.239,2.095h-55.575c-1.144,0-2.186-1.094-2.186-2.095v-0.725
				c0-1.001,1.042-1.181,2.186-1.181h55.575c1.145,0,1.239,0.18,1.239,1.181V224.905z"/>
			<path fill="#B3B3B3" d="M333,232.152c0,1.001-0.094,1.848-1.239,1.848h-55.575c-1.144,0-2.186-0.847-2.186-1.848v-0.725
				c0-1.001,1.042-1.428,2.186-1.428h55.575c1.145,0,1.239,0.427,1.239,1.428V232.152z"/>
			<path fill="#B3B3B3" d="M333,239.399c0,1.001-0.094,2.601-1.239,2.601h-55.575c-1.144,0-2.186-1.6-2.186-2.601v-0.725
				c0-1,1.042-1.674,2.186-1.674h55.575c1.145,0,1.239,0.674,1.239,1.674V239.399z"/>
			<path fill="#B3B3B3" d="M306,246.646c0,1.001-0.395,1.354-1.539,1.354h-28.275c-1.144,0-2.186-0.353-2.186-1.354v-0.725
				c0-1.001,1.042-1.921,2.186-1.921h28.275c1.144,0,1.539,0.92,1.539,1.921V246.646z"/>
		</g>
		<g>
			<path fill="#B3B3B3" d="M199,217.659c0,1.001-0.893,1.341-2.038,1.341h-55.575c-1.145,0-2.387-0.341-2.387-1.341v-0.725
				c0-1.001,1.242-1.934,2.387-1.934h55.575c1.144,0,2.038,0.933,2.038,1.934V217.659z"/>
			<path fill="#B3B3B3" d="M199,224.905c0,1.001-0.893,2.095-2.038,2.095h-55.575c-1.145,0-2.387-1.094-2.387-2.095v-0.725
				c0-1.001,1.242-1.181,2.387-1.181h55.575c1.144,0,2.038,0.18,2.038,1.181V224.905z"/>
			<path fill="#B3B3B3" d="M199,232.152c0,1.001-0.893,1.848-2.038,1.848h-55.575c-1.145,0-2.387-0.847-2.387-1.848v-0.725
				c0-1.001,1.242-1.428,2.387-1.428h55.575c1.144,0,2.038,0.427,2.038,1.428V232.152z"/>
			<path fill="#B3B3B3" d="M199,239.399c0,1.001-0.893,2.601-2.038,2.601h-55.575c-1.145,0-2.387-1.6-2.387-2.601v-0.725
				c0-1,1.242-1.674,2.387-1.674h55.575c1.144,0,2.038,0.674,2.038,1.674V239.399z"/>
			<path fill="#B3B3B3" d="M171,246.646c0,1.001-0.194,1.354-1.339,1.354h-28.274c-1.145,0-2.387-0.353-2.387-1.354v-0.725
				c0-1.001,1.242-1.921,2.387-1.921h28.274c1.145,0,1.339,0.92,1.339,1.921V246.646z"/>
		</g>
	</g>
</g>
<g>
	<g>
		<g>
			<path fill="#4D4D4D" d="M1358,696h-302V502.332c0-4.027,3.979-6.332,8.006-6.332h288.009c4.027,0,5.985,2.305,5.985,6.332V696z"
				/>
			<rect x="1068" y="510" fill="#F2F2F2" width="280" height="171"/>
			<path fill="#4D4D4D" d="M1397,704v-8.446c0-2.013-1.045-2.554-3.06-2.554h-370.038c-2.014,0-3.903,0.541-3.903,2.554V704h0.257
				c0,0,9.114,7,14.582,7h348.166c5.468,0,14.583-7,14.583-7H1397z"/>
			<path fill="#B3B3B3" d="M1241.733,699h-65.624c-5.468,0-5.468-6-5.468-6h76.56C1247.201,693,1247.201,699,1241.733,699z"/>
		</g>
	</g>
	<g>
		<path fill="#FF4522" d="M1180,534.435c0,2.437-1.648,4.565-4.088,4.565h-47.086c-2.438,0-4.826-2.129-4.826-4.565v-8.829
			c0-2.437,2.388-4.606,4.826-4.606h47.086c2.439,0,4.088,2.169,4.088,4.606V534.435z"/>
		<path fill="#47DEE5" d="M1292,590.586c0,2.438-1.977,4.414-4.414,4.414h-159.172c-2.438,0-4.414-1.977-4.414-4.414v-41.172
			c0-2.438,1.977-4.414,4.414-4.414h159.172c2.438,0,4.414,1.977,4.414,4.414V590.586z"/>
		<path fill="#999999" d="M1176,625.665c0,2.437-2.062,4.335-4.502,4.335h-42.672c-2.438,0-4.826-1.898-4.826-4.335v-22.071
			c0-2.438,2.388-4.594,4.826-4.594h42.672c2.439,0,4.502,2.156,4.502,4.594V625.665z"/>
		<path fill="#999999" d="M1233,625.585c0,2.438-1.977,4.415-4.415,4.415h-42.17c-2.438,0-4.415-1.977-4.415-4.415v-22.17
			c0-2.438,1.977-4.415,4.415-4.415h42.17c2.438,0,4.415,1.977,4.415,4.415V625.585z"/>
		<path fill="#999999" d="M1291,625.585c0,2.438-1.977,4.415-4.414,4.415h-42.172c-2.438,0-4.414-1.977-4.414-4.415v-22.17
			c0-2.438,1.977-4.415,4.414-4.415h42.172c2.438,0,4.414,1.977,4.414,4.415V625.585z"/>
		<g>
			<path fill="#B3B3B3" d="M1233,638.54c0,1.016-0.501,1.46-1.488,1.46h-47.926c-0.987,0-1.586-0.444-1.586-1.46v-0.735
				c0-1.017,0.599-1.805,1.586-1.805h47.926c0.987,0,1.488,0.788,1.488,1.805V638.54z"/>
			<path fill="#B3B3B3" d="M1233,645.898c0,1.016-0.501,2.102-1.488,2.102h-47.926c-0.987,0-1.586-1.087-1.586-2.102v-0.735
				c0-1.016,0.599-2.162,1.586-2.162h47.926c0.987,0,1.488,1.146,1.488,2.162V645.898z"/>
			<path fill="#B3B3B3" d="M1233,653.255c0,1.016-0.501,2.745-1.488,2.745h-47.926c-0.987,0-1.586-1.729-1.586-2.745v-0.736
				c0-1.016,0.599-2.519,1.586-2.519h47.926c0.987,0,1.488,1.503,1.488,2.519V653.255z"/>
			<path fill="#B3B3B3" d="M1233,660.612c0,1.017-0.501,2.388-1.488,2.388h-47.926c-0.987,0-1.586-1.371-1.586-2.388v-0.735
				c0-1.017,0.599-1.877,1.586-1.877h47.926c0.987,0,1.488,0.86,1.488,1.877V660.612z"/>
			<path fill="#B3B3B3" d="M1209,667.969c0,1.017-0.044,2.031-1.031,2.031h-24.383c-0.987,0-1.586-1.015-1.586-2.031v-0.735
				c0-1.016,0.599-2.233,1.586-2.233h24.383c0.987,0,1.031,1.218,1.031,2.233V667.969z"/>
		</g>
		<g>
			<path fill="#B3B3B3" d="M1292,638.54c0,1.016-0.643,1.46-1.63,1.46h-47.926c-0.987,0-2.444-0.444-2.444-1.46v-0.735
				c0-1.017,1.457-1.805,2.444-1.805h47.926c0.987,0,1.63,0.788,1.63,1.805V638.54z"/>
			<path fill="#B3B3B3" d="M1292,645.898c0,1.016-0.643,2.102-1.63,2.102h-47.926c-0.987,0-2.444-1.087-2.444-2.102v-0.735
				c0-1.016,1.457-2.162,2.444-2.162h47.926c0.987,0,1.63,1.146,1.63,2.162V645.898z"/>
			<path fill="#B3B3B3" d="M1292,653.255c0,1.016-0.643,2.745-1.63,2.745h-47.926c-0.987,0-2.444-1.729-2.444-2.745v-0.736
				c0-1.016,1.457-2.519,2.444-2.519h47.926c0.987,0,1.63,1.503,1.63,2.519V653.255z"/>
			<path fill="#B3B3B3" d="M1292,660.612c0,1.017-0.643,2.388-1.63,2.388h-47.926c-0.987,0-2.444-1.371-2.444-2.388v-0.735
				c0-1.017,1.457-1.877,2.444-1.877h47.926c0.987,0,1.63,0.86,1.63,1.877V660.612z"/>
			<path fill="#B3B3B3" d="M1269,667.969c0,1.017-1.186,2.031-2.173,2.031h-24.383c-0.987,0-2.444-1.015-2.444-2.031v-0.735
				c0-1.016,1.457-2.233,2.444-2.233h24.383c0.987,0,2.173,1.218,2.173,2.233V667.969z"/>
		</g>
		<g>
			<path fill="#B3B3B3" d="M1176,638.54c0,1.016-0.888,1.46-1.875,1.46h-47.926c-0.986,0-2.199-0.444-2.199-1.46v-0.735
				c0-1.017,1.213-1.805,2.199-1.805h47.926c0.987,0,1.875,0.788,1.875,1.805V638.54z"/>
			<path fill="#B3B3B3" d="M1176,645.898c0,1.016-0.888,2.102-1.875,2.102h-47.926c-0.986,0-2.199-1.087-2.199-2.102v-0.735
				c0-1.016,1.213-2.162,2.199-2.162h47.926c0.987,0,1.875,1.146,1.875,2.162V645.898z"/>
			<path fill="#B3B3B3" d="M1176,653.255c0,1.016-0.888,2.745-1.875,2.745h-47.926c-0.986,0-2.199-1.729-2.199-2.745v-0.736
				c0-1.016,1.213-2.519,2.199-2.519h47.926c0.987,0,1.875,1.503,1.875,2.519V653.255z"/>
			<path fill="#B3B3B3" d="M1176,660.612c0,1.017-0.888,2.388-1.875,2.388h-47.926c-0.986,0-2.199-1.371-2.199-2.388v-0.735
				c0-1.017,1.213-1.877,2.199-1.877h47.926c0.987,0,1.875,0.86,1.875,1.877V660.612z"/>
			<path fill="#B3B3B3" d="M1152,667.969c0,1.017-0.432,2.031-1.419,2.031h-24.382c-0.986,0-2.199-1.015-2.199-2.031v-0.735
				c0-1.016,1.213-2.233,2.199-2.233h24.382c0.987,0,1.419,1.218,1.419,2.233V667.969z"/>
		</g>
	</g>
</g>
<g>
	<g>
		<g>
			<path fill="#4D4D4D" d="M1089,308.468c0,7.67-6.012,14.532-13.678,14.532H932.338c-7.666,0-14.338-6.862-14.338-14.532V110.532
				c0-7.67,6.672-14.532,14.338-14.532h142.984c7.666,0,13.678,6.862,13.678,14.532V308.468z"/>
			<rect x="932" y="113" fill="#F2F2F2" width="143" height="174"/>
			<path fill="#B3B3B3" d="M1015.303,304.522c0,6.34-5.133,11.471-11.473,11.471c-6.339,0-11.473-5.131-11.473-11.471
				c0-6.34,5.134-11.477,11.473-11.477C1010.17,293.045,1015.303,298.182,1015.303,304.522z"/>
		</g>
	</g>
	<g>
		<path fill="#FF4522" d="M1005,140.055c0,2.402-1.829,3.945-4.232,3.945h-46.416c-2.404,0-4.352-1.543-4.352-3.945v-8.703
			c0-2.402,1.947-4.352,4.352-4.352h46.416c2.403,0,4.232,1.949,4.232,4.352V140.055z"/>
		<path fill="#47DEE5" d="M1057,195.173c0,2.402-1.611,4.827-4.015,4.827h-98.634c-2.404,0-4.352-2.425-4.352-4.827V154.56
			c0-2.402,1.947-4.56,4.352-4.56h98.634c2.403,0,4.015,2.157,4.015,4.56V195.173z"/>
		<path fill="#999999" d="M1001,229.985c0,2.402-2.18,4.015-4.584,4.015h-42.064c-2.404,0-4.352-1.612-4.352-4.015v-21.758
			c0-2.402,1.947-4.227,4.352-4.227h42.064c2.404,0,4.584,1.825,4.584,4.227V229.985z"/>
		<path fill="#999999" d="M1057,229.985c0,2.402-1.611,4.015-4.015,4.015h-42.064c-2.403,0-3.921-1.612-3.921-4.015v-21.758
			c0-2.402,1.518-4.227,3.921-4.227h42.064c2.403,0,4.015,1.825,4.015,4.227V229.985z"/>
		<g>
			<path fill="#B3B3B3" d="M1057,242.677c0,1.002-0.452,1.323-1.426,1.323h-47.242c-0.974,0-1.332-0.321-1.332-1.323v-0.725
				c0-1.002,0.358-1.952,1.332-1.952h47.242c0.974,0,1.426,0.95,1.426,1.952V242.677z"/>
			<path fill="#B3B3B3" d="M1057,249.93c0,1.001-0.452,2.07-1.426,2.07h-47.242c-0.974,0-1.332-1.069-1.332-2.07v-0.726
				c0-1.001,0.358-2.204,1.332-2.204h47.242c0.974,0,1.426,1.203,1.426,2.204V249.93z"/>
			<path fill="#B3B3B3" d="M1057,257.182c0,1.002-0.452,1.818-1.426,1.818h-47.242c-0.974,0-1.332-0.816-1.332-1.818v-0.725
				c0-1.002,0.358-1.457,1.332-1.457h47.242c0.974,0,1.426,0.455,1.426,1.457V257.182z"/>
			<path fill="#B3B3B3" d="M1057,264.435c0,1.001-0.452,1.565-1.426,1.565h-47.242c-0.974,0-1.332-0.565-1.332-1.565v-0.726
				c0-1.001,0.358-1.709,1.332-1.709h47.242c0.974,0,1.426,0.708,1.426,1.709V264.435z"/>
			<path fill="#B3B3B3" d="M1034,271.686c0,1.002-0.66,2.314-1.633,2.314h-24.035c-0.974,0-1.332-1.311-1.332-2.314v-0.725
				c0-1.002,0.358-1.962,1.332-1.962h24.035c0.973,0,1.633,0.96,1.633,1.962V271.686z"/>
		</g>
		<g>
			<path fill="#B3B3B3" d="M1001,242.677c0,1.002-1.022,1.323-1.994,1.323h-47.244c-0.973,0-1.762-0.321-1.762-1.323v-0.725
				c0-1.002,0.789-1.952,1.762-1.952h47.244c0.973,0,1.994,0.95,1.994,1.952V242.677z"/>
			<path fill="#B3B3B3" d="M1001,249.93c0,1.001-1.022,2.07-1.994,2.07h-47.244c-0.973,0-1.762-1.069-1.762-2.07v-0.726
				c0-1.001,0.789-2.204,1.762-2.204h47.244c0.973,0,1.994,1.203,1.994,2.204V249.93z"/>
			<path fill="#B3B3B3" d="M1001,257.182c0,1.002-1.022,1.818-1.994,1.818h-47.244c-0.973,0-1.762-0.816-1.762-1.818v-0.725
				c0-1.002,0.789-1.457,1.762-1.457h47.244c0.973,0,1.994,0.455,1.994,1.457V257.182z"/>
			<path fill="#B3B3B3" d="M1001,264.435c0,1.001-1.022,1.565-1.994,1.565h-47.244c-0.973,0-1.762-0.565-1.762-1.565v-0.726
				c0-1.001,0.789-1.709,1.762-1.709h47.244c0.973,0,1.994,0.708,1.994,1.709V264.435z"/>
			<path fill="#B3B3B3" d="M978,271.686c0,1.002-1.229,2.314-2.203,2.314h-24.035c-0.973,0-1.762-1.311-1.762-2.314v-0.725
				c0-1.002,0.789-1.962,1.762-1.962h24.035c0.974,0,2.203,0.96,2.203,1.962V271.686z"/>
		</g>
	</g>
</g>
<g>
	<g>
		<g>
			<path fill="#4D4D4D" d="M498,670.713c0,6.479-6.256,12.287-12.742,12.287h-74.343c-6.483,0-11.915-5.809-11.915-12.287V510.289
				c0-6.48,5.432-12.289,11.915-12.289h74.343c6.486,0,12.742,5.809,12.742,12.289V670.713z"/>
			<g>
				<path fill="#4D4D4D" d="M498,670.713c0,6.479-6.256,12.287-12.742,12.287h-74.343c-6.483,0-11.915-5.809-11.915-12.287V510.289
					c0-6.48,5.432-12.289,11.915-12.289h74.343c6.486,0,12.742,5.809,12.742,12.289V670.713z"/>
				<rect x="406" y="521" fill="#F2F2F2" width="85" height="135"/>
				<path fill="#B3B3B3" d="M455.195,669.215c0,3.922-3.182,7.108-7.107,7.108c-3.927,0-7.107-3.186-7.107-7.108
					c0-3.924,3.181-7.107,7.107-7.107C452.014,662.107,455.195,665.291,455.195,669.215z"/>
				<path fill="#B3B3B3" d="M465,512.141c0,1.027-0.832,1.859-1.858,1.859h-35.283c-1.026,0-1.858-0.832-1.858-1.859v-0.281
					c0-1.027,0.832-1.859,1.858-1.859h35.283c1.026,0,1.858,0.832,1.858,1.859V512.141z"/>
			</g>
		</g>
	</g>
	<g>
		<path fill="#FF4522" d="M482,541.481c0,1.943-1.576,3.519-3.52,3.519H418.52c-1.943,0-3.52-1.576-3.52-3.519v-6.961
			c0-1.943,1.576-3.519,3.52-3.519h59.961c1.943,0,3.52,1.576,3.52,3.519V541.481z"/>
		<path fill="#47DEE5" d="M482,585.479c0,1.944-1.576,3.521-3.52,3.521H418.52c-1.943,0-3.52-1.576-3.52-3.521v-32.959
			c0-1.944,1.576-3.521,3.52-3.521h59.961c1.943,0,3.52,1.576,3.52,3.521V585.479z"/>
		<path fill="#999999" d="M482,613.554c0,1.943-1.2,3.446-3.189,3.446H418.23c-1.987,0-3.23-1.503-3.23-3.446v-17.601
			c0-1.943,1.243-2.953,3.23-2.953h60.581c1.988,0,3.189,1.01,3.189,2.953V613.554z"/>
		<path fill="#999999" d="M482,642.554c0,1.943-1.199,3.446-3.189,3.446H418.23c-1.988,0-3.23-1.503-3.23-3.446v-17.601
			c0-1.943,1.242-2.953,3.23-2.953h60.581c1.989,0,3.189,1.01,3.189,2.953V642.554z"/>
	</g>
</g>
</svg>
