<?xml version="1.0" encoding="utf-8"?>
<!-- Generator: Adobe Illustrator 17.0.0, SVG Export Plug-In . SVG Version: 6.00 Build 0)  -->
<!DOCTYPE svg PUBLIC "-//W3C//DTD SVG 1.1//EN" "http://www.w3.org/Graphics/SVG/1.1/DTD/svg11.dtd">
<svg version="1.1" xmlns="http://www.w3.org/2000/svg" xmlns:xlink="http://www.w3.org/1999/xlink" x="0px" y="0px"
	 width="762.582px" height="384.351px" viewBox="0 0 762.582 384.351" enable-background="new 0 0 762.582 384.351"
	 xml:space="preserve">
<g id="Слой_1">
</g>
<g id="Слой_5">
</g>
<g id="Слой_3">
	<g opacity="0.2">
		<g>
			<defs>
				<polygon id="SVGID_1_" points="680.029,353.569 671.219,328.857 661.775,328.857 652.965,353.569 649.902,353.569 
					649.902,356.334 683.091,356.334 683.091,353.569 				"/>
			</defs>
			<clipPath id="SVGID_2_">
				<use xlink:href="#SVGID_1_"  overflow="visible"/>
			</clipPath>
			<polygon clip-path="url(#SVGID_2_)" fill="#D25A2C" points="680.029,353.569 671.219,328.857 661.775,328.857 652.965,353.569 
				649.902,353.569 649.902,356.334 683.091,356.334 683.091,353.569 			"/>
			<rect x="650.805" y="325.662" clip-path="url(#SVGID_2_)" fill="#F4F4F4" width="37.974" height="2.905"/>
			<rect x="650.805" y="331.732" clip-path="url(#SVGID_2_)" fill="#F4F4F4" width="37.974" height="2.905"/>
			<rect x="650.805" y="337.542" clip-path="url(#SVGID_2_)" fill="#F4F4F4" width="37.974" height="2.905"/>
			<rect x="650.805" y="343.353" clip-path="url(#SVGID_2_)" fill="#F4F4F4" width="37.974" height="2.905"/>
			<rect x="650.805" y="349.163" clip-path="url(#SVGID_2_)" fill="#F4F4F4" width="37.974" height="2.905"/>
		</g>
		<polygon fill="#E4E4E4" points="683.091,353.569 680.029,353.569 671.219,328.857 666.497,328.857 666.497,356.334 
			683.091,356.334 		"/>
	</g>
	<g opacity="0.2">
		<g>
			<defs>
				<polygon id="SVGID_3_" points="631.503,359.647 625.284,342.202 618.617,342.202 612.397,359.647 610.236,359.647 
					610.236,361.599 633.665,361.599 633.665,359.647 				"/>
			</defs>
			<clipPath id="SVGID_4_">
				<use xlink:href="#SVGID_3_"  overflow="visible"/>
			</clipPath>
			<polygon clip-path="url(#SVGID_4_)" fill="#D25A2C" points="631.503,359.647 625.284,342.202 618.617,342.202 612.397,359.647 
				610.236,359.647 610.236,361.599 633.665,361.599 633.665,359.647 			"/>
			<rect x="610.873" y="339.947" clip-path="url(#SVGID_4_)" fill="#F4F4F4" width="26.807" height="2.051"/>
			<rect x="610.873" y="344.232" clip-path="url(#SVGID_4_)" fill="#F4F4F4" width="26.807" height="2.051"/>
			<rect x="610.873" y="348.334" clip-path="url(#SVGID_4_)" fill="#F4F4F4" width="26.807" height="2.051"/>
			<rect x="610.873" y="352.435" clip-path="url(#SVGID_4_)" fill="#F4F4F4" width="26.807" height="2.051"/>
			<rect x="610.873" y="356.537" clip-path="url(#SVGID_4_)" fill="#F4F4F4" width="26.807" height="2.051"/>
		</g>
		<polygon fill="#E4E4E4" points="633.665,359.647 631.503,359.647 625.284,342.202 621.95,342.202 621.95,361.599 633.665,361.599 
					"/>
	</g>
	<g opacity="0.2">
		<polygon fill="#435559" points="354.508,143.221 354.508,197.527 464.823,197.527 464.823,262.442 676.752,262.442 
			676.752,358.448 248.279,358.448 248.279,293.533 248.279,262.442 248.279,239.228 248.279,197.527 248.279,143.221 		"/>
		<rect x="253.647" y="26.11" fill="#7C9BA3" width="3.263" height="25.449"/>
		<rect x="242.639" y="44.031" fill="#7C9BA3" width="20.509" height="319.722"/>
		<rect x="257.509" y="44.031" fill="#326978" width="5.639" height="319.722"/>
		<rect x="348.868" y="44.031" fill="#7C9BA3" width="20.509" height="319.722"/>
		<rect x="363.738" y="44.031" fill="#326978" width="5.64" height="319.722"/>
		<rect x="454.522" y="44.031" fill="#7C9BA3" width="20.509" height="319.722"/>
		<rect x="469.392" y="44.031" fill="#326978" width="5.64" height="319.722"/>
		<rect x="559.554" y="190.511" fill="#7C9BA3" width="20.509" height="173.242"/>
		<rect x="574.424" y="190.511" fill="#326978" width="5.64" height="173.242"/>
		<rect x="666.497" y="190.511" fill="#7C9BA3" width="20.509" height="173.242"/>
		<rect x="681.367" y="190.511" fill="#326978" width="5.64" height="173.242"/>
		<rect x="242.639" y="190.511" fill="#7C9BA3" width="444.367" height="21.984"/>
		<rect x="242.639" y="190.511" fill="#9BC2CC" width="444.367" height="6.019"/>
		<rect x="242.639" y="245.47" fill="#9BC2CC" width="444.367" height="5.364"/>
		<rect x="242.639" y="134.595" fill="#7C9BA3" width="232.392" height="21.984"/>
		<rect x="242.639" y="134.595" fill="#9BC2CC" width="232.392" height="6.019"/>
		<rect x="242.639" y="78.874" fill="#7C9BA3" width="126.738" height="21.984"/>
		<rect x="242.639" y="78.874" fill="#9BC2CC" width="126.738" height="6.019"/>
		<polygon fill="#7C9BA3" points="224.487,284.659 705.158,284.659 705.158,256.199 698.718,250.835 230.927,250.835 
			224.487,256.199 		"/>
		<rect x="247.935" y="31.486" fill="#7C9BA3" width="3.263" height="25.449"/>
		<rect x="469.018" y="30.411" fill="#7C9BA3" width="3.263" height="25.449"/>
		<rect x="462.026" y="31.486" fill="#7C9BA3" width="3.263" height="25.449"/>
	</g>
	<g opacity="0.8">
		<path fill="#BD6A4B" d="M504.358,356.395h-31.856c-1.512,0-2.738-1.226-2.738-2.738v-15.332c0-1.512,1.226-2.738,2.738-2.738
			h31.856c1.512,0,2.738,1.226,2.738,2.738v15.332C507.096,355.169,505.87,356.395,504.358,356.395z"/>
		<path fill="#97543C" d="M507.097,338.324v15.335c0,1.511-1.225,2.737-2.737,2.737h-31.858c-1.174,0-2.172-0.737-2.561-1.776
			c0.301,0.121,0.627,0.183,0.972,0.183h31.854c1.511,0,2.737-1.225,2.737-2.737v-15.331c0-0.341-0.062-0.668-0.18-0.969
			C506.359,336.152,507.097,337.154,507.097,338.324z"/>
		<g>
			<path fill="#97543C" d="M478.904,351.005h-3.572c-0.601,0-1.088-0.487-1.088-1.088v-10.053c0-0.601,0.487-1.088,1.088-1.088
				h3.572c0.601,0,1.088,0.487,1.088,1.088v10.053C479.992,350.517,479.505,351.005,478.904,351.005z"/>
			<path fill="#97543C" d="M489.482,351.005h-3.572c-0.601,0-1.088-0.487-1.088-1.088v-10.053c0-0.601,0.487-1.088,1.088-1.088
				h3.572c0.601,0,1.088,0.487,1.088,1.088v10.053C490.57,350.517,490.083,351.005,489.482,351.005z"/>
			<path fill="#97543C" d="M500.06,351.005h-3.572c-0.601,0-1.088-0.487-1.088-1.088v-10.053c0-0.601,0.487-1.088,1.088-1.088h3.572
				c0.601,0,1.088,0.487,1.088,1.088v10.053C501.148,350.517,500.661,351.005,500.06,351.005z"/>
		</g>
	</g>
	<g opacity="0.8">
		<polygon fill="#B8B4BA" stroke="#020202" stroke-width="2" stroke-miterlimit="10" points="362.877,309.333 349.343,309.333 
			335.808,309.333 331.071,343.333 349.343,343.333 368.291,343.333 		"/>
		
			<rect x="283.065" y="339.333" fill="#B8B4BA" stroke="#020202" stroke-width="2" stroke-miterlimit="10" width="131" height="20"/>
		<path fill="#020202" d="M457.065,301.231c0,5.933-4.743,11.103-10.723,11.103H252.344c-5.98,0-11.279-5.17-11.279-11.103V150.836
			c0-5.933,5.299-9.502,11.279-9.502h193.998c5.98,0,10.723,3.57,10.723,9.502V301.231z"/>
		<rect x="248.065" y="149.333" fill="#FFFFFF" width="202" height="136"/>
		<rect x="258.065" y="225.333" fill="#898989" width="82" height="39"/>
		<rect x="399.065" y="243.333" fill="#898989" width="41" height="38"/>
		<rect x="399.065" y="197.333" fill="#898989" width="41" height="38"/>
		<line fill="none" stroke="#020202" stroke-miterlimit="10" x1="258.065" y1="268.833" x2="377.065" y2="268.833"/>
		
			<line fill="none" stroke="#020202" stroke-width="0.9023" stroke-miterlimit="10" x1="258.209" y1="273.952" x2="370.998" y2="273.952"/>
		
			<line fill="none" stroke="#020202" stroke-width="0.9023" stroke-miterlimit="10" x1="258.209" y1="278.576" x2="370.998" y2="278.576"/>
		<rect x="247.065" y="163.333" opacity="0.2" fill="#020202" width="202" height="21"/>
		<circle fill="none" stroke="#F2754E" stroke-width="1.8046" stroke-miterlimit="10" cx="349.343" cy="299.329" r="7.219"/>
	</g>
	<rect x="89.065" y="62.333" fill="#4C4C4C" width="34" height="26"/>
	<rect x="110.065" y="62.333" fill="#999999" width="6" height="26"/>
	<rect x="97.065" y="62.333" fill="#999999" width="6" height="26"/>
	<rect x="294.065" y="62.333" fill="#EEC60F" width="23" height="9"/>
	<polygon fill="#DEDBDA" points="246.334,42.933 159.931,10.031 161.308,6.571 247.711,39.474 	"/>
	<polygon fill="#DEDBDA" points="114.75,40.007 149.08,8.009 151.57,10.777 117.96,42.848 	"/>
	<rect x="143.565" y="270.833" fill="none" stroke="#F6DC34" stroke-width="5" stroke-miterlimit="10" width="21" height="20"/>
	<rect x="143.565" y="228.833" fill="none" stroke="#F6DC34" stroke-width="5" stroke-miterlimit="10" width="21" height="21"/>
	<rect x="143.565" y="187.833" fill="none" stroke="#F6DC34" stroke-width="5" stroke-miterlimit="10" width="21" height="21"/>
	<rect x="143.565" y="145.833" fill="none" stroke="#F6DC34" stroke-width="5" stroke-miterlimit="10" width="21" height="21"/>
	<rect x="143.565" y="103.833" fill="none" stroke="#F6DC34" stroke-width="5" stroke-miterlimit="10" width="21" height="21"/>
	<rect x="143.565" y="61.833" fill="none" stroke="#F6DC34" stroke-width="5" stroke-miterlimit="10" width="21" height="21"/>
	<rect x="143.565" y="61.833" fill="none" stroke="#F6DC34" stroke-width="5" stroke-miterlimit="10" width="21" height="249"/>
	<polygon fill="#F6DC34" points="143.065,284.613 121.015,309.333 127.532,309.333 143.065,291.439 	"/>
	<polygon fill="#F6DC34" points="165.065,284.613 188.971,309.333 182.455,309.333 165.065,291.439 	"/>
	<path fill="none" stroke="#F6DC34" stroke-width="5" stroke-miterlimit="10" d="M306.988,41.833H212.06h-94.438
		c-32.402,15-43.924,20-34.515,20H212.06h129.442C350.912,61.833,339.389,56.833,306.988,41.833z"/>
	<rect x="117.565" y="41.833" fill="none" stroke="#F6DC34" stroke-width="5" stroke-miterlimit="10" width="21" height="20"/>
	<rect x="158.565" y="41.833" fill="none" stroke="#F6DC34" stroke-width="5" stroke-miterlimit="10" width="21" height="20"/>
	<rect x="198.565" y="41.833" fill="none" stroke="#F6DC34" stroke-width="5" stroke-miterlimit="10" width="21" height="20"/>
	<rect x="239.565" y="41.833" fill="none" stroke="#F1DE2D" stroke-width="5" stroke-miterlimit="10" width="21" height="20"/>
	<rect x="279.565" y="41.833" fill="none" stroke="#F1DE2D" stroke-width="5" stroke-miterlimit="10" width="21" height="20"/>
	<circle fill="#F6DC34" cx="155.565" cy="6.667" r="6.667"/>
	<polygon fill="#F6DC34" points="144.753,39.319 151.474,10.671 155.924,12.595 150.339,40.095 	"/>
	<polygon fill="#F6DC34" points="167.095,40.095 160.665,10.671 156.215,12.595 161.655,40.095 	"/>
	<rect x="303.065" y="71.333" fill="#898989" width="5" height="39"/>
	<rect x="274.065" y="110.333" fill="#898989" width="62" height="7"/>
	<rect x="154.065" y="62.333" fill="#F6DC34" width="27" height="37"/>
	<rect x="168.065" y="68.333" fill="#BCBCBC" width="11" height="16"/>
	
		<rect x="0.518" y="356.833" fill="#7C7C7C" stroke="#000000" stroke-width="1.0357" stroke-miterlimit="10" width="761.547" height="27"/>
	<g opacity="0.9">
		<rect x="80.733" y="337.342" fill="#E5BC1B" width="2.004" height="5.492"/>
		<polygon fill="#00A3BB" points="190.556,324.058 188.3,340.087 121.306,340.087 121.306,324.058 		"/>
		<rect x="87.978" y="338.826" fill="#333333" width="95.288" height="9.351"/>
		<polygon fill="#00A3BB" points="121.306,298.932 121.306,324.056 190.556,324.056 190.689,314.337 188.397,308.275 
			134.542,308.275 134.25,308.026 		"/>
		<path fill="#E5BC1B" d="M110.811,344.985H96.758c1.389-2.44,4.016-4.083,7.026-4.083
			C106.795,340.902,109.422,342.545,110.811,344.985z"/>
		<polygon fill="#333333" points="83.342,344.662 86.183,348.176 87.978,348.176 90.204,342.944 		"/>
		<path fill="#ED4B00" d="M117.588,310.057v34.928h-5.437c-1.75-3.651-5.82-5.976-10.299-5.072
			c-2.908,0.583-5.245,2.543-6.447,5.072H84.275c-0.85,0-1.539-0.689-1.539-1.539v-16.045c0-0.585,0.162-1.159,0.469-1.658
			l7.295-16.749c0.369-0.601,1.024-0.967,1.729-0.967h23.33C116.68,308.028,117.588,308.936,117.588,310.057z"/>
		<path fill="#9E3200" d="M115.807,342.678c-0.641-1.217-1.462-2.325-2.421-3.284c-2.457-2.457-5.849-3.98-9.601-3.98
			c-6.107,0-11.267,4.027-12.981,9.571h4.603c1.199-2.529,3.536-4.489,6.449-5.07c4.477-0.905,8.546,1.42,10.296,5.07h4.609
			C116.514,344.183,116.19,343.409,115.807,342.678z"/>
		<circle fill="#B2B2B2" cx="103.785" cy="348.993" r="6.721"/>
		<circle fill="#4D4D4D" cx="103.785" cy="348.993" r="2.908"/>
		<path d="M110.811,344.985c-1.389-2.44-4.016-4.083-7.026-4.083c-3.01,0-5.637,1.643-7.026,4.083
			c-0.681,1.18-1.064,2.547-1.064,4.007c0,4.466,3.624,8.091,8.09,8.091s8.091-3.625,8.091-8.091
			C111.875,347.532,111.492,346.165,110.811,344.985z M103.785,354.519c-3.05,0-5.526-2.476-5.526-5.526
			c0-1.576,0.663-3.001,1.728-4.007c0.988-0.944,2.329-1.518,3.798-1.518s2.81,0.574,3.798,1.518
			c1.064,1.006,1.727,2.431,1.727,4.007C109.311,352.043,106.835,354.519,103.785,354.519z"/>
		<path fill="#595959" d="M86.621,328.288c-0.321,0-0.608-0.167-0.766-0.446c-0.159-0.279-0.155-0.611,0.01-0.886l6.464-15.827
			c0.157-0.264,0.447-0.429,0.756-0.429h19.171c0.485,0,0.88,0.395,0.88,0.88v15.828c0,0.485-0.395,0.88-0.88,0.88H86.621z"/>
		<path fill="#BCBCBC" d="M112.69,311.581v15.825c0,0.241-0.196,0.436-0.436,0.436H86.62c-0.338,0-0.548-0.37-0.374-0.659
			l6.465-15.825c0.08-0.134,0.223-0.214,0.374-0.214h19.169C112.494,311.145,112.69,311.341,112.69,311.581z"/>
		<path fill="#912E00" d="M112.575,331.71h-5.505c-0.283,0-0.513-0.23-0.513-0.513v-0.459c0-0.283,0.23-0.513,0.513-0.513h5.505
			c0.283,0,0.513,0.23,0.513,0.513v0.459C113.087,331.48,112.858,331.71,112.575,331.71z"/>
		<polygon fill="#55BCCA" points="111.491,296.664 124.883,308.026 132.322,314.337 190.689,314.337 188.397,308.275 
			134.542,308.275 134.25,308.026 120.858,296.664 		"/>
		<polyline fill="none" points="89.335,344.986 90.515,344.986 90.803,344.986 94.956,344.986 95.406,344.986 112.151,344.986 
			112.6,344.986 116.76,344.986 117.053,344.986 131.479,344.986 136.07,344.986 152.821,344.986 154.553,344.986 157.43,344.986 
			159.144,344.986 175.895,344.986 180.504,344.986 187.942,344.986 		"/>
		<path fill="#ED4B00" d="M183.267,338.825v6.161h-7.372c-1.75-3.65-5.819-5.975-10.296-5.07c-2.913,0.581-5.244,2.541-6.455,5.07
			h-6.323c-1.75-3.65-5.819-5.975-10.296-5.07c-2.913,0.581-5.244,2.541-6.455,5.07h-18.483v-6.161H183.267z"/>
		<path fill="#9E3200" d="M155.992,341.827c-0.551-0.887-1.199-1.702-1.936-2.439c-0.198-0.198-0.396-0.384-0.605-0.563
			c-2.397-2.128-5.55-3.41-8.996-3.41c-3.452,0-6.599,1.289-8.996,3.41c-1.846,1.63-3.242,3.752-3.98,6.161h4.591
			c1.211-2.529,3.542-4.489,6.455-5.07c4.477-0.905,8.546,1.42,10.296,5.07h4.609C157.088,343.865,156.603,342.804,155.992,341.827z
			"/>
		<circle fill="#B2B2B2" cx="144.455" cy="348.993" r="6.721"/>
		<circle fill="#4D4D4D" cx="144.455" cy="348.993" r="2.908"/>
		<path d="M144.455,340.904c-4.468,0-8.089,3.622-8.089,8.089c0,4.467,3.622,8.089,8.089,8.089c4.467,0,8.089-3.622,8.089-8.089
			C152.544,344.525,148.923,340.904,144.455,340.904z M144.455,354.518c-3.052,0-5.525-2.474-5.525-5.525
			c0-3.052,2.474-5.525,5.525-5.525c3.052,0,5.525,2.474,5.525,5.525C149.98,352.044,147.507,354.518,144.455,354.518z"/>
		<path fill="#9E3200" d="M177.13,339.388c-0.198-0.198-0.396-0.384-0.605-0.563c-2.397-2.128-5.55-3.41-8.996-3.41
			c-3.446,0-6.593,1.289-8.99,3.41c-0.989,0.863-1.846,1.882-2.547,3.003c-0.611,0.977-1.097,2.038-1.438,3.159h4.591
			c1.211-2.529,3.542-4.489,6.455-5.07c4.477-0.905,8.546,1.42,10.296,5.07h4.609C179.845,342.846,178.67,340.928,177.13,339.388z"
			/>
		<circle fill="#B2B2B2" cx="167.529" cy="348.993" r="6.721"/>
		<circle fill="#4D4D4D" cx="167.529" cy="348.993" r="2.908"/>
		<path d="M167.529,340.904c-4.468,0-8.089,3.622-8.089,8.089c0,4.467,3.622,8.089,8.089,8.089c4.467,0,8.089-3.622,8.089-8.089
			C175.618,344.525,171.996,340.904,167.529,340.904z M167.529,354.518c-3.052,0-5.525-2.474-5.525-5.525
			c0-3.052,2.474-5.525,5.525-5.525c3.052,0,5.525,2.474,5.525,5.525C173.054,352.044,170.581,354.518,167.529,354.518z"/>
		<rect x="80.733" y="342.833" fill="#666666" width="8.134" height="3.252"/>
		<rect x="117.588" y="310.057" fill="#666666" width="2.03" height="29.001"/>
		<rect x="180.504" y="344.986" fill="#666666" width="5.19" height="3.191"/>
		<rect x="134.302" y="320.274" fill="#005966" width="2.064" height="9.053"/>
		<rect x="140.515" y="320.274" fill="#005966" width="2.064" height="9.053"/>
		<rect x="146.729" y="320.274" fill="#005966" width="2.064" height="9.053"/>
		<rect x="152.942" y="320.274" fill="#005966" width="2.064" height="9.053"/>
		<rect x="159.155" y="320.274" fill="#005966" width="2.064" height="9.053"/>
		<rect x="165.369" y="320.274" fill="#005966" width="2.064" height="9.053"/>
		<rect x="171.582" y="320.274" fill="#005966" width="2.064" height="9.053"/>
		<rect x="177.795" y="320.274" fill="#005966" width="2.064" height="9.053"/>
		<rect x="183.39" y="340.2" fill="#E5BC1B" width="1.989" height="4.786"/>
	</g>
	<path fill="#424242" d="M550.065,344.333c0,6.627-5.373,12-12,12h-32c-6.627,0-12-5.373-12-12v-72c0-6.627,5.373-12,12-12h32
		c6.627,0,12,5.373,12,12V344.333z"/>
	<rect x="500.065" y="273.333" opacity="0.9" fill="#FFFFFF" width="44" height="70"/>
	
		<line fill="#111111" stroke="#000000" stroke-width="3" stroke-miterlimit="10" x1="507.065" y1="337.833" x2="538.065" y2="337.833"/>
	<rect x="503.065" y="277.333" fill="#111111" width="10" height="10"/>
	<rect x="506.065" y="280.333" fill="#C6420E" width="4" height="4"/>
	<rect x="503.065" y="291.333" fill="#111111" width="10" height="10"/>
	<rect x="506.065" y="294.333" fill="#55BCCA" width="4" height="4"/>
	<rect x="517.065" y="277.333" fill="#111111" width="10" height="10"/>
	<rect x="532.065" y="277.333" fill="#111111" width="10" height="10"/>
	<rect x="535.065" y="280.333" fill="#BFBFBF" width="4" height="4"/>
	<rect x="520.065" y="280.333" fill="#F6DC34" width="4" height="4"/>
</g>
<g id="Слой_6">
</g>
<g id="Lift">
</g>
</svg>
