<?xml version="1.0" encoding="utf-8"?>
<!-- Generator: Adobe Illustrator 17.0.0, SVG Export Plug-In . SVG Version: 6.00 Build 0)  -->
<!DOCTYPE svg PUBLIC "-//W3C//DTD SVG 1.1//EN" "http://www.w3.org/Graphics/SVG/1.1/DTD/svg11.dtd">
<svg version="1.1" id="Слой_1" xmlns="http://www.w3.org/2000/svg" xmlns:xlink="http://www.w3.org/1999/xlink" x="0px" y="0px"
	 width="819.082px" height="1102.821px" viewBox="188.716 0 819.082 1102.821" enable-background="new 188.716 0 819.082 1102.821"
	 xml:space="preserve">
<path fill="#33322D" d="M576.418,457.36v5.445c0,0-0.063-0.067-2.269,0.14l1.135-6.537L576.418,457.36z"/>
<line id="XMLID_122_" fill="none" stroke="#33322D" stroke-width="6.9151" stroke-linejoin="round" stroke-miterlimit="10" x1="580.666" y1="339.76" x2="264.999" y2="339.76"/>
<line id="XMLID_120_" fill="none" stroke="#CC9525" stroke-width="4.1471" stroke-miterlimit="10" x1="984.866" y1="683.138" x2="946.713" y2="721.291"/>
<rect id="XMLID_119_" x="946.713" y="683.137" fill="none" stroke="#EAAD29" stroke-width="6.2206" stroke-miterlimit="10" width="38.153" height="38.153"/>
<line id="XMLID_118_" fill="none" stroke="#EAAD29" stroke-width="4.1471" stroke-miterlimit="10" x1="946.713" y1="683.138" x2="984.866" y2="721.291"/>
<line id="XMLID_117_" fill="none" stroke="#CC9525" stroke-width="4.1471" stroke-miterlimit="10" x1="984.866" y1="644.984" x2="946.713" y2="683.138"/>
<rect id="XMLID_116_" x="946.713" y="644.984" fill="none" stroke="#EAAD29" stroke-width="6.2206" stroke-miterlimit="10" width="38.153" height="38.153"/>
<line id="XMLID_115_" fill="none" stroke="#EAAD29" stroke-width="4.1471" stroke-miterlimit="10" x1="946.713" y1="644.984" x2="984.866" y2="683.138"/>
<line id="XMLID_114_" fill="none" stroke="#CC9525" stroke-width="4.1471" stroke-miterlimit="10" x1="984.866" y1="606.831" x2="946.713" y2="644.984"/>
<rect id="XMLID_113_" x="946.713" y="606.831" fill="none" stroke="#EAAD29" stroke-width="6.2206" stroke-miterlimit="10" width="38.153" height="38.153"/>
<line id="XMLID_112_" fill="none" stroke="#EAAD29" stroke-width="4.1471" stroke-miterlimit="10" x1="946.713" y1="606.831" x2="984.866" y2="644.984"/>
<line id="XMLID_111_" fill="none" stroke="#CC9525" stroke-width="4.1471" stroke-miterlimit="10" x1="984.866" y1="568.678" x2="946.713" y2="606.831"/>
<rect id="XMLID_110_" x="946.713" y="568.678" fill="none" stroke="#EAAD29" stroke-width="6.2206" stroke-miterlimit="10" width="38.153" height="38.153"/>
<line id="XMLID_109_" fill="none" stroke="#EAAD29" stroke-width="4.1471" stroke-miterlimit="10" x1="946.713" y1="568.678" x2="984.866" y2="606.831"/>
<line id="XMLID_108_" fill="none" stroke="#CC9525" stroke-width="4.1471" stroke-miterlimit="10" x1="984.866" y1="530.525" x2="946.713" y2="568.678"/>
<rect id="XMLID_107_" x="946.713" y="530.525" fill="none" stroke="#EAAD29" stroke-width="6.2206" stroke-miterlimit="10" width="38.153" height="38.153"/>
<line id="XMLID_106_" fill="none" stroke="#EAAD29" stroke-width="4.1471" stroke-miterlimit="10" x1="946.713" y1="530.525" x2="984.866" y2="568.678"/>
<line id="XMLID_105_" fill="none" stroke="#CC9525" stroke-width="4.1471" stroke-miterlimit="10" x1="984.866" y1="492.372" x2="946.713" y2="530.525"/>
<rect id="XMLID_104_" x="946.713" y="492.372" fill="none" stroke="#EAAD29" stroke-width="6.2206" stroke-miterlimit="10" width="38.153" height="38.153"/>
<line id="XMLID_103_" fill="none" stroke="#EAAD29" stroke-width="4.1471" stroke-miterlimit="10" x1="946.713" y1="492.372" x2="984.866" y2="530.525"/>
<line id="XMLID_102_" fill="none" stroke="#CC9525" stroke-width="4.1471" stroke-miterlimit="10" x1="984.866" y1="454.219" x2="946.713" y2="492.372"/>
<rect id="XMLID_101_" x="946.713" y="454.219" fill="none" stroke="#EAAD29" stroke-width="6.2206" stroke-miterlimit="10" width="38.153" height="38.153"/>
<line id="XMLID_100_" fill="none" stroke="#EAAD29" stroke-width="4.1471" stroke-miterlimit="10" x1="946.713" y1="454.219" x2="984.866" y2="492.372"/>
<line id="XMLID_99_" fill="none" stroke="#CC9525" stroke-width="4.1471" stroke-miterlimit="10" x1="984.866" y1="416.066" x2="946.713" y2="454.219"/>
<rect id="XMLID_98_" x="946.713" y="416.066" fill="none" stroke="#EAAD29" stroke-width="6.2206" stroke-miterlimit="10" width="38.153" height="38.153"/>
<line id="XMLID_97_" fill="none" stroke="#EAAD29" stroke-width="4.1471" stroke-miterlimit="10" x1="946.713" y1="416.066" x2="984.866" y2="454.219"/>
<line id="XMLID_96_" fill="none" stroke="#CC9525" stroke-width="4.1471" stroke-miterlimit="10" x1="984.866" y1="377.913" x2="946.713" y2="416.066"/>
<rect id="XMLID_95_" x="946.713" y="377.913" fill="none" stroke="#EAAD29" stroke-width="6.2206" stroke-miterlimit="10" width="38.153" height="38.153"/>
<line id="XMLID_94_" fill="none" stroke="#EAAD29" stroke-width="4.1471" stroke-miterlimit="10" x1="946.713" y1="377.913" x2="984.866" y2="416.066"/>
<line id="XMLID_93_" fill="none" stroke="#CC9525" stroke-width="4.1471" stroke-miterlimit="10" x1="984.866" y1="339.76" x2="946.713" y2="377.913"/>
<rect id="XMLID_92_" x="946.713" y="339.76" fill="none" stroke="#EAAD29" stroke-width="6.2206" stroke-miterlimit="10" width="38.153" height="38.153"/>
<line id="XMLID_91_" fill="none" stroke="#EAAD29" stroke-width="4.1471" stroke-miterlimit="10" x1="946.713" y1="339.76" x2="984.866" y2="377.913"/>
<line id="XMLID_90_" fill="none" stroke="#CC9525" stroke-width="4.1471" stroke-miterlimit="10" x1="984.866" y1="1064.668" x2="946.713" y2="1102.821"/>
<rect id="XMLID_89_" x="946.713" y="1064.668" fill="none" stroke="#EAAD29" stroke-width="6.2206" stroke-miterlimit="10" width="38.153" height="38.153"/>
<line id="XMLID_88_" fill="none" stroke="#EAAD29" stroke-width="4.1471" stroke-miterlimit="10" x1="946.713" y1="1064.668" x2="984.866" y2="1102.821"/>
<line id="XMLID_87_" fill="none" stroke="#CC9525" stroke-width="4.1471" stroke-miterlimit="10" x1="984.866" y1="1026.515" x2="946.713" y2="1064.668"/>
<rect id="XMLID_86_" x="946.713" y="1026.515" fill="none" stroke="#EAAD29" stroke-width="6.2206" stroke-miterlimit="10" width="38.153" height="38.153"/>
<line id="XMLID_85_" fill="none" stroke="#EAAD29" stroke-width="4.1471" stroke-miterlimit="10" x1="946.713" y1="1026.515" x2="984.866" y2="1064.668"/>
<line id="XMLID_84_" fill="none" stroke="#CC9525" stroke-width="4.1471" stroke-miterlimit="10" x1="984.866" y1="988.362" x2="946.713" y2="1026.515"/>
<rect id="XMLID_83_" x="946.713" y="988.362" fill="none" stroke="#EAAD29" stroke-width="6.2206" stroke-miterlimit="10" width="38.153" height="38.153"/>
<line id="XMLID_79_" fill="none" stroke="#EAAD29" stroke-width="4.1471" stroke-miterlimit="10" x1="946.713" y1="988.362" x2="984.866" y2="1026.515"/>
<line id="XMLID_75_" fill="none" stroke="#CC9525" stroke-width="4.1471" stroke-miterlimit="10" x1="984.866" y1="950.209" x2="946.713" y2="988.362"/>
<rect id="XMLID_74_" x="946.713" y="950.209" fill="none" stroke="#EAAD29" stroke-width="6.2206" stroke-miterlimit="10" width="38.153" height="38.153"/>
<line id="XMLID_73_" fill="none" stroke="#EAAD29" stroke-width="4.1471" stroke-miterlimit="10" x1="946.713" y1="950.209" x2="984.866" y2="988.362"/>
<line id="XMLID_72_" fill="none" stroke="#CC9525" stroke-width="4.1471" stroke-miterlimit="10" x1="984.866" y1="912.056" x2="946.713" y2="950.209"/>
<rect id="XMLID_71_" x="946.713" y="912.056" fill="none" stroke="#EAAD29" stroke-width="6.2206" stroke-miterlimit="10" width="38.153" height="38.153"/>
<line id="XMLID_67_" fill="none" stroke="#EAAD29" stroke-width="4.1471" stroke-miterlimit="10" x1="946.713" y1="912.056" x2="984.866" y2="950.209"/>
<line id="XMLID_63_" fill="none" stroke="#CC9525" stroke-width="4.1471" stroke-miterlimit="10" x1="984.866" y1="873.903" x2="946.713" y2="912.056"/>
<rect id="XMLID_59_" x="946.713" y="873.903" fill="none" stroke="#EAAD29" stroke-width="6.2206" stroke-miterlimit="10" width="38.153" height="38.153"/>
<line id="XMLID_55_" fill="none" stroke="#EAAD29" stroke-width="4.1471" stroke-miterlimit="10" x1="946.713" y1="873.903" x2="984.866" y2="912.056"/>
<line id="XMLID_51_" fill="none" stroke="#CC9525" stroke-width="4.1471" stroke-miterlimit="10" x1="984.866" y1="835.75" x2="946.713" y2="873.903"/>
<rect id="XMLID_47_" x="946.713" y="835.75" fill="none" stroke="#EAAD29" stroke-width="6.2206" stroke-miterlimit="10" width="38.153" height="38.153"/>
<line id="XMLID_43_" fill="none" stroke="#EAAD29" stroke-width="4.1471" stroke-miterlimit="10" x1="946.713" y1="835.75" x2="984.866" y2="873.903"/>
<line id="XMLID_39_" fill="none" stroke="#CC9525" stroke-width="4.1471" stroke-miterlimit="10" x1="984.866" y1="797.597" x2="946.713" y2="835.75"/>
<rect id="XMLID_38_" x="946.713" y="797.597" fill="none" stroke="#EAAD29" stroke-width="6.2206" stroke-miterlimit="10" width="38.153" height="38.153"/>
<line id="XMLID_37_" fill="none" stroke="#EAAD29" stroke-width="4.1471" stroke-miterlimit="10" x1="946.713" y1="797.597" x2="984.866" y2="835.75"/>
<line id="XMLID_36_" fill="none" stroke="#CC9525" stroke-width="4.1471" stroke-miterlimit="10" x1="984.866" y1="759.444" x2="946.713" y2="797.597"/>
<rect id="XMLID_35_" x="946.713" y="759.444" fill="none" stroke="#EAAD29" stroke-width="6.2206" stroke-miterlimit="10" width="38.153" height="38.153"/>
<line id="XMLID_34_" fill="none" stroke="#EAAD29" stroke-width="4.1471" stroke-miterlimit="10" x1="946.713" y1="759.444" x2="984.866" y2="797.597"/>
<line id="XMLID_33_" fill="none" stroke="#CC9525" stroke-width="4.1471" stroke-miterlimit="10" x1="984.866" y1="721.291" x2="946.713" y2="759.444"/>
<rect id="XMLID_32_" x="946.713" y="721.291" fill="none" stroke="#EAAD29" stroke-width="6.2206" stroke-miterlimit="10" width="38.153" height="38.153"/>
<line id="XMLID_31_" fill="none" stroke="#EAAD29" stroke-width="4.1471" stroke-miterlimit="10" x1="946.713" y1="721.291" x2="984.866" y2="759.444"/>
<line id="XMLID_42_" fill="none" stroke="#CC9525" stroke-width="4.1471" stroke-miterlimit="10" x1="252.042" y1="683.138" x2="213.889" y2="721.291"/>
<rect id="XMLID_41_" x="213.889" y="683.137" fill="none" stroke="#EAAD29" stroke-width="6.2206" stroke-miterlimit="10" width="38.153" height="38.153"/>
<line id="XMLID_40_" fill="none" stroke="#EAAD29" stroke-width="4.1471" stroke-miterlimit="10" x1="213.889" y1="683.138" x2="252.042" y2="721.291"/>
<line id="XMLID_46_" fill="none" stroke="#CC9525" stroke-width="4.1471" stroke-miterlimit="10" x1="252.042" y1="644.984" x2="213.889" y2="683.138"/>
<rect id="XMLID_45_" x="213.889" y="644.984" fill="none" stroke="#EAAD29" stroke-width="6.2206" stroke-miterlimit="10" width="38.153" height="38.153"/>
<line id="XMLID_44_" fill="none" stroke="#EAAD29" stroke-width="4.1471" stroke-miterlimit="10" x1="213.889" y1="644.984" x2="252.042" y2="683.138"/>
<line id="XMLID_58_" fill="none" stroke="#CC9525" stroke-width="4.1471" stroke-miterlimit="10" x1="252.042" y1="606.831" x2="213.889" y2="644.984"/>
<rect id="XMLID_57_" x="213.889" y="606.831" fill="none" stroke="#EAAD29" stroke-width="6.2206" stroke-miterlimit="10" width="38.153" height="38.153"/>
<line id="XMLID_56_" fill="none" stroke="#EAAD29" stroke-width="4.1471" stroke-miterlimit="10" x1="213.889" y1="606.831" x2="252.042" y2="644.984"/>
<line id="XMLID_54_" fill="none" stroke="#CC9525" stroke-width="4.1471" stroke-miterlimit="10" x1="252.042" y1="568.678" x2="213.889" y2="606.831"/>
<rect id="XMLID_53_" x="213.889" y="568.678" fill="none" stroke="#EAAD29" stroke-width="6.2206" stroke-miterlimit="10" width="38.153" height="38.153"/>
<line id="XMLID_52_" fill="none" stroke="#EAAD29" stroke-width="4.1471" stroke-miterlimit="10" x1="213.889" y1="568.678" x2="252.042" y2="606.831"/>
<line id="XMLID_50_" fill="none" stroke="#CC9525" stroke-width="4.1471" stroke-miterlimit="10" x1="252.042" y1="530.525" x2="213.889" y2="568.678"/>
<rect id="XMLID_49_" x="213.889" y="530.525" fill="none" stroke="#EAAD29" stroke-width="6.2206" stroke-miterlimit="10" width="38.153" height="38.153"/>
<line id="XMLID_48_" fill="none" stroke="#EAAD29" stroke-width="4.1471" stroke-miterlimit="10" x1="213.889" y1="530.525" x2="252.042" y2="568.678"/>
<line id="XMLID_70_" fill="none" stroke="#CC9525" stroke-width="4.1471" stroke-miterlimit="10" x1="252.042" y1="492.372" x2="213.889" y2="530.525"/>
<rect id="XMLID_69_" x="213.889" y="492.372" fill="none" stroke="#EAAD29" stroke-width="6.2206" stroke-miterlimit="10" width="38.153" height="38.153"/>
<line id="XMLID_68_" fill="none" stroke="#EAAD29" stroke-width="4.1471" stroke-miterlimit="10" x1="213.889" y1="492.372" x2="252.042" y2="530.525"/>
<line id="XMLID_66_" fill="none" stroke="#CC9525" stroke-width="4.1471" stroke-miterlimit="10" x1="252.042" y1="454.219" x2="213.889" y2="492.372"/>
<rect id="XMLID_65_" x="213.889" y="454.219" fill="none" stroke="#EAAD29" stroke-width="6.2206" stroke-miterlimit="10" width="38.153" height="38.153"/>
<line id="XMLID_64_" fill="none" stroke="#EAAD29" stroke-width="4.1471" stroke-miterlimit="10" x1="213.889" y1="454.219" x2="252.042" y2="492.372"/>
<line id="XMLID_62_" fill="none" stroke="#CC9525" stroke-width="4.1471" stroke-miterlimit="10" x1="252.042" y1="416.066" x2="213.889" y2="454.219"/>
<rect id="XMLID_61_" x="213.889" y="416.066" fill="none" stroke="#EAAD29" stroke-width="6.2206" stroke-miterlimit="10" width="38.153" height="38.153"/>
<line id="XMLID_60_" fill="none" stroke="#EAAD29" stroke-width="4.1471" stroke-miterlimit="10" x1="213.889" y1="416.066" x2="252.042" y2="454.219"/>
<line id="XMLID_82_" fill="none" stroke="#CC9525" stroke-width="4.1471" stroke-miterlimit="10" x1="252.042" y1="377.913" x2="213.889" y2="416.066"/>
<rect id="XMLID_81_" x="213.889" y="377.913" fill="none" stroke="#EAAD29" stroke-width="6.2206" stroke-miterlimit="10" width="38.153" height="38.153"/>
<line id="XMLID_80_" fill="none" stroke="#EAAD29" stroke-width="4.1471" stroke-miterlimit="10" x1="213.889" y1="377.913" x2="252.042" y2="416.066"/>
<line id="XMLID_78_" fill="none" stroke="#CC9525" stroke-width="4.1471" stroke-miterlimit="10" x1="252.042" y1="339.76" x2="213.889" y2="377.913"/>
<rect id="XMLID_77_" x="213.889" y="339.76" fill="none" stroke="#EAAD29" stroke-width="6.2206" stroke-miterlimit="10" width="38.153" height="38.153"/>
<line id="XMLID_76_" fill="none" stroke="#EAAD29" stroke-width="4.1471" stroke-miterlimit="10" x1="213.889" y1="339.76" x2="252.042" y2="377.913"/>
<g>
	<g opacity="0.2">
		<g>
			<g>
				<g>
					<defs>
						<polygon id="SVGID_1_" points="841.587,311.012 833.844,289.293 825.544,289.293 817.801,311.012 815.11,311.012 
							815.11,313.443 844.279,313.443 844.279,311.012 						"/>
					</defs>
					<clipPath id="SVGID_2_">
						<use xlink:href="#SVGID_1_"  overflow="visible"/>
					</clipPath>
					<polygon clip-path="url(#SVGID_2_)" fill="#D25A2C" points="841.587,311.012 833.844,289.293 825.544,289.293 817.801,311.012 
						815.11,311.012 815.11,313.443 844.279,313.443 844.279,311.012 					"/>
				</g>
			</g>
			<g>
				<g>
					<defs>
						<polygon id="SVGID_3_" points="841.587,311.012 833.844,289.293 825.544,289.293 817.801,311.012 815.11,311.012 
							815.11,313.443 844.279,313.443 844.279,311.012 						"/>
					</defs>
					<clipPath id="SVGID_4_">
						<use xlink:href="#SVGID_3_"  overflow="visible"/>
					</clipPath>
					<rect x="815.904" y="286.485" clip-path="url(#SVGID_4_)" fill="#F4F4F4" width="33.375" height="2.553"/>
				</g>
			</g>
			<g>
				<g>
					<defs>
						<polygon id="SVGID_5_" points="841.587,311.012 833.844,289.293 825.544,289.293 817.801,311.012 815.11,311.012 
							815.11,313.443 844.279,313.443 844.279,311.012 						"/>
					</defs>
					<clipPath id="SVGID_6_">
						<use xlink:href="#SVGID_5_"  overflow="visible"/>
					</clipPath>
					<rect x="815.904" y="291.82" clip-path="url(#SVGID_6_)" fill="#F4F4F4" width="33.375" height="2.553"/>
				</g>
			</g>
			<g>
				<g>
					<defs>
						<polygon id="SVGID_7_" points="841.587,311.012 833.844,289.293 825.544,289.293 817.801,311.012 815.11,311.012 
							815.11,313.443 844.279,313.443 844.279,311.012 						"/>
					</defs>
					<clipPath id="SVGID_8_">
						<use xlink:href="#SVGID_7_"  overflow="visible"/>
					</clipPath>
					<rect x="815.904" y="296.927" clip-path="url(#SVGID_8_)" fill="#F4F4F4" width="33.375" height="2.553"/>
				</g>
			</g>
			<g>
				<g>
					<defs>
						<polygon id="SVGID_9_" points="841.587,311.012 833.844,289.293 825.544,289.293 817.801,311.012 815.11,311.012 
							815.11,313.443 844.279,313.443 844.279,311.012 						"/>
					</defs>
					<clipPath id="SVGID_10_">
						<use xlink:href="#SVGID_9_"  overflow="visible"/>
					</clipPath>
					<rect x="815.904" y="302.033" clip-path="url(#SVGID_10_)" fill="#F4F4F4" width="33.375" height="2.553"/>
				</g>
			</g>
			<g>
				<g>
					<defs>
						<polygon id="SVGID_11_" points="841.587,311.012 833.844,289.293 825.544,289.293 817.801,311.012 815.11,311.012 
							815.11,313.443 844.279,313.443 844.279,311.012 						"/>
					</defs>
					<clipPath id="SVGID_12_">
						<use xlink:href="#SVGID_11_"  overflow="visible"/>
					</clipPath>
					<rect x="815.904" y="307.141" clip-path="url(#SVGID_12_)" fill="#F4F4F4" width="33.375" height="2.553"/>
				</g>
			</g>
		</g>
		<polygon fill="#E4E4E4" points="844.279,311.012 841.587,311.012 833.844,289.293 829.694,289.293 829.694,313.443 
			844.279,313.443 		"/>
	</g>
	<g opacity="0.2">
		<g>
			<g>
				<g>
					<defs>
						<polygon id="SVGID_13_" points="798.939,316.355 793.473,301.023 787.613,301.023 782.148,316.355 780.247,316.355 
							780.247,318.07 800.839,318.07 800.839,316.355 						"/>
					</defs>
					<clipPath id="SVGID_14_">
						<use xlink:href="#SVGID_13_"  overflow="visible"/>
					</clipPath>
					<polygon clip-path="url(#SVGID_14_)" fill="#D25A2C" points="798.939,316.355 793.473,301.023 787.613,301.023 
						782.148,316.355 780.247,316.355 780.247,318.07 800.839,318.07 800.839,316.355 					"/>
				</g>
			</g>
			<g>
				<g>
					<defs>
						<polygon id="SVGID_15_" points="798.939,316.355 793.473,301.023 787.613,301.023 782.148,316.355 780.247,316.355 
							780.247,318.07 800.839,318.07 800.839,316.355 						"/>
					</defs>
					<clipPath id="SVGID_16_">
						<use xlink:href="#SVGID_15_"  overflow="visible"/>
					</clipPath>
					<rect x="780.807" y="299.04" clip-path="url(#SVGID_16_)" fill="#F4F4F4" width="23.56" height="1.803"/>
				</g>
			</g>
			<g>
				<g>
					<defs>
						<polygon id="SVGID_17_" points="798.939,316.355 793.473,301.023 787.613,301.023 782.148,316.355 780.247,316.355 
							780.247,318.07 800.839,318.07 800.839,316.355 						"/>
					</defs>
					<clipPath id="SVGID_18_">
						<use xlink:href="#SVGID_17_"  overflow="visible"/>
					</clipPath>
					<rect x="780.807" y="302.806" clip-path="url(#SVGID_18_)" fill="#F4F4F4" width="23.56" height="1.803"/>
				</g>
			</g>
			<g>
				<g>
					<defs>
						<polygon id="SVGID_19_" points="798.939,316.355 793.473,301.023 787.613,301.023 782.148,316.355 780.247,316.355 
							780.247,318.07 800.839,318.07 800.839,316.355 						"/>
					</defs>
					<clipPath id="SVGID_20_">
						<use xlink:href="#SVGID_19_"  overflow="visible"/>
					</clipPath>
					<rect x="780.807" y="306.411" clip-path="url(#SVGID_20_)" fill="#F4F4F4" width="23.56" height="1.803"/>
				</g>
			</g>
			<g>
				<g>
					<defs>
						<polygon id="SVGID_21_" points="798.939,316.355 793.473,301.023 787.613,301.023 782.148,316.355 780.247,316.355 
							780.247,318.07 800.839,318.07 800.839,316.355 						"/>
					</defs>
					<clipPath id="SVGID_22_">
						<use xlink:href="#SVGID_21_"  overflow="visible"/>
					</clipPath>
					<rect x="780.807" y="310.016" clip-path="url(#SVGID_22_)" fill="#F4F4F4" width="23.56" height="1.803"/>
				</g>
			</g>
			<g>
				<g>
					<defs>
						<polygon id="SVGID_23_" points="798.939,316.355 793.473,301.023 787.613,301.023 782.148,316.355 780.247,316.355 
							780.247,318.07 800.839,318.07 800.839,316.355 						"/>
					</defs>
					<clipPath id="SVGID_24_">
						<use xlink:href="#SVGID_23_"  overflow="visible"/>
					</clipPath>
					<rect x="780.807" y="313.622" clip-path="url(#SVGID_24_)" fill="#F4F4F4" width="23.56" height="1.803"/>
				</g>
			</g>
		</g>
		<polygon fill="#E4E4E4" points="800.839,316.355 798.939,316.355 793.473,301.023 790.544,301.023 790.544,318.07 800.839,318.07 
					"/>
	</g>
	<g opacity="0.2">
		<polygon fill="#435559" points="555.492,126.141 555.492,173.869 652.446,173.869 652.446,230.923 838.707,230.923 
			838.707,315.301 462.129,315.301 462.129,258.248 462.129,230.923 462.129,210.52 462.129,173.869 462.129,126.141 		"/>
		<rect x="466.847" y="23.213" fill="#7C9BA3" width="2.868" height="22.367"/>
		<rect x="457.172" y="38.965" fill="#7C9BA3" width="18.025" height="280.999"/>
		<rect x="470.241" y="38.965" fill="#326978" width="4.956" height="280.999"/>
		<rect x="550.536" y="38.965" fill="#7C9BA3" width="18.025" height="280.999"/>
		<rect x="563.604" y="38.965" fill="#326978" width="4.957" height="280.999"/>
		<rect x="643.393" y="38.965" fill="#7C9BA3" width="18.025" height="280.999"/>
		<rect x="656.462" y="38.965" fill="#326978" width="4.957" height="280.999"/>
		<rect x="735.704" y="167.703" fill="#7C9BA3" width="18.025" height="152.26"/>
		<rect x="748.773" y="167.703" fill="#326978" width="4.957" height="152.26"/>
		<rect x="829.694" y="167.703" fill="#7C9BA3" width="18.025" height="152.26"/>
		<rect x="842.763" y="167.703" fill="#326978" width="4.957" height="152.26"/>
		<rect x="457.172" y="167.703" fill="#7C9BA3" width="390.548" height="19.321"/>
		<rect x="457.172" y="167.703" fill="#9BC2CC" width="390.548" height="5.29"/>
		<rect x="457.172" y="216.006" fill="#9BC2CC" width="390.548" height="4.714"/>
		<rect x="457.172" y="118.56" fill="#7C9BA3" width="204.246" height="19.321"/>
		<rect x="457.172" y="118.56" fill="#9BC2CC" width="204.246" height="5.29"/>
		<rect x="457.172" y="69.588" fill="#7C9BA3" width="111.388" height="19.321"/>
		<rect x="457.172" y="69.588" fill="#9BC2CC" width="111.388" height="5.29"/>
		<polygon fill="#7C9BA3" points="441.218,250.449 863.674,250.449 863.674,225.436 858.013,220.721 446.879,220.721 
			441.218,225.436 		"/>
		<rect x="461.826" y="27.939" fill="#7C9BA3" width="2.868" height="22.367"/>
		<rect x="656.133" y="26.993" fill="#7C9BA3" width="2.868" height="22.367"/>
		<rect x="649.988" y="27.939" fill="#7C9BA3" width="2.868" height="22.367"/>
	</g>
</g>
<path fill="#BD6A4B" d="M687.194,313.496h-27.998c-1.329,0-2.406-1.078-2.406-2.406v-13.475c0-1.329,1.078-2.406,2.406-2.406h27.998
	c1.329,0,2.406,1.078,2.406,2.406v13.475C689.599,312.419,688.523,313.496,687.194,313.496z"/>
<path fill="#97543C" d="M689.6,297.613v13.478c0,1.328-1.077,2.406-2.406,2.406h-28c-1.032,0-1.909-0.648-2.251-1.561
	c0.265,0.106,0.551,0.161,0.854,0.161h27.996c1.328,0,2.406-1.077,2.406-2.406v-13.474c0-0.3-0.055-0.587-0.158-0.852
	C688.952,295.705,689.6,296.585,689.6,297.613z"/>
<path fill="#97543C" d="M664.823,308.759h-3.139c-0.528,0-0.956-0.428-0.956-0.956v-8.835c0-0.528,0.428-0.956,0.956-0.956h3.139
	c0.528,0,0.956,0.428,0.956,0.956v8.835C665.779,308.331,665.351,308.759,664.823,308.759z"/>
<path fill="#97543C" d="M674.119,308.759h-3.139c-0.528,0-0.956-0.428-0.956-0.956v-8.835c0-0.528,0.428-0.956,0.956-0.956h3.139
	c0.528,0,0.956,0.428,0.956,0.956v8.835C675.076,308.331,674.647,308.759,674.119,308.759z"/>
<path fill="#97543C" d="M683.415,308.759h-3.139c-0.528,0-0.956-0.428-0.956-0.956v-8.835c0-0.528,0.428-0.956,0.956-0.956h3.139
	c0.528,0,0.956,0.428,0.956,0.956v8.835C684.372,308.331,683.944,308.759,683.415,308.759z"/>
<polygon fill="#B8B4BA" stroke="#020202" stroke-width="1.7578" stroke-miterlimit="10" points="562.848,272.135 550.952,272.135 
	539.057,272.135 534.893,302.017 550.952,302.017 567.606,302.017 "/>
<rect x="492.702" y="298.501" fill="#B8B4BA" stroke="#020202" stroke-width="1.7578" stroke-miterlimit="10" width="115.134" height="17.578"/>
<path fill="#020202" d="M645.628,265.013c0,5.214-4.169,9.758-9.424,9.758H465.701c-5.256,0-9.913-4.544-9.913-9.758v-132.18
	c0-5.214,4.657-8.351,9.913-8.351h170.502c5.256,0,9.424,3.138,9.424,8.351V265.013z"/>
<rect x="461.941" y="131.513" fill="#FFFFFF" width="177.535" height="119.528"/>
<path fill="#F78F8F" d="M512.916,86.91c0,0,15.545,6.921,16.863,11.645c1.318,4.724-4.907,9.475-12.378,16.726
	c-6.382,6.194,6.926,19.797,13.315,25.793l-3.867,2.011c0,0-25.525-22.253-9.155-32.995c16.37-10.742-0.219-18.347-4.779-17.907
	C508.356,92.622,512.916,86.91,512.916,86.91z"/>
<rect x="470.729" y="198.308" fill="#898989" width="72.069" height="34.277"/>
<rect x="594.652" y="214.128" fill="#898989" width="36.034" height="33.398"/>
<rect x="594.652" y="173.699" fill="#898989" width="36.034" height="33.398"/>
<line fill="none" stroke="#020202" stroke-width="0.8789" stroke-miterlimit="10" x1="470.729" y1="236.54" x2="575.317" y2="236.54"/>
<line fill="none" stroke="#020202" stroke-width="0.793" stroke-miterlimit="10" x1="470.856" y1="241.038" x2="569.986" y2="241.038"/>
<line fill="none" stroke="#020202" stroke-width="0.793" stroke-miterlimit="10" x1="470.856" y1="245.103" x2="569.986" y2="245.103"/>
<rect x="461.062" y="143.817" opacity="0.2" fill="#020202" enable-background="new    " width="177.535" height="18.457"/>
<circle fill="none" stroke="#F2754E" stroke-width="1.586" stroke-miterlimit="10" cx="550.952" cy="263.342" r="6.345"/>
<rect x="322.198" y="55.05" fill="#4C4C4C" width="29.882" height="22.851"/>
<rect x="340.654" y="55.05" fill="#999999" width="5.273" height="22.851"/>
<rect x="329.229" y="55.05" fill="#999999" width="5.273" height="22.851"/>
<rect x="502.369" y="55.05" fill="#EEC60F" width="20.214" height="7.91"/>
<polygon fill="#DEDBDA" points="460.419,38 384.481,9.082 385.691,6.041 461.629,34.959 "/>
<polygon fill="#DEDBDA" points="344.773,35.427 374.944,7.305 377.133,9.738 347.593,37.925 "/>
<rect x="370.097" y="238.298" fill="none" stroke="#EAAD29" stroke-width="4.3944" stroke-miterlimit="10" width="18.457" height="17.578"/>
<rect x="370.097" y="201.384" fill="none" stroke="#EAAD29" stroke-width="4.3944" stroke-miterlimit="10" width="18.457" height="18.457"/>
<rect x="370.097" y="165.35" fill="none" stroke="#EAAD29" stroke-width="4.3944" stroke-miterlimit="10" width="18.457" height="18.457"/>
<rect x="370.097" y="128.437" fill="none" stroke="#EAAD29" stroke-width="4.3944" stroke-miterlimit="10" width="18.457" height="18.457"/>
<rect x="370.097" y="91.524" fill="none" stroke="#EAAD29" stroke-width="4.3944" stroke-miterlimit="10" width="18.457" height="18.457"/>
<rect x="370.097" y="54.61" fill="none" stroke="#EAAD29" stroke-width="4.3944" stroke-miterlimit="10" width="18.457" height="18.457"/>
<rect x="370.097" y="54.611" fill="none" stroke="#EAAD29" stroke-width="4.3944" stroke-miterlimit="10" width="18.457" height="218.842"/>
<polygon fill="#EAAD29" points="369.658,250.409 350.279,272.135 356.006,272.135 369.658,256.408 "/>
<polygon fill="#EAAD29" points="388.993,250.409 410.005,272.135 404.278,272.135 388.993,256.408 "/>
<path fill="none" stroke="#EAAD29" stroke-width="4.3944" stroke-miterlimit="10" d="M513.727,37.033h-83.43h-83
	c-28.478,13.183-38.604,17.578-30.335,17.578h113.335h113.765C552.331,54.611,542.205,50.216,513.727,37.033z"/>
<rect x="347.246" y="37.033" fill="none" stroke="#EAAD29" stroke-width="4.3944" stroke-miterlimit="10" width="18.457" height="17.578"/>
<rect x="383.28" y="37.033" fill="none" stroke="#EAAD29" stroke-width="4.3944" stroke-miterlimit="10" width="18.457" height="17.578"/>
<rect x="418.436" y="37.033" fill="none" stroke="#EAAD29" stroke-width="4.3944" stroke-miterlimit="10" width="18.457" height="17.578"/>
<rect x="454.47" y="37.033" fill="none" stroke="#EAAD29" stroke-width="4.3944" stroke-miterlimit="10" width="18.457" height="17.578"/>
<rect x="489.625" y="37.033" fill="none" stroke="#EAAD29" stroke-width="4.3944" stroke-miterlimit="10" width="18.457" height="17.578"/>
<circle fill="#F6DC34" cx="380.644" cy="6.125" r="5.86"/>
<polygon fill="#EAAD29" points="371.142,34.823 377.049,9.645 380.96,11.335 376.051,35.505 "/>
<polygon fill="#EAAD29" points="390.778,35.505 385.127,9.645 381.216,11.335 385.997,35.505 "/>
<rect x="510.279" y="62.96" fill="#898989" width="4.394" height="34.277"/>
<rect x="379.325" y="55.05" fill="#EAAD29" width="23.73" height="32.519"/>
<rect x="391.63" y="60.323" fill="#E0DEDA" width="9.668" height="14.062"/>
<rect x="314.876" y="296.75" fill="#E5BC1B" width="1.761" height="4.827"/>
<polygon fill="#00A3BB" points="411.397,285.075 409.414,299.164 350.535,299.164 350.535,285.075 "/>
<rect x="321.242" y="298.055" fill="#333333" width="83.747" height="8.218"/>
<polygon fill="#00A3BB" points="350.535,262.993 350.535,285.074 411.397,285.074 411.514,276.533 409.499,271.204 362.167,271.204 
	361.911,270.986 "/>
<path fill="#E5BC1B" d="M341.31,303.469h-12.351c1.221-2.144,3.53-3.588,6.175-3.588C337.78,299.88,340.089,301.324,341.31,303.469z
	"/>
<polygon fill="#333333" points="317.169,303.185 319.666,306.273 321.242,306.273 323.199,301.674 "/>
<path fill="#ED4B00" d="M347.267,272.771v30.698h-4.779c-1.538-3.209-5.115-5.252-9.052-4.458c-2.556,0.512-4.61,2.235-5.666,4.458
	h-9.781c-0.747,0-1.353-0.606-1.353-1.353v-14.102c0-0.514,0.142-1.019,0.412-1.457l6.411-14.72c0.324-0.528,0.9-0.85,1.52-0.85
	h20.504C346.468,270.988,347.267,271.786,347.267,272.771z"/>
<path fill="#9E3200" d="M345.701,301.441c-0.563-1.07-1.285-2.043-2.128-2.886c-2.159-2.159-5.141-3.498-8.438-3.498
	c-5.367,0-9.902,3.539-11.409,8.412h4.046c1.054-2.223,3.108-3.945,5.668-4.456c3.935-0.795,7.511,1.248,9.049,4.456h4.051
	C346.322,302.763,346.038,302.083,345.701,301.441z"/>
<circle fill="#B2B2B2" cx="335.135" cy="306.99" r="5.907"/>
<circle fill="#4D4D4D" cx="336.014" cy="306.99" r="2.556"/>
<path d="M341.31,303.469c-1.221-2.144-3.53-3.588-6.175-3.588s-4.954,1.444-6.175,3.588c-0.599,1.037-0.935,2.239-0.935,3.522
	c0,3.925,3.185,7.111,7.11,7.111s7.111-3.186,7.111-7.111C342.246,305.707,341.909,304.506,341.31,303.469z M335.135,311.847
	c-2.681,0-4.857-2.176-4.857-4.857c0-1.385,0.583-2.638,1.519-3.522c0.868-0.83,2.047-1.334,3.338-1.334s2.47,0.504,3.338,1.334
	c0.935,0.884,1.518,2.137,1.518,3.522C339.992,309.672,337.816,311.847,335.135,311.847z"/>
<path fill="#595959" d="M320.05,288.793c-0.282,0-0.534-0.147-0.673-0.392c-0.14-0.245-0.136-0.537,0.009-0.779l5.681-13.91
	c0.138-0.232,0.393-0.377,0.664-0.377h16.849c0.426,0,0.773,0.347,0.773,0.773v13.911c0,0.426-0.347,0.773-0.773,0.773H320.05
	L320.05,288.793z"/>
<path fill="#BCBCBC" d="M342.962,274.11v13.908c0,0.212-0.172,0.383-0.383,0.383H320.05c-0.297,0-0.482-0.325-0.329-0.579
	l5.682-13.908c0.07-0.118,0.196-0.188,0.329-0.188h16.847C342.79,273.727,342.962,273.899,342.962,274.11z"/>
<path fill="#912E00" d="M342.86,291.801h-4.838c-0.249,0-0.451-0.202-0.451-0.451v-0.403c0-0.249,0.202-0.451,0.451-0.451h4.838
	c0.249,0,0.451,0.202,0.451,0.451v0.403C343.311,291.599,343.109,291.801,342.86,291.801z"/>
<polygon fill="#55BCCA" points="341.908,261 353.679,270.986 360.217,276.533 411.514,276.533 409.499,271.204 362.167,271.204 
	361.911,270.986 350.14,261 "/>
<polyline fill="none" points="322.435,303.469 323.473,303.469 323.725,303.469 327.376,303.469 327.771,303.469 342.488,303.469 
	342.883,303.469 346.539,303.469 346.797,303.469 359.476,303.469 363.51,303.469 378.232,303.469 379.754,303.469 382.283,303.469 
	383.789,303.469 398.511,303.469 402.562,303.469 409.099,303.469 "/>
<path fill="#ED4B00" d="M404.991,298.054v5.415h-6.479c-1.538-3.208-5.114-5.251-9.049-4.456c-2.56,0.511-4.609,2.233-5.673,4.456
	h-5.557c-1.538-3.208-5.114-5.251-9.049-4.456c-2.56,0.511-4.609,2.233-5.673,4.456h-16.244v-5.415H404.991z"/>
<path fill="#9E3200" d="M381.019,300.693c-0.484-0.78-1.054-1.496-1.702-2.144c-0.174-0.174-0.348-0.337-0.532-0.495
	c-2.107-1.87-4.878-2.997-7.906-2.997c-3.034,0-5.8,1.133-7.906,2.997c-1.622,1.433-2.849,3.298-3.498,5.415h4.035
	c1.064-2.223,3.113-3.945,5.673-4.456c3.935-0.795,7.511,1.248,9.049,4.456h4.051C381.983,302.484,381.556,301.552,381.019,300.693z
	"/>
<circle fill="#B2B2B2" cx="370.88" cy="306.99" r="5.907"/>
<circle fill="#4D4D4D" cx="371.759" cy="306.99" r="2.556"/>
<path d="M370.88,299.881c-3.926,0-7.109,3.183-7.109,7.109c0,3.926,3.182,7.109,7.109,7.109c3.926,0,7.109-3.183,7.109-7.109
	C377.99,303.064,374.806,299.881,370.88,299.881z M370.88,311.847c-2.682,0-4.856-2.174-4.856-4.856
	c0-2.682,2.174-4.856,4.856-4.856c2.682,0,4.856,2.174,4.856,4.856S373.562,311.847,370.88,311.847z"/>
<path fill="#9E3200" d="M399.597,298.549c-0.174-0.174-0.348-0.337-0.532-0.495c-2.107-1.87-4.878-2.997-7.906-2.997
	s-5.794,1.133-7.901,2.997c-0.869,0.758-1.622,1.654-2.238,2.639c-0.537,0.859-0.964,1.791-1.264,2.776h4.035
	c1.064-2.223,3.113-3.945,5.673-4.456c3.935-0.795,7.511,1.248,9.049,4.456h4.051C401.983,301.589,400.95,299.903,399.597,298.549z"
	/>
<circle fill="#B2B2B2" cx="391.159" cy="306.99" r="5.907"/>
<circle fill="#4D4D4D" cx="392.038" cy="306.99" r="2.556"/>
<path d="M391.159,299.881c-3.926,0-7.109,3.183-7.109,7.109c0,3.926,3.183,7.109,7.109,7.109c3.926,0,7.109-3.183,7.109-7.109
	C398.269,303.064,395.086,299.881,391.159,299.881z M391.159,311.847c-2.682,0-4.856-2.174-4.856-4.856
	c0-2.682,2.174-4.856,4.856-4.856c2.682,0,4.856,2.174,4.856,4.856C396.015,309.673,393.841,311.847,391.159,311.847z"/>
<rect x="314.876" y="301.577" fill="#666666" width="7.149" height="2.858"/>
<rect x="347.267" y="272.771" fill="#666666" width="1.784" height="25.489"/>
<rect x="402.562" y="303.469" fill="#666666" width="4.561" height="2.805"/>
<rect x="361.956" y="281.75" fill="#005966" width="1.814" height="7.957"/>
<rect x="367.417" y="281.75" fill="#005966" width="1.814" height="7.957"/>
<rect x="372.878" y="281.75" fill="#005966" width="1.814" height="7.957"/>
<rect x="378.338" y="281.75" fill="#005966" width="1.814" height="7.957"/>
<rect x="383.8" y="281.75" fill="#005966" width="1.814" height="7.957"/>
<rect x="389.26" y="281.75" fill="#005966" width="1.814" height="7.957"/>
<rect x="394.721" y="281.75" fill="#005966" width="1.814" height="7.957"/>
<rect x="400.182" y="281.75" fill="#005966" width="1.814" height="7.957"/>
<rect x="405.099" y="299.263" fill="#E5BC1B" width="1.748" height="4.206"/>
<path fill="#424242" d="M727.364,302.896c0,5.824-4.722,10.547-10.547,10.547h-28.124c-5.824,0-10.547-4.722-10.547-10.547v-63.28
	c0-5.824,4.722-10.547,10.547-10.547h28.124c5.824,0,10.547,4.722,10.547,10.547V302.896z"/>
<rect x="683.42" y="240.495" opacity="0.9" fill="#FFFFFF" enable-background="new    " width="38.671" height="61.522"/>
<line fill="none" stroke="#000000" stroke-width="2.6367" stroke-miterlimit="10" x1="689.572" y1="297.183" x2="716.817" y2="297.183"/>
<rect x="686.056" y="244.01" fill="#111111" width="8.789" height="8.789"/>
<rect x="688.693" y="246.647" fill="#C6420E" width="3.516" height="3.516"/>
<rect x="686.056" y="256.315" fill="#111111" width="8.789" height="8.789"/>
<rect x="688.693" y="258.951" fill="#55BCCA" width="3.516" height="3.516"/>
<rect x="698.361" y="244.01" fill="#111111" width="8.789" height="8.789"/>
<rect x="711.544" y="244.01" fill="#111111" width="8.789" height="8.789"/>
<rect x="714.181" y="246.647" fill="#BFBFBF" width="3.516" height="3.516"/>
<rect x="700.997" y="246.647" fill="#F6DC34" width="3.516" height="3.516"/>
<path fill="#F78F8F" d="M514.674,69.771c0,0-3.754,1.501-4.743,1.648c-0.989,0.146-0.055,2.087,0.146,3.186
	c0.202,1.099,4.596-0.916,4.596-0.806s-0.019-3.882-0.019-3.882"/>
<path fill="#F78F8F" d="M514.674,74.934c0,0-3.754,1.501-4.743,1.648c-0.989,0.146-0.055,2.087,0.146,3.186s4.596-0.916,4.596-0.806
	c0,0.11-0.019-3.882-0.019-3.882"/>
<path fill="#F78F8F" d="M514.674,80.098c0,0-3.754,1.501-4.743,1.648c-0.989,0.146-0.055,2.087,0.146,3.186
	c0.202,1.099,4.596-0.916,4.596-0.806c0,0.11-0.019-3.882-0.019-3.882"/>
<path fill="#F78F8F" d="M514.674,85.261c0,0-3.754,1.501-4.743,1.648c-0.989,0.146-0.055,2.087,0.146,3.186
	c0.202,1.099,4.596-0.916,4.596-0.806c0,0.11-0.019-3.882-0.019-3.882"/>
<rect x="485.671" y="91.084" fill="#898989" width="54.491" height="6.152"/>
<g>
	
		<rect x="524.553" y="140.056" transform="matrix(-0.749 0.6626 -0.6626 -0.749 1018.2324 -102.618)" fill="#BCCCD7" width="8.005" height="3.046"/>
	
		<rect x="533.266" y="148.45" transform="matrix(-0.749 0.6626 -0.6626 -0.749 1035.5935 -93.4841)" fill="#BCCCD7" width="4.48" height="1.967"/>
	<polygon fill="#9BA7B0" points="527.43,144.608 533.911,149.532 535.797,147.863 531.699,140.83 	"/>
	<polygon fill="#848F96" points="533.033,148.865 533.911,149.532 535.797,147.863 535.242,146.911 	"/>
</g>
<path fill="#FF0068" d="M535.175,151.041c0,0,4.052,3.47,2.661,11.233h37.28c0,0-35.042-7.718-37.845-13.087L535.175,151.041z"/>
<path fill="#FF0068" d="M537.821,162.274l0.014,6.921c0,0,0.128,1.977,2.197,1.977c2.27,0,2.234-1.943,2.234-1.943v-6.955H537.821z"
	/>
<path fill="#FF0068" d="M541.939,150.064c2.131-0.394,5.151-1.432,3.673-3.154C544.134,145.189,542.651,148.017,541.939,150.064z"/>
<path fill="#FF0068" d="M555.396,191.277c-1.74,2.892-3.648,7.484-0.115,7.538S557.047,194.221,555.396,191.277z"/>
<path fill="#FF0068" d="M550.315,152.34c2.011-1.653,5.3-3.624,5.738-0.935C556.491,154.094,552.747,153.269,550.315,152.34z"/>
<path fill="#FF0068" d="M540.692,163.885c0,0,7.471,8.935,13.33,9.814s6.592-6.189,7.324-6.976s2.197,0.314,3.955,2.107
	c1.758,1.793,2.051-3.48,3.076-3.773c1.025-0.293,2.197-2.344,4.394-2.197c2.197,0.146,2.344-0.586,2.344-0.586h-34.423V163.885z"/>
<line id="XMLID_30_" fill="none" stroke="#CC9525" stroke-width="4.1471" stroke-miterlimit="10" x1="252.042" y1="1064.668" x2="213.889" y2="1102.821"/>
<rect id="XMLID_29_" x="213.889" y="1064.668" fill="none" stroke="#EAAD29" stroke-width="6.2206" stroke-miterlimit="10" width="38.153" height="38.153"/>
<line id="XMLID_28_" fill="none" stroke="#EAAD29" stroke-width="4.1471" stroke-miterlimit="10" x1="213.889" y1="1064.668" x2="252.042" y2="1102.821"/>
<line id="XMLID_27_" fill="none" stroke="#CC9525" stroke-width="4.1471" stroke-miterlimit="10" x1="252.042" y1="1026.515" x2="213.889" y2="1064.668"/>
<rect id="XMLID_26_" x="213.889" y="1026.515" fill="none" stroke="#EAAD29" stroke-width="6.2206" stroke-miterlimit="10" width="38.153" height="38.153"/>
<line id="XMLID_25_" fill="none" stroke="#EAAD29" stroke-width="4.1471" stroke-miterlimit="10" x1="213.889" y1="1026.515" x2="252.042" y2="1064.668"/>
<line id="XMLID_24_" fill="none" stroke="#CC9525" stroke-width="4.1471" stroke-miterlimit="10" x1="252.042" y1="988.362" x2="213.889" y2="1026.515"/>
<rect id="XMLID_23_" x="213.889" y="988.362" fill="none" stroke="#EAAD29" stroke-width="6.2206" stroke-miterlimit="10" width="38.153" height="38.153"/>
<line id="XMLID_22_" fill="none" stroke="#EAAD29" stroke-width="4.1471" stroke-miterlimit="10" x1="213.889" y1="988.362" x2="252.042" y2="1026.515"/>
<line id="XMLID_21_" fill="none" stroke="#CC9525" stroke-width="4.1471" stroke-miterlimit="10" x1="252.042" y1="950.209" x2="213.889" y2="988.362"/>
<rect id="XMLID_20_" x="213.889" y="950.209" fill="none" stroke="#EAAD29" stroke-width="6.2206" stroke-miterlimit="10" width="38.153" height="38.153"/>
<line id="XMLID_19_" fill="none" stroke="#EAAD29" stroke-width="4.1471" stroke-miterlimit="10" x1="213.889" y1="950.209" x2="252.042" y2="988.362"/>
<line id="XMLID_18_" fill="none" stroke="#CC9525" stroke-width="4.1471" stroke-miterlimit="10" x1="252.042" y1="912.056" x2="213.889" y2="950.209"/>
<rect id="XMLID_17_" x="213.889" y="912.056" fill="none" stroke="#EAAD29" stroke-width="6.2206" stroke-miterlimit="10" width="38.153" height="38.153"/>
<line id="XMLID_16_" fill="none" stroke="#EAAD29" stroke-width="4.1471" stroke-miterlimit="10" x1="213.889" y1="912.056" x2="252.042" y2="950.209"/>
<line id="XMLID_15_" fill="none" stroke="#CC9525" stroke-width="4.1471" stroke-miterlimit="10" x1="252.042" y1="873.903" x2="213.889" y2="912.056"/>
<rect id="XMLID_14_" x="213.889" y="873.903" fill="none" stroke="#EAAD29" stroke-width="6.2206" stroke-miterlimit="10" width="38.153" height="38.153"/>
<line id="XMLID_13_" fill="none" stroke="#EAAD29" stroke-width="4.1471" stroke-miterlimit="10" x1="213.889" y1="873.903" x2="252.042" y2="912.056"/>
<line id="XMLID_12_" fill="none" stroke="#CC9525" stroke-width="4.1471" stroke-miterlimit="10" x1="252.042" y1="835.75" x2="213.889" y2="873.903"/>
<rect id="XMLID_11_" x="213.889" y="835.75" fill="none" stroke="#EAAD29" stroke-width="6.2206" stroke-miterlimit="10" width="38.153" height="38.153"/>
<line id="XMLID_10_" fill="none" stroke="#EAAD29" stroke-width="4.1471" stroke-miterlimit="10" x1="213.889" y1="835.75" x2="252.042" y2="873.903"/>
<line id="XMLID_9_" fill="none" stroke="#CC9525" stroke-width="4.1471" stroke-miterlimit="10" x1="252.042" y1="797.597" x2="213.889" y2="835.75"/>
<rect id="XMLID_8_" x="213.889" y="797.597" fill="none" stroke="#EAAD29" stroke-width="6.2206" stroke-miterlimit="10" width="38.153" height="38.153"/>
<line id="XMLID_7_" fill="none" stroke="#EAAD29" stroke-width="4.1471" stroke-miterlimit="10" x1="213.889" y1="797.597" x2="252.042" y2="835.75"/>
<line id="XMLID_6_" fill="none" stroke="#CC9525" stroke-width="4.1471" stroke-miterlimit="10" x1="252.042" y1="759.444" x2="213.889" y2="797.597"/>
<rect id="XMLID_5_" x="213.889" y="759.444" fill="none" stroke="#EAAD29" stroke-width="6.2206" stroke-miterlimit="10" width="38.153" height="38.153"/>
<line id="XMLID_4_" fill="none" stroke="#EAAD29" stroke-width="4.1471" stroke-miterlimit="10" x1="213.889" y1="759.444" x2="252.042" y2="797.597"/>
<line id="XMLID_3_" fill="none" stroke="#CC9525" stroke-width="4.1471" stroke-miterlimit="10" x1="252.042" y1="721.291" x2="213.889" y2="759.444"/>
<rect id="XMLID_2_" x="213.889" y="721.291" fill="none" stroke="#EAAD29" stroke-width="6.2206" stroke-miterlimit="10" width="38.153" height="38.153"/>
<line id="XMLID_1_" fill="none" stroke="#EAAD29" stroke-width="4.1471" stroke-miterlimit="10" x1="213.889" y1="721.291" x2="252.042" y2="759.444"/>
<path fill="#0B97F7" d="M509.967,531.605l-0.397,36.101l36.096,0.394l0.394-36.096c0.201-18.49,15.406-33.36,33.891-33.162
	c18.485,0.198,33.357,15.411,33.159,33.896l-0.397,36.101l36.096,0.394l0.4-36.106c0.422-38.388-30.473-69.965-68.857-70.392
	C541.962,462.328,510.388,493.217,509.967,531.605z"/>
<polygon fill="#F78F8F" points="545.612,573.263 509.516,572.869 509.283,593.496 525.935,593.683 542.815,593.868 545.384,593.894 
	"/>
<polygon fill="#F78F8F" points="612.431,594.633 629.082,594.82 645.968,595.008 648.537,595.034 648.756,574.405 612.656,574.008 
	"/>
<polygon points="518.451,613.406 512.827,625.712 522.837,611.232 517.216,612.563 522.96,600.339 512.945,614.998 "/>
<polygon points="625.248,613.474 619.624,625.78 629.63,611.299 624.009,612.63 629.754,600.405 619.744,615.063 "/>
<polygon points="534.766,600.468 524.761,615.128 530.264,613.539 524.64,625.845 534.65,611.366 529.027,612.691 "/>
<polygon points="637.063,613.604 631.435,625.908 641.441,611.426 635.824,612.76 641.563,600.536 631.554,615.194 "/>
<line id="XMLID_135_" fill="none" stroke="#33322D" stroke-width="6.1522" stroke-linejoin="round" stroke-miterlimit="10" x1="577.285" y1="342.575" x2="577.285" y2="418.26"/>
<g id="XMLID_121_">
	<path fill="#EAAD29" d="M571.935,424.397c-0.521,0-0.944-0.423-0.944-0.944v-13.663c0-0.521,0.423-0.944,0.944-0.944h10.701
		c0.521,0,0.944,0.423,0.944,0.944v13.663c0,0.521-0.423,0.944-0.944,0.944H571.935z"/>
	<path fill="#EAAD29" d="M582.636,409.79v13.663h-10.701V409.79H582.636 M582.636,407.901h-10.701c-1.043,0-1.888,0.845-1.888,1.888
		v13.663c0,1.043,0.845,1.888,1.888,1.888h10.701c1.043,0,1.888-0.845,1.888-1.888V409.79
		C584.524,408.747,583.679,407.901,582.636,407.901L582.636,407.901z"/>
</g>
<path id="XMLID_123_" fill="none" stroke="#EAAD29" stroke-width="6.2947" stroke-linecap="round" stroke-linejoin="round" stroke-miterlimit="10" d="
	M567.606,444.616c0,5.345,4.333,9.679,9.679,9.679c5.345,0,9.679-4.333,9.679-9.679s-4.333-9.679-9.679-9.679v-15.798"/>
<path fill="#33322D" d="M580.223,450.219c0,0,3.116,40.212,3.116,50.353c0,1.202-3.552,1.465-5.204-1.768
	c0,0,1.249-0.21,2.018,0.047c0,0-1.554-45.441-2.14-47.784C578.013,451.066,579.388,449.999,580.223,450.219z"/>
<rect x="206.213" y="311.733" fill="#7C7C7C" width="790.514" height="28.027"/>
</svg>
