<?xml version="1.0" encoding="utf-8"?>
<!-- Generator: Adobe Illustrator 17.0.0, SVG Export Plug-In . SVG Version: 6.00 Build 0)  -->
<!DOCTYPE svg PUBLIC "-//W3C//DTD SVG 1.1//EN" "http://www.w3.org/Graphics/SVG/1.1/DTD/svg11.dtd">
<svg version="1.1" id="Слой_1" xmlns="http://www.w3.org/2000/svg" xmlns:xlink="http://www.w3.org/1999/xlink" x="0px" y="0px"
	 width="1188.874px" height="3437px" viewBox="0 0 1188.874 3437" enable-background="new 0 0 1188.874 3437" xml:space="preserve">
<rect x="-18.875" y="1.5" fill="#EDEBEB" stroke="#FFFFFF" stroke-width="1.0162" stroke-miterlimit="10" width="1226.749" height="748"/>
<rect x="-20.249" y="749.5" fill="#2DA5B2" stroke="#FFFFFF" stroke-width="1.0165" stroke-miterlimit="10" width="1228.497" height="542"/>
<rect x="-20.623" y="1291.5" fill="#F1C40F" stroke="#FFFFFF" stroke-width="1.0168" stroke-miterlimit="10" width="1229.245" height="542"/>
<rect x="-20.623" y="1833.5" fill="#FDE3A7" stroke="#FFFFFF" stroke-width="1.0168" stroke-miterlimit="10" width="1229.245" height="542"/>
<rect x="-32.996" y="2375.5" fill="#87D37C" stroke="#FFFFFF" stroke-width="1.027" stroke-miterlimit="10" width="1253.992" height="542"/>
<rect x="-3" y="2917" fill="#D1D6ED" width="1223.996" height="520"/>
<g id="Слой_5">
	<g>
		<g opacity="0.2">
			<g>
				<g>
					<defs>
						<polygon id="SVGID_1_" points="968.964,470.235 960.154,445.523 950.71,445.523 941.9,470.235 938.838,470.235 
							938.838,473.001 972.027,473.001 972.027,470.235 						"/>
					</defs>
					<clipPath id="SVGID_2_">
						<use xlink:href="#SVGID_1_"  overflow="visible"/>
					</clipPath>
					<polygon clip-path="url(#SVGID_2_)" fill="#D25A2C" points="968.964,470.235 960.154,445.523 950.71,445.523 941.9,470.235 
						938.838,470.235 938.838,473.001 972.027,473.001 972.027,470.235 					"/>
				</g>
				<g>
					<defs>
						<polygon id="SVGID_3_" points="968.964,470.235 960.154,445.523 950.71,445.523 941.9,470.235 938.838,470.235 
							938.838,473.001 972.027,473.001 972.027,470.235 						"/>
					</defs>
					<clipPath id="SVGID_4_">
						<use xlink:href="#SVGID_3_"  overflow="visible"/>
					</clipPath>
					<rect x="939.741" y="442.328" clip-path="url(#SVGID_4_)" fill="#F4F4F4" width="37.974" height="2.905"/>
				</g>
				<g>
					<defs>
						<polygon id="SVGID_5_" points="968.964,470.235 960.154,445.523 950.71,445.523 941.9,470.235 938.838,470.235 
							938.838,473.001 972.027,473.001 972.027,470.235 						"/>
					</defs>
					<clipPath id="SVGID_6_">
						<use xlink:href="#SVGID_5_"  overflow="visible"/>
					</clipPath>
					<rect x="939.741" y="448.398" clip-path="url(#SVGID_6_)" fill="#F4F4F4" width="37.974" height="2.905"/>
				</g>
				<g>
					<defs>
						<polygon id="SVGID_7_" points="968.964,470.235 960.154,445.523 950.71,445.523 941.9,470.235 938.838,470.235 
							938.838,473.001 972.027,473.001 972.027,470.235 						"/>
					</defs>
					<clipPath id="SVGID_8_">
						<use xlink:href="#SVGID_7_"  overflow="visible"/>
					</clipPath>
					<rect x="939.741" y="454.209" clip-path="url(#SVGID_8_)" fill="#F4F4F4" width="37.974" height="2.905"/>
				</g>
				<g>
					<defs>
						<polygon id="SVGID_9_" points="968.964,470.235 960.154,445.523 950.71,445.523 941.9,470.235 938.838,470.235 
							938.838,473.001 972.027,473.001 972.027,470.235 						"/>
					</defs>
					<clipPath id="SVGID_10_">
						<use xlink:href="#SVGID_9_"  overflow="visible"/>
					</clipPath>
					<rect x="939.741" y="460.019" clip-path="url(#SVGID_10_)" fill="#F4F4F4" width="37.974" height="2.905"/>
				</g>
				<g>
					<defs>
						<polygon id="SVGID_11_" points="968.964,470.235 960.154,445.523 950.71,445.523 941.9,470.235 938.838,470.235 
							938.838,473.001 972.027,473.001 972.027,470.235 						"/>
					</defs>
					<clipPath id="SVGID_12_">
						<use xlink:href="#SVGID_11_"  overflow="visible"/>
					</clipPath>
					<rect x="939.741" y="465.83" clip-path="url(#SVGID_12_)" fill="#F4F4F4" width="37.974" height="2.905"/>
				</g>
			</g>
			<polygon fill="#E4E4E4" points="972.027,470.235 968.964,470.235 960.154,445.523 955.432,445.523 955.432,473.001 
				972.027,473.001 			"/>
		</g>
		<g opacity="0.2">
			<g>
				<g>
					<defs>
						<polygon id="SVGID_13_" points="920.438,476.314 914.219,458.869 907.552,458.869 901.333,476.314 899.171,476.314 
							899.171,478.266 922.6,478.266 922.6,476.314 						"/>
					</defs>
					<clipPath id="SVGID_14_">
						<use xlink:href="#SVGID_13_"  overflow="visible"/>
					</clipPath>
					<polygon clip-path="url(#SVGID_14_)" fill="#D25A2C" points="920.438,476.314 914.219,458.869 907.552,458.869 
						901.333,476.314 899.171,476.314 899.171,478.266 922.6,478.266 922.6,476.314 					"/>
				</g>
				<g>
					<defs>
						<polygon id="SVGID_15_" points="920.438,476.314 914.219,458.869 907.552,458.869 901.333,476.314 899.171,476.314 
							899.171,478.266 922.6,478.266 922.6,476.314 						"/>
					</defs>
					<clipPath id="SVGID_16_">
						<use xlink:href="#SVGID_15_"  overflow="visible"/>
					</clipPath>
					<rect x="899.808" y="456.613" clip-path="url(#SVGID_16_)" fill="#F4F4F4" width="26.807" height="2.051"/>
				</g>
				<g>
					<defs>
						<polygon id="SVGID_17_" points="920.438,476.314 914.219,458.869 907.552,458.869 901.333,476.314 899.171,476.314 
							899.171,478.266 922.6,478.266 922.6,476.314 						"/>
					</defs>
					<clipPath id="SVGID_18_">
						<use xlink:href="#SVGID_17_"  overflow="visible"/>
					</clipPath>
					<rect x="899.808" y="460.898" clip-path="url(#SVGID_18_)" fill="#F4F4F4" width="26.807" height="2.051"/>
				</g>
				<g>
					<defs>
						<polygon id="SVGID_19_" points="920.438,476.314 914.219,458.869 907.552,458.869 901.333,476.314 899.171,476.314 
							899.171,478.266 922.6,478.266 922.6,476.314 						"/>
					</defs>
					<clipPath id="SVGID_20_">
						<use xlink:href="#SVGID_19_"  overflow="visible"/>
					</clipPath>
					<rect x="899.808" y="465" clip-path="url(#SVGID_20_)" fill="#F4F4F4" width="26.807" height="2.051"/>
				</g>
				<g>
					<defs>
						<polygon id="SVGID_21_" points="920.438,476.314 914.219,458.869 907.552,458.869 901.333,476.314 899.171,476.314 
							899.171,478.266 922.6,478.266 922.6,476.314 						"/>
					</defs>
					<clipPath id="SVGID_22_">
						<use xlink:href="#SVGID_21_"  overflow="visible"/>
					</clipPath>
					<rect x="899.808" y="469.102" clip-path="url(#SVGID_22_)" fill="#F4F4F4" width="26.807" height="2.051"/>
				</g>
				<g>
					<defs>
						<polygon id="SVGID_23_" points="920.438,476.314 914.219,458.869 907.552,458.869 901.333,476.314 899.171,476.314 
							899.171,478.266 922.6,478.266 922.6,476.314 						"/>
					</defs>
					<clipPath id="SVGID_24_">
						<use xlink:href="#SVGID_23_"  overflow="visible"/>
					</clipPath>
					<rect x="899.808" y="473.204" clip-path="url(#SVGID_24_)" fill="#F4F4F4" width="26.807" height="2.051"/>
				</g>
			</g>
			<polygon fill="#E4E4E4" points="922.6,476.314 920.438,476.314 914.219,458.869 910.886,458.869 910.886,478.266 922.6,478.266 
							"/>
		</g>
		<g opacity="0.2">
			<polygon fill="#435559" points="643.443,259.888 643.443,314.193 753.758,314.193 753.758,379.109 965.687,379.109 
				965.687,475.115 537.214,475.115 537.214,410.2 537.214,379.109 537.214,355.894 537.214,314.193 537.214,259.888 			"/>
			<rect x="542.583" y="142.776" fill="#7C9BA3" width="3.263" height="25.449"/>
			<rect x="531.574" y="160.698" fill="#7C9BA3" width="20.509" height="319.722"/>
			<rect x="546.444" y="160.698" fill="#326978" width="5.639" height="319.722"/>
			<rect x="637.804" y="160.698" fill="#7C9BA3" width="20.509" height="319.722"/>
			<rect x="652.673" y="160.698" fill="#326978" width="5.64" height="319.722"/>
			<rect x="743.457" y="160.698" fill="#7C9BA3" width="20.509" height="319.722"/>
			<rect x="758.327" y="160.698" fill="#326978" width="5.64" height="319.722"/>
			<rect x="848.489" y="307.177" fill="#7C9BA3" width="20.509" height="173.242"/>
			<rect x="863.359" y="307.177" fill="#326978" width="5.64" height="173.242"/>
			<rect x="955.432" y="307.177" fill="#7C9BA3" width="20.509" height="173.242"/>
			<rect x="970.302" y="307.177" fill="#326978" width="5.64" height="173.242"/>
			<rect x="531.574" y="307.177" fill="#7C9BA3" width="444.367" height="21.984"/>
			<rect x="531.574" y="307.177" fill="#9BC2CC" width="444.367" height="6.019"/>
			<rect x="531.574" y="362.137" fill="#9BC2CC" width="444.367" height="5.364"/>
			<rect x="531.574" y="251.262" fill="#7C9BA3" width="232.392" height="21.984"/>
			<rect x="531.574" y="251.262" fill="#9BC2CC" width="232.392" height="6.019"/>
			<rect x="531.574" y="195.541" fill="#7C9BA3" width="126.738" height="21.984"/>
			<rect x="531.574" y="195.541" fill="#9BC2CC" width="126.738" height="6.019"/>
			<polygon fill="#7C9BA3" points="513.422,401.326 994.094,401.326 994.094,372.866 987.653,367.501 519.863,367.501 
				513.422,372.866 			"/>
			<rect x="536.87" y="148.153" fill="#7C9BA3" width="3.263" height="25.449"/>
			<rect x="757.953" y="147.077" fill="#7C9BA3" width="3.263" height="25.449"/>
			<rect x="750.961" y="148.153" fill="#7C9BA3" width="3.263" height="25.449"/>
		</g>
	</g>
</g>
<g id="Слой_3">
	<g>
		<g opacity="0.8">
			<path fill="#BD6A4B" d="M793.294,473.061h-31.856c-1.512,0-2.738-1.226-2.738-2.738v-15.332c0-1.512,1.226-2.738,2.738-2.738
				h31.856c1.512,0,2.738,1.226,2.738,2.738v15.332C796.031,471.836,794.806,473.061,793.294,473.061z"/>
			<path fill="#97543C" d="M796.032,454.99v15.335c0,1.511-1.225,2.737-2.737,2.737h-31.858c-1.174,0-2.172-0.737-2.561-1.776
				c0.301,0.121,0.627,0.183,0.972,0.183h31.854c1.511,0,2.737-1.225,2.737-2.737v-15.331c0-0.341-0.062-0.668-0.18-0.969
				C795.295,452.819,796.032,453.82,796.032,454.99z"/>
			<g>
				<path fill="#97543C" d="M767.84,467.671h-3.572c-0.601,0-1.088-0.487-1.088-1.088V456.53c0-0.601,0.487-1.088,1.088-1.088h3.572
					c0.601,0,1.088,0.487,1.088,1.088v10.053C768.928,467.184,768.441,467.671,767.84,467.671z"/>
				<path fill="#97543C" d="M778.418,467.671h-3.572c-0.601,0-1.088-0.487-1.088-1.088V456.53c0-0.601,0.487-1.088,1.088-1.088
					h3.572c0.601,0,1.088,0.487,1.088,1.088v10.053C779.506,467.184,779.018,467.671,778.418,467.671z"/>
				<path fill="#97543C" d="M788.995,467.671h-3.572c-0.601,0-1.088-0.487-1.088-1.088V456.53c0-0.601,0.487-1.088,1.088-1.088
					h3.572c0.601,0,1.088,0.487,1.088,1.088v10.053C790.083,467.184,789.596,467.671,788.995,467.671z"/>
			</g>
		</g>
		<g opacity="0.8">
			<polygon fill="#B8B4BA" stroke="#020202" stroke-width="2" stroke-miterlimit="10" points="651.813,426 638.278,426 624.743,426 
				620.006,460 638.278,460 657.227,460 			"/>
			<rect x="572" y="456" fill="#B8B4BA" stroke="#020202" stroke-width="2" stroke-miterlimit="10" width="131" height="20"/>
			<path fill="#020202" d="M746,417.897c0,5.933-4.743,11.103-10.723,11.103H541.279c-5.98,0-11.279-5.17-11.279-11.103V267.502
				c0-5.933,5.299-9.502,11.279-9.502h193.998c5.98,0,10.723,3.57,10.723,9.502V417.897z"/>
			<rect x="537" y="266" fill="#FFFFFF" width="202" height="136"/>
			<rect x="547" y="342" fill="#898989" width="82" height="39"/>
			<rect x="688" y="360" fill="#898989" width="41" height="38"/>
			<rect x="688" y="314" fill="#898989" width="41" height="38"/>
			<line fill="none" stroke="#020202" stroke-miterlimit="10" x1="547" y1="385.5" x2="666" y2="385.5"/>
			
				<line fill="none" stroke="#020202" stroke-width="0.9023" stroke-miterlimit="10" x1="547.144" y1="390.618" x2="659.934" y2="390.618"/>
			
				<line fill="none" stroke="#020202" stroke-width="0.9023" stroke-miterlimit="10" x1="547.144" y1="395.243" x2="659.934" y2="395.243"/>
			<rect x="536" y="280" opacity="0.2" fill="#020202" enable-background="new    " width="202" height="21"/>
			<circle fill="none" stroke="#F2754E" stroke-width="1.8046" stroke-miterlimit="10" cx="638.278" cy="415.996" r="7.219"/>
		</g>
		<rect x="378" y="179" fill="#4C4C4C" width="34" height="26"/>
		<rect x="399" y="179" fill="#999999" width="6" height="26"/>
		<rect x="386" y="179" fill="#999999" width="6" height="26"/>
		<rect x="583" y="179" fill="#EEC60F" width="23" height="9"/>
		<polygon fill="#DEDBDA" points="535.269,159.6 448.866,126.697 450.243,123.237 536.646,156.14 		"/>
		<polygon fill="#DEDBDA" points="403.686,156.673 438.015,124.675 440.505,127.444 406.895,159.515 		"/>
		<rect x="432.5" y="387.5" fill="none" stroke="#F6DC34" stroke-width="5" stroke-miterlimit="10" width="21" height="20"/>
		<rect x="432.5" y="345.5" fill="none" stroke="#F6DC34" stroke-width="5" stroke-miterlimit="10" width="21" height="21"/>
		<rect x="432.5" y="304.5" fill="none" stroke="#F6DC34" stroke-width="5" stroke-miterlimit="10" width="21" height="21"/>
		<rect x="432.5" y="262.5" fill="none" stroke="#F6DC34" stroke-width="5" stroke-miterlimit="10" width="21" height="21"/>
		<rect x="432.5" y="220.5" fill="none" stroke="#F6DC34" stroke-width="5" stroke-miterlimit="10" width="21" height="21"/>
		<rect x="432.5" y="178.5" fill="none" stroke="#F6DC34" stroke-width="5" stroke-miterlimit="10" width="21" height="21"/>
		<rect x="432.5" y="178.5" fill="none" stroke="#F6DC34" stroke-width="5" stroke-miterlimit="10" width="21" height="249"/>
		<polygon fill="#F6DC34" points="432,401.28 409.951,426 416.467,426 432,408.106 		"/>
		<polygon fill="#F6DC34" points="454,401.28 477.907,426 471.391,426 454,408.106 		"/>
		<path fill="none" stroke="#F6DC34" stroke-width="5" stroke-miterlimit="10" d="M595.923,158.5h-94.927h-94.438
			c-32.402,15-43.924,20-34.515,20h128.953h129.442C639.847,178.5,628.325,173.5,595.923,158.5z"/>
		<rect x="406.5" y="158.5" fill="none" stroke="#F6DC34" stroke-width="5" stroke-miterlimit="10" width="21" height="20"/>
		<rect x="447.5" y="158.5" fill="none" stroke="#F6DC34" stroke-width="5" stroke-miterlimit="10" width="21" height="20"/>
		<rect x="487.5" y="158.5" fill="none" stroke="#F6DC34" stroke-width="5" stroke-miterlimit="10" width="21" height="20"/>
		<rect x="528.5" y="158.5" fill="none" stroke="#F1DE2D" stroke-width="5" stroke-miterlimit="10" width="21" height="20"/>
		<rect x="568.5" y="158.5" fill="none" stroke="#F1DE2D" stroke-width="5" stroke-miterlimit="10" width="21" height="20"/>
		<circle fill="#F6DC34" cx="444.5" cy="123.333" r="6.667"/>
		<polygon fill="#F6DC34" points="433.689,155.986 440.41,127.338 444.86,129.261 439.274,156.762 		"/>
		<polygon fill="#F6DC34" points="456.031,156.762 449.601,127.338 445.151,129.261 450.591,156.762 		"/>
		<rect x="592" y="188" fill="#898989" width="5" height="39"/>
		<rect x="564" y="220" fill="#898989" width="62" height="7"/>
		<rect x="443" y="179" fill="#F6DC34" width="27" height="37"/>
		<rect x="457" y="185" fill="#BCBCBC" width="11" height="16"/>
		
			<rect x="289.453" y="473.5" fill="#7C7C7C" stroke="#000000" stroke-width="1.0357" stroke-miterlimit="10" width="761.547" height="27"/>
		<g opacity="0.9">
			<rect x="369.669" y="454.008" fill="#E5BC1B" width="2.004" height="5.492"/>
			<polygon fill="#00A3BB" points="479.491,440.724 477.235,456.754 410.242,456.754 410.242,440.724 			"/>
			<rect x="376.913" y="455.492" fill="#333333" width="95.288" height="9.351"/>
			<polygon fill="#00A3BB" points="410.242,415.599 410.242,440.723 479.491,440.723 479.624,431.004 477.332,424.941 
				423.477,424.941 423.186,424.693 			"/>
			<path fill="#E5BC1B" d="M399.746,461.652h-14.053c1.389-2.44,4.016-4.083,7.026-4.083
				C395.73,457.569,398.357,459.212,399.746,461.652z"/>
			<polygon fill="#333333" points="372.278,461.329 375.119,464.843 376.913,464.843 379.139,459.61 			"/>
			<path fill="#ED4B00" d="M406.524,426.724v34.928h-5.437c-1.75-3.651-5.82-5.976-10.299-5.072
				c-2.908,0.583-5.245,2.543-6.447,5.072h-11.129c-0.85,0-1.539-0.689-1.539-1.539v-16.045c0-0.585,0.162-1.159,0.469-1.658
				l7.295-16.749c0.369-0.601,1.024-0.967,1.729-0.967h23.33C405.615,424.695,406.524,425.603,406.524,426.724z"/>
			<path fill="#9E3200" d="M404.742,459.345c-0.641-1.217-1.462-2.325-2.421-3.284c-2.457-2.457-5.849-3.98-9.601-3.98
				c-6.107,0-11.267,4.027-12.981,9.571h4.603c1.199-2.529,3.536-4.489,6.449-5.07c4.477-0.905,8.546,1.42,10.296,5.07h4.609
				C405.449,460.849,405.126,460.076,404.742,459.345z"/>
			<circle fill="#B2B2B2" cx="392.72" cy="465.659" r="6.721"/>
			<circle fill="#4D4D4D" cx="392.72" cy="465.659" r="2.908"/>
			<path d="M399.746,461.652c-1.389-2.44-4.016-4.083-7.026-4.083s-5.637,1.643-7.026,4.083c-0.681,1.18-1.064,2.547-1.064,4.007
				c0,4.466,3.624,8.091,8.09,8.091s8.091-3.625,8.091-8.091C400.811,464.199,400.428,462.832,399.746,461.652z M392.72,471.185
				c-3.05,0-5.526-2.476-5.526-5.526c0-1.576,0.663-3.001,1.728-4.007c0.988-0.944,2.329-1.518,3.798-1.518s2.81,0.574,3.798,1.518
				c1.064,1.006,1.727,2.431,1.727,4.007C398.246,468.71,395.77,471.185,392.72,471.185z"/>
			<path fill="#595959" d="M375.556,444.954c-0.321,0-0.608-0.167-0.766-0.446c-0.159-0.279-0.155-0.611,0.01-0.886l6.464-15.827
				c0.157-0.264,0.447-0.429,0.756-0.429h19.171c0.485,0,0.88,0.395,0.88,0.88v15.828c0,0.485-0.395,0.88-0.88,0.88L375.556,444.954
				L375.556,444.954z"/>
			<path fill="#BCBCBC" d="M401.626,428.248v15.825c0,0.241-0.196,0.436-0.436,0.436h-25.634c-0.338,0-0.548-0.37-0.374-0.659
				l6.465-15.825c0.08-0.134,0.223-0.214,0.374-0.214h19.169C401.43,427.812,401.626,428.008,401.626,428.248z"/>
			<path fill="#912E00" d="M401.51,448.377h-5.505c-0.283,0-0.513-0.23-0.513-0.513v-0.459c0-0.283,0.23-0.513,0.513-0.513h5.505
				c0.283,0,0.513,0.23,0.513,0.513v0.459C402.023,448.147,401.793,448.377,401.51,448.377z"/>
			<polygon fill="#55BCCA" points="400.426,413.331 413.819,424.693 421.258,431.004 479.624,431.004 477.332,424.941 
				423.477,424.941 423.186,424.693 409.793,413.331 			"/>
			<polyline fill="none" points="378.27,461.652 379.451,461.652 379.738,461.652 383.892,461.652 384.341,461.652 401.086,461.652 
				401.536,461.652 405.695,461.652 405.989,461.652 420.415,461.652 425.005,461.652 441.756,461.652 443.488,461.652 
				446.365,461.652 448.079,461.652 464.83,461.652 469.439,461.652 476.877,461.652 			"/>
			<path fill="#ED4B00" d="M472.202,455.491v6.161h-7.372c-1.75-3.65-5.819-5.975-10.296-5.07c-2.913,0.581-5.244,2.541-6.455,5.07
				h-6.323c-1.75-3.65-5.819-5.975-10.296-5.07c-2.913,0.581-5.244,2.541-6.455,5.07h-18.483v-6.161H472.202z"/>
			<path fill="#9E3200" d="M444.927,458.494c-0.551-0.887-1.199-1.702-1.936-2.439c-0.198-0.198-0.396-0.384-0.605-0.563
				c-2.397-2.128-5.55-3.41-8.996-3.41c-3.452,0-6.599,1.289-8.996,3.41c-1.846,1.63-3.242,3.752-3.98,6.161h4.591
				c1.211-2.529,3.542-4.489,6.455-5.07c4.477-0.905,8.546,1.42,10.296,5.07h4.609C446.024,460.532,445.538,459.471,444.927,458.494
				z"/>
			<circle fill="#B2B2B2" cx="433.391" cy="465.659" r="6.721"/>
			<circle fill="#4D4D4D" cx="433.391" cy="465.659" r="2.908"/>
			<path d="M433.391,457.57c-4.467,0-8.089,3.622-8.089,8.089c0,4.467,3.621,8.089,8.089,8.089c4.467,0,8.089-3.622,8.089-8.089
				C441.48,461.192,437.858,457.57,433.391,457.57z M433.391,471.185c-3.052,0-5.525-2.474-5.525-5.525
				c0-3.052,2.474-5.525,5.525-5.525c3.052,0,5.525,2.474,5.525,5.525S436.442,471.185,433.391,471.185z"/>
			<path fill="#9E3200" d="M466.065,456.055c-0.198-0.198-0.396-0.384-0.605-0.563c-2.397-2.128-5.55-3.41-8.996-3.41
				s-6.593,1.289-8.99,3.41c-0.989,0.863-1.846,1.882-2.547,3.003c-0.611,0.977-1.097,2.038-1.438,3.158h4.591
				c1.211-2.529,3.542-4.489,6.455-5.07c4.477-0.905,8.546,1.42,10.296,5.07h4.609C468.78,459.513,467.605,457.595,466.065,456.055z
				"/>
			<circle fill="#B2B2B2" cx="456.464" cy="465.659" r="6.721"/>
			<circle fill="#4D4D4D" cx="456.464" cy="465.659" r="2.908"/>
			<path d="M456.464,457.57c-4.467,0-8.089,3.622-8.089,8.089c0,4.467,3.622,8.089,8.089,8.089c4.467,0,8.089-3.622,8.089-8.089
				C464.554,461.192,460.932,457.57,456.464,457.57z M456.464,471.185c-3.052,0-5.525-2.474-5.525-5.525
				c0-3.052,2.474-5.525,5.525-5.525c3.052,0,5.525,2.474,5.525,5.525C461.99,468.711,459.516,471.185,456.464,471.185z"/>
			<rect x="369.669" y="459.5" fill="#666666" width="8.134" height="3.252"/>
			<rect x="406.524" y="426.724" fill="#666666" width="2.03" height="29.001"/>
			<rect x="469.439" y="461.652" fill="#666666" width="5.19" height="3.191"/>
			<rect x="423.237" y="436.941" fill="#005966" width="2.064" height="9.053"/>
			<rect x="429.451" y="436.941" fill="#005966" width="2.064" height="9.053"/>
			<rect x="435.664" y="436.941" fill="#005966" width="2.064" height="9.053"/>
			<rect x="441.877" y="436.941" fill="#005966" width="2.064" height="9.053"/>
			<rect x="448.091" y="436.941" fill="#005966" width="2.064" height="9.053"/>
			<rect x="454.304" y="436.941" fill="#005966" width="2.064" height="9.053"/>
			<rect x="460.517" y="436.941" fill="#005966" width="2.064" height="9.053"/>
			<rect x="466.731" y="436.941" fill="#005966" width="2.064" height="9.053"/>
			<rect x="472.325" y="456.867" fill="#E5BC1B" width="1.989" height="4.786"/>
		</g>
		<path fill="#424242" d="M839,461c0,6.627-5.373,12-12,12h-32c-6.627,0-12-5.373-12-12v-72c0-6.627,5.373-12,12-12h32
			c6.627,0,12,5.373,12,12V461z"/>
		<rect x="789" y="390" opacity="0.9" fill="#FFFFFF" enable-background="new    " width="44" height="70"/>
		<line fill="none" stroke="#000000" stroke-width="3" stroke-miterlimit="10" x1="796" y1="454.5" x2="827" y2="454.5"/>
		<rect x="792" y="394" fill="#111111" width="10" height="10"/>
		<rect x="795" y="397" fill="#C6420E" width="4" height="4"/>
		<rect x="792" y="408" fill="#111111" width="10" height="10"/>
		<rect x="795" y="411" fill="#55BCCA" width="4" height="4"/>
		<rect x="806" y="394" fill="#111111" width="10" height="10"/>
		<rect x="821" y="394" fill="#111111" width="10" height="10"/>
		<rect x="824" y="397" fill="#BFBFBF" width="4" height="4"/>
		<rect x="809" y="397" fill="#F6DC34" width="4" height="4"/>
	</g>
</g>
<g id="Слой_6">
	<g>
		<polygon fill="#C7CCEC" points="323.031,3435.441 323.031,3426.717 359.846,3426.717 359.846,3361.905 377.138,3361.905 
			377.138,3254.093 384.948,3254.093 384.948,3246.615 405.029,3246.615 405.029,3253.47 412.28,3253.47 412.28,3316.412 
			426.783,3316.412 426.783,3306.441 463.04,3306.441 463.04,3292.731 468.061,3292.731 468.061,3196.76 475.312,3196.76 
			475.312,3185.542 480.89,3185.542 480.89,3171.208 485.911,3171.208 485.911,3184.919 490.931,3184.919 490.931,3197.383 
			499.298,3197.383 499.298,3301.456 522.726,3301.456 522.726,3280.267 548.385,3280.267 548.385,3303.949 562.888,3303.949 
			562.888,3253.47 576.833,3253.47 576.833,3280.267 581.854,3280.267 581.854,3311.427 581.854,3317.036 600.819,3317.036 
			600.819,3221.064 632.615,3181.179 638.75,3181.179 638.75,3293.977 649.349,3293.977 649.349,3280.89 683.375,3280.89 
			683.375,3293.977 693.415,3293.977 693.415,3178.687 704.572,3178.687 704.572,3168.716 727.442,3168.716 727.442,3179.31 
			738.598,3179.31 738.598,3286.499 758.679,3286.499 758.679,3297.093 778.203,3297.093 778.203,3247.238 783.223,3242.875 
			809.44,3242.875 814.46,3248.484 814.46,3307.687 828.405,3307.687 828.405,3341.963 841.793,3341.963 841.793,3376.239 
			841.793,3435.441 		"/>
	</g>
	<g>
		<polygon fill="#C7CCEC" points="271.769,3438.656 271.769,3429.323 315.769,3429.323 315.769,3359.989 336.436,3359.989 
			336.436,3244.656 345.769,3244.656 345.769,3236.656 369.769,3236.656 369.769,3243.99 378.436,3243.99 378.436,3311.323 
			395.769,3311.323 395.769,3300.656 439.102,3300.656 439.102,3285.99 445.102,3285.99 445.102,3183.323 453.769,3183.323 
			453.769,3171.323 460.436,3171.323 460.436,3155.99 466.436,3155.99 466.436,3170.656 472.436,3170.656 472.436,3183.99 
			482.436,3183.99 482.436,3295.323 510.436,3295.323 510.436,3272.656 541.102,3272.656 541.102,3297.99 558.436,3297.99 
			558.436,3243.99 575.102,3243.99 575.102,3272.656 581.102,3272.656 581.102,3305.99 581.102,3311.99 603.769,3311.99 
			603.769,3209.323 641.769,3166.656 649.102,3166.656 649.102,3287.323 661.769,3287.323 661.769,3273.323 702.435,3273.323 
			702.435,3287.323 714.435,3287.323 714.435,3163.99 727.769,3163.99 727.769,3153.323 755.102,3153.323 755.102,3164.656 
			768.435,3164.656 768.435,3279.323 792.435,3279.323 792.435,3290.656 815.769,3290.656 815.769,3237.323 821.769,3232.656 
			853.102,3232.656 859.102,3238.656 859.102,3301.989 875.769,3301.989 875.769,3338.656 891.769,3338.656 891.769,3375.323 
			891.769,3438.656 		"/>
	</g>
	<g>
		<rect x="515.685" y="3392.323" fill="#AFB7EC" width="0.25" height="0.5"/>
		<path fill="#AFB7EC" d="M923.101,3411.323v-22h-10.667v-49.334h-14.667v29.334h-15.333v-10h-14.667v-34.667h-28.666v-14.666h-42
			v12.667h-19.333v-17.334h-18v-40.667h-7.333l-24.667,16.667v16.667h-15.333v16.667h-16v-48.667h-8v-8h-6v7.333h-8v74.666h-22.667
			v-31.999h-25.333v17.333h-32.667v-30.667h-6.667v-6.667h-18v6h-5.333v28.667h-8.533v-23.125c0.024-2.596,0.027-5.327,0-8.155
			v-1.637h-0.018c-0.404-30.114-4.296-69.725-22.117-67.75c-14.355,1.59-17.323,39.268-17.502,67.75h-0.038v31.583h-10.459v-34.667
			h-42v34h-25.333v16h-8v-69.334h-7.333v-18.667h-2.667v18.667h-8.667v70h-23.333v-16.666h-18v-8.001h-24v8.667h-25.333v43.333
			h-14.667v66h-61.333v7.334l700.666,1.333v-28h-22V3411.323z"/>
	</g>
	<g>
		<polygon fill="#9DA6EB" points="246.935,3435.323 246.935,3431.323 288.935,3431.323 288.935,3397.823 288.935,3391.323 
			310.435,3391.323 310.435,3349.323 328.935,3349.323 328.935,3391.323 341.935,3391.323 341.935,3376.323 348.435,3376.323 
			348.435,3368.323 390.935,3368.323 390.935,3376.323 397.435,3376.323 397.435,3391.323 422.435,3391.323 422.435,3360.823 
			435.435,3360.823 435.435,3391.323 447.935,3391.323 447.935,3349.323 453.435,3349.323 453.435,3343.323 496.435,3343.323 
			496.435,3349.323 501.935,3349.323 501.935,3365.823 516.435,3365.823 516.435,3382.823 543.935,3382.823 543.935,3392.823 
			585.935,3392.823 585.935,3350.823 602.935,3350.823 602.935,3342.323 611.435,3342.323 611.435,3350.823 628.435,3350.823 
			628.435,3371.823 642.435,3371.823 642.435,3384.823 697.435,3384.823 697.435,3344.823 757.935,3344.823 757.935,3361.323 
			799.435,3361.323 799.435,3375.323 819.435,3375.323 819.435,3345.823 827.435,3345.823 827.435,3340.823 845.435,3340.823 
			845.435,3345.823 852.435,3345.823 852.435,3375.323 872.935,3375.323 872.935,3393.323 893.435,3393.323 893.435,3385.323 
			905.435,3385.323 905.435,3404.323 929.935,3404.323 929.935,3429.323 947.935,3429.323 947.935,3434.823 947.935,3438.823 
			246.935,3438.823 		"/>
	</g>
	<g>
		<polygon fill="#8995EB" points="945.77,3438.657 235.103,3438.657 235.103,3425.323 261.103,3425.323 261.103,3414.657 
			280.437,3414.657 280.437,3382.657 296.437,3382.657 296.437,3414.657 314.435,3414.657 314.435,3399.323 318.029,3399.323 
			318.029,3395.633 340.88,3395.633 340.88,3399.323 343.935,3399.323 343.935,3414.323 350.935,3414.323 350.935,3391.823 
			362.435,3391.823 362.435,3415.323 365.935,3415.323 365.935,3407.823 376.435,3407.823 376.435,3394.823 391.935,3394.823 
			391.935,3412.823 408.435,3412.823 408.435,3376.323 416.935,3376.323 416.935,3371.323 460.935,3371.323 460.935,3377.823 
			467.435,3377.823 467.435,3414.823 476.435,3414.823 476.435,3405.823 484.935,3405.823 484.935,3414.823 493.935,3414.823 
			493.935,3401.323 513.935,3401.323 513.935,3415.323 513.935,3419.323 525.435,3419.323 533.435,3419.323 533.435,3357.323 
			539.435,3357.323 539.435,3353.823 548.935,3353.823 548.935,3357.823 554.435,3357.823 554.435,3407.323 574.435,3407.323 
			574.435,3379.323 594.435,3379.323 594.435,3396.823 639.935,3396.823 639.935,3415.323 659.935,3415.323 659.935,3370.323 
			682.935,3370.323 682.935,3405.823 698.935,3405.823 698.935,3416.323 714.935,3416.323 714.935,3407.323 722.935,3407.323 
			722.935,3383.323 732.435,3383.323 732.435,3376.823 773.935,3376.823 773.935,3383.323 782.935,3383.323 782.935,3410.323 
			790.935,3410.323 790.935,3418.323 800.935,3418.323 800.935,3399.323 846.435,3399.323 846.435,3409.823 885.935,3409.823 
			885.935,3423.323 907.935,3423.323 907.935,3415.823 920.935,3415.823 920.935,3423.323 937.435,3423.323 937.435,3432.323 
			955.435,3432.323 955.435,3438.657 		"/>
	</g>
</g>
<g id="Lift">
	<rect x="544.5" y="3043" fill="none" stroke="#F78F8F" stroke-width="2" stroke-miterlimit="10" width="16" height="16"/>
	<line fill="none" stroke="#F78F8F" stroke-width="4.6275" stroke-miterlimit="10" x1="595" y1="227" x2="595" y2="3059"/>
	<line fill="none" stroke="#F78F8F" stroke-width="6" stroke-miterlimit="10" x1="617" y1="3059" x2="494" y2="3059"/>
	<rect x="495.333" y="3043" fill="none" stroke="#F78F8F" stroke-width="2" stroke-miterlimit="10" width="16" height="16"/>
	<rect x="511.333" y="3043" fill="none" stroke="#F78F8F" stroke-width="2" stroke-miterlimit="10" width="16" height="16"/>
	<rect x="527.333" y="3043" fill="none" stroke="#F78F8F" stroke-width="2" stroke-miterlimit="10" width="16" height="16"/>
</g>
</svg>
