<?xml version="1.0" encoding="utf-8"?>
<!-- Generator: Adobe Illustrator 17.0.0, SVG Export Plug-In . SVG Version: 6.00 Build 0)  -->
<!DOCTYPE svg PUBLIC "-//W3C//DTD SVG 1.1//EN" "http://www.w3.org/Graphics/SVG/1.1/DTD/svg11.dtd">
<svg version="1.1" id="Слой_1" xmlns="http://www.w3.org/2000/svg" xmlns:xlink="http://www.w3.org/1999/xlink" x="0px" y="0px"
	 width="729px" height="363px" viewBox="0 0 729 363" enable-background="new 0 0 729 363" xml:space="preserve">
<g>
	<polygon fill="#C7CCEC" points="91.863,359.118 91.863,350.394 128.678,350.394 128.678,285.581 145.97,285.581 145.97,177.77 
		153.78,177.77 153.78,170.291 173.861,170.291 173.861,177.147 181.112,177.147 181.112,240.089 195.615,240.089 195.615,230.118 
		231.872,230.118 231.872,216.408 236.893,216.408 236.893,120.436 244.145,120.436 244.145,109.219 249.722,109.219 
		249.722,94.885 254.743,94.885 254.743,108.595 259.763,108.595 259.763,121.059 268.13,121.059 268.13,225.132 291.558,225.132 
		291.558,203.944 317.217,203.944 317.217,227.625 331.72,227.625 331.72,177.147 345.665,177.147 345.665,203.944 350.686,203.944 
		350.686,235.104 350.686,240.712 369.651,240.712 369.651,144.741 401.447,104.856 407.582,104.856 407.582,217.654 
		418.181,217.654 418.181,204.567 452.207,204.567 452.207,217.654 462.247,217.654 462.247,102.364 473.404,102.364 
		473.404,92.393 496.274,92.393 496.274,102.987 507.43,102.987 507.43,210.175 527.511,210.175 527.511,220.77 547.035,220.77 
		547.035,170.914 552.055,166.552 578.272,166.552 583.292,172.161 583.292,231.364 597.237,231.364 597.237,265.639 
		610.625,265.639 610.625,299.915 610.625,359.118 	"/>
</g>
<g>
	<polygon fill="#C7CCEC" points="40.601,362.333 40.601,353 84.601,353 84.601,283.666 105.268,283.666 105.268,168.333 
		114.601,168.333 114.601,160.333 138.601,160.333 138.601,167.667 147.268,167.667 147.268,235 164.601,235 164.601,224.333 
		207.934,224.333 207.934,209.667 213.934,209.667 213.934,107 222.601,107 222.601,95 229.268,95 229.268,79.666 235.268,79.666 
		235.268,94.333 241.268,94.333 241.268,107.666 251.268,107.666 251.268,219 279.268,219 279.268,196.333 309.934,196.333 
		309.934,221.667 327.268,221.667 327.268,167.667 343.934,167.667 343.934,196.333 349.934,196.333 349.934,229.667 
		349.934,235.667 372.601,235.667 372.601,133 410.601,90.333 417.934,90.333 417.934,211 430.601,211 430.601,197 471.267,197 
		471.267,211 483.267,211 483.267,87.666 496.601,87.666 496.601,77 523.934,77 523.934,88.333 537.267,88.333 537.267,202.999 
		561.267,202.999 561.267,214.333 584.601,214.333 584.601,160.999 590.601,156.333 621.934,156.333 627.934,162.333 
		627.934,225.666 644.601,225.666 644.601,262.333 660.601,262.333 660.601,299 660.601,362.333 	"/>
</g>
<g>
	<rect x="284.517" y="316" fill="#AFB7EC" width="0.25" height="0.5"/>
	<path fill="#AFB7EC" d="M691.933,335v-22h-10.667v-49.334h-14.667V293h-15.333v-10h-14.667v-34.667h-28.666v-14.666h-42v12.667
		H546.6V229h-18v-40.667h-7.333L496.6,205v16.667h-15.333v16.667h-16v-48.667h-8v-8h-6V189h-8v74.666H420.6v-31.999h-25.333V249
		H362.6v-30.667h-6.667v-6.666h-18v6.001H332.6v28.667h-8.533v-23.125c0.024-2.596,0.027-5.327,0-8.155v-1.637h-0.018
		c-0.404-30.114-4.296-69.725-22.117-67.751c-14.355,1.59-17.323,39.268-17.502,67.751h-0.038V245h-10.458v-34.667h-42v34.001H206.6
		v16h-8V191h-7.333v-18.667H188.6V191h-8.667v70H156.6v-16.666h-18v-8.001h-24V245H89.267v43.333H74.6v66H13.267v7.334L713.933,363
		v-28H691.933z"/>
</g>
<g>
	<polygon fill="#9DA6EB" points="15.767,359 15.767,355 57.767,355 57.767,321.5 57.767,315 79.267,315 79.267,273 97.767,273 
		97.767,315 110.767,315 110.767,300 117.267,300 117.267,292 159.767,292 159.767,300 166.267,300 166.267,315 191.267,315 
		191.267,284.5 204.267,284.5 204.267,315 216.767,315 216.767,273 222.267,273 222.267,267 265.267,267 265.267,273 270.767,273 
		270.767,289.5 285.267,289.5 285.267,306.5 312.767,306.5 312.767,316.5 354.767,316.5 354.767,274.5 371.767,274.5 371.767,266 
		380.267,266 380.267,274.5 397.267,274.5 397.267,295.5 411.267,295.5 411.267,308.5 466.267,308.5 466.267,268.5 526.767,268.5 
		526.767,285 568.267,285 568.267,299 588.267,299 588.267,269.5 596.267,269.5 596.267,264.5 614.267,264.5 614.267,269.5 
		621.267,269.5 621.267,299 641.767,299 641.767,317 662.267,317 662.267,309 674.267,309 674.267,328 698.767,328 698.767,353 
		716.767,353 716.767,358.5 716.767,362.5 15.767,362.5 	"/>
</g>
<g>
	<polygon fill="#8995EB" points="714.602,362.334 3.935,362.334 3.935,349 29.935,349 29.935,338.334 49.269,338.334 
		49.269,306.334 65.269,306.334 65.269,338.334 83.267,338.334 83.267,323 86.861,323 86.861,319.31 109.712,319.31 109.712,323 
		112.767,323 112.767,338 119.767,338 119.767,315.5 131.267,315.5 131.267,339 134.767,339 134.767,331.5 145.267,331.5 
		145.267,318.5 160.767,318.5 160.767,336.5 177.267,336.5 177.267,300 185.767,300 185.767,295 229.767,295 229.767,301.5 
		236.267,301.5 236.267,338.5 245.267,338.5 245.267,329.5 253.767,329.5 253.767,338.5 262.767,338.5 262.767,325 282.767,325 
		282.767,339 282.767,343 294.267,343 302.267,343 302.267,281 308.267,281 308.267,277.5 317.767,277.5 317.767,281.5 
		323.267,281.5 323.267,331 343.267,331 343.267,303 363.267,303 363.267,320.5 408.767,320.5 408.767,339 428.767,339 428.767,294 
		451.767,294 451.767,329.5 467.767,329.5 467.767,340 483.767,340 483.767,331 491.767,331 491.767,307 501.267,307 501.267,300.5 
		542.767,300.5 542.767,307 551.767,307 551.767,334 559.767,334 559.767,342 569.767,342 569.767,323 615.267,323 615.267,333.5 
		654.767,333.5 654.767,347 676.767,347 676.767,339.5 689.767,339.5 689.767,347 706.267,347 706.267,356 724.267,356 
		724.267,362.334 	"/>
</g>
</svg>
