
<svg version="1.1"
	 width="100%" height="363px" viewBox="0 0 729 363" enable-background="new 0 0 729 363">
<polygon fill="#C7CCEC" points="269.791,363.798 269.791,342.619 277.43,342.619 277.43,324.466 289.534,324.466 289.534,339.318
	296.685,339.318 296.685,301.911 325.84,301.911 325.84,336.292 329.142,336.292 329.142,332.855 337.668,332.855 337.668,328.591
	354.17,328.591 354.17,332.855 360.222,332.855 360.222,335.742 368.748,335.742 368.748,311.813 381.952,311.813 381.952,304.937
	404.505,304.937 404.505,342.344 406.98,342.344 406.98,332.855 417.708,332.855 417.708,328.866 421.832,328.866 421.832,324.466
	429.81,324.466 429.81,282.108 445.213,282.108 445.213,278.532 450.439,278.532 450.439,283.208 457.866,283.208 457.866,289.534
	466.941,289.534 466.941,285.683 471.618,285.683 471.618,288.159 478.493,288.159 478.493,274.956 505.449,274.956
	505.449,285.133 509.024,285.133 509.024,262.579 511.499,262.579 511.499,258.728 514.25,258.728 514.25,250.202 525.253,250.202
	525.253,260.104 528.554,260.104 528.554,281.008 529.929,282.382 529.929,293.935 532.129,293.935 532.129,310.438
	537.904,310.438 537.904,268.63 540.93,268.63 540.93,264.504 547.532,264.504 547.532,267.805 557.159,267.805 557.159,288.709
	559.085,288.709 559.085,282.658 583.289,282.658 583.289,288.434 586.039,288.434 586.039,340.418 589.339,340.418
	589.339,347.845 592.09,347.845 592.09,334.368 594.016,334.368 594.016,323.915 596.216,323.915 596.216,320.065 600.617,320.065
	600.617,323.365 603.917,323.365 603.917,342.068 608.317,342.068 608.317,324.74 612.169,324.74 612.169,320.34 615.469,320.34
	615.469,323.365 625.921,323.365 625.921,318.689 629.222,318.689 629.222,323.365 634.173,323.365 634.173,338.494
	643.525,338.494 643.525,329.142 662.227,329.142 662.227,334.918 666.079,334.918 666.079,331.067 678.182,331.067
	678.182,328.316 685.883,328.316 685.883,345.92 689.183,345.92 689.183,342.344 692.484,342.344 692.484,338.218 710.913,338.218
	710.913,344.82 715.863,344.82 715.863,350.045 720.814,350.045 720.814,348.12 731.815,348.12 731.815,363.798 "/>
<polygon fill="#C7CCEC" points="0,363 0,330.731 13.361,330.731 13.361,343.025 22.61,343.025 22.61,334.572 26.208,334.572
	26.208,259.282 39.056,259.282 39.056,245.453 52.416,245.453 52.416,256.208 70.918,256.208 70.918,279.257 77.083,279.257
	77.083,241.612 80.681,241.612 80.681,225.216 85.819,225.216 85.819,232.392 100.721,232.392 100.721,286.17 108.945,286.17
	108.945,266.965 113.569,266.965 113.569,249.295 117.68,249.295 117.68,240.075 132.068,240.075 132.068,286.94 140.292,286.94
	140.292,237.77 155.709,237.77 155.709,269.27 164.959,269.27 164.959,235.466 188.597,235.466 188.597,283.866 198.36,283.866
	198.36,296.027 204.528,296.027 204.528,241.612 208.638,241.612 208.638,233.929 212.236,233.929 212.236,225.216 224.055,225.216
	224.055,234.696 229.194,234.696 229.194,267.733 246.666,267.733 246.666,305.378 254.374,305.378 254.374,290.782 268.25,290.782
	268.25,248.525 273.902,248.525 273.902,234.696 277.499,234.696 277.499,225.216 281.097,225.216 281.097,194.747 285.208,194.747
	285.208,225.216 290.347,225.216 290.347,237.77 293.945,237.77 293.945,249.295 298.055,249.295 298.055,291.549 316.04,291.549
	316.04,269.27 320.666,269.27 320.666,243.146 323.748,243.146 323.748,230.087 334.541,230.087 334.541,243.146 338.652,243.146
	338.652,272.341 342.25,272.341 342.25,305.378 357.665,305.378 357.665,269.27 361.263,269.27 361.263,290.782 369.486,290.782
	369.486,280.794 385.929,280.794 385.929,322.281 392.61,322.281 392.61,310.756 397.236,310.756 397.236,300.769 403.916,300.769
	403.916,314.598 409.568,314.598 409.568,280.794 411.624,280.794 411.624,300.002 417.79,300.002 417.79,293.853 431.665,293.853
	431.665,304.61 441.943,304.61 441.943,316.902 450.68,316.902 450.68,329.964 457.36,329.964 457.36,318.439 473.803,318.439
	473.803,304.61 477.916,304.61 477.916,326.889 485.625,326.889 485.625,299.232 495.901,299.232 495.901,313.83 511.833,313.83
	511.833,323.048 523.652,323.048 523.652,336.879 533.415,336.879 533.415,329.964 539.582,329.964 539.582,363 "/>
<g>
	<polygon fill="#AFB7EC" points="6.767,357.117 6.767,353.117 48.767,353.117 48.767,319.617 48.767,313.117 70.267,313.117
		70.267,271.117 88.767,271.117 88.767,313.117 101.767,313.117 101.767,298.117 108.267,298.117 108.267,290.117 150.767,290.117
		150.767,298.117 157.267,298.117 157.267,313.117 182.267,313.117 182.267,282.617 195.267,282.617 195.267,313.117
		207.767,313.117 207.767,271.117 213.267,271.117 213.267,265.117 256.267,265.117 256.267,271.117 261.767,271.117
		261.767,287.617 276.267,287.617 276.267,304.617 303.767,304.617 303.767,314.617 345.767,314.617 345.767,272.617
		362.767,272.617 362.767,264.117 371.267,264.117 371.267,272.617 388.267,272.617 388.267,293.617 402.267,293.617
		402.267,306.617 457.267,306.617 457.267,266.617 517.767,266.617 517.767,283.117 559.267,283.117 559.267,297.117
		579.267,297.117 579.267,267.617 587.267,267.617 587.267,262.617 605.267,262.617 605.267,267.617 612.267,267.617
		612.267,297.117 632.767,297.117 632.767,315.117 653.267,315.117 653.267,307.117 665.267,307.117 665.267,326.117
		689.767,326.117 689.767,351.117 707.767,351.117 707.767,356.617 707.767,360.617 6.767,360.617 	"/>
</g>
<path fill="#9DA6EB" d="M725.65,319.46v-29.025h-29.584v36.282h-5.581v12.839H676.53v-7.257h-16.658v-4.379h19.448v-2.408h-19.448
	v-5.772h-2.408v5.772h-3.82v1.204h-4.465v-6.699h-9.49v6.699H624.06v6.699h-17.304v-10.606h-2.791v-7.814h-2.704v-12.193h24.472
	v-2.408h-24.472v-1.586h-2.407v1.586h-8.843v2.408h8.843v12.193h-11.635v15.629h-33.492v-11.722h-3.262v-3.82h13.868v-2.408h-13.868
	v-1.059h-2.408v1.059h-2.146v2.408h2.146v3.82h-9.96v12.839h-7.448v-3.82h7.448v-2.408h-17.304v2.408h7.448v3.82h-10.797v5.582
	h-5.024v-2.792h-5.025v-44.096h-3.349v-6.699h-10.605v51.911h-20.095v-51.911h-8.373v4.465h-4.465v35.165h-7.257v9.49h-3.349v-9.49
	h-13.954v-6.139h-6.14v-7.257h-5.582v-16.188h-8.932v6.139h-22.328v23.444h-11.722v-7.814h-13.954v-15.63h-34.608v18.421h-5.385
	v5.024h-3.546V291.55h-3.907v-7.814h-6.699v6.699h-7.257v26.793h-3.349v6.139h-3.907v-18.978h-27.352v15.629h-8.932v6.699h-5.024
	v3.907h-5.024v-4.465l-3.07-3.07v-6.978h-13.676v16.188h-5.024v-3.907h-5.582v-44.656h-4.465v-12.28h-5.024v-6.14h-6.699v-5.082
	h-10.047v8.989h-5.582v9.49h-3.35v32.904h-6.14v-6.111h-7.814v8.931h-8.932V288.76l-3.349-3.35v-11.722h-18.42v8.373h-9.49v16.746
	h-4.465v-3.349h-5.582l-3.35,3.349l-1.45,1.45v38.739h-6.364v-38.514h-5.582v-3.908h-8.372v6.14H92.66v9.96h-4.378v-4.379h-2.408
	v4.379H75.356v2.408h10.519v12.751h-1.03v10.605h-18.42v-10.605h-6.14v-12.281l-2.512-2.511v-6.419H47.446v17.303H33.492v11.164
	H14.513l-2.233-2.232H0V363h729v-43.54H725.65z M92.66,318.343h-3.907v9.49h-0.471v-12.751h4.378V318.343z M657.465,332.299h-3.82
	v-4.379h3.82V332.299z"/>
</svg>
