<svg
	 width="100%" height="864.637px" viewBox="0 0 1008.39 864.637" enable-background="new 0 0 1008.39 864.637"
	 >
<g id="Layer_1">
	<path fill="#E4E9E8" stroke="#FFFFFF" stroke-width="9.6327" stroke-miterlimit="10" d="M476.716,271.532
		c0,32.247-26.151,58.398-58.398,58.398c-32.247,0-58.398-26.151-58.398-58.398c0-32.247,26.151-58.398,58.398-58.398
		C450.564,213.134,476.716,239.285,476.716,271.532z"/>
	<circle fill="#E4E9E8" stroke="#FFFFFF" stroke-width="9.6327" stroke-miterlimit="10" cx="372.562" cy="307.655" r="34.918"/>
	<path fill="#E4E9E8" stroke="#FFFFFF" stroke-width="9.6327" stroke-miterlimit="10" d="M407.199,358.64
		c0,16.754-13.584,30.346-30.347,30.346c-16.763,0-30.347-13.592-30.347-30.346c0-16.763,13.584-30.346,30.347-30.346
		C393.615,328.294,407.199,341.878,407.199,358.64z"/>
	<path fill="#E4E9E8" stroke="#FFFFFF" stroke-width="9.6327" stroke-miterlimit="10" d="M505.125,341.361
		c0,35.03-28.409,63.458-63.459,63.458c-35.031,0-63.459-28.428-63.459-63.458c0-35.051,28.428-63.46,63.459-63.46
		C476.716,277.901,505.125,306.309,505.125,341.361z"/>
	<path fill="#E4E9E8" stroke="#FFFFFF" stroke-width="9.6327" stroke-miterlimit="10" d="M455.757,395.676
		c-7.92,16.641-27.844,23.697-44.495,15.766c-16.632-7.93-23.687-27.854-15.766-44.485c7.94-16.651,27.864-23.706,44.495-15.776
		C456.641,359.111,463.697,379.035,455.757,395.676z"/>
	<path fill="#E4E9E8" stroke="#FFFFFF" stroke-width="9.6327" stroke-miterlimit="10" d="M406.333,399.692
		c-4.741,9.953-16.65,14.167-26.584,9.426c-9.952-4.741-14.186-16.65-9.445-26.603c4.741-9.943,16.65-14.168,26.603-9.426
		C406.86,377.831,411.074,389.749,406.333,399.692z"/>
	<path fill="#E4E9E8" stroke="#FFFFFF" stroke-width="9.6327" stroke-miterlimit="10" d="M811.32,287.157
		c9.764,30.733,42.613,47.741,73.336,37.986c30.743-9.765,47.75-42.604,37.986-73.337c-9.765-30.741-42.595-47.75-73.335-37.985
		C818.564,223.585,801.556,256.425,811.32,287.157z"/>
	<path fill="#E4E9E8" stroke="#FFFFFF" stroke-width="9.6327" stroke-miterlimit="10" d="M878.617,319.893
		c5.832,18.381,25.474,28.551,43.855,22.709c18.381-5.832,28.54-25.473,22.708-43.846c-5.851-18.381-25.474-28.55-43.855-22.718
		C882.945,281.88,872.785,301.512,878.617,319.893z"/>
	<path fill="#E4E9E8" stroke="#FFFFFF" stroke-width="9.6327" stroke-miterlimit="10" d="M935.661,332.413
		c3.16,9.982,13.828,15.503,23.8,12.333c9.99-3.17,15.502-13.838,12.341-23.818c-3.16-9.971-13.828-15.503-23.818-12.333
		C938.013,311.766,932.481,322.433,935.661,332.413z"/>
	<path fill="#E4E9E8" stroke="#FFFFFF" stroke-width="9.6327" stroke-miterlimit="10" d="M934.796,378.499
		c5.38,16.923,23.46,26.293,40.393,20.912c16.913-5.371,26.283-23.461,20.902-40.374c-5.38-16.933-23.46-26.283-40.374-20.912
		C938.784,343.495,929.434,361.575,934.796,378.499z"/>
	<path fill="#E4E9E8" stroke="#FFFFFF" stroke-width="9.6327" stroke-miterlimit="10" d="M894.327,378.028
		c5.08,15.973,22.126,24.816,38.117,19.735c15.954-5.07,24.797-22.135,19.736-38.107c-5.08-15.973-22.144-24.806-38.117-19.736
		C898.09,345.001,889.247,362.055,894.327,378.028z"/>
	<path fill="#E4E9E8" stroke="#FFFFFF" stroke-width="9.6327" stroke-miterlimit="10" d="M795.761,371.941
		c10.592,33.386,46.282,51.88,79.696,41.269c33.376-10.602,51.869-46.301,41.259-79.686c-10.612-33.404-46.302-51.879-79.696-41.278
		C803.625,302.857,785.15,338.538,795.761,371.941z"/>
	<path fill="#35495C" d="M888.1,411.197c0,6.961-5.626,12.605-12.606,12.605H465.465c-6.961,0-12.606-5.644-12.606-12.605V137.606
		c0-6.951,5.644-12.586,12.606-12.586h410.029c6.98,0,12.606,5.635,12.606,12.586V411.197z"/>
	<path fill="#979797" d="M934.72,414c0,5.419-4.384,9.802-9.802,9.802H416.041c-5.4,0-9.783-4.383-9.783-9.802
		c0-5.4,4.384-9.802,9.783-9.802h508.876C930.336,404.198,934.72,408.601,934.72,414"/>
	<rect x="406.258" y="404.198" fill="#B3B1B3" width="528.462" height="12.078"/>
	<path fill="#807F7F" d="M746.224,404.198c0,3.349-2.691,6.048-6.021,6.048h-139.43c-3.311,0-6.02-2.699-6.02-6.048H746.224z"/>
	<rect x="470.959" y="141.943" fill="#F6F4F6" width="399.042" height="262.255"/>
	<rect x="476.471" y="165.714" fill="#FFFFFF" width="388.318" height="238.484"/>
	<rect x="475.869" y="146.223" fill="#4C4C4C" width="388.318" height="18.889"/>
	<path fill="#A41D31" d="M490.995,155.028c0,2.559-2.07,4.628-4.61,4.628c-2.558,0-4.628-2.07-4.628-4.628
		c0-2.54,2.07-4.61,4.628-4.61C488.926,150.418,490.995,152.488,490.995,155.028"/>
	<path fill="#F0AF26" d="M509.471,155.028c0,2.559-2.07,4.628-4.609,4.628c-2.577,0-4.628-2.07-4.628-4.628
		c0-2.54,2.051-4.61,4.628-4.61C507.401,150.418,509.471,152.488,509.471,155.028"/>
	<path fill="#1BC0E2" d="M527.946,155.028c0,2.559-2.07,4.628-4.628,4.628s-4.609-2.07-4.609-4.628c0-2.54,2.051-4.61,4.609-4.61
		S527.946,152.488,527.946,155.028"/>
	<path fill="#F2F1F0" d="M849.098,155.667c0,2.559-1.674,4.618-3.762,4.618H553.194c-2.07,0-3.744-2.06-3.744-4.618
		c0-2.559,1.674-4.61,3.744-4.61h292.142C847.424,151.058,849.098,153.109,849.098,155.667"/>
	<rect x="494.175" y="259.454" fill="#D94D57" width="103.759" height="59.602"/>
	<rect x="616.785" y="257.488" fill="#84BF41" width="105.169" height="59.602"/>
	<rect x="742.424" y="257.488" fill="#FAAB29" width="102.14" height="59.602"/>
	<rect x="494.175" y="327.127" fill="#D5D3D2" width="103.759" height="6.425"/>
	<rect x="494.175" y="337.964" fill="#D5D3D2" width="103.759" height="6.425"/>
	<rect x="494.175" y="350.005" fill="#D5D3D2" width="103.759" height="6.425"/>
	<rect x="494.175" y="360.841" fill="#D5D3D2" width="103.759" height="6.425"/>
	<rect x="494.175" y="372.882" fill="#D5D3D2" width="103.759" height="6.425"/>
	<rect x="494.175" y="383.72" fill="#D5D3D2" width="103.759" height="6.425"/>
	<rect x="617.086" y="327.127" fill="#D5D3D2" width="104.568" height="6.425"/>
	<rect x="617.086" y="337.964" fill="#D5D3D2" width="104.568" height="6.425"/>
	<rect x="617.086" y="350.005" fill="#D5D3D2" width="104.568" height="6.425"/>
	<rect x="617.086" y="360.841" fill="#D5D3D2" width="104.568" height="6.425"/>
	<rect x="617.086" y="372.882" fill="#D5D3D2" width="104.568" height="6.425"/>
	<rect x="617.086" y="383.72" fill="#D5D3D2" width="104.568" height="6.425"/>
	<rect x="742.424" y="327.127" fill="#D5D3D2" width="102.14" height="6.425"/>
	<rect x="742.424" y="337.964" fill="#D5D3D2" width="102.14" height="6.425"/>
	<rect x="742.424" y="350.005" fill="#D5D3D2" width="102.14" height="6.425"/>
	<rect x="742.424" y="360.841" fill="#D5D3D2" width="102.14" height="6.425"/>
	<rect x="742.424" y="372.882" fill="#D5D3D2" width="102.14" height="6.425"/>
	<rect x="742.424" y="383.72" fill="#D5D3D2" width="102.14" height="6.425"/>
	<rect x="734.202" y="177.614" fill="#C7C6C4" width="110.362" height="12.643"/>
	<rect x="494.175" y="179.752" fill="#C7C6C4" width="147.917" height="52.407"/>
	<rect x="25.981" y="20.525" fill="none" width="623.325" height="30.738"/>
	<text transform="matrix(1 0 0 1 25.9811 42.4187)" fontFamily="'Courier-Bold'" fontSize="34.2626">&gt; Work in progress........</text>
</g>
<g id="Слой_2">
	<rect x="577.606" y="218.587" fill="#2D3037" width="283.361" height="145.467"/>
	<rect x="577.606" y="205.955" fill="#4C4C4C" width="284.522" height="14.464"/>
	<path fill="#A41D31" d="M588.689,212.698c0,1.959-1.516,3.544-3.377,3.544c-1.874,0-3.391-1.585-3.391-3.544
		c0-1.945,1.517-3.53,3.391-3.53C587.173,209.168,588.689,210.753,588.689,212.698"/>
	<path fill="#F0AF26" d="M602.226,212.698c0,1.959-1.516,3.544-3.377,3.544c-1.888,0-3.391-1.585-3.391-3.544
		c0-1.945,1.503-3.53,3.391-3.53C600.709,209.168,602.226,210.753,602.226,212.698"/>
	<path fill="#1BC0E2" d="M615.763,212.698c0,1.959-1.516,3.544-3.391,3.544s-3.377-1.585-3.377-3.544c0-1.945,1.503-3.53,3.377-3.53
		S615.763,210.753,615.763,212.698"/>

		<line fill="none" stroke="#FC3F0D" stroke-width="2" stroke-miterlimit="10" x1="581.921" y1="227.543" x2="621.573" y2="227.543"/>

		<line fill="none" stroke="#FC3F0D" stroke-width="1.7529" stroke-miterlimit="10" x1="581.921" y1="237.543" x2="612.378" y2="237.543"/>

		<line fill="none" stroke="#FC3F0D" stroke-width="1.7529" stroke-miterlimit="10" x1="630.91" y1="303.043" x2="661.368" y2="303.043"/>

		<line fill="none" stroke="#FC3F0D" stroke-width="1.7529" stroke-miterlimit="10" x1="621.573" y1="309.322" x2="652.031" y2="309.322"/>
	<line fill="none" stroke="#9C20E5" stroke-miterlimit="10" x1="588.689" y1="257.488" x2="608.994" y2="257.488"/>
	<line fill="none" stroke="#9C20E5" stroke-miterlimit="10" x1="588.689" y1="261.488" x2="608.994" y2="261.488"/>
	<line fill="none" stroke="#9C20E5" stroke-miterlimit="10" x1="588.689" y1="265.488" x2="608.994" y2="265.488"/>
	<line fill="none" stroke="#9C20E5" stroke-miterlimit="10" x1="588.689" y1="269.488" x2="608.994" y2="269.488"/>
	<line fill="none" stroke="#9C20E5" stroke-miterlimit="10" x1="605.61" y1="303.043" x2="625.915" y2="303.043"/>
	<line fill="none" stroke="#9C20E5" stroke-miterlimit="10" x1="615.92" y1="333.553" x2="636.226" y2="333.553"/>
	<line fill="none" stroke="#EFE80C" stroke-miterlimit="10" x1="616.785" y1="257.488" x2="649.073" y2="257.488"/>
	<line fill="none" stroke="#EFE80C" stroke-miterlimit="10" x1="616.785" y1="261.488" x2="649.073" y2="261.488"/>
	<line fill="none" stroke="#EFE80C" stroke-miterlimit="10" x1="616.785" y1="265.488" x2="649.073" y2="265.488"/>
	<line fill="none" stroke="#EFE80C" stroke-miterlimit="10" x1="616.785" y1="269.488" x2="649.073" y2="269.488"/>

		<line fill="none" stroke="#EFE80C" stroke-width="0.7927" stroke-miterlimit="10" x1="656.285" y1="309.322" x2="676.573" y2="309.322"/>

		<line fill="none" stroke="#EFE80C" stroke-width="0.7927" stroke-miterlimit="10" x1="592.573" y1="325.043" x2="666.429" y2="325.043"/>

		<line fill="none" stroke="#EFE80C" stroke-width="0.7927" stroke-miterlimit="10" x1="595.457" y1="328.294" x2="670.63" y2="328.294"/>

		<line fill="none" stroke="#EFE80C" stroke-width="0.7927" stroke-miterlimit="10" x1="617.086" y1="337.964" x2="680.073" y2="337.964"/>

		<line fill="none" stroke="#EFE80C" stroke-width="0.7927" stroke-miterlimit="10" x1="629.501" y1="342.574" x2="687.073" y2="342.574"/>

		<line fill="none" stroke="#FC3F0D" stroke-width="1.7529" stroke-miterlimit="10" x1="638.244" y1="333.553" x2="668.701" y2="333.553"/>
</g>
<g id="Слой_3">
	<polygon fill="#FFFFFF" points="75.411,822.264 151.124,822.264 151.124,566.883 49.256,566.883 	"/>
	<polygon fill="#A04A33" points="63.635,707.27 144.259,707.27 144.259,659.673 58.758,659.673 	"/>
	<path fill="#FFFFFF" d="M50.334,536.142c0.732-5.607,5.29-9.943,10.858-9.943h95.59v45.52h-95.59h-8.26
		c-6.08,0-11.014-5.147-11.014-11.5v-12.935C41.918,541.876,45.513,537.369,50.334,536.142"/>
	<polygon fill="#D0D1D3" points="219.966,822.264 147.689,822.264 147.689,566.883 246.122,566.883 	"/>
	<polygon fill="#8B3C26" points="231.74,707.27 151.124,707.27 151.124,659.673 236.62,659.673 	"/>
	<path fill="#E5E5E6" d="M247.808,536.142c-0.735-5.607-5.293-9.943-10.863-9.943H147.69v45.52h89.255h8.257
		c6.085,0,11.019-5.147,11.019-11.5v-12.935C256.221,541.876,252.631,537.369,247.808,536.142"/>
	<path fill="#AE4731" d="M184.848,683.472c0-21.428-16.633-38.801-37.159-38.801s-37.159,17.374-37.159,38.801
		c0,21.427,16.633,38.799,37.159,38.799S184.848,704.9,184.848,683.472z"/>
	<path fill="#FFFFFF" d="M177.484,683.472c0-17.18-13.338-31.11-29.795-31.11s-29.793,13.93-29.793,31.11
		c0,17.179,13.335,31.109,29.793,31.109S177.484,700.651,177.484,683.472z"/>
	<g>
		<g>
			<polygon fill-rule="evenodd" clip-rule="evenodd" fill="#C2584D" points="126.292,686.57 122.51,680.373 118.728,686.57 			"/>
			<path fill="#C2584D" d="M147.628,657.497c7.172,0,13.666,2.907,18.367,7.608c4.013,4.013,6.719,9.334,7.424,15.268h-1.602
				c-0.697-5.495-3.222-10.419-6.947-14.143c-4.412-4.412-10.508-7.141-17.242-7.141s-12.829,2.729-17.242,7.141
				c-3.183,3.183-5.49,7.242-6.528,11.784h-1.629c1.065-4.982,3.559-9.435,7.033-12.908
				C133.962,660.405,140.456,657.497,147.628,657.497L147.628,657.497z M173.027,688.929c-1.065,4.982-3.559,9.435-7.033,12.909
				c-4.701,4.7-11.194,7.608-18.367,7.608s-13.666-2.907-18.366-7.608c-4.013-4.013-6.719-9.334-7.424-15.268h1.602
				c0.697,5.495,3.222,10.419,6.947,14.143c4.412,4.412,10.508,7.141,17.242,7.141s12.829-2.729,17.242-7.141
				c3.183-3.183,5.49-7.242,6.528-11.784H173.027z"/>
			<path fill-rule="evenodd" clip-rule="evenodd" fill="#FFFFFF" d="M147.628,703.263c10.901,0,19.791-8.891,19.791-19.791
				c0-10.901-8.891-19.791-19.791-19.791c-10.901,0-19.791,8.891-19.791,19.791C127.837,694.372,136.727,703.263,147.628,703.263z"
				/>

				<path fill-rule="evenodd" clip-rule="evenodd" fill="none" stroke="#6CA794" stroke-width="0.8596" stroke-miterlimit="22.9256" d="
				M147.628,703.504V701.7 M149.722,703.394l-0.189-1.794 M151.789,703.069l-0.375-1.764 M153.808,702.53l-0.558-1.716
				 M155.756,701.785l-0.734-1.648 M157.62,700.843l-0.902-1.562 M159.376,699.712l-1.06-1.459 M161.003,698.401l-1.207-1.341
				 M162.487,696.926l-1.341-1.207 M163.807,695.303l-1.46-1.06 M164.947,693.547l-1.562-0.902 M165.895,691.682l-1.648-0.734
				 M166.645,689.73l-1.716-0.557 M167.189,687.707l-1.765-0.375 M167.521,685.635l-1.794-0.188 M167.635,683.538h-1.804
				 M167.525,681.437l-1.794,0.188 M167.199,679.363l-1.765,0.375 M166.66,677.337l-1.716,0.557 M165.914,675.381l-1.648,0.734
				 M164.972,673.511l-1.562,0.902 M163.84,671.747l-1.459,1.06 M162.529,670.113l-1.341,1.207 M161.054,668.622l-1.207,1.341
				 M159.43,667.295l-1.06,1.459 M157.674,666.148l-0.902,1.563 M155.808,665.192l-0.734,1.648 M153.856,664.436l-0.557,1.715
				 M151.832,663.885l-0.375,1.765 M149.761,663.546l-0.189,1.794 M147.628,663.44v1.804 M145.534,663.549l0.189,1.794
				 M143.467,663.874l0.375,1.764 M141.448,664.413l0.558,1.716 M139.499,665.158l0.734,1.648 M137.636,666.1l0.902,1.563
				 M135.88,667.231l1.06,1.459 M134.253,668.542l1.207,1.341 M132.769,670.017l1.341,1.207 M131.45,671.641l1.459,1.06
				 M130.309,673.396l1.562,0.902 M129.361,675.261l1.648,0.734 M128.611,677.214l1.716,0.557 M128.067,679.237l1.764,0.375
				 M127.735,681.308l1.794,0.189 M127.621,683.406h1.804 M127.731,685.506l1.794-0.189 M128.057,687.581l1.764-0.375
				 M128.596,689.607l1.716-0.557 M129.342,691.563l1.648-0.734 M130.284,693.433l1.562-0.902 M131.415,695.196l1.46-1.06
				 M132.727,696.83l1.341-1.207 M134.202,698.321l1.207-1.341 M135.826,699.648l1.06-1.459 M137.582,700.796l0.902-1.562
				 M139.448,701.751l0.733-1.648 M141.4,702.508l0.558-1.716 M143.424,703.059l0.375-1.764 M145.495,703.398l0.189-1.794"/>
			<polygon fill-rule="evenodd" clip-rule="evenodd" fill="#C2584D" points="169.019,680.373 172.801,686.57 176.583,680.373 			"/>
		</g>
		<g>
			<path fill="#4E4E4E" d="M144.666,688.82h-7.198v-1.384l3.411-3.656c0.492-0.566,0.843-1.041,1.051-1.431
				c0.207-0.388,0.311-0.749,0.311-1.083c0-0.442-0.121-0.806-0.359-1.09c-0.24-0.282-0.578-0.422-1.018-0.422
				c-0.487,0-0.858,0.165-1.113,0.497c-0.252,0.329-0.378,0.771-0.378,1.32h-2.057l-0.015-0.042
				c-0.024-0.952,0.287-1.758,0.937-2.415c0.65-0.66,1.525-0.989,2.625-0.989c1.087,0,1.94,0.282,2.561,0.848
				c0.62,0.563,0.929,1.318,0.929,2.259c0,0.638-0.176,1.223-0.524,1.762c-0.351,0.539-0.93,1.246-1.735,2.118l-1.876,2.049
				l0.015,0.037h4.432V688.82z"/>
			<path fill="#4E4E4E" d="M152.176,684.894h1.194v1.636h-1.194v2.289h-2.109v-2.289h-1.213v-1.636h1.213V681.1l-0.042-0.015
				l-0.168,0.297l-1.002,1.59v-2.792l1.193-1.905h2.129V684.894z M148.854,686.53h-3.088l-0.094-1.268l3.182-5.083v2.792
				l-1.212,1.923h1.212V686.53z"/>
			<path fill="#4E4E4E" d="M155.374,680.889c0.138-0.2,0.307-0.355,0.506-0.467c0.2-0.112,0.422-0.169,0.665-0.169
				c0.456,0,0.814,0.152,1.075,0.456c0.26,0.303,0.39,0.773,0.39,1.407v2.599h-1.181v-2.607c0-0.34-0.061-0.582-0.181-0.723
				c-0.119-0.142-0.298-0.213-0.536-0.213c-0.162,0-0.304,0.029-0.428,0.087c-0.124,0.058-0.227,0.14-0.308,0.244v3.211h-1.181
				V678.4h1.181V680.889z"/>
		</g>
	</g>
	<rect x="0" y="822.264" fill="#EAA38B" width="395.061" height="42.374"/>
	<rect x="147.69" y="822.264" opacity="0.1" width="247.371" height="42.374"/>
	<line fill="none" stroke="#9C20E5" stroke-width="2" stroke-miterlimit="10" x1="592.573" y1="291.32" x2="617.086" y2="291.32"/>
	<line fill="none" stroke="#F9B428" stroke-width="2" stroke-miterlimit="10" x1="626.073" y1="291.32" x2="670.63" y2="291.32"/>
</g>
</svg>
