<svg
	 width="100%" height="936.887px" viewBox="0 0 846.158 936.887" enable-background="new 0 0 846.158 936.887"
	>
<g id="Layer_1">
	<path fill="#E4E9E8" stroke="#FFFFFF" strokeWidth="10.064" strokeMiterlimit="10" d="M297.005,253.032
		c0,33.691-27.322,61.013-61.013,61.013c-33.691,0-61.013-27.322-61.013-61.013c0-33.691,27.322-61.012,61.013-61.012
		C269.682,192.019,297.005,219.341,297.005,253.032z"/>
	<circle fill="#E4E9E8" stroke="#FFFFFF" strokeWidth="10.064" strokeMiterlimit="10" cx="188.187" cy="290.772" r="36.482"/>
	<path fill="#E4E9E8" stroke="#FFFFFF" strokeWidth="10.064" strokeMiterlimit="10" d="M224.375,344.04
		c0,17.505-14.192,31.705-31.706,31.705c-17.514,0-31.706-14.201-31.706-31.705c0-17.513,14.192-31.705,31.706-31.705
		C210.183,312.335,224.375,326.527,224.375,344.04z"/>
	<path fill="#E4E9E8" stroke="#FFFFFF" strokeWidth="10.064" strokeMiterlimit="10" d="M326.685,325.987
		c0,36.599-29.681,66.3-66.3,66.3c-36.6,0-66.301-29.701-66.301-66.3c0-36.621,29.701-66.301,66.301-66.301
		C297.005,259.686,326.685,289.366,326.685,325.987z"/>
	<path fill="#E4E9E8" stroke="#FFFFFF" strokeWidth="10.064" strokeMiterlimit="10" d="M275.107,382.734
		c-8.275,17.386-29.091,24.758-46.487,16.472c-17.376-8.285-24.747-29.102-16.472-46.477c8.295-17.397,29.111-24.767,46.487-16.482
		C276.031,344.532,283.403,365.348,275.107,382.734z"/>
	<path fill="#E4E9E8" stroke="#FFFFFF" strokeWidth="10.064" strokeMiterlimit="10" d="M223.47,386.93
		c-4.953,10.399-17.396,14.801-27.774,9.848c-10.398-4.953-14.821-17.396-9.867-27.794c4.953-10.389,17.396-14.802,27.794-9.848
		C224.021,364.09,228.424,376.542,223.47,386.93z"/>
	<path fill="#E4E9E8" stroke="#FFFFFF" strokeWidth="10.064" strokeMiterlimit="10" d="M646.591,269.356
		c10.201,32.109,44.521,49.878,76.62,39.686c32.119-10.202,49.888-44.511,39.686-76.62c-10.202-32.118-44.502-49.888-76.619-39.686
		C654.159,202.938,636.389,237.248,646.591,269.356z"/>
	<path fill="#E4E9E8" stroke="#FFFFFF" strokeWidth="10.064" strokeMiterlimit="10" d="M716.901,303.558
		c6.093,19.204,26.615,29.829,45.819,23.725c19.204-6.093,29.818-26.614,23.725-45.809c-6.113-19.204-26.615-29.828-45.819-23.735
		C721.422,263.843,710.808,284.354,716.901,303.558z"/>
	<path fill="#E4E9E8" stroke="#FFFFFF" strokeWidth="10.064" strokeMiterlimit="10" d="M776.499,316.639
		c3.302,10.429,14.447,16.197,24.865,12.885c10.437-3.312,16.196-14.457,12.894-24.884c-3.302-10.418-14.447-16.197-24.884-12.885
		C778.956,295.067,773.177,306.212,776.499,316.639z"/>
	<path fill="#E4E9E8" stroke="#FFFFFF" strokeWidth="10.064" strokeMiterlimit="10" d="M775.595,364.788
		c5.621,17.681,24.511,27.47,42.202,21.848c17.671-5.612,27.46-24.511,21.838-42.182c-5.621-17.691-24.511-27.46-42.182-21.848
		C779.762,328.217,769.993,347.107,775.595,364.788z"/>
	<path fill="#E4E9E8" stroke="#FFFFFF" strokeWidth="10.064" strokeMiterlimit="10" d="M733.314,364.296
		c5.307,16.688,23.116,25.927,39.823,20.619c16.669-5.297,25.907-23.126,20.62-39.813c-5.307-16.688-23.136-25.917-39.824-20.62
		C737.246,329.79,728.007,347.608,733.314,364.296z"/>
	<path fill="#E4E9E8" stroke="#FFFFFF" strokeWidth="10.064" strokeMiterlimit="10" d="M630.335,357.937
		c11.066,34.881,48.354,54.203,83.264,43.116c34.87-11.077,54.192-48.374,43.106-83.254c-11.087-34.899-48.375-54.202-83.265-43.126
		C638.551,285.76,619.249,323.038,630.335,357.937z"/>
	<path fill="#35495C" d="M726.808,398.951c0,7.273-5.878,13.169-13.17,13.169H285.25c-7.273,0-13.17-5.897-13.17-13.169V113.109
		c0-7.262,5.897-13.15,13.17-13.15h428.388c7.292,0,13.17,5.887,13.17,13.15V398.951z"/>
	<path fill="#979797" d="M775.516,401.879c0,5.661-4.58,10.241-10.241,10.241H233.613c-5.641,0-10.221-4.58-10.221-10.241
		c0-5.641,4.58-10.241,10.221-10.241h531.661C770.936,391.638,775.516,396.238,775.516,401.879"/>
	<rect x="223.392" y="391.638" fill="#B3B1B3" width="552.124" height="12.619"/>
	<path fill="#807F7F" d="M578.58,391.638c0,3.499-2.811,6.319-6.29,6.319H426.617c-3.459,0-6.29-2.82-6.29-6.319H578.58z"/>
	<rect x="290.99" y="117.64" fill="#F6F4F6" width="416.909" height="273.998"/>
	<rect x="296.749" y="142.476" fill="#FFFFFF" width="405.705" height="249.162"/>
	<rect x="296.12" y="122.112" fill="#4C4C4C" width="405.705" height="19.735"/>
	<path fill="#A41D31" d="M311.924,131.311c0,2.673-2.162,4.835-4.816,4.835c-2.673,0-4.835-2.162-4.835-4.835
		c0-2.654,2.163-4.816,4.835-4.816C309.761,126.495,311.924,128.657,311.924,131.311"/>
	<path fill="#F0AF26" d="M331.226,131.311c0,2.673-2.162,4.835-4.816,4.835c-2.693,0-4.836-2.162-4.836-4.835
		c0-2.654,2.143-4.816,4.836-4.816C329.064,126.495,331.226,128.657,331.226,131.311"/>
	<path fill="#1BC0E2" d="M350.528,131.311c0,2.673-2.162,4.835-4.835,4.835c-2.673,0-4.816-2.162-4.816-4.835
		c0-2.654,2.143-4.816,4.816-4.816C348.366,126.495,350.528,128.657,350.528,131.311"/>
	<path fill="#F2F1F0" d="M686.061,131.979c0,2.673-1.749,4.825-3.931,4.825H376.907c-2.162,0-3.911-2.152-3.911-4.825
		c0-2.673,1.749-4.816,3.911-4.816H682.13C684.311,127.163,686.061,129.306,686.061,131.979"/>
	<rect x="315.246" y="240.413" fill="#D94D57" width="108.404" height="62.271"/>
	<rect x="443.345" y="238.359" fill="#84BF41" width="109.878" height="62.271"/>
	<rect x="574.61" y="238.359" fill="#FAAB29" width="106.713" height="62.271"/>
	<rect x="315.246" y="311.116" fill="#D5D3D2" width="108.404" height="6.713"/>
	<rect x="315.246" y="322.438" fill="#D5D3D2" width="108.404" height="6.713"/>
	<rect x="315.246" y="335.018" fill="#D5D3D2" width="108.404" height="6.713"/>
	<rect x="315.246" y="346.34" fill="#D5D3D2" width="108.404" height="6.713"/>
	<rect x="315.246" y="358.92" fill="#D5D3D2" width="108.404" height="6.713"/>
	<rect x="315.246" y="370.243" fill="#D5D3D2" width="108.404" height="6.713"/>
	<rect x="443.66" y="311.116" fill="#D5D3D2" width="109.25" height="6.713"/>
	<rect x="443.66" y="322.438" fill="#D5D3D2" width="109.25" height="6.713"/>
	<rect x="443.66" y="335.018" fill="#D5D3D2" width="109.25" height="6.713"/>
	<rect x="443.66" y="346.34" fill="#D5D3D2" width="109.25" height="6.713"/>
	<rect x="443.66" y="358.92" fill="#D5D3D2" width="109.25" height="6.713"/>
	<rect x="443.66" y="370.243" fill="#D5D3D2" width="109.25" height="6.713"/>
	<rect x="574.61" y="311.116" fill="#D5D3D2" width="106.713" height="6.713"/>
	<rect x="574.61" y="322.438" fill="#D5D3D2" width="106.713" height="6.713"/>
	<rect x="574.61" y="335.018" fill="#D5D3D2" width="106.713" height="6.713"/>
	<rect x="574.61" y="346.34" fill="#D5D3D2" width="106.713" height="6.713"/>
	<rect x="574.61" y="358.92" fill="#D5D3D2" width="106.713" height="6.713"/>
	<rect x="574.61" y="370.243" fill="#D5D3D2" width="106.713" height="6.713"/>
	<rect x="566.02" y="154.908" fill="#C7C6C4" width="115.303" height="13.209"/>
	<rect x="315.245" y="157.142" fill="#C7C6C4" width="154.54" height="54.754"/>
	<rect x="100.761" y="8.242" fill="none" width="619.631" height="53.827"/>
	<text transform="matrix(1 0 0 1 100.7607 28.4744)" font-family="'Courier-Bold'" fontSize="31.6629">&gt; Work in progress........</text>
</g>
<g id="Слой_2">
	<rect x="402.412" y="197.716" fill="#2D3037" width="297.461" height="172.778"/>
	<rect x="402.412" y="184.519" fill="#4C4C4C" width="297.261" height="15.112"/>
	<path fill="#A41D31" d="M413.991,191.563c0,2.047-1.584,3.703-3.529,3.703c-1.958,0-3.543-1.656-3.543-3.703
		c0-2.032,1.585-3.688,3.543-3.688C412.407,187.875,413.991,189.531,413.991,191.563"/>
	<path fill="#F0AF26" d="M428.134,191.563c0,2.047-1.584,3.703-3.528,3.703c-1.973,0-3.543-1.656-3.543-3.703
		c0-2.032,1.57-3.688,3.543-3.688C426.55,187.875,428.134,189.531,428.134,191.563"/>
	<path fill="#1BC0E2" d="M442.277,191.563c0,2.047-1.584,3.703-3.543,3.703c-1.959,0-3.528-1.656-3.528-3.703
		c0-2.032,1.57-3.688,3.528-3.688C440.693,187.875,442.277,189.531,442.277,191.563"/>
	<g id="hdLxgc.tif_2_">

			<image overflow="visible" width="2356" height="1404" id="Layer_0_1_" xlink:href="81DAF82C9B77FE71.png"  transform="matrix(0.1199 0 0 0.1199 417.1401 199.9207)">
		</image>
	</g>
</g>
<g id="Слой_3">
	<polygon fill="#FFFFFF" points="320.332,936.887 403.053,936.887 403.053,657.865 291.755,657.865 	"/>
	<polygon fill="#A04A33" points="307.465,811.248 395.553,811.248 395.553,759.245 302.137,759.245 	"/>
	<path fill="#FFFFFF" d="M292.933,624.278c0.8-6.126,5.78-10.864,11.863-10.864h104.439v49.734H304.796h-9.024
		c-6.643,0-12.034-5.623-12.034-12.564v-14.133C283.738,630.543,287.666,625.618,292.933,624.278"/>
	<polygon fill="#D0D1D3" points="478.269,936.887 399.3,936.887 399.3,657.865 506.845,657.865 	"/>
	<polygon fill="#8B3C26" points="491.132,811.248 403.053,811.248 403.053,759.245 496.464,759.245 	"/>
	<path fill="#E5E5E6" d="M511.702,624.278c-0.803-6.126-5.783-10.864-11.869-10.864h-97.518v49.734h97.518h9.022
		c6.648,0,12.039-5.623,12.039-12.564v-14.133C520.895,630.543,516.972,625.618,511.702,624.278"/>
	<path fill="#AE4731" d="M439.9,785.247c0-23.411-18.173-42.393-40.599-42.393s-40.599,18.982-40.599,42.393
		c0,23.411,18.173,42.39,40.599,42.39S439.9,808.658,439.9,785.247z"/>
	<path fill="#FFFFFF" d="M431.854,785.247c0-18.771-14.572-33.99-32.554-33.99s-32.551,15.219-32.551,33.99
		c0,18.769,14.57,33.988,32.551,33.988S431.854,804.016,431.854,785.247z"/>
	<g>
		<g>
			<polygon fillRule="evenodd" clipRule="evenodd" fill="#C2584D" points="375.922,788.632 371.79,781.861 367.658,788.632 			"/>
			<path fill="#C2584D" d="M399.234,756.868c7.836,0,14.931,3.177,20.067,8.312c4.384,4.385,7.341,10.198,8.111,16.681h-1.75
				c-0.762-6.003-3.521-11.383-7.59-15.453c-4.821-4.821-11.481-7.803-18.838-7.803s-14.017,2.982-18.838,7.803
				c-3.477,3.478-5.998,7.912-7.133,12.875h-1.78c1.164-5.443,3.889-10.309,7.684-14.103
				C384.302,760.044,391.397,756.868,399.234,756.868L399.234,756.868z M426.984,791.21c-1.164,5.444-3.889,10.309-7.684,14.104
				c-5.136,5.135-12.231,8.312-20.067,8.312s-14.931-3.177-20.066-8.312c-4.385-4.385-7.341-10.198-8.112-16.681h1.75
				c0.762,6.003,3.521,11.383,7.59,15.453c4.821,4.821,11.481,7.803,18.838,7.803s14.017-2.982,18.838-7.803
				c3.477-3.478,5.998-7.912,7.133-12.875H426.984z"/>
			<path fillRule="evenodd" clipRule="evenodd" fill="#FFFFFF" d="M399.234,806.87c11.91,0,21.624-9.714,21.624-21.624
				c0-11.91-9.714-21.623-21.624-21.623c-11.91,0-21.623,9.714-21.623,21.623C377.61,797.157,387.324,806.87,399.234,806.87z"/>

				<path fillRule="evenodd" clipRule="evenodd" fill="none" stroke="#6CA794" strokeWidth="0.9391" strokeMiterlimit="22.9256" d="
				M399.234,807.134v-1.971 M401.521,807.014l-0.206-1.96 M403.78,806.658l-0.41-1.928 M405.986,806.07l-0.609-1.875
				 M408.115,805.256l-0.802-1.801 M410.15,804.226l-0.985-1.707 M412.069,802.99l-1.158-1.595 M413.847,801.558l-1.319-1.465
				 M415.468,799.946l-1.465-1.319 M416.91,798.173l-1.595-1.158 M418.156,796.255l-1.707-0.986 M419.192,794.217l-1.801-0.802
				 M420.011,792.085l-1.875-0.609 M420.605,789.874l-1.928-0.41 M420.968,787.61l-1.96-0.206 M421.093,785.319h-1.971
				 M420.972,783.024l-1.96,0.206 M420.617,780.757l-1.928,0.41 M420.027,778.544l-1.875,0.609 M419.213,776.407l-1.801,0.802
				 M418.183,774.364l-1.707,0.985 M416.947,772.437l-1.595,1.159 M415.514,770.651l-1.465,1.319 M413.902,769.022l-1.319,1.465
				 M412.128,767.573l-1.159,1.595 M410.21,766.319l-0.986,1.707 M408.171,765.275l-0.802,1.801 M406.038,764.449l-0.609,1.874
				 M403.827,763.846l-0.41,1.928 M401.564,763.476l-0.206,1.96 M399.234,763.36v1.971 M396.946,763.48l0.206,1.96 M394.687,763.835
				l0.41,1.928 M392.482,764.424l0.609,1.875 M390.353,765.238l0.802,1.801 M388.317,766.267l0.985,1.707 M386.398,767.503
				l1.158,1.595 M384.62,768.935l1.319,1.465 M382.999,770.547l1.465,1.319 M381.558,772.32l1.595,1.159 M380.311,774.239
				l1.707,0.985 M379.275,776.276l1.801,0.802 M378.456,778.409l1.875,0.609 M377.862,780.619l1.928,0.41 M377.5,782.883l1.96,0.206
				 M377.375,785.175h1.971 M377.495,787.47l1.96-0.206 M377.851,789.737l1.928-0.41 M378.44,791.95l1.875-0.609 M379.255,794.087
				l1.801-0.802 M380.284,796.13l1.707-0.986 M381.52,798.057l1.595-1.159 M382.953,799.842l1.465-1.319 M384.565,801.471
				l1.319-1.465 M386.339,802.921l1.159-1.595 M388.258,804.175l0.985-1.707 M390.296,805.219l0.801-1.801 M392.429,806.045
				l0.609-1.875 M394.64,806.647l0.41-1.928 M396.904,807.018l0.206-1.96"/>
			<polygon fillRule="evenodd" clipRule="evenodd" fill="#C2584D" points="422.605,781.861 426.737,788.632 430.869,781.861
				"/>
		</g>
		<g>
			<path fill="#4E4E4E" d="M395.998,791.09h-7.865v-1.512l3.727-3.994c0.538-0.618,0.921-1.137,1.148-1.564
				c0.227-0.424,0.34-0.818,0.34-1.183c0-0.483-0.132-0.88-0.392-1.191c-0.262-0.308-0.632-0.462-1.112-0.462
				c-0.532,0-0.937,0.181-1.216,0.543c-0.276,0.359-0.413,0.843-0.413,1.442h-2.247l-0.016-0.046
				c-0.027-1.04,0.313-1.92,1.024-2.639c0.71-0.721,1.666-1.08,2.868-1.08c1.188,0,2.12,0.308,2.798,0.926
				c0.678,0.616,1.015,1.439,1.015,2.469c0,0.697-0.192,1.337-0.572,1.926c-0.384,0.589-1.016,1.361-1.896,2.315l-2.05,2.239
				l0.016,0.041h4.843V791.09z"/>
			<path fill="#4E4E4E" d="M404.202,786.801h1.304v1.788h-1.304v2.501h-2.304v-2.501h-1.325v-1.788h1.325v-4.146l-0.046-0.016
				l-0.184,0.324l-1.095,1.737v-3.05l1.303-2.081h2.326V786.801z M400.574,788.589H397.2l-0.103-1.385l3.477-5.553v3.05
				l-1.324,2.101h1.324V788.589z"/>
			<path fill="#4E4E4E" d="M407.697,782.425c0.151-0.219,0.335-0.388,0.553-0.511c0.219-0.122,0.461-0.184,0.726-0.184
				c0.498,0,0.889,0.166,1.175,0.498c0.284,0.331,0.426,0.844,0.426,1.537v2.84h-1.291v-2.849c0-0.371-0.066-0.636-0.198-0.79
				c-0.13-0.156-0.326-0.232-0.586-0.232c-0.177,0-0.332,0.032-0.468,0.095c-0.136,0.063-0.248,0.152-0.337,0.267v3.509h-1.291v-6.9
				h1.291V782.425z"/>
		</g>
	</g>
</g>
<g id="Слой_5">
</g>
</svg>
