<svg  width="100%"
	 height="948.364px" viewBox="0 0 1142 948.364" enable-background="new 0 0 1142 948.364" >
<g id="Back">
	<polygon opacity="0.8" fill="#FFFFFF" points="503.374,369.395 170.003,177.172 165.5,132.004 503.916,236.516 	"/>
	<polygon opacity="0.5" fill="#FF0000" points="796.377,204.381 503.777,391.618 504.896,236.516 806.946,139.301 	"/>
	<polygon opacity="0.8" fill="#00FF73" points="721.405,341.063 502.69,542.517 503.777,391.618 734.202,244.167 	"/>
	<polygon opacity="0.6" fill="#F4ABFF" points="615.197,632.099 500.821,801.72 502.69,542.517 630.923,424.404 	"/>
	<polygon opacity="0.2" fill="#7384FF" points="499.816,948.271 568.86,825.235 577.283,688.326 500.88,801.632 	"/>
	<polygon opacity="0.9" fill="#FFFFFF" points="501.816,729.128 236.848,416.547 218.392,204.988 503.374,369.395 	"/>
	<polygon opacity="0.8" fill="#2D2D2D" points="500.014,943.167 393.281,804.558 387.25,593.975 501.816,729.128 	"/>
</g>
<g id="Front">
	<polygon opacity="0.6" fill="#FFF800" points="500.403,948.271 447.038,870.905 422.866,210.448 504.503,236.516 	"/>
	<polygon opacity="0.8" fill="#FFFF00" points="630.923,424.404 502.69,542.517 503.777,391.618 637.854,305.668 	"/>
	<polygon opacity="0.3" fill="#FFF800" points="677.465,280.882 504.416,391.618 504.503,236.516 688.195,176.597 	"/>
	<polygon opacity="0.8" fill="#FF7F00" points="579.269,685.38 500.821,801.72 502.69,542.517 590.063,461.991 	"/>
	<polygon opacity="0.7" fill="#FF2A00" points="530.941,892.9 499.816,948.364 500.873,801.72 535.662,750.128 	"/>
	<g>
		<g>
			<path fill="#FFFFFF" d="M69.321,826.37l-40.267,26.001l-0.656-3.114c1.194-0.831,2.911-2.03,5.144-3.592
				c2.218-1.551,3.756-2.732,4.623-3.549c1.356-1.292,2.291-2.469,2.807-3.534c0.516-1.063,0.657-2.174,0.423-3.334l-9.254-45.976
				c-0.216-1.073-0.644-1.833-1.286-2.282c-0.643-0.449-1.945-0.41-3.913,0.121c-1.45,0.381-3.258,0.983-5.432,1.809
				c-2.187,0.831-3.974,1.588-5.352,2.271l-0.706-3.348l42.566-23.009l0.585,3.185c-1.286,0.735-2.814,1.693-4.586,2.875
				c-1.781,1.189-3.328,2.309-4.636,3.358c-1.559,1.255-2.544,2.446-2.948,3.57c-0.404,1.125-0.511,2.186-0.319,3.181l8.697,45.236
				c0.181,0.943,0.642,1.588,1.38,1.935c0.736,0.346,1.862,0.273,3.374-0.214c0.898-0.32,2.335-0.961,4.303-1.92
				c1.956-0.953,3.589-1.834,4.905-2.645L69.321,826.37z"/>
			<path fill="#FFFFFF" d="M106.49,802.37l-26.428,17.065l-0.482-2.731c0.87-0.619,1.794-1.28,2.771-1.983
				c0.974-0.7,1.769-1.324,2.387-1.872c1.011-0.921,1.725-1.858,2.144-2.811c0.418-0.951,0.543-1.921,0.373-2.911l-8.29-48.453
				c-0.179-1.047-0.651-1.866-1.415-2.454c-0.767-0.592-1.69-0.884-2.769-0.878c-0.775,0.032-2.144,0.416-4.115,1.154
				c-1.984,0.743-3.573,1.403-4.763,1.977l-0.51-2.859l21.788-12.643l0.907,0.228l9.362,56.934c0.156,0.95,0.519,1.58,1.089,1.89
				c0.568,0.31,1.399,0.293,2.491-0.047c0.83-0.233,1.637-0.528,2.423-0.883c0.783-0.354,1.655-0.809,2.615-1.365L106.49,802.37z"/>
			<path fill="#FFFFFF" d="M138.277,781.844l-23.674,15.287l-0.403-2.616c0.778-0.557,1.605-1.152,2.479-1.784
				c0.872-0.631,1.584-1.195,2.138-1.694c0.907-0.84,1.55-1.705,1.931-2.597c0.38-0.89,0.5-1.808,0.358-2.756l-6.921-46.334
				c-0.149-1-0.56-1.792-1.233-2.375c-0.675-0.586-1.49-0.892-2.447-0.92c-0.687,0.007-1.903,0.328-3.656,0.966
				c-1.763,0.643-3.176,1.219-4.234,1.726l-0.425-2.726l19.427-11.329l0.804,0.244l7.818,54.455c0.131,0.91,0.449,1.523,0.953,1.839
				c0.503,0.315,1.244,0.329,2.22,0.044c0.741-0.193,1.464-0.444,2.167-0.755c0.702-0.309,1.483-0.712,2.345-1.208L138.277,781.844z
				"/>
			<path fill="#FFFFFF" d="M191.09,747.058l-12.768,9.083l-0.675-0.109l-0.521-4.543l-0.246,0.156
				c-0.59,1.028-1.257,2.151-2.004,3.373c-0.749,1.225-1.632,2.465-2.649,3.723c-1.179,1.468-2.34,2.756-3.48,3.862
				c-1.146,1.111-2.816,2.377-5.018,3.803c-3.789,2.454-6.846,3.282-9.146,2.454c-2.322-0.837-3.76-3.316-4.3-7.446l-2.374-18.166
				c-0.122-0.933-0.434-1.597-0.937-1.988c-0.503-0.393-1.193-0.588-2.068-0.586c-0.606,0.015-1.344,0.196-2.216,0.546
				c-0.875,0.351-1.792,0.776-2.754,1.276l-0.353-2.615l15.142-9.69l0.745,0.156l3.285,26.18c0.337,2.682,1.292,4.25,2.858,4.707
				c1.556,0.454,3.293,0.065,5.209-1.161c1.562-0.999,2.922-2.093,4.082-3.281c1.156-1.183,2.103-2.312,2.844-3.387
				c0.69-0.987,1.285-1.947,1.785-2.878c0.5-0.929,0.873-1.733,1.12-2.412l-2.371-20.663c-0.094-0.823-0.374-1.439-0.84-1.847
				c-0.467-0.409-1.079-0.635-1.838-0.676c-0.545-0.006-1.325,0.251-2.344,0.773c-1.022,0.525-2.17,1.128-3.445,1.812l-0.301-2.518
				l15.061-9.597l0.675,0.169l3.161,28.708c0.09,0.817,0.354,1.396,0.79,1.734c0.436,0.339,1.007,0.499,1.713,0.483
				c0.504-0.04,1.089-0.229,1.755-0.566c0.665-0.336,1.389-0.742,2.174-1.219L191.09,747.058z"/>
			<path fill="#FFFFFF" d="M219.918,711.706c1.027,0.242,1.841,0.743,2.443,1.503c0.6,0.757,0.966,1.908,1.1,3.451
				c0.269,3.101-0.686,6.375-2.875,9.851c-2.206,3.502-5.232,6.504-9.111,9.016c-2.071,1.341-4.029,2.23-5.873,2.66
				c-1.858,0.434-3.208,0.597-4.041,0.487l-0.522,2.755l-2.828,1.827l-1.622-11.885l2.631-1.633c0.295,0.799,0.833,1.608,1.61,2.427
				c0.774,0.815,1.67,1.422,2.688,1.824c1.067,0.415,2.303,0.544,3.705,0.388c1.394-0.155,2.91-0.76,4.546-1.81
				c2.291-1.471,3.998-3.094,5.132-4.875c1.129-1.775,1.609-3.586,1.442-5.444c-0.086-0.959-0.354-1.666-0.804-2.122
				c-0.451-0.457-1.079-0.715-1.884-0.774c-0.832-0.044-1.841,0.074-3.03,0.356c-1.195,0.284-2.529,0.656-4.004,1.12
				c-1.181,0.379-2.508,0.716-3.986,1.011c-1.487,0.297-2.786,0.369-3.894,0.214c-1.195-0.157-2.211-0.629-3.048-1.417
				c-0.84-0.791-1.346-2.017-1.515-3.676c-0.297-2.917,0.61-6.069,2.711-9.433c2.087-3.341,5.024-6.088,8.778-8.231
				c1.427-0.815,2.894-1.465,4.398-1.95c1.495-0.483,2.717-0.737,3.671-0.765l0.659-2.304l2.561-1.462l1.499,10.748l-2.428,1.444
				c-0.717-2.18-1.972-3.569-3.775-4.165c-1.818-0.6-3.95-0.201-6.401,1.213c-2.028,1.17-3.587,2.59-4.668,4.259
				c-1.084,1.675-1.559,3.214-1.422,4.612c0.106,1.075,0.389,1.855,0.848,2.34c0.458,0.484,1.099,0.744,1.92,0.782
				c0.791,0.029,1.768-0.086,2.928-0.345c1.155-0.257,2.571-0.618,4.243-1.08c1.634-0.468,3.175-0.797,4.624-0.989
				C217.763,711.441,218.96,711.466,219.918,711.706z"/>
			<path fill="#FFFFFF" d="M250.365,708.02c-1.289,1.436-2.52,2.741-3.691,3.915c-1.176,1.179-2.645,2.339-4.414,3.484
				c-2.635,1.705-4.56,2.232-5.76,1.562c-1.207-0.673-1.915-2.273-2.118-4.8l-1.811-22.523l-6.02,3.495l-0.278-3.318l6.168-3.536
				l-0.85-10.577l6.058-3.334l0.805,10.463l9.057-5.193l0.229,3.195l-8.971,5.208l1.415,18.417c0.105,1.367,0.241,2.475,0.407,3.327
				c0.166,0.851,0.456,1.501,0.869,1.951c0.388,0.419,0.933,0.576,1.634,0.472c0.698-0.103,1.613-0.516,2.741-1.236
				c0.52-0.332,1.28-0.868,2.276-1.605c0.992-0.734,1.686-1.306,2.084-1.718L250.365,708.02z"/>
			<path fill="#FFFFFF" d="M275.068,665.867c0.06,1.071-0.117,2.155-0.533,3.256c-0.416,1.102-1.107,1.939-2.077,2.513
				c-1.049,0.621-1.871,0.791-2.464,0.507c-0.595-0.285-0.915-0.799-0.96-1.542c-0.028-0.467-0.02-0.912,0.024-1.333
				c0.044-0.421,0.083-0.84,0.117-1.256c-0.895,0.519-1.922,1.534-3.083,3.05c-1.166,1.522-2.131,3.287-2.893,5.29l1.153,18.264
				c0.046,0.735,0.214,1.25,0.502,1.546c0.288,0.296,0.716,0.381,1.284,0.257c0.489-0.096,1.111-0.332,1.865-0.706
				c0.752-0.373,1.4-0.714,1.947-1.021l0.123,2.048l-15.089,9.744l-0.145-2.106c0.457-0.338,0.929-0.684,1.414-1.04
				c0.484-0.355,0.901-0.71,1.249-1.065c0.541-0.544,0.929-1.14,1.163-1.785c0.234-0.646,0.326-1.349,0.276-2.111l-1.296-19.56
				c-0.044-0.671-0.233-1.246-0.567-1.727c-0.334-0.482-0.776-0.767-1.326-0.856c-0.401-0.038-0.869,0.034-1.404,0.219
				c-0.537,0.186-1.113,0.434-1.728,0.744l-0.15-2.177l9.816-6.372l0.44,0.218l0.284,4.493l0.146-0.085
				c1.098-2.442,2.353-4.535,3.763-6.278c1.402-1.733,2.699-2.939,3.892-3.62c1.187-0.678,2.173-0.793,2.96-0.348
				C274.555,663.469,274.986,664.416,275.068,665.867z"/>
			<path fill="#FFFFFF" d="M303.855,674.392c-0.738,0.813-1.389,1.507-1.951,2.079c-0.564,0.574-1.211,1.097-1.941,1.57
				c-1.272,0.823-2.309,1.127-3.107,0.907c-0.802-0.221-1.344-0.952-1.623-2.193l-0.15,0.096c-1.021,2.115-2.141,3.954-3.363,5.516
				c-1.228,1.57-2.742,2.939-4.549,4.109c-1.927,1.248-3.561,1.598-4.894,1.04c-1.343-0.563-2.079-1.964-2.201-4.206
				c-0.063-1.164,0.024-2.296,0.261-3.395c0.237-1.099,0.622-2.193,1.155-3.283c0.413-0.888,0.972-1.796,1.674-2.722
				c0.701-0.923,1.36-1.721,1.979-2.392c0.772-0.827,2.331-2.434,4.663-4.806c2.308-2.348,3.847-4.019,4.633-5.026l-0.137-2.984
				c-0.012-0.262-0.081-0.738-0.209-1.429c-0.127-0.692-0.359-1.282-0.695-1.771c-0.374-0.551-0.886-0.926-1.536-1.124
				c-0.652-0.198-1.556,0.035-2.714,0.702c-0.799,0.461-1.537,1.049-2.212,1.767c-0.677,0.719-1.148,1.336-1.413,1.85
				c0.021,0.412,0.135,0.97,0.343,1.674c0.207,0.703,0.328,1.392,0.362,2.068c0.036,0.717-0.207,1.535-0.731,2.457
				c-0.524,0.924-1.281,1.682-2.274,2.274c-0.89,0.531-1.566,0.557-2.026,0.075c-0.461-0.484-0.717-1.181-0.765-2.093
				c-0.051-0.954,0.193-2.039,0.732-3.252c0.538-1.211,1.254-2.427,2.147-3.647c0.771-1.04,1.712-2.086,2.821-3.136
				c1.104-1.044,2.185-1.869,3.246-2.474c1.451-0.829,2.714-1.429,3.792-1.805c1.072-0.374,2.053-0.421,2.945-0.146
				c0.887,0.254,1.577,0.891,2.073,1.909c0.494,1.014,0.784,2.518,0.87,4.511c0.123,2.842,0.207,5.369,0.252,7.584
				c0.045,2.21,0.123,4.601,0.234,7.172c0.033,0.764,0.169,1.301,0.409,1.611c0.239,0.309,0.593,0.475,1.06,0.497
				c0.25,0.02,0.638-0.128,1.163-0.444c0.524-0.315,1.058-0.647,1.602-0.995L303.855,674.392z M294.604,664.179
				c-1.41,1.371-2.651,2.632-3.72,3.78c-1.074,1.154-2.069,2.387-2.984,3.699c-0.834,1.223-1.48,2.464-1.939,3.72
				c-0.459,1.258-0.656,2.537-0.589,3.834c0.086,1.678,0.528,2.67,1.325,2.975c0.793,0.304,1.765,0.085,2.915-0.65
				c1.211-0.775,2.256-1.796,3.136-3.064c0.877-1.264,1.603-2.556,2.178-3.881L294.604,664.179z"/>
			<path fill="#FFFFFF" d="M321.216,662.492c-0.938,1.117-1.831,2.126-2.678,3.026c-0.851,0.904-1.905,1.763-3.167,2.58
				c-1.877,1.215-3.231,1.484-4.049,0.796c-0.823-0.692-1.277-2.129-1.359-4.314l-0.728-19.426l-4.242,2.462l-0.113-2.851
				l4.344-2.491l-0.34-9.091l4.276-2.353l0.316,9.006l6.437-3.691l0.087,2.759l-6.38,3.703l0.558,15.901
				c0.041,1.182,0.11,2.146,0.206,2.892c0.096,0.745,0.283,1.331,0.561,1.755c0.261,0.396,0.638,0.581,1.129,0.558
				c0.49-0.024,1.139-0.293,1.945-0.808c0.372-0.237,0.916-0.628,1.631-1.17c0.712-0.54,1.212-0.969,1.502-1.287L321.216,662.492z"
				/>
			<path fill="#FFFFFF" d="M343.956,635.455c0.035,1.861-0.146,3.819-0.544,5.88c-0.398,2.062-0.984,3.969-1.762,5.726
				c-0.882,2.008-1.921,3.751-3.12,5.23c-1.206,1.488-2.576,2.73-4.114,3.727c-1.289,0.836-2.534,1.314-3.732,1.432
				c-1.206,0.118-2.296-0.146-3.266-0.797c-0.961-0.646-1.745-1.69-2.351-3.133c-0.608-1.45-0.947-3.299-1.013-5.546
				c-0.128-4.34,0.745-8.483,2.612-12.393c1.853-3.882,4.319-6.695,7.37-8.437c2.852-1.629,5.201-1.673,7.059-0.167
				C342.93,628.465,343.878,631.291,343.956,635.455z M339.855,638.007c-0.028-1.357-0.159-2.733-0.393-4.128
				c-0.234-1.4-0.565-2.51-0.993-3.332c-0.458-0.882-1.05-1.462-1.775-1.74c-0.729-0.279-1.611-0.121-2.649,0.478
				c-1.072,0.618-1.983,1.503-2.731,2.654c-0.75,1.155-1.35,2.491-1.8,4.006c-0.425,1.407-0.71,2.894-0.855,4.458
				c-0.146,1.564-0.2,3.025-0.163,4.381c0.048,1.781,0.203,3.356,0.463,4.726c0.259,1.366,0.644,2.485,1.153,3.358
				c0.507,0.87,1.127,1.408,1.861,1.615c0.729,0.207,1.617-0.026,2.659-0.696c1.703-1.094,3.016-3.039,3.949-5.838
				C339.512,645.159,339.936,641.851,339.855,638.007z"/>
			<path fill="#FFFFFF" d="M361.562,615.483c0.008,0.883-0.133,1.752-0.424,2.61c-0.292,0.859-0.748,1.473-1.371,1.842
				c-0.674,0.399-1.192,0.452-1.555,0.158c-0.363-0.294-0.549-0.747-0.556-1.359c-0.004-0.384,0.013-0.746,0.052-1.086
				c0.039-0.339,0.075-0.677,0.108-1.013c-0.573,0.332-1.241,1.055-2.006,2.172c-0.768,1.121-1.417,2.458-1.946,4.011l0.202,15.033
				c0.008,0.606,0.098,1.046,0.269,1.321c0.171,0.274,0.435,0.393,0.792,0.356c0.307-0.023,0.702-0.145,1.183-0.367
				c0.48-0.221,0.895-0.426,1.245-0.616l0.02,1.694l-9.646,6.229l-0.029-1.734c0.292-0.222,0.592-0.45,0.902-0.684
				c0.309-0.233,0.576-0.475,0.802-0.725c0.35-0.382,0.607-0.823,0.77-1.323c0.163-0.5,0.24-1.064,0.231-1.691l-0.246-16.071
				c-0.008-0.55-0.109-1.038-0.301-1.463c-0.192-0.426-0.457-0.704-0.793-0.833c-0.246-0.073-0.536-0.063-0.871,0.032
				c-0.335,0.095-0.696,0.236-1.083,0.424l-0.03-1.78l6.235-4.167l0.267,0.222l0.049,3.686l0.093-0.054
				c0.75-1.876,1.589-3.453,2.514-4.73c0.922-1.272,1.764-2.124,2.528-2.561c0.761-0.435,1.381-0.429,1.861,0.013
				C361.306,613.469,361.551,614.287,361.562,615.483z"/>
		</g>
	</g>
	<g>
		<g>
			<path fill="#FF9A22" d="M758.62,417.115c1.19,1.814,2.016,3.692,2.475,5.634c0.459,1.944,0.565,4.102,0.318,6.469
				c-0.587,5.617-3.137,9.68-7.591,12.178c-4.384,2.459-9.471,2.853-15.232,1.241c-2.62-0.734-5.179-1.877-7.677-3.428
				c-2.479-1.539-4.577-3.145-6.301-4.823l-1.97,2.59l-3.133-0.87l1.213-20.511l3.205,0.775c0.439,2.709,1.013,5.2,1.722,7.474
				c0.71,2.277,1.721,4.497,3.035,6.664c1.248,2.04,2.767,3.812,4.564,5.314c1.806,1.512,3.98,2.616,6.531,3.314
				c1.926,0.527,3.643,0.731,5.15,0.607c1.513-0.125,2.777-0.544,3.79-1.258c1.015-0.717,1.814-1.669,2.394-2.854
				c0.579-1.189,0.957-2.638,1.129-4.347c0.253-2.508-0.211-5.027-1.389-7.542c-1.174-2.509-3.074-4.647-5.686-6.408
				c-1.776-1.193-3.799-2.52-6.071-3.981c-2.256-1.452-4.183-2.77-5.786-3.959c-3.135-2.295-5.478-4.891-7.043-7.797
				c-1.56-2.893-2.162-6.359-1.808-10.42c0.204-2.339,0.837-4.438,1.903-6.303c1.071-1.873,2.51-3.467,4.319-4.783
				c1.733-1.251,3.739-2.125,6.023-2.622c2.301-0.501,4.681-0.548,7.14-0.132c2.824,0.477,5.332,1.364,7.515,2.664
				c2.196,1.309,4.191,2.745,5.981,4.306l2.166-2.817l3.645,0.625l-1.879,21.792l-3.648-0.756c-0.406-2.591-0.906-5.091-1.497-7.499
				c-0.592-2.407-1.449-4.647-2.569-6.714c-1.095-1.995-2.5-3.678-4.211-5.049c-1.704-1.364-3.851-2.272-6.433-2.725
				c-2.703-0.475-5.073,0.032-7.113,1.508c-2.027,1.464-3.151,3.485-3.384,6.066c-0.244,2.695,0.147,5.04,1.169,7.047
				c1.025,2.012,2.625,3.827,4.806,5.449c1.952,1.463,3.896,2.786,5.828,3.968c1.944,1.192,3.83,2.427,5.656,3.707
				c1.67,1.159,3.272,2.414,4.804,3.767C756.221,414.034,757.534,415.514,758.62,417.115z"/>
			<path fill="#FF9A22" d="M820.616,464.149l-15.631-4.342c-2.22-4.285-4.588-8.849-7.096-13.691
				c-2.494-4.813-5.105-9.518-7.827-14.115l-4.436,2.6l-1.252,10.847c-0.128,1.106-0.025,2.076,0.311,2.911
				c0.334,0.833,0.95,1.546,1.849,2.139c0.741,0.52,1.461,0.954,2.159,1.302c0.699,0.35,1.52,0.686,2.465,1.006l-0.363,3.06
				l-22.904-6.362l0.321-2.96c0.705,0.132,1.444,0.263,2.214,0.397c0.774,0.134,1.429,0.196,1.969,0.187
				c0.892-0.038,1.594-0.337,2.101-0.9c0.51-0.564,0.826-1.395,0.948-2.488l5.952-53.427c0.131-1.176,0.004-2.328-0.382-3.45
				c-0.386-1.123-0.952-2.025-1.697-2.703c-0.62-0.624-1.634-1.135-3.038-1.534c-1.398-0.397-2.518-0.698-3.363-0.906l0.325-3.031
				l17.907,1.832l0.619,0.845l-5.745,49.788c2.829-1.824,5.915-3.8,9.267-5.933c3.391-2.157,6.296-4.133,8.702-5.922
				c0.31-0.232,0.658-0.548,1.045-0.948c0.386-0.401,0.597-0.748,0.633-1.04c0.108-0.88-0.564-1.689-2.015-2.428
				c-1.443-0.736-2.836-1.328-4.18-1.775l0.372-3.096l22.955,4.689l-0.404,3.098c-3.155,0.19-5.957,0.659-8.412,1.403
				c-2.438,0.738-4.308,1.465-5.619,2.181c-0.916,0.467-2.229,1.256-3.93,2.368c-1.691,1.106-4.023,2.515-6.981,4.22
				c2.383,3.865,5.054,8.476,8.014,13.841c2.979,5.401,5.169,9.338,6.555,11.784c1.303,2.3,2.535,3.907,3.697,4.818
				c1.164,0.913,2.931,1.762,5.315,2.544L820.616,464.149z"/>
			<path fill="#FF9A22" d="M879.622,467.895c-3.27,3.425-7.251,5.748-11.918,6.981c-4.605,1.216-9.584,1.064-14.932-0.432
				c-4.65-1.301-8.573-3.123-11.792-5.463c-3.197-2.319-5.707-4.953-7.545-7.905c-1.833-2.94-3.057-6.118-3.683-9.546
				c-0.624-3.425-0.699-6.903-0.222-10.439c0.43-3.184,1.419-6.186,2.976-9.013c1.566-2.844,3.64-5.278,6.227-7.298
				c2.52-1.952,5.526-3.339,9.036-4.153c3.545-0.823,7.433-0.814,11.666,0.042c4.407,0.891,8.133,2.266,11.159,4.125
				c3.047,1.875,5.433,4.083,7.147,6.62c1.652,2.421,2.75,5.1,3.288,8.027c0.538,2.93,0.556,5.98,0.056,9.145l-0.555,3.511
				l-39.608-9.464c-0.457,3.266-0.518,6.309-0.182,9.134c0.334,2.824,1.122,5.436,2.372,7.844c1.221,2.336,2.97,4.391,5.25,6.169
				c2.294,1.791,5.159,3.153,8.608,4.09c3.562,0.968,6.772,1.098,9.619,0.381c2.872-0.725,5.853-2.639,8.951-5.759L879.622,467.895z
				 M868.787,444.728c0.298-1.955,0.421-4.097,0.366-6.428c-0.055-2.332-0.402-4.349-1.044-6.048
				c-0.709-1.82-1.814-3.415-3.308-4.78c-1.489-1.361-3.517-2.305-6.076-2.837c-4.221-0.878-7.907-0.092-11.069,2.333
				c-3.132,2.399-5.17,6.205-6.14,11.417L868.787,444.728z"/>
			<path fill="#FF9A22" d="M930.555,492.189c-3.317,0.132-6.408,0.155-9.28,0.065c-2.853-0.088-6.229-0.676-10.118-1.762
				c-5.668-1.583-9.416-3.798-11.301-6.649c-1.881-2.841-2.476-6.286-1.795-10.358l6.092-36.421l-12.011-2.544l0.85-5.254
				l12.327,2.522l2.883-17.223l12.884,2.336l-3.029,17.492l20.676,4.23l-1.013,5.55l-20.459-4.333l-5.3,30.6
				c-0.392,2.264-0.614,4.176-0.667,5.738c-0.053,1.563,0.213,3.01,0.805,4.345c0.555,1.249,1.53,2.346,2.924,3.292
				c1.396,0.948,3.364,1.766,5.908,2.454c1.183,0.32,2.946,0.71,5.294,1.17c2.362,0.465,4.055,0.699,5.074,0.699L930.555,492.189z"
				/>
			<path fill="#FF9A22" d="M976.296,508.995c-11.434-3.198-19.641-8.335-24.81-15.421c-5.118-7.009-6.804-15.014-5.089-24.12
				c0.751-3.985,2.283-7.532,4.611-10.651c2.341-3.138,5.408-5.811,9.214-8.017c3.664-2.143,8.067-3.594,13.224-4.341
				c5.226-0.756,10.789-0.548,16.7,0.647c8.299,1.678,14.868,4.514,19.616,8.516c4.792,4.039,6.658,8.587,5.561,13.598
				c-0.456,2.082-1.572,3.76-3.35,5.028c-1.77,1.265-4.269,1.52-7.489,0.775c-3.431-0.793-5.941-2.012-7.55-3.657
				c-1.607-1.641-2.249-3.209-1.935-4.71c0.384-1.83,1.124-3.635,2.22-5.423c1.097-1.795,1.8-3.132,2.108-4.01
				c-0.768-1.491-2.131-2.664-4.075-3.52c-1.936-0.85-4.061-1.516-6.376-1.997c-2.695-0.56-5.334-0.675-7.912-0.35
				c-2.565,0.325-5.18,1.353-7.848,3.078c-2.393,1.562-4.534,3.889-6.425,6.976c-1.877,3.071-3.266,6.909-4.168,11.515
				c-1.414,7.223-0.402,13.639,3.041,19.306c3.469,5.706,8.809,9.547,16.094,11.527c5.353,1.454,10.091,1.753,14.19,0.874
				c4.138-0.887,8.255-2.808,12.348-5.779l5.086,4.023c-4.943,3.757-10.82,6.154-17.592,7.214
				C989.033,511.122,982.572,510.75,976.296,508.995z"/>
			<path fill="#FF9A22" d="M1130.584,550.255l-52.415-14.56l1.083-4.262c1.595,0.344,3.375,0.738,5.329,1.177
				c1.966,0.444,3.613,0.707,4.938,0.786c2.062,0.142,3.703-0.152,4.916-0.879c1.212-0.73,2.029-1.885,2.444-3.471l8.908-34.009
				c1.252-4.779,0.404-8.874-2.534-12.262c-2.923-3.37-6.936-5.587-12.009-6.658c-3.68-0.777-7.164-1.124-10.452-1.041
				c-3.264,0.079-6.219,0.399-8.871,0.948c-2.583,0.607-4.608,1.326-6.087,2.159c-1.474,0.833-2.629,1.545-3.477,2.139
				l-8.805,36.552c-0.346,1.437-0.193,2.737,0.457,3.899c0.65,1.164,1.826,2.245,3.53,3.247c1.335,0.815,2.748,1.538,4.244,2.17
				c1.5,0.636,3.167,1.249,5.01,1.842l-1.045,4.212l-45.745-12.708l0.91-4.026c1.395,0.295,2.858,0.597,4.387,0.906
				c1.538,0.311,2.844,0.502,3.928,0.578c1.794,0.093,3.231-0.206,4.305-0.903c1.08-0.698,1.793-1.798,2.141-3.293l17.181-73.937
				c0.351-1.509,0.194-3.109-0.473-4.8c-0.667-1.688-1.73-3.051-3.187-4.085c-1.039-0.775-3.009-1.534-5.888-2.274
				c-2.865-0.733-5.173-1.294-6.929-1.682l0.944-4.217l36.564,4.402l1.203,1.265l-11.149,46.28l0.4,0.086
				c2.568-0.978,4.91-1.84,7.02-2.582c2.117-0.747,4.847-1.43,8.197-2.054c2.91-0.532,6.266-0.794,10.083-0.778
				c3.849,0.019,8.088,0.493,12.721,1.43c9.708,1.963,16.789,5.447,21.119,10.452c4.363,5.043,5.562,11.246,3.578,18.545
				l-9.544,35.097c-0.427,1.571-0.307,2.961,0.363,4.174c0.671,1.217,2.023,2.388,4.057,3.516c1.626,0.877,3.11,1.608,4.457,2.194
				c1.355,0.585,3.166,1.238,5.443,1.955L1130.584,550.255z"/>
		</g>
	</g>
	<g>
		<g>
			<path fill="#00F3FF" d="M636.901,801.193c-0.047,0.91-0.249,1.553-0.606,1.93c-0.357,0.375-0.83,0.506-1.419,0.393
				c-0.58-0.107-1.207-0.389-1.881-0.849c-0.672-0.458-1.376-1.058-2.113-1.803l-1.714-1.733l-0.244,5.182
				c-0.013,0.281,0.016,0.57,0.089,0.866c0.072,0.296,0.234,0.632,0.486,1.008c0.126,0.188,0.35,0.472,0.675,0.855
				c0.324,0.383,0.623,0.719,0.895,1.008l-0.041,0.854l-6.48-6.661l0.038-0.845c0.169,0.157,0.414,0.378,0.735,0.666
				c0.321,0.288,0.547,0.466,0.677,0.532c0.215,0.112,0.376,0.118,0.481,0.017c0.105-0.102,0.164-0.308,0.178-0.62l0.565-12.342
				c0.013-0.284-0.011-0.574-0.072-0.871c-0.061-0.298-0.22-0.633-0.478-1.007c-0.265-0.373-0.53-0.714-0.794-1.021
				c-0.264-0.307-0.49-0.563-0.68-0.769l0.038-0.861l6.973,6.895c1.447,1.431,2.608,2.991,3.48,4.677
				C636.564,798.388,636.968,799.889,636.901,801.193z M633.397,800.796c0.268-0.141,0.452-0.381,0.554-0.72
				c0.101-0.339,0.16-0.676,0.177-1.01c0.023-0.465-0.003-0.989-0.078-1.569c-0.075-0.581-0.225-1.171-0.449-1.772
				c-0.237-0.638-0.559-1.271-0.964-1.896c-0.405-0.624-0.916-1.242-1.533-1.853l-1.527-1.514l-0.358,7.616l1.099,1.109
				c0.779,0.785,1.419,1.289,1.922,1.511C632.744,800.921,633.13,800.954,633.397,800.796z"/>
			<path fill="#00F3FF" d="M650.578,828.999l-5.618-5.775l0.045-0.813c0.176,0.164,0.373,0.348,0.587,0.55
				c0.216,0.204,0.394,0.352,0.534,0.444c0.219,0.147,0.386,0.18,0.501,0.102c0.115-0.079,0.18-0.266,0.197-0.563l0.358-6.29
				c0.05-0.872-0.104-1.737-0.461-2.597c-0.356-0.858-0.808-1.562-1.356-2.111c-0.399-0.401-0.774-0.705-1.123-0.911
				c-0.348-0.205-0.661-0.342-0.939-0.413c-0.27-0.053-0.48-0.047-0.628,0.022c-0.148,0.069-0.264,0.135-0.347,0.198l-0.378,6.984
				c-0.015,0.278,0.023,0.559,0.116,0.844c0.091,0.284,0.24,0.583,0.447,0.898c0.162,0.253,0.331,0.491,0.507,0.714
				c0.175,0.224,0.369,0.452,0.581,0.687l-0.045,0.811l-5.435-5.587l0.042-0.804c0.17,0.158,0.348,0.321,0.534,0.49
				c0.186,0.169,0.343,0.298,0.471,0.386c0.211,0.14,0.373,0.171,0.487,0.094c0.114-0.077,0.178-0.263,0.194-0.556l0.75-14.155
				c0.015-0.282-0.029-0.621-0.13-1.018c-0.102-0.398-0.244-0.76-0.424-1.087c-0.13-0.241-0.365-0.555-0.704-0.938
				c-0.34-0.384-0.613-0.686-0.822-0.909l0.041-0.794l4.15,3.803l0.151,0.346l-0.463,8.555l0.045,0.045
				c0.266-0.021,0.507-0.033,0.725-0.038c0.218-0.004,0.501,0.047,0.85,0.152c0.302,0.092,0.654,0.27,1.057,0.533
				c0.404,0.263,0.852,0.642,1.347,1.137c1.023,1.023,1.792,2.161,2.306,3.412c0.514,1.253,0.734,2.536,0.658,3.844l-0.371,6.387
				c-0.017,0.289,0.018,0.573,0.106,0.851c0.088,0.278,0.243,0.584,0.464,0.915c0.175,0.259,0.335,0.482,0.478,0.668
				c0.143,0.187,0.333,0.409,0.567,0.668L650.578,828.999z"/>
			<path fill="#00F3FF" d="M664.65,836.631c-0.059,0.885-0.253,1.614-0.584,2.186c-0.329,0.574-0.765,0.898-1.306,0.975
				c-0.612,0.094-1.3-0.078-2.064-0.514c-0.761-0.433-1.6-1.122-2.513-2.061c-0.757-0.779-1.467-1.667-2.13-2.663
				c-0.66-0.993-1.236-2.043-1.727-3.149c-0.482-1.085-0.851-2.187-1.107-3.302c-0.257-1.116-0.354-2.173-0.294-3.175
				c0.116-1.932,0.745-2.978,1.893-3.135c1.154-0.158,2.614,0.644,4.383,2.413c1.692,1.692,3.057,3.69,4.091,5.994
				C664.328,832.509,664.782,834.656,664.65,836.631z M662.086,834.058c0.042-0.636,0.023-1.37-0.053-2.203
				c-0.078-0.834-0.223-1.621-0.439-2.363c-0.229-0.79-0.546-1.56-0.952-2.307c-0.405-0.745-0.914-1.424-1.525-2.036
				c-0.627-0.629-1.171-1.003-1.632-1.124c-0.46-0.12-0.845-0.041-1.153,0.241c-0.289,0.255-0.506,0.657-0.65,1.208
				c-0.145,0.55-0.236,1.131-0.273,1.744c-0.049,0.805-0.033,1.611,0.049,2.42c0.081,0.808,0.242,1.619,0.481,2.432
				c0.24,0.814,0.556,1.585,0.951,2.315c0.395,0.73,0.899,1.41,1.513,2.04c1.012,1.039,1.85,1.357,2.511,0.95
				C661.576,836.965,661.968,835.86,662.086,834.058z"/>
			<path fill="#00F3FF" d="M674.41,852.9c-0.576-0.342-1.117-0.689-1.625-1.041c-0.506-0.351-1.117-0.893-1.831-1.628
				c-1.05-1.08-1.768-2.104-2.156-3.073c-0.387-0.966-0.548-1.935-0.481-2.906l0.591-8.575l-2.247-2.255l0.083-1.235l2.3,2.302
				l0.274-3.973l2.328,2.311l-0.28,3.986l3.653,3.656l-0.09,1.25l-3.625-3.638l-0.499,7.103c-0.037,0.531-0.049,0.994-0.036,1.387
				c0.014,0.394,0.083,0.797,0.209,1.209c0.119,0.388,0.309,0.785,0.573,1.192c0.263,0.406,0.626,0.847,1.086,1.32
				c0.215,0.22,0.53,0.523,0.949,0.911c0.418,0.388,0.717,0.64,0.893,0.756L674.41,852.9z"/>
			<path fill="#00F3FF" d="M689.663,861.996c-0.074,0.917-0.298,1.663-0.671,2.237c-0.372,0.576-0.86,0.885-1.462,0.93
				c-0.681,0.058-1.445-0.164-2.291-0.667c-0.842-0.498-1.768-1.268-2.774-2.303c-0.834-0.858-1.614-1.826-2.341-2.904
				c-0.724-1.074-1.353-2.201-1.888-3.382c-0.525-1.158-0.924-2.327-1.198-3.501c-0.275-1.176-0.373-2.281-0.296-3.319
				c0.147-2.001,0.855-3.05,2.132-3.142c1.283-0.093,2.898,0.831,4.847,2.78c1.865,1.866,3.365,4.03,4.493,6.492
				C689.344,857.686,689.829,859.95,689.663,861.996z M686.834,859.156c0.052-0.659,0.039-1.424-0.038-2.295
				c-0.078-0.872-0.233-1.7-0.465-2.486c-0.247-0.837-0.592-1.657-1.037-2.46c-0.443-0.8-1.002-1.538-1.677-2.213
				c-0.691-0.693-1.292-1.115-1.804-1.27c-0.51-0.153-0.938-0.095-1.283,0.179c-0.323,0.247-0.569,0.652-0.734,1.216
				c-0.166,0.563-0.273,1.162-0.32,1.796c-0.063,0.833-0.052,1.673,0.031,2.519c0.082,0.845,0.253,1.698,0.511,2.559
				c0.259,0.861,0.603,1.683,1.035,2.467c0.432,0.784,0.985,1.522,1.661,2.217c1.115,1.145,2.043,1.529,2.783,1.147
				C686.239,862.148,686.686,861.024,686.834,859.156z"/>
			<path fill="#00F3FF" d="M701.493,874.286c0.364,0.721,0.634,1.399,0.808,2.035c0.174,0.637,0.234,1.258,0.18,1.865
				c-0.108,1.224-0.687,1.721-1.735,1.492c-1.041-0.227-2.331-1.134-3.865-2.711c-0.805-0.828-1.534-1.727-2.187-2.695
				c-0.651-0.966-1.11-1.709-1.378-2.233l-0.349,0.573l-1.039-1.068l0.236-4.67l0.957,0.975c0.045,0.421,0.169,0.985,0.372,1.692
				c0.203,0.707,0.46,1.422,0.774,2.147c0.33,0.761,0.738,1.535,1.224,2.323c0.487,0.788,1.049,1.51,1.687,2.164
				c0.904,0.928,1.62,1.451,2.146,1.568c0.526,0.116,0.822-0.188,0.886-0.914c0.033-0.374-0.018-0.777-0.151-1.208
				c-0.133-0.432-0.343-0.906-0.629-1.42c-0.295-0.523-0.663-1.098-1.103-1.726c-0.439-0.625-0.93-1.301-1.471-2.026
				c-0.431-0.572-0.907-1.242-1.427-2.006c-0.52-0.764-0.958-1.484-1.315-2.165c-0.384-0.725-0.686-1.444-0.909-2.159
				c-0.223-0.715-0.308-1.379-0.258-1.991c0.089-1.074,0.583-1.566,1.485-1.471c0.905,0.093,2.068,0.85,3.495,2.277
				c0.549,0.549,1.106,1.179,1.67,1.89c0.566,0.712,1.022,1.345,1.37,1.898l0.392-0.371l1.038,1.038l-0.161,4.498l-0.993-1.001
				c-0.117-1.158-0.482-2.37-1.093-3.636c-0.611-1.266-1.392-2.373-2.339-3.323c-0.774-0.776-1.398-1.201-1.871-1.275
				c-0.472-0.073-0.73,0.149-0.774,0.67c-0.034,0.401,0.011,0.809,0.134,1.221c0.122,0.413,0.321,0.861,0.596,1.341
				c0.267,0.463,0.607,0.987,1.022,1.577c0.415,0.589,0.931,1.302,1.548,2.139c0.61,0.821,1.182,1.638,1.717,2.452
				C700.72,872.868,701.156,873.612,701.493,874.286z"/>
			<path fill="#00F3FF" d="M721.072,901.455l-7.366-7.571l0.085-0.895c0.231,0.218,0.489,0.462,0.77,0.731
				c0.283,0.27,0.518,0.472,0.703,0.602c0.29,0.208,0.512,0.279,0.668,0.214c0.156-0.064,0.25-0.26,0.281-0.587l0.672-6.936
				c0.093-0.962-0.087-1.957-0.539-2.986c-0.452-1.026-1.037-1.9-1.755-2.621c-0.523-0.525-1.016-0.937-1.478-1.236
				c-0.461-0.297-0.876-0.511-1.246-0.645c-0.36-0.112-0.641-0.146-0.842-0.099c-0.2,0.048-0.357,0.099-0.47,0.153l-0.716,7.698
				c-0.029,0.307,0.014,0.627,0.129,0.962c0.114,0.334,0.304,0.696,0.571,1.088c0.209,0.313,0.428,0.612,0.656,0.896
				c0.228,0.284,0.481,0.577,0.757,0.88l-0.084,0.893l-7.096-7.293l0.08-0.885c0.223,0.209,0.455,0.425,0.698,0.65
				c0.243,0.225,0.449,0.399,0.617,0.523c0.278,0.197,0.493,0.264,0.647,0.201c0.154-0.063,0.246-0.257,0.275-0.58l1.427-15.606
				c0.028-0.311-0.02-0.698-0.144-1.159c-0.125-0.463-0.303-0.894-0.535-1.292c-0.167-0.294-0.472-0.688-0.914-1.179
				c-0.442-0.492-0.799-0.881-1.072-1.17l0.079-0.876l5.438,5.031l0.191,0.414l-0.879,9.442l0.058,0.059
				c0.357,0.029,0.68,0.062,0.972,0.1c0.292,0.039,0.67,0.15,1.134,0.336c0.402,0.162,0.869,0.429,1.401,0.801
				c0.533,0.373,1.124,0.883,1.773,1.532c1.342,1.342,2.341,2.764,2.993,4.261c0.653,1.5,0.909,2.974,0.766,4.418l-0.694,7.045
				c-0.031,0.319,0.007,0.642,0.116,0.97c0.109,0.327,0.308,0.7,0.595,1.114c0.228,0.325,0.436,0.606,0.623,0.842
				c0.186,0.237,0.435,0.524,0.742,0.86L721.072,901.455z"/>
			<path fill="#00F3FF" d="M739.849,912.889c-0.108,0.977-0.396,1.752-0.862,2.323c-0.465,0.572-1.067,0.843-1.802,0.815
				c-0.832-0.024-1.759-0.36-2.781-1.008c-1.017-0.643-2.13-1.588-3.334-2.827c-0.999-1.027-1.93-2.166-2.793-3.416
				c-0.86-1.245-1.604-2.535-2.232-3.87c-0.616-1.31-1.079-2.614-1.389-3.91c-0.312-1.298-0.41-2.497-0.298-3.602
				c0.216-2.132,1.096-3.172,2.65-3.116c1.562,0.057,3.51,1.249,5.848,3.586c2.238,2.238,4.026,4.754,5.355,7.546
				C739.543,908.209,740.091,910.707,739.849,912.889z M736.451,909.475c0.076-0.702,0.075-1.527-0.002-2.474
				c-0.079-0.949-0.251-1.859-0.52-2.734c-0.285-0.931-0.691-1.857-1.218-2.777c-0.525-0.916-1.193-1.779-2.001-2.59
				c-0.829-0.831-1.552-1.36-2.173-1.589c-0.618-0.228-1.14-0.217-1.565,0.035c-0.398,0.226-0.704,0.631-0.916,1.217
				c-0.213,0.585-0.354,1.215-0.423,1.891c-0.092,0.888-0.095,1.792-0.009,2.711c0.084,0.919,0.276,1.856,0.573,2.814
				c0.299,0.958,0.701,1.884,1.212,2.781c0.511,0.897,1.17,1.76,1.98,2.592c1.336,1.372,2.46,1.902,3.368,1.585
				C735.669,912.619,736.235,911.466,736.451,909.475z"/>
			<path fill="#00F3FF" d="M759.135,926.505c0.612,1.374,1.056,2.702,1.33,3.982c0.274,1.281,0.34,2.494,0.198,3.639
				c-0.139,1.126-0.497,1.916-1.07,2.374c-0.572,0.457-1.272,0.625-2.099,0.51c-0.86-0.142-1.787-0.526-2.777-1.149
				c-0.988-0.622-2.009-1.475-3.062-2.557c-1.015-1.044-1.834-1.993-2.459-2.846c-0.623-0.851-1.123-1.613-1.5-2.284l-0.134-0.138
				l-0.485,4.182c-0.039,0.339,0.006,0.701,0.137,1.09c0.131,0.388,0.353,0.803,0.668,1.246c0.259,0.363,0.636,0.846,1.13,1.448
				c0.494,0.602,0.905,1.08,1.234,1.431l-0.11,0.93l-9.227-9.596l0.103-0.92c0.344,0.336,0.676,0.655,1,0.961
				c0.323,0.303,0.616,0.556,0.877,0.754c0.343,0.252,0.594,0.33,0.754,0.234c0.16-0.095,0.258-0.302,0.294-0.618l1.691-14.82
				c0.033-0.285-0.021-0.646-0.158-1.081c-0.138-0.435-0.333-0.869-0.584-1.302c-0.189-0.316-0.459-0.685-0.81-1.106
				c-0.351-0.421-0.692-0.807-1.025-1.163l0.106-0.939l5.714,5.367l0.219,0.411l-0.185,1.591l0.133,0.166
				c0.658,0.02,1.451,0.281,2.378,0.781c0.93,0.502,1.836,1.192,2.714,2.071c1.069,1.069,2.026,2.238,2.875,3.508
				C757.856,923.937,758.566,925.218,759.135,926.505z M755.043,933.808c0.534-0.118,0.96-0.454,1.275-1.012
				c0.316-0.558,0.533-1.321,0.651-2.288c0.086-0.709,0.081-1.527-0.017-2.457c-0.097-0.927-0.311-1.865-0.641-2.813
				c-0.328-0.954-0.791-1.927-1.389-2.915c-0.596-0.986-1.34-1.926-2.228-2.817c-0.851-0.853-1.592-1.422-2.224-1.71
				c-0.63-0.286-1.186-0.43-1.667-0.435l-0.963,8.298c0.071,0.358,0.207,0.793,0.407,1.303c0.2,0.511,0.431,1.012,0.69,1.5
				c0.323,0.596,0.682,1.177,1.072,1.743c0.393,0.568,0.886,1.155,1.48,1.764c0.64,0.657,1.276,1.153,1.906,1.485
				C754.026,933.789,754.575,933.906,755.043,933.808z"/>
		</g>
	</g>
	<g>
		<g>
			<path d="M171.866,139.808l3.646,26.009c0.166,1.181,0.366,2.291,0.601,3.329c0.235,1.039,0.506,1.967,0.815,2.786
				c0.309,0.82,0.654,1.512,1.038,2.077c0.384,0.566,0.807,0.971,1.27,1.214c0.517,0.271,0.926,0.294,1.227,0.065
				c0.302-0.229,0.51-0.663,0.625-1.303c0.114-0.642,0.149-1.455,0.103-2.44c-0.046-0.987-0.156-2.105-0.328-3.353l-3.657-26.526
				l2.218,0.772l3.62,26.447c0.329,2.405,0.522,4.459,0.58,6.163c0.057,1.697-0.041,3.033-0.292,4.007
				c-0.25,0.969-0.66,1.576-1.225,1.822c-0.561,0.245-1.297,0.115-2.202-0.384c-0.825-0.454-1.566-1.122-2.227-2.003
				c-0.657-0.876-1.248-1.97-1.774-3.285c-0.524-1.311-0.991-2.854-1.4-4.632c-0.409-1.777-0.774-3.799-1.094-6.071l-3.584-25.408
				L171.866,139.808z"/>
			<path d="M188.325,184.657l-5.56-41.055l2.354,0.82l5.583,41.539L188.325,184.657z"/>
		</g>
	</g>
	<g>
		<g>
			<path fill="#FFFFFF" d="M777.422,162.61l-3.068,33.563c-0.139,1.526-0.214,2.9-0.222,4.122c-0.009,1.221,0.061,2.225,0.21,3.016
				c0.148,0.788,0.38,1.335,0.695,1.639c0.313,0.304,0.719,0.318,1.215,0.043c0.55-0.304,1.035-0.817,1.457-1.542
				c0.421-0.721,0.786-1.607,1.096-2.658c0.31-1.049,0.572-2.234,0.788-3.555c0.216-1.321,0.395-2.746,0.538-4.276l3.025-32.458
				l2.205-0.809l-2.974,31.682c-0.271,2.887-0.6,5.461-0.986,7.723c-0.387,2.264-0.853,4.234-1.398,5.913
				c-0.548,1.684-1.183,3.083-1.91,4.199c-0.73,1.122-1.574,1.962-2.533,2.52c-0.889,0.517-1.625,0.604-2.206,0.256
				c-0.584-0.35-1.022-1.131-1.312-2.348c-0.292-1.222-0.437-2.888-0.436-5.001c0.001-2.119,0.138-4.677,0.409-7.673l3.036-33.486
				L777.422,162.61z"/>
			<path fill="#FFFFFF" d="M791.606,178.319l1.402,22.732l-2.209,1.278l-1.091-16.985l-4.264,20.082l-2.326,1.346l6.233-26.711
				l-1.306-21.351l2.35-0.863l0.709,15.839l3.898-17.531l2.18-0.8L791.606,178.319z"/>
		</g>
	</g>
	<g>
		<polygon fill="#61DEFF" points="264.155,339.504 233.204,312.566 227.379,214.063 258.829,233.629 		"/>
		<g>
			<g>
				<path fill="#FFFFFF" d="M237.933,299.333l-3.887-66.423l3.644,2.187l3.853,67.168L237.933,299.333z"/>
				<path fill="#FFFFFF" d="M260.084,309.466c-0.352,1.542-0.752,2.684-1.198,3.429c-0.445,0.743-0.926,1.207-1.443,1.392
					c-0.515,0.184-1.057,0.143-1.624-0.124c-0.565-0.266-1.141-0.637-1.727-1.114c-1.375-1.121-2.575-2.744-3.604-4.87
					c-1.024-2.115-1.894-4.51-2.613-7.192c-0.718-2.674-1.29-5.525-1.718-8.557c-0.428-3.031-0.725-6.028-0.89-8.991
					c-0.194-3.488-0.209-6.606-0.044-9.355c0.166-2.759,0.513-5.019,1.042-6.779c0.532-1.769,1.256-2.953,2.175-3.545
					c0.925-0.597,2.053-0.456,3.385,0.431c0.534,0.355,1.054,0.775,1.561,1.257c0.508,0.484,1.008,1.102,1.499,1.853
					c0.492,0.753,0.975,1.654,1.447,2.702c0.473,1.051,0.941,2.321,1.404,3.807l-2.027,5.879c-0.333-1.102-0.639-2.053-0.917-2.854
					c-0.279-0.801-0.561-1.495-0.846-2.082c-0.285-0.587-0.576-1.07-0.873-1.448c-0.297-0.378-0.624-0.69-0.982-0.938
					c-0.695-0.48-1.263-0.415-1.705,0.191c-0.441,0.605-0.779,1.546-1.015,2.825c-0.236,1.275-0.376,2.783-0.422,4.524
					c-0.046,1.737-0.019,3.509,0.079,5.317c0.129,2.359,0.324,4.626,0.587,6.803c0.263,2.176,0.595,4.148,0.999,5.917
					c0.404,1.772,0.876,3.287,1.417,4.545c0.542,1.262,1.158,2.166,1.849,2.712c0.327,0.259,0.639,0.421,0.934,0.486
					c0.296,0.066,0.577-0.029,0.843-0.283c0.267-0.255,0.522-0.694,0.766-1.323c0.244-0.629,0.484-1.504,0.718-2.628
					L260.084,309.466z"/>
				<path fill="#4E5051" d="M273.678,329.579c-1.421-1.16-2.697-2.801-3.833-4.919c-1.13-2.107-2.109-4.586-2.941-7.442
					c-0.829-2.847-1.506-6.019-2.032-9.521c-0.526-3.502-0.888-7.237-1.086-11.215c-0.168-3.379-0.156-6.459,0.035-9.244
					c0.192-2.796,0.581-5.111,1.168-6.944c0.59-1.844,1.39-3.09,2.402-3.738c1.02-0.652,2.272-0.488,3.762,0.503
					c1.503,1,2.84,2.571,4.007,4.715c1.173,2.156,2.179,4.711,3.013,7.661c0.836,2.958,1.503,6.223,1.998,9.788
					c0.495,3.563,0.825,7.232,0.991,10.995c0.161,3.659,0.11,6.94-0.153,9.84c-0.261,2.888-0.72,5.221-1.374,6.998
					c-0.65,1.768-1.48,2.898-2.487,3.395C276.148,330.944,274.99,330.651,273.678,329.579z M273.143,321.184
					c0.716,0.567,1.31,0.504,1.783-0.194c0.475-0.701,0.841-1.834,1.098-3.404c0.258-1.573,0.418-3.455,0.479-5.644
					c0.061-2.194,0.036-4.504-0.074-6.927c-0.102-2.238-0.274-4.415-0.516-6.531c-0.242-2.117-0.57-4.05-0.983-5.797
					c-0.413-1.745-0.911-3.25-1.492-4.512c-0.58-1.258-1.253-2.151-2.017-2.679c-0.685-0.473-1.267-0.434-1.747,0.111
					c-0.478,0.545-0.851,1.483-1.117,2.815c-0.266,1.328-0.435,3.005-0.506,5.031c-0.072,2.021-0.047,4.278,0.074,6.771
					c0.098,2.029,0.274,4.143,0.528,6.344c0.254,2.201,0.589,4.286,1.006,6.258c0.417,1.974,0.916,3.712,1.496,5.213
					C271.736,319.545,272.399,320.593,273.143,321.184z"/>
				<path fill="#4E5051" d="M287.319,297.522c-0.044-1.05-0.11-2.413-0.197-4.087c-0.087-1.674-0.227-3.412-0.418-5.207l4.448,2.971
					c0.046,0.259,0.096,0.609,0.15,1.051c0.054,0.443,0.112,0.92,0.174,1.433c0.062,0.513,0.119,1.038,0.171,1.575
					c0.051,0.539,0.098,1.032,0.14,1.482c0.265-0.532,0.593-1.024,0.983-1.476c0.391-0.452,0.827-0.803,1.307-1.054
					c0.482-0.249,1.011-0.356,1.587-0.317c0.578,0.04,1.191,0.274,1.837,0.705c1.07,0.712,2.09,1.824,3.057,3.336
					c0.972,1.519,1.838,3.357,2.598,5.51c0.762,2.16,1.391,4.602,1.887,7.322c0.496,2.722,0.799,5.626,0.909,8.705l1.292,36.201
					l-5.03-4.089l-1.243-33.276c-0.082-2.192-0.235-4.108-0.458-5.747c-0.224-1.639-0.516-3.039-0.878-4.198
					c-0.361-1.157-0.785-2.11-1.272-2.861c-0.486-0.747-1.032-1.33-1.637-1.75c-0.352-0.244-0.726-0.429-1.121-0.556
					c-0.394-0.127-0.794-0.185-1.199-0.173c-0.404,0.012-0.799,0.077-1.184,0.197c-0.385,0.12-0.739,0.307-1.062,0.565l1.646,40.963
					l-4.674-3.799L287.319,297.522z"/>
				<path fill="#4E5051" d="M316.345,347.288c2.236,7.26,4.542,11.845,6.926,13.736c0.529,0.419,1.019,0.68,1.471,0.783
					c0.453,0.103,0.838,0.005,1.154-0.294c0.317-0.298,0.561-0.81,0.732-1.536c0.171-0.726,0.239-1.707,0.203-2.942
					c-0.025-0.882-0.129-1.74-0.31-2.57c-0.181-0.83-0.41-1.61-0.687-2.341c-0.277-0.73-0.581-1.418-0.911-2.068
					c-0.33-0.648-0.658-1.233-0.984-1.756c-0.608-1.046-1.209-2.025-1.802-2.937c-0.592-0.909-1.188-1.881-1.788-2.914
					c-0.334-0.524-0.737-1.176-1.209-1.956c-0.471-0.779-0.961-1.673-1.472-2.684c-0.51-1.007-1.015-2.122-1.515-3.342
					c-0.5-1.218-0.959-2.574-1.379-4.071c-0.42-1.493-0.771-3.098-1.056-4.816c-0.285-1.716-0.461-3.585-0.528-5.609
					c-0.084-2.516,0.084-4.554,0.504-6.115c0.422-1.567,1.016-2.723,1.783-3.466c0.771-0.746,1.665-1.103,2.685-1.067
					c1.026,0.036,2.1,0.427,3.223,1.175c1.799,1.197,3.465,2.822,4.993,4.877c1.538,2.07,2.977,4.779,4.31,8.127l-2.377,8.091
					c-0.492-1.445-0.969-2.763-1.43-3.954c-0.461-1.189-0.943-2.268-1.446-3.236c-0.502-0.966-1.043-1.808-1.621-2.526
					c-0.577-0.714-1.227-1.321-1.949-1.819c-0.605-0.417-1.116-0.594-1.535-0.535c-0.418,0.06-0.756,0.297-1.014,0.709
					c-0.258,0.412-0.439,0.963-0.542,1.653c-0.103,0.69-0.141,1.459-0.114,2.308c0.03,0.954,0.148,1.841,0.353,2.661
					c0.206,0.82,0.462,1.591,0.769,2.311c0.307,0.722,0.652,1.401,1.034,2.04c0.383,0.64,0.772,1.259,1.169,1.858
					c0.62,0.969,1.244,1.935,1.874,2.896c0.631,0.965,1.261,1.938,1.89,2.92c0.316,0.511,0.699,1.123,1.15,1.839
					c0.452,0.717,0.924,1.554,1.414,2.511c0.491,0.96,0.983,2.053,1.476,3.279c0.494,1.23,0.945,2.603,1.353,4.122
					c0.408,1.521,0.751,3.187,1.028,4.997c0.277,1.81,0.444,3.79,0.502,5.938c0.072,2.681-0.142,4.825-0.639,6.434
					c-0.496,1.603-1.173,2.721-2.029,3.36c-0.852,0.636-1.829,0.847-2.929,0.635c-1.094-0.209-2.219-0.788-3.377-1.733
					c-1.023-0.835-1.99-1.758-2.899-2.768c-0.905-1.006-1.767-2.159-2.587-3.458c-0.817-1.294-1.6-2.784-2.35-4.47
					c-0.748-1.679-1.462-3.602-2.143-5.769L316.345,347.288z"/>
			</g>
		</g>
	</g>
	<g>
		<g>
			<path fill="#F964CF" d="M429.191,830.903l-18.888-33.327l0.269,8.301l-2.121-3.785l-0.663-19.938l2.135,3.707l0.272,8.379
				l18.909,33.213L429.191,830.903z"/>
			<path fill="#F964CF" d="M434.723,821.15l-6.113-13.311l-15.539-20.143l-0.108-3.446l11.598,15.014l-11.924-25.478l-0.095-3.043
				l22.101,46.947L434.723,821.15z"/>
			<path fill="#F964CF" d="M434.252,800.563l-21.922-36.615l-0.101-3.249l2.885,4.795c-2.195-4.914-3.326-8.687-3.409-11.359
				c-0.068-2.168,0.55-2.777,1.861-1.818c1.322,0.967,3.177,3.395,5.58,7.315c2.65,4.322,4.831,8.574,6.528,12.736
				c1.709,4.19,2.597,7.483,2.656,9.854c0.055,2.197-0.649,2.776-2.103,1.747l7.948,13.213L434.252,800.563z M424.19,780.584
				c1.311,0.538,1.95,0.028,1.909-1.535c-0.084-3.224-2.293-8.393-6.561-15.39c-3.691-6.052-5.469-7.635-5.383-4.835
				c0.056,1.829,0.959,5.02,2.719,9.597L424.19,780.584z"/>
			<path fill="#F964CF" d="M427.723,758.068c0.068,2.701-0.667,3.589-2.194,2.671c-1.513-0.909-3.553-3.44-6.107-7.561
				c-2.55-4.116-4.568-8.12-6.071-12.034c-1.494-3.89-2.28-7.167-2.364-9.853c-0.084-2.692,0.57-3.687,1.972-2.976
				c1.414,0.716,3.386,3.058,5.931,7.058c2.638,4.146,4.756,8.254,6.336,12.302C426.818,751.749,427.652,755.221,427.723,758.068z
				 M425.46,754.411c-0.094-3.623-2.272-8.806-6.467-15.436c-4.061-6.418-6.008-7.827-5.901-4.332
				c0.106,3.474,2.162,8.424,6.23,14.955C423.483,756.279,425.551,757.921,425.46,754.411z"/>
			<path fill="#F964CF" d="M432.527,747.958l-2.704-4.587c0.799-0.715,1.177-2.061,1.13-4.038c-0.094-3.975-1.994-8.786-5.65-14.35
				l-2.616-3.981c2.357,4.827,3.583,8.734,3.657,11.679c0.058,2.301-0.624,3.002-2.037,2.109c-1.402-0.885-3.306-3.201-5.699-6.92
				c-2.433-3.781-4.415-7.58-5.962-11.41c-1.537-3.806-2.339-6.889-2.414-9.272c-0.065-2.088,0.583-2.811,1.955-2.162l-1.781-2.71
				l-0.107-3.426l11.64,17.615c2.595,3.928,4.542,7.026,5.821,9.266c1.286,2.253,2.352,4.443,3.195,6.566
				c1.487,3.754,2.271,7.272,2.345,10.532C433.353,745.141,433.094,746.837,432.527,747.958z M420.825,718.169l-6.681-10.166
				c-1.261-0.484-1.861,0.157-1.807,1.921c0.048,1.565,0.609,3.595,1.687,6.102c1.083,2.519,2.554,5.216,4.422,8.103
				c3.558,5.499,5.322,6.814,5.244,3.865C423.636,725.98,422.678,722.697,420.825,718.169z"/>
			<path fill="#F964CF" d="M426.215,712.85l-16.234-24.165l-0.108-3.445l2.953,4.372c-2.247-4.632-3.403-8.234-3.485-10.844
				c-0.011-0.352,0.002-0.686,0.037-1.003l2.664,3.897c-0.147,0.36-0.213,0.768-0.199,1.228c0.067,2.199,1.201,5.63,3.419,10.328
				l10.862,16.078L426.215,712.85z"/>
			<path fill="#F964CF" d="M423.321,680.586c1.752,4.579,2.657,7.886,2.708,9.893c0.041,1.65-0.366,2.383-1.219,2.195
				c-0.848-0.185-1.936-1.239-3.258-3.155c-1.811-2.623-3.217-5.519-4.226-8.699c-1.006-3.168-1.556-6.423-1.653-9.777l-0.024-0.849
				l-1.951-2.772c-1.858-2.64-2.745-2.794-2.675-0.483c0.057,1.855,0.585,4.529,1.587,8.03l-2.377-3.432
				c-0.855-3.48-1.313-6.246-1.378-8.308c-0.068-2.159,0.278-3.194,1.04-3.099c0.765,0.094,1.995,1.337,3.699,3.743l7.435,10.501
				c1.742,2.461,2.602,3.06,2.569,1.783c-0.004-0.16-0.031-0.423-0.081-0.789l1.701,2.143c0.357,1.299,0.548,2.449,0.573,3.447
				C425.833,682.656,425.006,682.529,423.321,680.586z M421.679,678.764l-4.287-6.092l0.004,1.154
				c0.055,1.955,0.409,3.976,1.062,6.07c0.655,2.098,1.49,3.879,2.508,5.345c0.726,1.046,1.334,1.628,1.822,1.747
				c0.49,0.119,0.724-0.26,0.701-1.137C423.449,684.35,422.845,681.984,421.679,678.764z"/>
			<path fill="#F964CF" d="M431.449,678.051l-22.785-31.574l-0.111-3.558l2.992,4.12c-2.279-4.537-3.455-8.248-3.547-11.175
				c-0.074-2.374,0.563-3.306,1.92-2.789c1.369,0.522,3.293,2.443,5.789,5.792c2.753,3.695,5.022,7.508,6.789,11.424
				c1.78,3.944,2.707,7.232,2.772,9.839c0.061,2.415-0.669,3.348-2.179,2.806l8.275,11.395L431.449,678.051z M420.971,660.02
				c1.36,0.057,2.022-0.773,1.978-2.491c-0.092-3.543-2.392-8.365-6.827-14.359c-3.832-5.179-5.674-6.196-5.581-3.127
				c0.061,2.005,1.001,5.167,2.83,9.512L420.971,660.02z"/>
			<path fill="#F964CF" d="M424.407,641.151l-23.687-31.245l-0.121-3.578l10.118,13.256c-2.311-4.874-3.502-8.685-3.589-11.476
				c-0.055-1.744,0.341-2.572,1.189-2.485c0.853,0.088,2.032,1.093,3.544,3.026l12.118,15.495l0.096,3.791l-11.138-14.342
				c-1.216-1.566-2.073-2.455-2.573-2.674c-0.498-0.218-0.732,0.182-0.701,1.2c0.068,2.245,1.309,5.893,3.74,10.983l10.91,14.294
				L424.407,641.151z"/>
			<path fill="#F964CF" d="M430.111,619.596l-6.537-11.483l-16.51-12.893l-0.125-3.996l12.313,9.583l-12.692-21.721l-0.11-3.531
				l23.569,39.996L430.111,619.596z"/>
		</g>
	</g>
	<g>
		<g>
			<path d="M611.553,608.055c0.35-0.408,0.519-0.549,0.507-0.426c-0.052,0.532-0.148,1.176-0.288,1.933
				c-0.131,0.665-0.217,1.202-0.257,1.609c-0.046,0.469-0.065,1.005-0.057,1.609c0.004,0.64-0.019,1.217-0.07,1.731
				c-0.012,0.122-0.19,0.386-0.534,0.792c-0.344,0.406-0.512,0.564-0.503,0.471c0.016-0.623-0.085-0.94-0.302-0.95
				c-0.217-0.01-0.586,0.291-1.107,0.903c-0.331,0.389-0.868,1.089-1.612,2.101l-6.629,8.984l-0.452,4.81l5.893-5.833
				c0.778-0.778,1.382-1.422,1.814-1.938c1.116-1.33,1.782-2.671,2.003-4.03c0.009-0.092,0.186-0.343,0.53-0.751
				c0.344-0.408,0.509-0.551,0.497-0.429c-0.045,0.458-0.131,1.01-0.261,1.656c-0.126,0.615-0.209,1.128-0.249,1.539
				c-0.032,0.327-0.034,0.694-0.008,1.099c0.025,0.427,0.019,0.823-0.017,1.188c-0.011,0.114-0.172,0.358-0.485,0.733
				c-0.35,0.42-0.529,0.557-0.537,0.412c-0.039-0.512-0.279-0.668-0.72-0.467c-0.443,0.202-1.386,0.988-2.835,2.366l-22.723,22.072
				c-0.224,0.221-0.328,0.243-0.312,0.065c0.017-0.194,0.135-0.442,0.352-0.742l23.728-32.275c1.263-1.718,2.205-3.145,2.831-4.285
				c0.624-1.136,1.049-2.177,1.275-3.124C611.063,608.694,611.24,608.419,611.553,608.055z M599.411,628.559l-10.54,14.307
				l10.139-10.024L599.411,628.559z"/>
			<path d="M597.575,615.296c0.539-0.615,0.986-1.039,1.343-1.272c0.357-0.233,0.521-0.21,0.495,0.069
				c-0.033,0.35-0.258,0.918-0.678,1.705c-0.333,0.624-0.509,1.037-0.528,1.236c-0.048,0.518,0.411,0.466,1.375-0.154l8.798-10.136
				c1.108-1.276,1.889-2.279,2.347-3.014c0.458-0.734,0.805-1.574,1.043-2.522c0.037-0.153,0.213-0.41,0.526-0.77
				c0.351-0.402,0.52-0.541,0.508-0.417c-0.031,0.318-0.112,0.809-0.244,1.476c-0.137,0.727-0.225,1.278-0.261,1.655
				c-0.037,0.385-0.045,0.806-0.024,1.266c0.027,0.407,0.025,0.769-0.006,1.084c-0.012,0.124-0.193,0.389-0.544,0.795
				c-0.313,0.363-0.477,0.498-0.49,0.403c-0.073-0.512-0.289-0.645-0.648-0.398c-0.36,0.248-1.159,1.088-2.404,2.527l-7.194,8.319
				c-1.058,1.223-1.762,2.11-2.11,2.658c-0.348,0.548-0.602,1.166-0.761,1.853c-0.012,0.127-0.195,0.395-0.55,0.807
				c-0.328,0.381-0.487,0.508-0.475,0.381c-0.263-0.398-0.577-0.615-0.942-0.65c-0.366-0.036-0.69,0.038-0.974,0.224
				c-0.154,0.092-0.227,0.091-0.218-0.005c0.02-0.223,0.139-0.459,0.356-0.709l2.543-2.844c-0.936,0.509-1.588,0.768-1.952,0.775
				c-0.365,0.007-0.526-0.218-0.484-0.675c0.034-0.369,0.267-0.919,0.698-1.649C596.55,616.586,597.036,615.912,597.575,615.296z"/>
			<path d="M599.795,602.641c1.098-1.229,1.614-1.512,1.552-0.854c-0.026,0.28-0.148,0.623-0.365,1.028
				c-0.217,0.405-0.668,1.075-1.355,2.012c-0.813,1.108-1.357,1.926-1.629,2.453c-0.272,0.527-0.427,0.988-0.464,1.382
				c-0.09,0.974,0.52,0.948,1.824-0.071c1.295-1.013,3.216-2.964,5.747-5.832c2.089-2.367,3.786-4.571,5.104-6.623
				c1.31-2.039,2.013-3.579,2.115-4.626c0.116-1.19-0.392-1.461-1.531-0.809l-0.033-0.017c0.007-0.07,0.087-0.221,0.239-0.452
				c0.153-0.231,0.318-0.445,0.496-0.645c0.254-0.284,0.668-0.543,1.242-0.777c0.573-0.234,0.988-0.255,1.249-0.064
				c0.26,0.191,0.36,0.59,0.3,1.197c-0.136,1.394-1.075,3.517-2.827,6.389c-1.764,2.892-3.941,5.814-6.543,8.777
				c-2.608,2.97-4.743,4.924-6.391,5.843c-1.662,0.926-2.431,0.655-2.296-0.821c0.1-1.09,0.502-2.369,1.202-3.832
				C598.133,604.838,598.921,603.618,599.795,602.641z"/>
			<path d="M615.061,572.059c0.352-0.382,0.522-0.51,0.509-0.384c-0.031,0.317-0.106,0.749-0.228,1.297
				c-0.125,0.588-0.206,1.073-0.243,1.454c-0.039,0.396-0.045,0.81-0.02,1.243c0.03,0.384,0.029,0.735-0.002,1.052
				c-0.012,0.127-0.194,0.383-0.546,0.77c-0.314,0.345-0.478,0.468-0.491,0.37c-0.048-0.435-0.259-0.524-0.635-0.265
				c-0.376,0.259-1.194,1.078-2.458,2.462l-6.52,7.137c-2.874,3.146-4.401,5.535-4.548,7.129c-0.093,1.008,0.499,1.135,1.771,0.383
				l8.826-9.755c1.149-1.27,1.953-2.251,2.417-2.946c0.463-0.695,0.779-1.403,0.951-2.13c0.038-0.154,0.214-0.404,0.528-0.75
				c0.352-0.387,0.521-0.518,0.509-0.393c-0.031,0.322-0.11,0.783-0.236,1.384c-0.132,0.663-0.217,1.187-0.254,1.571
				c-0.038,0.392-0.044,0.797-0.018,1.215c0.032,0.364,0.032,0.706,0,1.028c-0.012,0.125-0.194,0.383-0.545,0.775
				c-0.314,0.35-0.478,0.476-0.491,0.379c-0.05-0.534-0.257-0.685-0.622-0.454c-0.367,0.231-1.179,1.044-2.441,2.445l-18.623,20.667
				c-1.134,1.258-1.886,2.165-2.253,2.717c-0.367,0.553-0.634,1.185-0.799,1.896c-0.041,0.164-0.227,0.431-0.56,0.801
				c-0.377,0.419-0.56,0.564-0.548,0.432c-0.445-0.776-1.111-0.981-1.999-0.611c-0.162,0.066-0.24,0.059-0.232-0.024
				c0.02-0.232,0.146-0.475,0.376-0.729c2.335-2.461,4.792-5.117,7.366-7.961l6.958-7.69c-1.731,0.866-2.551,0.735-2.447-0.402
				c0.107-1.162,0.723-2.66,1.844-4.484c1.116-1.816,2.557-3.687,4.318-5.607l7.476-8.149c1.252-1.365,2.078-2.356,2.485-2.98
				c0.406-0.622,0.704-1.339,0.896-2.15C614.57,572.649,614.746,572.401,615.061,572.059z"/>
			<path d="M591.441,592.088c0.593-0.636,1.096-1.06,1.508-1.274c0.412-0.214,0.601-0.141,0.569,0.216
				c-0.032,0.356-0.276,0.895-0.734,1.616c-0.458,0.722-0.983,1.403-1.576,2.042c-0.623,0.671-1.136,1.112-1.541,1.322
				c-0.405,0.21-0.591,0.131-0.559-0.237c0.032-0.36,0.273-0.897,0.723-1.612C590.282,593.447,590.818,592.756,591.441,592.088z
				 M615.802,564.45c0.352-0.377,0.522-0.502,0.51-0.374c-0.032,0.326-0.11,0.783-0.235,1.373c-0.131,0.651-0.215,1.17-0.253,1.557
				c-0.039,0.395-0.047,0.828-0.026,1.3c0.027,0.418,0.024,0.79-0.008,1.115c-0.012,0.126-0.195,0.38-0.547,0.761
				c-0.315,0.341-0.479,0.461-0.492,0.362c-0.073-0.525-0.29-0.68-0.65-0.466c-0.361,0.215-1.164,0.993-2.416,2.342l-7.232,7.796
				c-1.064,1.147-1.772,1.985-2.122,2.513c-0.35,0.528-0.606,1.133-0.766,1.811c-0.012,0.13-0.196,0.388-0.554,0.774
				c-0.33,0.357-0.49,0.472-0.478,0.341c-0.286-0.461-0.611-0.742-0.975-0.843c-0.364-0.102-0.677-0.075-0.937,0.078
				c-0.157,0.095-0.23,0.092-0.221-0.007c0.021-0.229,0.141-0.461,0.359-0.695c3.026-3.13,5.35-5.566,6.995-7.331l6.132-6.582
				c1.253-1.346,2.077-2.317,2.477-2.922c0.399-0.603,0.701-1.324,0.908-2.166C615.311,565.032,615.487,564.787,615.802,564.45z"/>
			<path d="M601.687,570.439c0.731-0.766,1.086-1.041,1.066-0.827l-0.504,3.853l9.5-10.037c2.411-2.547,3.658-4.346,3.762-5.421
				c0.065-0.666-0.124-1.012-0.566-1.039c0.006-0.064,0.078-0.192,0.217-0.385c0.138-0.193,0.284-0.369,0.436-0.528
				c0.317-0.332,0.715-0.481,1.193-0.448c0.477,0.033,0.679,0.42,0.606,1.161c-0.089,0.908-0.596,2.095-1.525,3.565
				c-0.932,1.476-2.125,2.985-3.585,4.534l-0.173,0.184l-9.587,10.13c-0.377,0.4-0.575,0.7-0.594,0.897l-0.087,0.936
				c-0.017,0.181-0.197,0.454-0.543,0.822c-0.266,0.283-0.458,0.421-0.578,0.416c-1.015,0.049-2.511,0.735-4.501,2.071
				c-0.215,0.144-0.316,0.146-0.303,0.005c0.021-0.233,0.143-0.466,0.365-0.701l3.932-4.063l0.336-3.648
				C600.575,571.701,600.953,571.208,601.687,570.439z"/>
			<path d="M607.413,553.535c0.372-0.38,0.544-0.421,0.516-0.124l-0.637,6.767c0.71-0.692,1.445-1.433,2.207-2.223
				c2.1-2.179,3.729-4.148,4.899-5.919c1.165-1.763,1.8-3.21,1.911-4.35c0.056-0.574-0.129-0.906-0.557-0.992
				c-0.429-0.087-1.004,0.077-1.728,0.495l-0.033-0.021c0.007-0.073,0.085-0.217,0.233-0.431c0.149-0.215,0.319-0.419,0.511-0.616
				c0.27-0.276,0.805-0.588,1.602-0.936c0.795-0.347,1.382-0.443,1.764-0.292c0.381,0.152,0.539,0.558,0.475,1.218
				c-0.142,1.447-1.091,3.525-2.858,6.25c-1.781,2.747-3.915,5.42-6.415,8.027c-2.583,2.694-4.751,4.506-6.49,5.417
				c-1.754,0.918-2.568,0.611-2.427-0.932c0.119-1.295,0.914-3.097,2.378-5.395C604.221,557.194,605.771,555.213,607.413,553.535z
				 M605.439,557.599c-1.008,1.035-1.868,2.111-2.578,3.228c-0.712,1.12-1.1,2.018-1.162,2.693c-0.059,0.64,0.328,0.743,1.16,0.305
				c0.828-0.434,1.938-1.299,3.326-2.589l0.162-3.272c0.035-0.506-0.01-0.793-0.136-0.862
				C606.085,557.035,605.828,557.2,605.439,557.599z"/>
			<path d="M605.218,544.247c1.107-1.101,1.627-1.306,1.563-0.62c-0.027,0.292-0.151,0.634-0.37,1.023
				c-0.219,0.39-0.674,1.017-1.368,1.885c-0.821,1.026-1.37,1.794-1.646,2.303c-0.276,0.509-0.433,0.969-0.471,1.381
				c-0.094,1.017,0.519,1.102,1.833,0.261c1.305-0.836,3.241-2.552,5.793-5.128c2.105-2.126,3.817-4.15,5.147-6.082
				c1.322-1.921,2.034-3.423,2.14-4.515c0.121-1.241-0.388-1.622-1.533-1.141l-0.033-0.024c0.007-0.074,0.088-0.219,0.242-0.435
				c0.154-0.217,0.321-0.414,0.5-0.592c0.255-0.254,0.672-0.452,1.249-0.594c0.575-0.142,0.992-0.087,1.253,0.164
				c0.26,0.25,0.359,0.692,0.297,1.325c-0.142,1.453-1.092,3.531-2.86,6.252c-1.781,2.741-3.976,5.439-6.599,8.101
				c-2.63,2.67-4.781,4.35-6.439,5.021c-1.673,0.677-2.445,0.248-2.304-1.294c0.104-1.138,0.513-2.422,1.222-3.845
				C603.541,546.272,604.337,545.123,605.218,544.247z"/>
			<path d="M605.019,534.405c0.735-0.713,1.091-0.959,1.071-0.739l-0.514,3.94l9.547-9.349c2.422-2.372,3.675-4.097,3.782-5.2
				c0.066-0.683-0.122-1.063-0.565-1.14c0.006-0.066,0.079-0.191,0.219-0.375c0.139-0.184,0.285-0.35,0.438-0.499
				c0.318-0.309,0.718-0.419,1.196-0.331c0.478,0.088,0.679,0.511,0.604,1.271c-0.091,0.931-0.602,2.105-1.536,3.525
				c-0.938,1.425-2.137,2.857-3.603,4.301l-0.174,0.171l-9.634,9.436c-0.379,0.373-0.579,0.662-0.597,0.864l-0.089,0.961
				c-0.017,0.185-0.199,0.449-0.546,0.792c-0.267,0.264-0.461,0.386-0.581,0.367c-1.018-0.062-2.521,0.484-4.519,1.649
				c-0.216,0.126-0.317,0.117-0.304-0.028c0.022-0.239,0.144-0.468,0.368-0.687l3.953-3.777l0.345-3.746
				C603.901,535.59,604.281,535.12,605.019,534.405z"/>
			<path d="M620.864,505.846c0.273-0.256,0.415-0.328,0.428-0.22c0.104,1.276,0.441,1.896,1.012,1.861
				c0.126-0.013,0.183,0.037,0.171,0.153c-0.016,0.166-0.126,0.344-0.327,0.535l-2.391,2.172c1.586-0.388,2.324-0.085,2.227,0.905
				c-0.111,1.13-0.686,2.479-1.731,4.053c-1.049,1.581-2.429,3.195-4.147,4.847l-7.409,7.126c-1.2,1.154-2.009,2.021-2.421,2.595
				c-0.413,0.575-0.647,1.153-0.7,1.731c-0.01,0.11-0.015,0.227-0.014,0.35c-0.012,0.127-0.192,0.359-0.54,0.695
				c-0.43,0.415-0.639,0.556-0.627,0.421c0.091-0.985-0.098-1.981-0.57-2.989c0.014-0.154,0.194-0.396,0.537-0.724l11.03-10.553
				c1.466-1.403,2.544-2.597,3.239-3.586c0.694-0.988,1.077-1.863,1.151-2.628c0.048-0.491-0.051-0.79-0.296-0.897
				c-0.246-0.108-0.708-0.034-1.388,0.223l-8.738,8.268c-1.188,1.124-1.994,1.979-2.414,2.559c-0.421,0.581-0.659,1.172-0.714,1.769
				c-0.01,0.102-0.014,0.216-0.013,0.339c-0.012,0.128-0.192,0.358-0.541,0.69c-0.43,0.409-0.64,0.546-0.627,0.408
				c0.091-0.992-0.097-2.004-0.568-3.034c0.014-0.155,0.194-0.394,0.537-0.718l12.754-12.004c0.889-0.837,1.492-1.478,1.808-1.924
				c0.317-0.446,0.568-1.029,0.754-1.748C620.35,506.389,620.526,506.163,620.864,505.846z"/>
			<path d="M607.482,508.173c0.547-0.5,1.001-0.817,1.362-0.953c0.361-0.137,0.527-0.054,0.499,0.247
				c-0.035,0.379-0.267,0.933-0.695,1.664c-0.34,0.58-0.521,0.979-0.541,1.194c-0.052,0.56,0.412,0.661,1.386,0.302l8.927-8.244
				c1.123-1.037,1.915-1.883,2.381-2.542c0.466-0.658,0.821-1.473,1.066-2.445c0.039-0.157,0.217-0.383,0.534-0.674
				c0.355-0.326,0.526-0.422,0.513-0.288c-0.033,0.342-0.118,0.861-0.256,1.557c-0.143,0.761-0.235,1.344-0.275,1.751
				c-0.04,0.415-0.051,0.881-0.033,1.4c0.024,0.462,0.019,0.864-0.014,1.204c-0.013,0.134-0.197,0.366-0.552,0.697
				c-0.317,0.296-0.482,0.39-0.495,0.279c-0.07-0.595-0.285-0.817-0.648-0.666c-0.363,0.151-1.173,0.809-2.435,1.981l-7.298,6.777
				c-1.074,0.997-1.79,1.742-2.144,2.232c-0.354,0.49-0.615,1.09-0.78,1.8c-0.013,0.137-0.199,0.373-0.56,0.71
				c-0.333,0.311-0.494,0.398-0.482,0.261c-0.263-0.534-0.578-0.883-0.945-1.048c-0.368-0.166-0.696-0.195-0.984-0.086
				c-0.156,0.05-0.23,0.023-0.22-0.08c0.022-0.241,0.144-0.464,0.364-0.667l2.583-2.29c-0.947,0.244-1.607,0.308-1.974,0.19
				c-0.368-0.118-0.529-0.425-0.484-0.919c0.037-0.399,0.276-0.931,0.716-1.596C606.44,509.256,606.935,508.673,607.482,508.173z"/>
			<path d="M613.238,491.567c0.375-0.332,0.548-0.342,0.518-0.031l-0.666,7.076c0.715-0.599,1.457-1.245,2.225-1.937
				c2.117-1.91,3.759-3.689,4.941-5.345c1.176-1.648,1.819-3.064,1.935-4.255c0.058-0.6-0.126-0.989-0.555-1.164
				c-0.43-0.176-1.008-0.113-1.736,0.19l-0.033-0.029c0.007-0.076,0.086-0.214,0.236-0.413c0.15-0.199,0.321-0.384,0.515-0.555
				c0.272-0.241,0.81-0.469,1.611-0.684c0.799-0.214,1.388-0.203,1.771,0.033c0.382,0.236,0.539,0.698,0.471,1.388
				c-0.148,1.511-1.109,3.536-2.892,6.092c-1.798,2.576-3.95,5.005-6.47,7.293c-2.605,2.366-4.789,3.874-6.539,4.507
				c-1.767,0.638-2.584,0.154-2.435-1.461c0.124-1.355,0.931-3.119,2.411-5.281C610.016,494.841,611.582,493.033,613.238,491.567z
				 M611.239,495.508c-1.016,0.905-1.885,1.885-2.603,2.936c-0.72,1.054-1.113,1.935-1.178,2.641
				c-0.062,0.67,0.327,0.854,1.165,0.55c0.833-0.301,1.952-1.007,3.351-2.11l0.176-3.451c0.037-0.531-0.007-0.846-0.133-0.944
				C611.89,495.033,611.631,495.158,611.239,495.508z"/>
		</g>
	</g>
	<g>
		<g>
			<path fill="#7319DB" d="M662.087,321.078c-1.099,1.161-1.583,2.564-1.853,5.773c-0.179,2.237-0.419,5.567-0.806,12.438
				l-0.385,6.837c-0.501,8.887-1.202,15.769-2.506,21.24c-1.053,4.394-2.388,7.135-3.638,8.197
				c-1.127,0.958-2.165,0.802-2.874-1.198c-0.94-2.574-1.165-8.022-0.673-17.267l1.049-19.71c0.39-7.33,0.232-7.527-1.256-7.089
				l0.124-2.355l5.143-3.631l-0.126,2.324c-1.498,1.531-1.678,2.124-2.071,9.419l-0.963,17.882
				c-0.677,12.584,0.117,18.707,2.393,16.801c2.578-2.159,3.918-11.698,4.639-24.541l0.354-6.307
				c0.386-6.885,0.511-10.063,0.574-12.447c0.057-2.915-0.27-3.743-1.55-3.211l0.128-2.303l4.426-3.126L662.087,321.078z"/>
			<path fill="#7319DB" d="M666.328,340.306c-0.087-4.224-0.508-6.827-1.375-6.17c-0.64,0.485-1.229,2.992-1.398,5.912
				c-0.186,3.22,0.353,4.478,1.08,5.36c1.214,1.355,1.949,3.286,1.634,8.63c-0.411,6.97-2.12,11.755-3.547,12.966
				c-0.922,0.783-1.678,0.059-1.935-0.805c-0.065-0.955,0.074-6.062,0.222-8.942l0.52-0.714c0.038,4.676,0.578,8.546,1.659,7.636
				c0.635-0.534,1.316-3.033,1.492-6.041c0.185-3.165-0.171-4.528-0.979-5.677c-0.912-1.222-1.997-2.834-1.654-8.821
				c0.318-5.548,1.68-11.009,3.354-12.265c0.761-0.571,1.196-0.238,1.525,0.173c0.041,1.575-0.044,6.152-0.094,7.86L666.328,340.306
				z"/>
			<path fill="#7319DB" d="M673.014,358.268c-0.283,0.24-0.593-0.121-0.728-0.772c-0.159-0.771-0.214-1.701-0.209-2.822
				c-0.793,2.551-1.764,5.887-2.238,6.289c-1.242,1.055-1.828-2.75-1.552-7.371c0.223-3.737,0.804-6.344,1.809-8.434
				c1.116-2.386,2.49-5.392,2.942-7.025l0.091-1.49c0.319-5.226-0.039-7.81-0.852-7.192c-0.306,0.233-0.593,0.954-0.818,1.988
				c-0.268,1.21-0.522,2.985-0.798,5.421c-0.167,1.419-0.387,2.092-0.661,2.306c-0.326,0.256-0.718-0.874-0.609-2.685
				c0.072-1.209,0.346-2.212,0.758-3.609c0.593-1.966,1.91-5.7,2.928-7.256c0.524-0.393,1.005-0.11,1.292,0.96
				c0.482,1.772,0.461,4.701,0.215,8.715l-0.826,13.449c-0.203,3.307,0.016,4.098,0.298,3.863c0.199-0.166,0.453-0.725,0.641-1.229
				l0.043,1.835L673.014,358.268z M672.88,340.737c-0.404,1.099-1.181,3.066-1.599,4.109c-0.709,1.847-1.148,3.478-1.314,6.232
				c-0.233,3.863,0.323,5.088,0.831,4.664c0.405-0.339,0.994-1.88,1.373-3.384L672.88,340.737z"/>
			<path fill="#7319DB" d="M681.13,320.417c0.348-0.892,0.571-1.269,0.779-1.425c1.755-1.316,2.719,4.453,2.173,12.902
				c-0.677,10.476-3.003,19.527-5.17,21.367c-0.708,0.601-1.486,0.577-2.294-0.524l2.543-40.686c0.29-4.633,0.269-5.047-0.724-4.776
				l0.112-1.804c0.803-0.993,1.939-2.861,2.673-4.373l-1.416,22.49L681.13,320.417z M678.461,344.944
				c-0.069,1.089-0.082,1.788-0.079,2.472c0.026,1.282,0.338,3.348,1.109,2.7c1.255-0.987,2.385-6.685,2.926-15.113
				c0.539-8.403-0.25-12.161-1.533-11.182c-0.403,0.307-0.888,1.167-1.221,2.052L678.461,344.944z"/>
			<path fill="#7319DB" d="M684.629,347.606l0.125-1.914c0.986-1.23,1.121-1.745,1.437-6.563l0.958-14.626
				c0.296-4.523,0.253-4.764-0.588-4.738l0.118-1.805c0.844-1.188,1.692-2.719,2.479-4.473l-1.617,24.53
				c-0.316,4.8-0.253,5.146,0.693,4.751l-0.126,1.895L684.629,347.606z M688.2,304.831c0.152-2.329,0.654-4.352,1.117-4.68
				c0.446-0.316,0.7,1.164,0.548,3.482c-0.138,2.097-0.626,4.172-1.087,4.51C688.33,308.47,688.062,306.939,688.2,304.831z"/>
			<path fill="#7319DB" d="M689.39,343.577l0.126-1.888c0.977-1.282,1.12-1.731,1.429-6.345l2.235-33.349
				c0.317-4.733,0.242-4.886-0.664-4.658l0.115-1.731c0.828-0.992,1.885-2.895,2.495-4.14l-2.887,42.81
				c-0.31,4.596-0.22,4.913,0.696,4.536l-0.127,1.869L689.39,343.577z"/>
			<path fill="#7319DB" d="M694.201,339.505l0.127-1.862c0.93-1.17,1.059-1.668,1.38-6.355l0.975-14.222
				c0.302-4.398,0.263-4.633-0.525-4.629l0.12-1.755c0.796-1.135,1.599-2.605,2.345-4.293l-1.645,23.853
				c-0.322,4.669-0.264,5.008,0.623,4.649l-0.128,1.844L694.201,339.505z M697.773,297.938c0.155-2.263,0.635-4.221,1.071-4.529
				c0.42-0.297,0.65,1.15,0.494,3.402c-0.141,2.038-0.608,4.047-1.042,4.364C697.876,301.483,697.633,299.986,697.773,297.938z"/>
			<path fill="#7319DB" d="M701.519,333.248c-0.279,0.806-0.507,1.254-0.632,1.36c-0.923,0.783-1.258-1.421-0.872-6.932l1.387-19.83
				l-0.963,0.734l-0.004-0.719l0.528-2.37l0.637-0.479l0.354-5.062l1.373-5.483l0.168,0.077l-0.671,9.547l1.547-1.164
				c0.09,0.581-0.063,2.189-0.282,2.874l-1.464,1.115l-1.227,17.447c-0.382,5.431,0.026,5.983,0.374,5.692
				c0.319-0.267,0.662-1.062,0.889-1.695l-0.005,1.716L701.519,333.248z"/>
			<path fill="#7319DB" d="M711.718,299.041c-0.731,1.125-0.889,1.752-1.521,5.781c-0.59,3.807-1.406,9.68-3.092,21.145
				c-1.652,11.363-2.225,15.455-2.683,19.198c-0.162,1.378-0.362,1.865-0.565,2.048c-0.38,0.341-0.683-0.932-0.56-2.653
				c0.076-1.06,0.241-1.765,0.529-2.764c0.543-1.719,0.923-3.48,1.439-6.6c0.378-2.254,0.563-3.596,0.692-4.517
				c0.139-1.053,0.193-1.973,0.193-3.036c-0.009-7.469-0.03-15.383-0.087-19.62c-0.034-3.314-0.108-4.095-0.797-4.089l0.126-1.777
				l2.877-2.166l-0.127,1.761c-0.661,1.015-0.792,1.755-0.791,4.058l0.009,15.566c0.685-4.766,1.786-12.829,2.355-17.196
				c0.34-2.608,0.301-3.277-0.403-3.316l0.127-1.755l2.405-1.81L711.718,299.041z"/>
		</g>
	</g>
	<g>
		<g>
			<path fill="#CC7E00" d="M537.693,796.964l0.031-1.792c1.86-3.226,2.074-3.915,2.17-9.17l0.456-24.841
				c0.099-5.383-0.104-5.456-1.974-3.153l0.032-1.849l6.305-9.201l-0.037,1.831c-1.851,3.138-2.066,3.822-2.169,9.187l-0.475,24.758
				c-0.101,5.237,0.098,5.29,1.909,2.858l-0.035,1.775L537.693,796.964z"/>
			<path fill="#CC7E00" d="M552.498,774.093l0.038-1.63c1.226-2.238,1.388-2.894,1.488-7.124l0.242-10.151
				c0.102-4.279-0.406-5.943-1.745-3.943c-0.816,1.219-1.667,3.861-2.344,6.366l-0.322,14.462c-0.091,4.075,0.036,4.113,1.26,2.58
				l-0.037,1.634l-4.896,7.564l0.034-1.647c1.483-2.698,1.601-3.175,1.687-7.202l0.273-12.715c0.084-3.895-0.047-3.88-1.226-2.718
				l0.031-1.492c1.138-2.238,2.276-4.714,3.351-7.451l-0.109,4.886c0.465-1.59,0.951-3.211,1.527-5.023
				c0.668-2.126,1.212-3.591,1.849-4.538c1.749-2.599,2.729-0.749,2.584,5.171l-0.287,11.699c-0.099,4.035,0.025,4.017,1.235,2.558
				l-0.041,1.618L552.498,774.093z"/>
			<path fill="#CC7E00" d="M563.156,757.571c-0.367,1.079-0.686,1.8-0.874,2.089c-1.38,2.134-2.096,1.011-1.969-3.832l0.458-17.435
				l-1.448,2.161l-0.068-0.543l0.624-2.687l0.957-1.424l0.117-4.45l1.68-6.468l0.27-0.22l-0.227,8.401l2.325-3.459
				c0.191,0.295,0.09,1.776-0.194,2.662l-2.198,3.282l-0.414,15.349c-0.129,4.777,0.558,4.52,1.078,3.72
				c0.478-0.735,0.947-1.912,1.247-2.771l0.141,1.315L563.156,757.571z"/>
			<path fill="#CC7E00" d="M573.854,736.269c-1.398,6.659-2.828,9.87-3.49,10.893c-2.525,3.904-3.823,0.265-3.631-6.446
				c0.12-4.175,0.761-8.688,1.678-12.583c0.94-4.039,2.088-7.293,3.142-8.86c1.712-2.545,2.932-0.112,2.766,4.592
				c-0.037,1.18-0.133,1.831-0.538,2.668c-0.323,0.6-2.848,4.982-5.208,8.778c-0.187,7.708,1.234,8.681,2.642,6.517
				c0.8-1.23,1.587-3.33,2.362-6.36L573.854,736.269z M568.769,732.624c1.078-1.625,2.133-3.271,3.245-5.06
				c0.341-0.514,0.471-0.992,0.498-1.881c0.115-3.116-0.44-5.071-1.491-3.505C570.128,723.509,569.177,727.389,568.769,732.624z"/>
			<path fill="#FFFF00" d="M585.204,700.095c-0.184,1.158-0.619,3.297-0.942,4.276l-1.081,1.451c0.301,0.71,0.448,2.201,0.377,4.236
				c-0.216,6.201-2.055,11.852-3.727,14.406c-0.328,0.501-0.672,0.916-0.976,1.216c-0.25,0.878-0.554,2.282-0.579,3.037
				c-0.036,1.103,0.254,1.758,1.124,0.421c0.693-1.065,1.35-2.184,2.001-3.184c1.181-1.815,2.712-3.082,2.512,2.581
				c-0.209,5.922-2.663,14.934-5.2,18.935c-2.199,3.469-3.245,1.574-3.157-1.738c0.021-1.24,0.25-2.584,0.591-3.937
				c0.447-1.792,1.2-4.497,1.702-6.317c-0.679,0.445-1.124-0.078-1.336-0.965c-0.15-0.542-0.192-1.528-0.152-2.199
				c0.869-2.161,1.544-4.687,1.892-6.269c-0.897,0.26-1.611-1.268-1.484-5.2c0.217-6.717,2.318-12.767,3.874-15.08
				c0.658-0.978,1.258-1.367,1.82-1.258c0.964-1.603,1.949-3.401,2.662-4.739L585.204,700.095z M578.172,736.295
				c-0.486,1.903-0.882,3.888-0.933,5.444c-0.102,3.107,0.9,3.819,2.34,1.557c1.753-2.754,2.755-6.856,2.876-10.336
				c0.068-1.943-0.224-2.845-0.754-2.622c-0.476,0.193-0.988,0.876-1.793,2.121C578.985,733.886,578.549,734.89,578.172,736.295z
				 M578.621,717.163c-0.147,4.447,0.444,6.651,1.488,5.061c0.83-1.319,1.578-4.603,1.734-9.138c0.152-4.434-0.389-6.795-1.453-5.21
				C579.593,709.063,578.77,712.641,578.621,717.163z"/>
			<path fill="#FFFF00" d="M589.596,698.245c0.687-3.914,1.577-8.126,2.423-9.383c0.66-0.98,1.039-0.08,0.984,1.356
				c-0.05,1.319-0.352,2.906-0.758,4.053c-0.23,0.616-0.391,0.749-0.488,0.57c-0.245-0.392-0.452-0.407-0.764,0.061
				c-0.442,0.662-1.052,2.989-1.553,6.621l-0.39,10.53c-0.137,3.699-0.058,3.898,1.342,2.062l-0.057,1.528l-4.396,6.791l0.055-1.54
				c1.149-2.094,1.291-2.636,1.426-6.345l0.437-12.003c0.135-3.698,0.048-3.732-0.963-2.714l0.048-1.335
				c0.973-1.889,1.857-3.863,2.848-6.432l-0.231,6.236L589.596,698.245z"/>
			<path fill="#FFFF00" d="M593.833,710.238l0.059-1.518c1.125-2.051,1.263-2.58,1.414-6.406l0.457-11.604
				c0.141-3.587,0.078-3.707-0.929-2.686l0.056-1.43c0.956-1.856,1.901-3.962,2.763-6.156l-0.777,19.474
				c-0.152,3.815-0.059,3.987,1.058,2.58l-0.061,1.507L593.833,710.238z M596.093,675.401c0.072-1.844,0.578-3.889,1.119-4.678
				c0.521-0.76,0.896-0.009,0.823,1.828c-0.066,1.663-0.553,3.728-1.091,4.522C596.422,677.843,596.027,677.071,596.093,675.401z"/>
			<path fill="#FFFF00" d="M602.869,696.227c-0.313,0.95-0.581,1.57-0.736,1.809c-1.141,1.765-1.694,0.593-1.508-3.919l0.67-16.226
				l-1.194,1.783l-0.045-0.518l0.545-2.408l0.79-1.175l0.171-4.138l1.455-5.77l0.22-0.163l-0.327,7.811l1.921-2.857
				c0.148,0.307,0.042,1.675-0.201,2.458l-1.816,2.711l-0.598,14.286c-0.186,4.449,0.368,4.324,0.798,3.662
				c0.395-0.608,0.791-1.631,1.047-2.386l0.09,1.255L602.869,696.227z"/>
			<path fill="#FFFF00" d="M614.066,658.054c-0.878,1.773-1.047,2.436-1.633,6.193c-0.546,3.542-1.265,8.882-2.789,19.429
				c-1.487,10.429-1.993,14.156-2.373,17.48c-0.131,1.216-0.36,1.829-0.611,2.225c-0.469,0.74-0.931,0.203-0.869-1.212
				c0.038-0.871,0.211-1.599,0.525-2.701c0.601-1.956,0.992-3.733,1.48-6.677c0.359-2.133,0.522-3.352,0.637-4.191
				c0.12-0.949,0.137-1.689,0.078-2.464c-0.433-5.431-0.905-11.166-1.217-14.176c-0.231-2.367-0.369-2.839-1.254-1.938l0.063-1.458
				l3.578-5.322l-0.064,1.447c-0.794,1.6-0.919,2.308-0.788,3.983l0.888,11.324c0.614-4.364,1.576-11.67,2.062-15.591
				c0.291-2.342,0.203-2.778-0.707-1.887l0.065-1.443l2.996-4.457L614.066,658.054z"/>
		</g>
	</g>
	<g id="__">
		<g>
			<path fill="#E534EA" d="M330.026,427.664c-0.575-4.214-0.97-6.573-1.637-9.215c-0.818-3.349-1.756-5.057-4.516-7.899
				l-2.714-2.794c-1.117-1.15-1.248-1.013-1.072,1.884l1.365,22.394l3.736,4.126c3.438,3.796,3.619,3.18,3.72-2.533l1.169,1.267
				l1.086,18.746l-1.165-1.325c-0.847-7.076-1.14-8.396-4.576-12.229l-3.734-4.165l1.015,16.662c0.5,8.211,0.86,9.07,4.248,13.709
				l0.162,2.72l-10.158-12.173l-0.167-2.647c2.742,2.754,3.032,2.586,2.527-5.551l-2.291-36.918
				c-0.515-8.303-0.835-9.081-3.636-12.497l-0.18-2.852l16.735,17.056c0.229,3.326,0.803,10.081,1.24,15.094L330.026,427.664z"/>
			<path fill="#969696" d="M337.908,481.947l-0.146-2.604c2.51,2.354,2.809,2.255,2.454-4.182l-2.583-46.819
				c-0.369-6.686-0.633-7.244-3.205-10.438l-0.136-2.423c2.134,1.584,4.737,2.568,6.226,2.897l3.291,60.989
				c0.35,6.495,0.716,7.482,3.442,11.28l0.141,2.666L337.908,481.947z"/>
			<path fill="#568BF4" d="M366.033,516.82c-0.798-0.959-1.823-3.061-2.388-4.804c-0.667-2.054-1.059-3.877-1.323-5.739
				c-1.707,0.577-3.71,1.625-4.97,0.111c-3.244-3.898-5.745-12.618-6.065-18.838c-0.259-5.036,0.724-6.76,3.022-5.856
				c2.589,0.918,5.836,1.957,6.765,1.229l-0.1-2.09c-0.351-7.337-2.037-13.163-4.242-15.563c-0.82-0.892-1.464-0.904-1.854-0.15
				c-0.468,0.86-0.759,2.691-0.957,5.493c-0.13,1.603-0.585,1.774-1.296,0.978c-0.841-0.941-2.177-4.358-2.303-6.81
				c-0.084-1.637,0.43-2.136,1.234-2.709c1.179-0.759,3.998-1.44,6.551,0.216c1.435,1.544,2.927,4.053,4.051,7.077
				c1.9,5.087,2.578,9.96,2.843,15.672l0.886,19.082c0.217,4.678,1.09,7.083,1.899,8.04c0.573,0.678,1.22,0.95,1.677,0.995
				l0.61,3.393L366.033,516.82z M361.249,486.573c-0.917,0.04-2.704-0.138-3.655-0.253c-1.58-0.07-2.43,0.684-2.241,4.451
				c0.264,5.277,2.133,9.775,3.488,11.381c1.092,1.294,2.439,1.439,3.185,0.672L361.249,486.573z"/>
			<path fill="#FC7F10" d="M383.741,536.772c-0.839-0.088-1.592-0.587-2.053-1.141c-3.348-4.023-5.376-10.367-5.746-18.965
				l-1.338-31.118l-3.391-3.698l-0.25-1.404l1.195-1.801l2.254,2.432l-0.344-7.998l3.458-3.563l0.686,1.034l0.635,15.313
				l5.814,6.273c0.577,1.693,0.518,4.089-0.138,4.229l-5.489-5.985l1.152,27.768c0.357,8.598,2.162,12.164,3.454,13.695
				c1.197,1.419,2.314,1.917,3.02,2.029l0.59,3.493L383.741,536.772z"/>
		</g>
	</g>
	<g id="___1_">
		<g>
			<path d="M343.55,517.25c-0.269-0.245-1.181-1.088-1.886-1.468l-0.095-1.721l-0.666,0.07c-0.403,0.031-0.678-0.198-0.818-0.379
				c-0.948-1.218-2.302-4.76-2.516-8.524c-0.21-3.693,1.022-4.895,2.669-2.836c0.154,0.192,0.465,0.632,0.75,1.19l-0.208-3.746
				c-0.095-1.713-0.171-1.883-0.998-3.057l-0.038-0.679c0.629,0.599,1.428,1.202,1.886,1.436l0.888,16.109
				c0.079,1.431,0.158,1.657,0.618,2.346l0.376,0.556L343.55,517.25z M341.108,505.75c-0.325-1.29-0.813-2.329-1.226-2.847
				c-0.506-0.635-1.423-0.858-1.202,3.063c0.181,3.215,1.119,5.805,1.836,6.722c0.389,0.498,0.746,0.605,1.005,0.512L341.108,505.75
				z"/>
			<path d="M349.04,522.728c-0.661,1.221-1.495,0.608-1.899,0.089c-1.522-1.955-2.54-5.783-2.707-8.852
				c-0.104-1.904,0.119-3.197,0.551-3.774c0.443-0.619,1.062-0.534,1.699,0.263c1.047,1.309,1.998,4.432,2.101,6.594
				c0.029,0.551-0.007,0.736-0.249,0.532c-0.195-0.195-1.719-1.867-3.128-3.548c0.217,3.6,1.212,6.291,2.069,7.386
				c0.491,0.629,0.936,0.79,1.333,0.453L349.04,522.728z M345.42,512.978c0.646,0.815,1.28,1.59,1.952,2.387
				c0.209,0.264,0.276,0.22,0.254-0.192c-0.064-1.414-0.53-3.256-1.168-4.056C345.919,510.442,345.458,510.962,345.42,512.978z"/>
			<path d="M353.404,522.302c-0.339-1.965-0.828-3.621-1.449-4.399c-0.455-0.57-0.742-0.203-0.687,0.851
				c0.061,1.165,0.547,2.375,1.157,3.664c1.023,2.126,1.723,3.923,1.824,5.898c0.132,2.582-0.895,2.481-1.918,1.166
				c-0.654-0.84-1.27-2.119-1.517-2.82c-0.108-0.497-0.32-2.539-0.387-3.602l0.344,0.336c0.319,2.079,0.97,4.454,1.738,5.439
				c0.455,0.583,0.822,0.356,0.765-0.752c-0.06-1.165-0.422-2.221-1.116-3.75c-0.769-1.674-1.684-3.71-1.796-5.866
				c-0.104-1.993,0.574-2.699,1.761-1.215c0.546,0.682,0.902,1.363,1.182,1.949c0.134,0.742,0.363,2.649,0.434,3.339
				L353.404,522.302z"/>
			<path d="M355.839,533.677l-0.038-0.751c0.791,0.857,0.872,0.805,0.777-1.093l-0.289-5.738c-0.089-1.768-0.146-1.946-0.896-3.122
				l-0.035-0.702c0.66,0.617,1.303,1.08,1.878,1.349l0.483,9.668c0.095,1.903,0.181,2.171,1.024,3.408l0.038,0.756L355.839,533.677z
				 M355.693,518.104c-0.046-0.903,0.245-1.18,0.634-0.698c0.378,0.467,0.725,1.534,0.77,2.439c0.041,0.819-0.237,1.137-0.627,0.651
				C356.093,520.028,355.734,518.92,355.693,518.104z"/>
			<path d="M365.373,534.362c-0.087,0.323-0.323,0.756-0.528,0.741l-0.777-1.056c0.272,0.907,0.463,1.981,0.511,2.981
				c0.145,3.055-1.012,2.973-2.178,1.488c-0.227-0.289-0.47-0.652-0.687-1.007c-0.147,0.051-0.31,0.294-0.292,0.661
				c0.026,0.537,0.279,1.39,0.879,2.157c0.481,0.615,0.933,1.14,1.39,1.724c0.835,1.068,1.986,3.076,2.119,5.892
				c0.139,2.953-1.352,3.563-3.13,1.248c-1.511-1.967-2.39-4.813-2.483-6.454c-0.043-0.633,0.063-0.968,0.253-1.117
				c0.249-0.205,0.687-0.379,0.978-0.506c-0.492-0.922-0.853-1.965-1.054-2.804c-0.138-0.546-0.217-1.148-0.219-1.44
				c0.547,0.302,0.934,0.08,1.12-0.186c-0.664-1.374-1.271-3.389-1.364-5.282c-0.158-3.226,1.122-3.009,2.191-1.673
				c0.456,0.57,0.899,1.366,1.34,2.375c0.672,0.76,1.356,1.455,1.852,1.942L365.373,534.362z M361.713,542.115
				c-0.276,0.198-0.48,0.595-0.443,1.353c0.074,1.516,0.873,3.657,1.872,4.954c1.233,1.6,1.816,1.11,1.733-0.617
				c-0.046-0.964-0.323-1.985-0.728-2.8c-0.363-0.732-0.728-1.254-1.29-1.976C362.216,542.207,361.932,542,361.713,542.115z
				 M361.121,532.506c0.105,2.154,0.661,4.347,1.381,5.263c0.575,0.704,0.992,0.192,0.885-2.029
				c-0.104-2.167-0.639-4.368-1.377-5.292C361.463,529.762,361.015,530.321,361.121,532.506z"/>
			<path d="M371.04,553.19l-0.035-0.778c0.777,0.833,0.866,0.757,0.775-1.267l-0.218-4.838c-0.092-2.033-0.511-3.684-1.367-4.758
				c-0.517-0.649-1.002-0.631-1.372-0.414l0.313,6.801c0.089,1.924,0.177,2.146,0.962,3.315l0.035,0.776l-3.049-3.914l-0.036-0.771
				c0.896,0.96,0.958,0.904,0.87-0.986l-0.276-5.947c-0.084-1.815-0.171-2.006-0.914-3.209l-0.032-0.691
				c0.676,0.602,1.349,1.092,1.975,1.357l0.105,2.286c0.258-0.085,0.53-0.153,0.858-0.18c0.38-0.044,0.702,0.057,1.108,0.565
				c1.127,1.409,1.894,3.911,2.02,6.739l0.25,5.608c0.087,1.941,0.176,2.137,0.993,3.375l0.035,0.783L371.04,553.19z"/>
		</g>
	</g>
	<polygon opacity="0.7" fill="#FFFFFF" points="723.313,132.958 488.274,178.999 238.478,127.313 165.5,132.004 503.916,236.516
		806.946,139.301 	"/>
	<g>
		<path fill-rule="evenodd" clip-rule="evenodd" fill="#E5E5E6" d="M719.401,153.279c19.673,0,35.72-3.344,35.72-7.447
			c0-4.102-16.046-7.448-35.72-7.448c-19.673,0-35.719,3.346-35.719,7.448C683.682,149.934,699.728,153.279,719.401,153.279z"/>
		<path fill-rule="evenodd" clip-rule="evenodd" fill="#868686" d="M719.429,144.939c1.877,0,3.387,0.401,3.37,0.895
			c-0.014,0.491-1.548,0.892-3.426,0.892c-1.876,0-3.385-0.401-3.371-0.892C716.019,145.34,717.552,144.939,719.429,144.939z"/>
		<g>
			<path fill-rule="evenodd" clip-rule="evenodd" fill="#CB585B" d="M715.55,6.497c4.572-0.483,8.804-0.266,12.632,0.706
				c-0.357-0.038-0.716-0.069-1.076-0.088c-18.928-1.025-35.449,19.96-36.759,44.235c-2.022,37.519,13.815,65.077,28.021,92.43
				c-18.89-26.254-41.606-55.438-39.577-93.046C680.099,26.457,693.302,8.854,715.55,6.497z"/>
			<path fill-rule="evenodd" clip-rule="evenodd" fill="#8E2428" d="M720.27,26.18c8.701,4.116,14.584,16.302,13.826,30.337
				c-0.756,14.023-7.902,25.494-16.983,28.657c1.793,0.848,3.706,1.352,5.703,1.462c11.699,0.634,21.923-12.574,22.835-29.501
				c0.914-16.928-7.829-31.166-19.528-31.8C724.116,25.227,722.151,25.526,720.27,26.18z"/>
			<path fill-rule="evenodd" clip-rule="evenodd" fill="#C30019" d="M727.106,7.114c18.928,1.027,33.019,25.123,31.786,47.955
				c-1.976,36.648-21.355,66.575-39.463,90.763c-14.464-28.034-31.157-56.026-29.083-94.483
				C691.657,27.074,708.178,6.089,727.106,7.114L727.106,7.114z M726.123,25.335c-11.699-0.636-21.923,12.574-22.837,29.5
				c-0.912,16.929,7.832,31.166,19.531,31.801c11.699,0.634,21.923-12.574,22.835-29.501
				C746.565,40.207,737.823,25.969,726.123,25.335z"/>
			<path fill-rule="evenodd" clip-rule="evenodd" fill="#AA1D23" d="M727.106,7.114c18.928,1.027,33.019,25.123,31.786,47.955
				c-1.856,34.432-19.073,62.93-36.167,86.31l0.084-54.743h0.007c11.699,0.634,21.923-12.574,22.835-29.501
				c0.914-16.928-7.829-31.166-19.528-31.8c-1.088-0.059-2.163,0.002-3.22,0.175l0.029-18.264
				C724.306,7.088,725.7,7.04,727.106,7.114z"/>
		</g>
	</g>
</g>
</svg>
