<?xml version="1.0" encoding="utf-8"?>
<!-- Generator: Adobe Illustrator 17.0.0, SVG Export Plug-In . SVG Version: 6.00 Build 0)  -->
<!DOCTYPE svg PUBLIC "-//W3C//DTD SVG 1.1//EN" "http://www.w3.org/Graphics/SVG/1.1/DTD/svg11.dtd">
<svg version="1.1" xmlns="http://www.w3.org/2000/svg" xmlns:xlink="http://www.w3.org/1999/xlink" x="0px" y="0px"
	 width="1040.948px" height="695.184px" viewBox="-372.045 0 1040.948 695.184"
	 enable-background="new -372.045 0 1040.948 695.184" xml:space="preserve">
<g id="Слой_2">
	<rect x="-372.045" y="0" fill="#2C3E50" width="1040.948" height="695.184"/>
</g>
<g id="Слой_1">
	<path fill="#D89612" d="M-153.649,88.507c0,12.051-12.81,21.414-28.612,21.414s-28.612-9.363-28.612-21.414
		s12.81-29.51,28.612-29.51S-153.649,76.456-153.649,88.507z"/>
	<path fill="#EDD600" d="M-163.691,81.932c0,9.099-8.314,14.382-18.569,14.382s-18.569-5.283-18.569-14.382
		s8.314-22.935,18.569-22.935S-163.691,72.833-163.691,81.932z"/>
	<g>
		<path opacity="0.6" fill="#D89612" d="M463.061,119.796c0,17.982-24.869,31.953-55.546,31.953s-55.546-13.971-55.546-31.953
			s24.869-44.034,55.546-44.034S463.061,101.815,463.061,119.796z"/>
		<path opacity="0.6" fill="#EDD600" d="M443.565,109.985c0,13.577-16.14,21.461-36.051,21.461c-19.91,0-36.051-7.884-36.051-21.461
			s16.14-34.223,36.051-34.223C427.425,75.762,443.565,96.408,443.565,109.985z"/>
		<ellipse opacity="0.6" fill="#F2E325" cx="407.515" cy="90.475" rx="19.479" ry="14.766"/>
	</g>
	<g opacity="0.4">
		<path opacity="0.6" fill="#D89612" d="M173.794,654.677c0,11.56-15.987,20.541-35.709,20.541s-35.709-8.982-35.709-20.541
			c0-11.56,15.987-28.308,35.709-28.308S173.794,643.117,173.794,654.677z"/>
		<path opacity="0.6" fill="#EDD600" d="M161.261,648.369c0,8.728-10.376,13.796-23.176,13.796c-12.8,0-23.176-5.068-23.176-13.796
			s10.376-22.001,23.176-22.001C150.885,626.368,161.261,639.641,161.261,648.369z"/>
		<ellipse opacity="0.6" fill="#F2E325" cx="138.085" cy="635.827" rx="12.522" ry="9.493"/>
	</g>
	<path fill="#D89612" d="M415.171,370.635c0,69.042-73.391,122.685-163.923,122.685S87.324,439.677,87.324,370.635
		s73.391-169.073,163.923-169.073S415.171,301.592,415.171,370.635z"/>
	<path fill="#EDD600" d="M357.637,332.962c0,52.13-47.632,82.4-106.39,82.4s-106.39-30.269-106.39-82.4
		s47.632-131.401,106.39-131.401S357.637,280.832,357.637,332.962z"/>
	<ellipse fill="#F2E325" cx="251.247" cy="258.053" rx="57.484" ry="56.696"/>
	<ellipse fill="#F2E325" cx="-182.26" cy="68.857" rx="10.033" ry="9.896"/>
	<polygon fill="#FFFFFF" points="250.728,207.218 255.483,207.596 258.88,211.444 260.303,219.369 265.785,226.105 270.609,232.674 
		270.506,239.769 263.209,248.096 256.606,251.199 246.436,251.793 239.237,248.755 234.284,241.557 233.492,233.303 
		238.511,225.18 242.344,222.406 243.199,215.076 245.907,209.198 	"/>
	<polygon opacity="0.5" fill="#FFCE00" enable-background="new    " points="250.728,207.218 255.483,207.596 258.88,211.444 
		260.303,219.369 265.785,226.105 270.609,232.674 270.506,239.769 263.209,248.096 256.606,251.199 246.436,251.793 
		239.237,248.755 234.284,241.557 233.492,233.303 238.511,225.18 242.344,222.406 243.199,215.076 245.907,209.198 	"/>
	<path opacity="0.5" fill="#FFE600" enable-background="new    " d="M270.609,235.263c-0.051-0.559-0.14-1.121-0.284-1.684
		c-0.154-0.6-0.305-1.206-0.47-1.806c-4.118,1.272-8.015,3.045-11.731,5.165c3.482-2.775,7.034-5.459,10.578-8.119
		c-0.065-0.128-0.131-0.256-0.196-0.383c-0.284-0.275-0.552-0.553-0.784-0.825c-0.275-0.321-0.567-0.701-0.835-1.109
		c-6.215,2.64-11.966,6.004-17.483,9.757c4.76-4.329,9.73-8.424,14.91-12.193c-0.324-0.244-0.625-0.51-0.889-0.785
		c-0.426-0.443-0.75-0.873-1.006-1.322c-5.26,2.178-10.228,4.901-15.024,7.921c4.432-3.417,9.02-6.641,13.642-9.823
		c-0.445-0.738-0.798-1.525-1.074-2.352c-4.729,2.354-9.328,4.889-13.809,7.719c-2.64,1.666-5.189,3.688-7.809,5.581
		c6.674-5.951,13.645-11.542,20.897-16.795c0.003-0.341,0.128-0.595,0.331-0.76c-0.092-0.598-0.145-1.205-0.178-1.816
		c-3.993,2.43-7.982,4.867-11.971,7.304c2.951-2.747,5.899-5.497,8.837-8.258c0.698-0.657-0.215-1.856-1.027-1.331
		c-2.663,1.724-5.326,3.447-7.989,5.171c1.821-1.91,3.577-3.882,5.277-5.922c0.383-0.461-0.135-1.306-0.69-0.894
		c-3.107,2.304-6.176,4.661-9.263,6.993c0.003,0.221,0.001,0.443-0.007,0.667c1.89-1.284,3.784-2.561,5.677-3.84
		c-1.889,1.957-3.845,3.848-5.844,5.692c-0.112,0.829-0.252,1.58-0.351,2.127c-0.026,0.146-0.058,0.285-0.087,0.427
		c2.044-1.296,4.088-2.591,6.133-3.888c-2.297,2.115-4.592,4.23-6.889,6.344c-0.458,1.056-1.059,1.962-1.824,2.74
		c0.257,0.37,0.75,0.585,1.217,0.304c1.536-0.924,3.069-1.854,4.603-2.78c-3.947,3.195-7.808,6.497-11.589,9.886
		c-0.01,0.06-0.022,0.119-0.031,0.178c-0.223,1.396-0.301,2.895-0.467,4.374c4.471-2.269,8.407-5.74,12.56-8.469
		c0.011-0.007,0.022-0.014,0.033-0.021c-4.381,3.363-8.62,6.903-12.616,10.719c0.176,0.954,0.356,1.908,0.558,2.857
		c0.096,0.038,0.189,0.083,0.275,0.145c6.842-4.952,13.777-9.807,21.167-13.862c-6.635,5.433-12.968,11.176-18.933,17.4
		c0.717,0.638,1.442,1.267,2.167,1.895c6.616-5.151,13.401-10.33,20.717-14.499c-6.448,5.11-12.642,10.497-18.47,16.339
		c0.062,0.046,0.125,0.093,0.187,0.139c0.889,0.493,1.765,1.014,2.682,1.461c6.57-5.321,13.268-10.53,20.858-14.138
		c-5.889,4.742-11.614,9.683-16.781,15.197c1.81,0.018,3.617,0.104,5.422,0.213c2.895-2.227,5.851-4.37,8.924-6.314
		c-2.331,1.875-4.575,3.853-6.694,5.972c1.49-0.378,2.958-0.859,4.358-1.491c2.113-0.954,3.973-2.158,5.852-3.378
		c-0.109-0.067-0.23-0.115-0.361-0.134c0.991-0.782,1.999-1.543,3.012-2.297c0.519-0.811,0.989-1.652,1.41-2.473
		c0.42-0.819,0.769-1.622,1.069-2.421c0.034-0.49,0.069-0.98,0.1-1.469c-3.7,1.487-7.196,3.362-10.54,5.499
		C263.5,240.863,267.045,238.049,270.609,235.263z"/>
	<path fill="#FFFFFF" d="M234.29,244.795c8.341,14.013,31.518,9.366,36.85-4.909c1.297-3.472,0.7-7.439-1.13-10.591
		c-1.676-2.888-4.63-4.775-6.878-7.166c-1.35-1.435-2.142-3.028-2.525-4.956c-0.394-1.979-0.391-3.984-0.98-5.93
		c-0.808-2.669-3.954-5.514-6.762-3.781c-0.321,0.198-0.222,0.813,0.208,0.766c5.28-0.577,5.139,5.911,5.673,9.457
		c0.548,3.64,3.036,6.137,5.626,8.519c3.055,2.809,5.403,5.74,5.322,10.11c-0.08,4.348-3.32,8.021-6.603,10.504
		c-6.654,5.032-15.769,6.129-22.787,1.253c-6.37-4.425-8.137-13.923-2.75-19.825c2.31-2.53,5.174-4.079,6.124-7.6
		c0.759-2.813-0.98-9.063,4.283-11.357c1.4-0.61,4.021-2.551,2.511-2.591c-4.991-0.132-8.361,5.417-8.688,8.698
		c-0.206,2.067-0.003,4.192-0.979,6.1c-0.866,1.695-2.632,2.887-4.02,4.123C231.38,230.433,230.67,238.713,234.29,244.795z"/>
	<path fill="#FFFFFF" d="M243.591,207.764c0.253,0.849,0.939,1.725,1.836,1.927c0.15,0.034,0.289,0.006,0.404-0.058
		c0.543,0.01,1.008-0.18,1.562-0.387c0.997-0.375,1.962-0.697,3.007-0.918c2.038-0.432,3.965-0.007,5.992,0.172
		c0.307,0.027,0.512-0.18,0.582-0.433c0.243,0.227,0.668,0.252,0.943-0.117c1.853-2.48,0.823-4.635-1.328-5.814
		c0.062-1.242,0.491-2.388-0.119-3.648c-0.395-0.817-1.25-1.321-2.132-1.495c0.184-1.164,0.11-2.365-0.932-3.15
		c-1.232-0.928-3.053-1.104-4.44-0.441c-0.489,0.234-0.385,1.085,0.154,1.182c0.689,0.123,1.33,0.022,2.028,0.032
		c1.719,0.026,1.895,1.524,1.599,2.852c-0.096,0.433,0.209,0.967,0.707,0.928c2.2-0.173,1.883,1.717,2.126,3.287
		c-0.246-0.089-0.5-0.168-0.761-0.235c-1.776-0.45-3.621-0.369-5.405-0.024c-0.734,0.142-1.947,0.407-2.849,0.912
		c0.108-0.317,0.06-0.724,0.081-1.026c0.118-1.701,1.422-2.532,3.043-2.437c0.499,0.029,0.539-0.678,0.112-0.828
		c-0.949-0.332-1.961-0.15-2.788,0.345c0.351-0.391,0.293-1.003,0.399-1.49c0.116-0.528,0.424-1.069,0.369-1.617
		c-0.009-0.091-0.076-0.194-0.183-0.183c-1.187,0.125-2.139,2.695-1.006,3.38c0.069,0.042,0.151,0.05,0.228,0.033
		c-1.153,0.786-1.878,2.195-1.425,3.633c0.074,0.236,0.307,0.539,0.576,0.602c-0.294,0.265-0.501,0.576-0.558,0.946
		c-0.045,0.293,0.071,0.534,0.361,0.635c0.973,0.339,1.926-0.446,2.821-0.775c1.204-0.441,2.477-0.604,3.751-0.616
		c1.236-0.011,2.522,0.176,3.651,0.696c1.683,0.776,1.525,2.212,0.854,3.693c-0.015,0.033-0.024,0.065-0.035,0.098
		c-0.033-0.032-0.07-0.061-0.113-0.086c-1.854-1.028-4.278-1.098-6.334-0.8c-1.365,0.198-3.711,0.614-4.737,1.846
		c-0.585-0.717-0.902-1.534-0.824-2.514c0.028-0.356-0.482-0.565-0.713-0.295C243.554,206.203,243.351,206.957,243.591,207.764z"/>
	<path fill="#FFFFFF" d="M244.068,224.806c0.337,0.525,0.832,0.77,1.386,0.758c-0.125,0.895-0.242,1.799-0.309,2.695
		c-0.038,0.497,0.001,1.058,0.483,1.34c1.032,0.605,2.127-0.872,2.746-1.995c0.395,0.771,0.8,1.538,1.155,2.328
		c0.109,0.244,0.431,0.22,0.602,0.077c0.587-0.485,1.023-1.054,1.255-1.751c0.186,0.17,0.365,0.346,0.538,0.539
		c0.11,0.122,0.32,0.085,0.398-0.051c0.25-0.435,0.48-0.88,0.706-1.328c0.407,0.941,0.819,1.881,1.205,2.831
		c0.151,0.371,0.618,0.382,0.766,0c0.494-1.276,0.941-2.57,1.399-3.86c0.402,0.482,0.462,1.513,0.757,1.999
		c0.278,0.458,0.757,0.656,1.269,0.631c0.571-0.028,0.866-0.597,1.054-1.052c0.416-1.005,1.032-2.076,1.217-3.171
		c0.36,0.173,0.726,0.28,1.084,0.273c0.184-0.003,0.282-0.194,0.202-0.352c-0.502-0.989-1.783-1.722-2.536-2.552
		c-0.922-1.014-1.637-2.221-2.215-3.458c-0.594-1.27-0.967-2.68-1.129-4.069c-0.137-1.173,0.146-2.65-0.418-3.714
		c-0.094-0.178-0.34-0.191-0.477-0.061c-0.931,0.88-0.815,2.609-0.7,3.775c0.154,1.572,0.603,3.081,1.258,4.513
		c0.621,1.358,1.506,2.58,2.525,3.666c0.45,0.48,1.073,1.117,1.754,1.592c-0.32,0.422-0.517,0.887-0.742,1.398
		c-0.124,0.284-0.971,2.891-1.578,1.896c-0.542-0.889-0.221-1.974-1.429-2.346c-0.228-0.07-0.437,0.082-0.511,0.29
		c-0.406,1.144-0.828,2.284-1.224,3.432c-0.407-0.886-0.801-1.779-1.204-2.666c-0.103-0.227-0.502-0.232-0.604,0
		c-0.255,0.583-0.513,1.165-0.744,1.758c-0.199-0.199-0.387-0.406-0.573-0.627c-0.113-0.133-0.369-0.1-0.445,0.057
		c-0.276,0.576-0.581,1.072-1.007,1.509c-0.431-0.892-0.814-1.808-1.231-2.707c-0.131-0.282-0.631-0.292-0.758,0
		c-0.154,0.354-0.324,0.678-0.525,1.007c0.021-0.035-1.514,1.764-1.566,1.138c-0.089-1.069,0.381-2.362,0.527-3.426
		c0.042-0.304-0.194-0.691-0.558-0.558c-0.513,0.189-0.878,0.061-1.311-0.246C244.261,224.11,243.881,224.515,244.068,224.806z"/>
	<path fill="#FFFFFF" d="M242.656,225.038c2.21-1.459,3.47-3.86,4.27-6.322c0.416-1.279,0.582-2.634,0.642-3.973
		c0.045-1.006,0-2.381-0.694-3.173c-0.062-0.071-0.197-0.054-0.239,0.031c-0.405,0.821-0.306,1.861-0.389,2.758
		c-0.114,1.226-0.358,2.395-0.691,3.579c-0.682,2.421-2.117,4.47-3.411,6.587C241.954,224.839,242.339,225.247,242.656,225.038z"/>
	<path opacity="0.7" fill="#363738" enable-background="new    " d="M253.631,147.462c5.156-3.426,9.732-6.915,6.461-14.202
		c-1.321-2.943-3.725-4.938-6.211-6.859c0.064-7.602,0.101-15.205,0.111-22.807c2.84-4.074,3.52-8.761,0.034-12.804
		c-0.016-0.019-0.03-0.038-0.046-0.056c-0.047-14.218-0.22-28.436-0.483-42.653c-0.147-7.971-0.328-15.943-0.535-23.913
		c-0.108-4.158-0.224-8.317-0.352-12.475c-0.119-3.865-0.216-7.737-1.165-11.49c-0.07-0.278-0.487-0.269-0.54,0.015
		c-1.37,7.393-0.352,15.475-0.173,22.971c0.19,7.971,0.345,15.943,0.474,23.915c0.121,7.462,0.209,14.924,0.276,22.387
		c-0.212-0.139-0.519-0.097-0.643,0.239c-1.999,5.429-3.62,11.812-1.406,17.477c0.543,1.39,1.344,2.505,2.184,3.589
		c0.006,1.382,0.014,2.764,0.019,4.145c0.009,2.747,0.01,5.494,0.013,8.241c-0.274,0.338-0.546,0.655-0.805,0.945
		c-3.515,3.936-7.603,7.611-6.847,13.546c0.559,4.389,4.181,7.338,7.575,9.89c-0.035,5.07-0.079,10.142-0.138,15.212
		c-0.013,1.15-0.031,2.3-0.046,3.451c-4.044,2.495-7.842,5.463-9.487,10.285c-1.753,5.14,0.514,9.375,4.522,12.264
		c2.051,1.478,3.551,3.22,4.497,5.166c-0.183,5.914-0.31,11.869,0.521,17.669c0.02,0.14,0.22,0.189,0.253,0.028
		c0.606-2.987,0.928-6.03,1.113-9.093c0.996-2.488,0.952-5.31,0.261-7.95c0.032-1.97,0.057-3.936,0.113-5.887
		C253.384,161.624,253.521,154.544,253.631,147.462z M251.499,71.07c0.046,5.285,0.076,10.57,0.102,15.854
		C249.514,82.021,250.507,76.631,251.499,71.07z M253.999,95.913c-0.001-0.599-0.006-1.198-0.006-1.797
		c0.008,0.014,0.017,0.028,0.026,0.043c0.943,1.689,0.709,3.544-0.022,5.275C253.996,98.26,254.001,97.086,253.999,95.913z
		 M247.945,121.079c-4.429-5.695,0.006-10.374,3.71-14.605c-0.002,6.048-0.027,12.094-0.064,18.142
		C250.254,123.543,248.983,122.413,247.945,121.079z M254.362,129.684c2.711,2.183,5.277,5.494,4.676,9.308
		c-0.443,2.808-3.103,4.53-5.361,5.865c0-0.023,0.001-0.046,0.001-0.069c0.075-5.167,0.132-10.335,0.18-15.503
		C254.028,129.418,254.197,129.552,254.362,129.684z M247.532,166.911c-2.787-2.078-4.239-4.36-3.906-8.028
		c0.413-4.541,3.94-7.356,7.728-9.91c-0.08,5.903-0.166,11.807-0.242,17.711c-0.015,1.144-0.042,2.293-0.074,3.445
		C250.063,168.87,248.816,167.868,247.532,166.911z"/>
	<path opacity="0.3" fill="#FFFFFF" d="M-38.467,176.565c7.23,4.914,16.922,4.326,24.075-0.393
		c7.725-5.096,10.859-14.741,8.304-23.534c-1.588-5.466-5.854-9.161-8.862-13.802c-0.448-0.691-1.813-0.41-1.497,0.518
		c1.519,4.471,5.42,7.58,7.335,11.87c2.009,4.501,1.933,9.813,0.279,14.394c-3.095,8.569-12.85,13.094-21.515,11.647
		c-8.941-1.493-15.581-10.4-15.829-19.192c-0.127-4.514,1.593-8.865,4.214-12.47c1.325-1.822,2.948-3.371,4.744-4.721
		c1.716-1.29,3.727-2.106,5.328-3.543c0.527-0.473,0.241-1.408-0.489-1.445c-4.145-0.206-8.154,3.379-10.697,6.324
		c-2.939,3.404-4.808,7.459-5.585,11.88C-50.192,162.811-45.613,171.708-38.467,176.565z"/>
	<path opacity="0.3" fill="#FFFFFF" d="M-34.356,133.111c-0.181-0.544-0.989-0.893-1.346-0.267
		c-0.599,1.051-0.754,2.223-1.051,3.381c-0.241,0.94-0.623,1.923,0.048,2.762c0.119,0.149,0.333,0.211,0.516,0.174
		c0.523-0.106,0.868-0.418,1.113-0.82c0.232,0.243,0.583,0.37,1.011,0.305c1.852-0.283,3.621-1.076,5.489-1.398
		c1.977-0.341,3.976-0.367,5.97-0.206c2.086,0.169,4.08,0.814,6.149,1.045c0.517,0.058,0.807-0.408,0.749-0.834
		c0.151-2.565-0.568-5.28-1.042-7.785c-0.197-1.039-0.83-1.637-1.633-2.013c0.158-1.441-0.816-2.935-2.187-3.532
		c-1.375-0.598-3.029-1.21-4.525-1.202c-1.758,0.01-3.187,0.213-4.648,0.918c-0.208,0.1-0.405,0.549-0.333,0.757
		c0.336,0.976,2.804,0.54,4.258,0.396c2.262-0.223,5.368,0.044,6.276,2.273c-0.265-0.064-0.535-0.118-0.803-0.166
		c-2.526-0.451-5.023-0.575-7.581-0.397c-1.33,0.092-2.854,0.239-4.298,0.572c0.042-0.219,0.053-0.267,0.029-0.124
		c0.017-0.063,0.038-0.125,0.062-0.186c0.006-0.018,0.009-0.025,0.013-0.038c0.01-0.011,0.024-0.029,0.05-0.07
		c0.103-0.162,0.203-0.31,0.272-0.493c0.164-0.432-0.021-0.941-0.396-1.195c-0.1-0.068-0.203-0.113-0.306-0.141
		c0.977-2.064,1.707-3.932,4.408-4.577c1.174-0.28,2.458,0.011,3.558,0.421c1.106,0.412,1.793,1.45,2.885,1.811
		c0.245,0.081,0.59-0.091,0.577-0.382c-0.07-1.576-1.346-2.559-2.893-3.079c1.092-0.779-1.014-2.864-1.724-3.166
		c-1.5-0.638-3.818-0.048-4.422,1.632c-0.163,0.454-0.295,1.196,0.301,1.403c0.652,0.227,1.196-0.891,1.554-1.236
		c0.907-0.875,2.203-0.502,2.951,0.345c0.118,0.134,0.277,0.498,0.479,0.784c-1.287-0.284-2.64-0.288-3.584-0.077
		c-2.455,0.549-5.665,3.623-5.112,6.403c-0.633,0.525-0.8,1.706-0.455,2.402c0.014,0.028,0.035,0.047,0.051,0.073
		c-0.482,0.183-0.939,0.396-1.358,0.648c-0.93,0.56-0.462,1.889,0.61,1.764c1.738-0.204,3.447-0.889,5.187-1.19
		c2.099-0.363,4.246-0.415,6.37-0.322c0.888,0.039,1.77,0.15,2.65,0.272c2,0.277,2.099,1.272,2.467,2.967
		c0.319,1.471,0.556,2.998,1.029,4.435c-2.73-1.478-6.275-1.724-9.261-1.645c-1.804,0.048-3.577,0.348-5.321,0.796
		c-0.639,0.164-1.926,0.423-2.829,0.932C-34.149,135.203-34.017,134.127-34.356,133.111z"/>
	<path opacity="0.3" fill="#FFFFFF" d="M-21.091,146.305c0.402,1.541,0.981,3.038,1.669,4.471c0.332,0.693,0.719,1.358,1.112,2.017
		c0.306,0.513,1.418,1.527,1.183,2.141c-0.064,0.167,0.155,0.311,0.286,0.193c0.138-0.125,0.276-0.249,0.415-0.374
		c0.104-0.094,0.138-0.248,0.074-0.375c-1.376-2.721-2.623-5.376-3.322-8.364c-0.661-2.824-0.44-5.688-0.923-8.511
		c-0.073-0.427-0.687-0.445-0.826-0.055C-22.392,140.173-21.8,143.584-21.091,146.305z"/>
	<path opacity="0.3" fill="#FFFFFF" d="M-35.376,155.53c2.413-2.072,3.477-6.133,4.164-9.106c0.696-3.011,1.617-7.37,0.062-10.241
		c-0.174-0.322-0.665-0.31-0.789,0.051c-0.476,1.374-0.448,2.907-0.5,4.348c-0.063,1.741-0.309,3.479-0.669,5.182
		c-0.337,1.595-0.811,3.161-1.362,4.694c-0.559,1.557-1.409,3.045-1.697,4.682C-36.243,155.569-35.665,155.779-35.376,155.53z"/>
	<path opacity="0.3" fill="#FFFFFF" d="M-36.28,155.354c0.349,3.005,4.179,5.446,7.2,4.966c1.621,1.067,3.944,0.807,5.774,0.342
		c1.541-0.392,3.079-1.289,3.795-2.64c1.95-0.367,3.681-1.784,3.01-4.033c-0.07-0.234-0.404-0.168-0.372,0.077
		c0.209,1.591-0.943,2.603-2.295,3.002c0.077-0.379,0.096-0.784,0.04-1.216c-0.267-2.085-2.861-2.994-4.275-1.433
		c-1.424,1.573,0.415,3.332,1.989,3.621c0.139,0.026,0.282,0.044,0.426,0.057c-0.316,0.338-0.704,0.616-1.092,0.839
		c-1.508,0.867-3.763,1.232-5.445,0.809c0.48-0.304,0.907-0.721,1.249-1.273c0.953-1.54-0.075-4.099-2.115-3.734
		c-2.172,0.389-2.926,2.649-1.81,4.43c-0.962-0.041-1.935-0.396-2.716-0.868c-1.246-0.752-1.936-1.949-2.506-3.242
		C-35.644,154.554-36.336,154.866-36.28,155.354z M-20.516,157.261c-0.765-0.004-1.548-0.253-2.109-0.785
		c-0.904-0.858,0.111-1.918,1.093-1.883c1.08,0.039,1.39,1.559,1.197,2.352c-0.026,0.108-0.061,0.213-0.102,0.314
		C-20.463,157.26-20.49,157.261-20.516,157.261z M-28.715,156.045c0.87-0.49,1.608,0.191,1.614,1.076
		c0.006,0.889-0.76,1.445-1.49,1.767c-0.077,0.034-0.154,0.063-0.233,0.09C-29.687,158.114-30.019,156.781-28.715,156.045z"/>
	<path opacity="0.3" fill="#FFFFFF" d="M-18.707,84.897c-2.47-3.363-6.664-3.988-10.314-5.48c-0.025-1.489-0.041-2.978-0.051-4.467
		c0.065-0.02,0.13-0.04,0.194-0.061c1.523-0.489,2.827-1.373,3.894-2.575c2.281-2.57,0.509-5.105-1.447-7.038
		c-2.443-2.413-1.247-7.316-0.989-10.341c0.221-2.587,0.185-5.318-1.249-7.42c0.18-5.859,0.398-11.717,0.601-17.575
		c0.17-4.876,0.305-9.751,0.427-14.628c0.121-4.843,0.64-9.797,0.181-14.627c-0.066-0.695-1.149-1.017-1.298-0.202
		c-0.819,4.482-0.766,9.127-1.031,13.668c-0.284,4.872-0.59,9.742-0.838,14.616c-0.305,6.005-0.583,12.011-0.817,18.019
		c-0.041,0.142-0.048,0.299-0.018,0.463c-0.14,3.64-0.267,7.281-0.363,10.923c-0.129,4.91-0.184,9.823-0.162,14.736
		c-1.705,0.667-3.249,1.6-4.056,3.419c-0.288,0.65-0.248,1.197,0.192,1.76c1.115,1.427,2.489,2.363,3.983,3.073
		c0.049,2.135,0.106,4.269,0.186,6.402c0.118,3.131,0.245,6.316,0.454,9.508c-1.182,0.208-2.347,0.452-3.452,0.836
		c-3.663,1.274-8.16,6.108-6.112,10.415c2.154,4.529,7.929,4.509,11.718,6.928c0.194,0.124,0.4,0.051,0.519-0.098
		c0.061,0.226,0.117,0.454,0.18,0.679c0.167,0.595,1.066,0.51,1.069-0.13c0.022-5.633-0.385-11.279-0.795-16.922
		c2.653-0.53,5.154-1.169,7.451-2.782C-16.82,93.307-15.929,88.678-18.707,84.897z M-27.454,70.824
		c-0.434,0.487-1.018,0.816-1.628,1.069c0-1.779,0.008-3.559,0.024-5.338c0.186,0.254,0.38,0.502,0.584,0.744
		C-27.701,68.213-25.815,68.984-27.454,70.824z M-33.05,76.925c0.316-0.369,0.691-0.659,1.105-0.897
		c0.007,0.613,0.014,1.227,0.023,1.84C-32.317,77.585-32.696,77.275-33.05,76.925z M-38.674,105.113
		c0.702-3.619,4.386-4.993,7.617-5.737c0.399,5.016,1.051,10.018,2.254,14.82C-31.432,110.515-39.809,110.96-38.674,105.113z
		 M-23.832,95.215c-1.373,0.69-2.881,1.061-4.424,1.348c-0.214-2.987-0.415-5.973-0.536-8.954c-0.072-1.773-0.124-3.546-0.168-5.32
		c2.826,0.94,5.769,1.685,8.071,3.702C-17.054,89.351-20.444,93.513-23.832,95.215z"/>
	<path opacity="0.9" fill="#FFFFFF" d="M400.688,98.541c4.063,2.762,9.509,2.431,13.529-0.221c4.341-2.864,6.102-8.283,4.667-13.225
		c-0.892-3.071-3.29-5.148-4.98-7.756c-0.252-0.388-1.019-0.231-0.841,0.291c0.853,2.513,3.046,4.26,4.122,6.67
		c1.129,2.529,1.086,5.514,0.157,8.089c-1.739,4.815-7.221,7.358-12.09,6.545c-5.024-0.839-8.756-5.844-8.895-10.785
		c-0.072-2.537,0.895-4.981,2.368-7.007c0.744-1.024,1.656-1.894,2.666-2.653c0.964-0.725,2.094-1.184,2.994-1.991
		c0.296-0.266,0.135-0.791-0.275-0.812c-2.329-0.116-4.582,1.899-6.011,3.554c-1.652,1.913-2.702,4.191-3.138,6.676
		C394.099,90.812,396.672,95.812,400.688,98.541z"/>
	<path opacity="0.9" fill="#FFFFFF" d="M402.998,74.122c-0.102-0.306-0.556-0.502-0.756-0.15c-0.337,0.591-0.424,1.249-0.59,1.9
		c-0.135,0.528-0.35,1.08,0.027,1.552c0.067,0.084,0.187,0.118,0.29,0.098c0.294-0.06,0.488-0.235,0.625-0.461
		c0.131,0.136,0.328,0.208,0.568,0.171c1.041-0.159,2.035-0.605,3.084-0.786c1.111-0.192,2.234-0.206,3.355-0.116
		c1.172,0.095,2.293,0.458,3.455,0.587c0.29,0.032,0.453-0.229,0.421-0.469c0.085-1.441-0.319-2.967-0.585-4.375
		c-0.11-0.584-0.466-0.92-0.918-1.131c0.089-0.81-0.458-1.649-1.229-1.985c-0.772-0.336-1.702-0.68-2.543-0.675
		c-0.988,0.006-1.791,0.119-2.612,0.516c-0.117,0.056-0.227,0.309-0.187,0.425c0.189,0.549,1.576,0.303,2.393,0.223
		c1.271-0.125,3.016,0.025,3.526,1.277c-0.149-0.036-0.301-0.066-0.451-0.093c-1.42-0.253-2.823-0.323-4.26-0.223
		c-0.747,0.052-1.604,0.134-2.415,0.322c0.023-0.123,0.03-0.15,0.016-0.07c0.01-0.036,0.021-0.07,0.035-0.105
		c0.004-0.01,0.005-0.014,0.007-0.021c0.005-0.006,0.013-0.016,0.028-0.04c0.058-0.091,0.114-0.174,0.153-0.277
		c0.092-0.243-0.012-0.529-0.223-0.671c-0.056-0.038-0.114-0.064-0.172-0.079c0.549-1.16,0.959-2.21,2.477-2.572
		c0.66-0.158,1.381,0.006,2,0.237c0.622,0.231,1.008,0.815,1.621,1.018c0.138,0.046,0.331-0.051,0.324-0.215
		c-0.039-0.886-0.756-1.438-1.626-1.73c0.614-0.438-0.57-1.61-0.969-1.779c-0.843-0.358-2.146-0.027-2.485,0.917
		c-0.092,0.255-0.166,0.672,0.169,0.789c0.367,0.127,0.672-0.5,0.873-0.695c0.51-0.492,1.238-0.282,1.658,0.194
		c0.066,0.075,0.156,0.28,0.269,0.441c-0.723-0.159-1.483-0.162-2.014-0.043c-1.38,0.309-3.183,2.036-2.872,3.598
		c-0.356,0.295-0.45,0.959-0.256,1.35c0.008,0.016,0.02,0.026,0.029,0.041c-0.271,0.103-0.528,0.223-0.763,0.364
		c-0.523,0.315-0.26,1.062,0.343,0.991c0.977-0.115,1.937-0.5,2.915-0.669c1.179-0.204,2.386-0.233,3.579-0.181
		c0.499,0.022,0.995,0.084,1.489,0.153c1.124,0.155,1.18,0.715,1.386,1.667c0.179,0.827,0.312,1.685,0.578,2.492
		c-1.534-0.83-3.526-0.969-5.204-0.924c-1.013,0.027-2.01,0.196-2.99,0.447c-0.359,0.092-1.082,0.238-1.59,0.524
		C403.114,75.298,403.189,74.693,402.998,74.122z"/>
	<path opacity="0.9" fill="#FFFFFF" d="M410.452,81.537c0.226,0.866,0.552,1.707,0.938,2.513c0.187,0.389,0.404,0.763,0.625,1.134
		c0.172,0.288,0.797,0.858,0.665,1.203c-0.036,0.094,0.087,0.175,0.161,0.108c0.078-0.07,0.155-0.14,0.233-0.21
		c0.059-0.053,0.078-0.14,0.042-0.211c-0.773-1.529-1.474-3.021-1.867-4.7c-0.371-1.587-0.248-3.196-0.519-4.783
		c-0.041-0.24-0.386-0.25-0.464-0.031C409.721,78.091,410.054,80.007,410.452,81.537z"/>
	<path opacity="0.9" fill="#FFFFFF" d="M402.425,86.72c1.356-1.164,1.954-3.446,2.34-5.117c0.391-1.692,0.908-4.141,0.035-5.755
		c-0.098-0.181-0.373-0.174-0.444,0.028c-0.268,0.772-0.252,1.634-0.281,2.443c-0.035,0.978-0.174,1.955-0.376,2.912
		c-0.189,0.896-0.456,1.776-0.765,2.638c-0.314,0.875-0.792,1.711-0.953,2.631C401.938,86.743,402.262,86.86,402.425,86.72z"/>
	<path opacity="0.9" fill="#FFFFFF" d="M401.917,86.622c0.196,1.689,2.348,3.06,4.046,2.79c0.911,0.599,2.217,0.454,3.244,0.192
		c0.866-0.22,1.73-0.724,2.133-1.483c1.096-0.206,2.068-1.003,1.691-2.266c-0.039-0.131-0.227-0.094-0.209,0.043
		c0.118,0.894-0.53,1.463-1.29,1.687c0.043-0.213,0.054-0.441,0.023-0.683c-0.15-1.172-1.608-1.682-2.402-0.805
		c-0.8,0.884,0.233,1.873,1.117,2.035c0.078,0.014,0.158,0.025,0.239,0.032c-0.178,0.19-0.395,0.346-0.614,0.471
		c-0.847,0.487-2.114,0.692-3.06,0.454c0.27-0.171,0.51-0.405,0.702-0.715c0.535-0.866-0.042-2.303-1.188-2.098
		c-1.221,0.218-1.644,1.489-1.017,2.49c-0.54-0.023-1.087-0.223-1.526-0.487c-0.7-0.423-1.088-1.095-1.408-1.822
		C402.275,86.172,401.885,86.348,401.917,86.622z M410.775,87.693c-0.43-0.002-0.87-0.142-1.185-0.441
		c-0.508-0.482,0.063-1.078,0.614-1.058c0.607,0.022,0.781,0.876,0.673,1.322c-0.015,0.061-0.034,0.12-0.057,0.176
		C410.805,87.693,410.79,87.693,410.775,87.693z M406.168,87.01c0.489-0.275,0.904,0.107,0.907,0.605
		c0.003,0.5-0.427,0.812-0.838,0.993c-0.043,0.019-0.087,0.035-0.131,0.051C405.622,88.173,405.435,87.423,406.168,87.01z"/>
	<path opacity="0.9" fill="#FFFFFF" d="M411.792,47.029c-1.388-1.89-3.745-2.241-5.796-3.08c-0.014-0.837-0.023-1.673-0.028-2.51
		c0.036-0.011,0.073-0.023,0.109-0.034c0.856-0.275,1.589-0.771,2.188-1.447c1.282-1.444,0.286-2.869-0.813-3.955
		c-1.373-1.356-0.701-4.111-0.556-5.811c0.124-1.454,0.104-2.989-0.702-4.17c0.101-3.292,0.223-6.584,0.338-9.876
		c0.095-2.74,0.171-5.479,0.24-8.22c0.068-2.721,0.36-5.505,0.102-8.219c-0.037-0.391-0.646-0.571-0.729-0.113
		c-0.46,2.518-0.43,5.129-0.579,7.68c-0.16,2.738-0.331,5.474-0.471,8.213c-0.172,3.375-0.328,6.75-0.459,10.126
		c-0.023,0.08-0.027,0.168-0.01,0.26c-0.079,2.046-0.15,4.091-0.204,6.138c-0.072,2.759-0.104,5.52-0.091,8.281
		c-0.958,0.375-1.826,0.899-2.279,1.921c-0.162,0.365-0.14,0.672,0.108,0.989c0.627,0.802,1.399,1.328,2.238,1.727
		c0.027,1.199,0.06,2.399,0.105,3.597c0.066,1.759,0.137,3.549,0.255,5.343c-0.664,0.117-1.319,0.254-1.94,0.47
		c-2.058,0.716-4.586,3.432-3.435,5.853c1.21,2.545,4.456,2.534,6.585,3.893c0.109,0.07,0.225,0.028,0.292-0.055
		c0.034,0.127,0.066,0.255,0.101,0.382c0.094,0.335,0.599,0.287,0.601-0.073c0.013-3.165-0.216-6.338-0.447-9.509
		c1.491-0.298,2.896-0.657,4.187-1.563C412.852,51.755,413.353,49.154,411.792,47.029z M406.877,39.121
		c-0.244,0.274-0.572,0.458-0.915,0.601c0-1,0.005-2,0.014-3c0.104,0.143,0.213,0.282,0.328,0.418
		C406.738,37.654,407.798,38.087,406.877,39.121z M403.732,42.55c0.177-0.207,0.388-0.37,0.621-0.504
		c0.004,0.345,0.008,0.689,0.013,1.034C404.144,42.92,403.931,42.746,403.732,42.55z M400.572,58.389
		c0.395-2.034,2.464-2.806,4.28-3.224c0.224,2.819,0.59,5.629,1.267,8.328C404.641,61.425,399.934,61.675,400.572,58.389z
		 M408.912,52.827c-0.772,0.388-1.619,0.596-2.486,0.757c-0.12-1.679-0.233-3.356-0.301-5.032c-0.041-0.996-0.07-1.993-0.094-2.989
		c1.588,0.528,3.242,0.947,4.535,2.08C412.721,49.532,410.816,51.871,408.912,52.827z"/>
	<path opacity="0.4" fill="#FFFFFF" d="M516.915,562.277c0.139,9.217,3.797,17.695,11.249,23.285
		c7.191,5.396,16.298,7.559,25.19,6.987c16.116-1.035,30.118-11.529,36.105-26.426c3.116-7.755,3.643-16.99,0.282-24.752
		c-2.828-6.529-8.256-12.031-15.328-13.623c-1.397-0.314-1.873,1.603-0.58,2.105c8.406,3.264,14.018,11.106,15.016,19.971
		c1.082,9.608-2.844,19.368-9.086,26.548c-12.203,14.035-35.403,18.048-50.325,5.881c-10.046-8.191-10.744-22.75-6.782-34.293
		c1.986-5.787,6.142-10.107,11.317-13.195c2.406-1.435,4.982-2.528,7.535-3.666c2.725-1.214,5.374-2.352,8.017-3.734
		c0.939-0.491,0.228-1.7-0.663-1.573c-2.137,0.304-4.145,0.595-6.21,1.237c-2.175,0.676-4.285,1.476-6.37,2.392
		c-3.911,1.718-7.589,4.098-10.655,7.078C518.821,543.115,516.777,553.117,516.915,562.277z"/>
	<path opacity="0.4" fill="#FFFFFF" d="M563.3,541.433c0.85,2.412,1.923,4.741,3.112,7.002c1.035,1.966,2.35,4.453,4.326,5.608
		c0.468,0.274,0.982-0.151,0.888-0.656c-0.405-2.181-1.972-4.257-3.021-6.185c-1.212-2.229-2.229-4.564-3.124-6.936
		c-0.862-2.285-1.544-4.65-2.144-7.016c-0.3-1.182-0.579-2.369-0.869-3.553c-0.217-0.89-0.292-1.714-0.964-2.355
		c-0.089-0.085-0.219-0.065-0.288,0.033c-1.082,1.548-0.271,4.635,0.026,6.394C561.687,536.39,562.418,538.93,563.3,541.433z"/>
	<path opacity="0.4" fill="#FFFFFF" d="M538.222,556.098c3.509-3.599,5.401-8.865,7.347-13.418c1.056-2.472,1.996-4.991,2.888-7.526
		c0.833-2.369,1.745-4.848,1.714-7.385c-0.006-0.51-0.635-0.672-0.917-0.268c-1.341,1.925-2.034,4.221-2.851,6.403
		c-0.944,2.522-1.954,5.015-2.995,7.498c-1.953,4.659-4.916,9.224-6.083,14.156C537.204,556.064,537.824,556.507,538.222,556.098z"
		/>
	<path opacity="0.4" fill="#FFFFFF" d="M545.848,560.503c1.439-0.192,1.98-0.075,2.509,1.289c0.278,0.716,0.572,1.379,1.142,1.91
		c1.205,1.12,2.996,0.427,3.867-0.739c0.708-0.948,1.105-2.085,1.846-3.01c1.911-2.385,2.93,1.578,3.099,2.807
		c0.096,0.693,1.034,1.038,1.594,0.689c2.857-1.782,5.531-4.281,6.95-7.384c0.503-1.101-0.918-2.01-1.629-0.982
		c-1.497,2.162-3.052,4.044-5.101,5.578c-0.372-1.427-1.07-2.815-2.535-3.312c-2.269-0.77-3.929,0.788-4.969,2.665
		c-0.433,0.781-1.417,2.937-2.159,1.338c-0.341-0.736-0.527-1.588-1.106-2.193c-0.63-0.659-1.304-0.9-2.203-0.984
		c-1.1-0.103-2.458,0.777-3.499,0.086c-0.448-0.298-1.094,0.171-0.936,0.691C543.176,560.462,544.428,560.693,545.848,560.503z"/>
	<path opacity="0.4" fill="#FFFFFF" d="M539.954,521.423c-1.204,1.194-2.156,2.693-1.676,4.376c0.525,1.839,3.205,3.73,4.473,1.433
		c0.264-0.477-0.001-0.975-0.409-1.242c-0.48-0.314-1.196-0.657-0.927-1.388c0.317-0.86,1.31-1.527,1.987-2.072
		c1.388-1.116,2.931-2.064,4.531-2.842c3.353-1.63,7.04-2.366,10.754-2.339c3.556,0.026,7.113,1.037,10.234,2.708
		c1.616,0.865,2.948,2.071,3.567,3.827c0.391,1.106,0.091,2.246-0.611,3.134c-0.149,0.189-0.33,0.339-0.52,0.476
		c-0.073-0.082-0.162-0.156-0.273-0.217c-3.962-2.188-8.949-2.706-13.397-2.843c-2.395-0.074-4.784,0.135-7.148,0.505
		c-2.129,0.334-4.413,0.767-6.089,2.206c-0.374,0.321-0.41,1.136,0.232,1.197c2.042,0.193,4.022-0.371,6.024-0.711
		c2.161-0.367,4.359-0.503,6.549-0.527c4.517-0.049,8.651,1.153,13.031,1.962c0.024,0.02,0.048,0.039,0.076,0.055
		c1.754,1.005,3.525-1.169,4.119-2.612c0.896-2.174-0.091-4.666-1.506-6.356c-0.188-0.225-0.387-0.44-0.593-0.648
		c0.024-0.027,0.047-0.056,0.068-0.088c2.217-3.346,0.107-7.377-2.679-9.945c2.056-3.205-1.164-6.814-4.033-8.281
		c0.264-0.198,0.359-0.63,0.068-0.919c-3.879-3.841-9.48-6.255-14.972-5.635c-2.41,0.272-4.783,1.298-6.583,2.927
		c-1.39,1.257-3.683,3.861-3.005,5.919c-0.921,0.814-1.694,1.793-2.139,2.531c-1.125,1.866-1.67,5.769,0.111,7.509
		c-0.188,0.302-0.354,0.616-0.492,0.935C537.757,516.698,538.519,519.553,539.954,521.423z M541.442,506.987
		c0.635-0.914,1.595-1.634,2.592-2.108c0.876-0.417,1.631-0.656,2.16-1.507c0.165-0.266,0.071-0.69-0.169-0.879
		c-0.555-0.439-1.16-0.589-1.775-0.541c0.344-0.706,0.691-1.422,1.214-2.011c1.551-1.748,3.833-2.614,6.099-2.897
		c4.316-0.539,8.111,1.325,11.801,3.251c-1.617-0.457-3.306-0.669-4.974-0.783c-2.37-0.162-5.241-0.116-7.23,1.335
		c-0.585,0.427-0.492,1.497,0.314,1.615c1.746,0.256,3.466-0.118,5.212-0.201c1.967-0.094,3.919,0.189,5.835,0.608
		c3.146,0.689,5.506,2.424,5.861,5.481c-0.384-0.269-0.77-0.509-1.149-0.71c-2.432-1.29-5.338-1.597-8.044-1.523
		c-2.843,0.077-6.188,0.561-8.379,2.489c-0.331,0.291-0.081,0.888,0.316,0.954c2.149,0.357,4.228-0.317,6.35-0.62
		c2.339-0.334,4.664-0.22,6.94,0.409c2.182,0.603,4.111,1.947,5.385,3.808c1.119,1.634,1.253,3.397,1.338,5.257
		c-3.621-2.753-8.947-3.746-13.199-3.879c-5.831-0.182-11.624,1.97-16.257,5.429c-0.042,0.031-0.086,0.065-0.129,0.098
		c-0.49-2.389-1.041-4.623,1.388-6.289c0.705-0.484,1.478-0.785,1.692-1.674c0.164-0.682-0.666-1.182-1.229-1.193
		c-1.176-0.024-2.215,0.478-3.051,1.24c-0.028-0.309-0.059-0.619-0.073-0.935C540.215,509.721,540.587,508.217,541.442,506.987z"/>
	<path opacity="0.4" fill="#FFFFFF" d="M577.024,454.783c-3.105-6.117-9.567-7.824-15.265-8.689
		c-2.141-0.325-4.244-0.661-6.194-1.484c-0.086-1.931-0.167-3.861-0.232-5.789c-0.111-3.28-0.212-6.559-0.313-9.838
		c3.803-6.053,6.756-12.13,7.763-19.68c1.117-8.377-0.697-17.043-1.762-25.336c-1.191-9.273-1.139-19.969-4.725-28.574
		c-0.45-1.079-1.703-1.093-2.043,0.083c-0.126,0.435-0.234,0.874-0.336,1.314c0.166-28.799,1.046-57.58,1.65-86.368
		c0.013-0.612-0.89-0.717-0.96-0.106c-4.278,37.257-5.464,74.931-5.604,112.508c-0.053,14.261,0.228,28.531,0.687,42.791
		c-0.288,0.436-0.578,0.872-0.871,1.309c-3.33,4.962-5.751,10.696-3.428,16.86c1.166,3.095,3.008,4.995,5.216,6.233
		c0.592,13.825,1.45,27.795,3.731,41.347c-0.883,0.567-1.733,1.124-2.525,1.672c-1.671,1.156-0.364,3.904,1.432,3.392
		c0.654-0.187,1.311-0.394,1.969-0.616c0.478,0.778,1.694,0.307,1.841-0.671c10.278-4,20.262-12.338,22.425-24.659
		C580.425,465.097,579.434,459.531,577.024,454.783z M553.979,382.621c-0.038-3.113-0.048-6.226-0.064-9.339
		c0.308,2.329,0.656,4.635,0.939,6.878c1.028,8.164,2.373,16.343,2.407,24.6c0.018,4.504-0.998,8.413-2.592,12.053
		C554.363,405.419,554.12,394.025,553.979,382.621z M557.209,489.539c0.158-12.53-0.633-25.116-1.29-37.665
		c7.258,1.549,15.638,0.91,18.288,9.856C578.353,475.73,566.778,483.479,557.209,489.539z"/>
	<path fill="#FFFFFF" d="M-186.862,68.285c0.179,2.81,1.212,5.524,2.799,7.835c0.323,0.47,0.727,0.992,1.309,1.137
		c0.657,0.164,1.227-0.136,1.715-0.559c1.006-0.872,1.727-2.137,2.255-3.341c0.561-1.28,0.869-2.668,1.029-4.052
		c0.155-1.338,0.25-2.857-0.172-4.156c-0.255-0.787-0.701-1.448-1.384-1.922c-0.572-0.397-1.373-0.607-1.977-0.192
		c-0.106,0.073-0.033,0.211,0.067,0.234c0.584,0.137,1.12,0.24,1.619,0.599c0.546,0.393,0.857,1.018,1.034,1.65
		c0.358,1.281,0.211,2.743,0.044,4.044c-0.17,1.322-0.527,2.615-1.074,3.831c-0.264,0.587-0.593,1.14-0.964,1.665
		c-0.399,0.565-0.878,1.194-1.52,1.488c-0.739,0.339-1.289-0.656-1.617-1.15c-0.395-0.594-0.727-1.225-1.024-1.873
		c-0.558-1.219-0.927-2.513-1.142-3.834c-0.223-1.369-0.316-2.862,0.095-4.204c0.186-0.606,0.513-1.142,0.984-1.566
		c0.465-0.418,1.054-0.541,1.612-0.779c0.233-0.099,0.238-0.466-0.009-0.554c-1.153-0.409-2.337,0.617-2.931,1.522
		C-186.917,65.329-186.952,66.878-186.862,68.285z"/>
	<path fill="#FFFFFF" d="M-184.624,62.289c-0.064-0.209-0.351-0.254-0.465-0.061c-0.153,0.259-0.115,0.593-0.104,0.883
		c0.004,0.101,0.012,0.454,0.187,0.435c0.104-0.012,0.161-0.089,0.201-0.18c0.037,0.073,0.114,0.129,0.199,0.134
		c0.367,0.02,0.684-0.091,1.036-0.182c0.487-0.127,0.966-0.177,1.469-0.166c0.934,0.021,1.678,0.489,2.564,0.639
		c0.141,0.024,0.281-0.113,0.195-0.254c-0.111-0.182-0.257-0.334-0.424-0.464c0.03-0.018,0.055-0.044,0.071-0.077
		c0.306-0.665,0.113-1.35-0.33-1.848c0.039,0.001,0.08-0.018,0.105-0.054c0.461-0.658-0.084-1.496-0.712-2
		c0.022-0.011,0.038-0.031,0.037-0.057c-0.053-0.941-0.742-1.998-1.787-2.023c-0.51-0.012-0.931,0.157-1.262,0.551
		c-0.238,0.283-0.346,0.686-0.032,0.947c0.067,0.055,0.144,0.056,0.21,0c0.11-0.092,0.198-0.194,0.254-0.329
		c0.198-0.481,0.637-0.564,1.097-0.451c0.577,0.142,0.971,0.784,1.328,1.245c-0.166-0.117-0.332-0.208-0.483-0.264
		c-1.046-0.39-2.761-0.21-3.348,0.878c-0.046,0.085,0.009,0.228,0.123,0.214c0.941-0.11,1.686-0.683,2.684-0.523
		c0.437,0.07,0.815,0.335,1.116,0.644c0.3,0.308,0.357,0.724,0.54,1.087c-0.183-0.173-0.397-0.317-0.63-0.421
		c-1.113-0.495-2.632-0.125-3.498,0.715c0,0,0,0,0-0.001c-0.13-0.143-0.282-0.161-0.341-0.369c-0.041-0.144,0.013-0.282-0.048-0.426
		c-0.008-0.019-0.031-0.026-0.05-0.029c-0.294-0.034-0.377,0.348-0.358,0.57c0.025,0.29,0.302,0.691,0.629,0.661
		c0.027-0.002,0.052-0.009,0.075-0.017c0.02,0.009,0.042,0.015,0.068,0.013c0.809-0.072,1.521-0.493,2.328-0.579
		c1.037-0.11,2.034,0.571,1.858,1.683c-0.001,0.009-0.001,0.018-0.002,0.027c-0.548-0.288-1.223-0.414-1.778-0.488
		c-0.852-0.113-2.174-0.016-2.788,0.684C-184.614,62.8-184.554,62.518-184.624,62.289z"/>
	<path fill="#FFFFFF" d="M-183.826,66.278c-0.172,1.061-0.733,1.946-1.021,2.962c-0.011,0.039,0.034,0.077,0.07,0.054
		c0.101-0.068,0.195-0.145,0.284-0.227c0.125,0.17,0.321,0.266,0.553,0.283c0.297,0.022,0.631-0.075,0.668,0.346
		c0.011,0.123,0.092,0.157,0.193,0.21c0.343,0.182,0.7-0.699,0.977-0.278c0.231,0.351,0.257,0.73,0.734,0.816
		c0.073,0.013,0.165-0.006,0.201-0.082c0.132-0.283,0.103-0.521,0.088-0.829c-0.022-0.458,1.1-0.414,1.392-0.594
		c0.025-0.016,0.018-0.05-0.008-0.059c-0.001,0-0.001,0-0.002-0.001c-0.362-0.925-0.779-1.787-1-2.764
		c-0.119-0.528-0.173-1.066-0.207-1.606c-0.03-0.478,0.113-1.058-0.056-1.506c-0.029-0.076-0.128-0.097-0.174-0.023
		c-0.234,0.381-0.159,0.912-0.148,1.344c0.014,0.572,0.104,1.141,0.223,1.699c0.204,0.953,0.559,2.007,1.154,2.801
		c-0.389-0.073-0.951-0.038-1.242,0.132c-0.392,0.23-0.21,0.713-0.28,1.081c-0.299-0.203-0.392-0.77-0.75-0.944
		c-0.298-0.145-0.541,0.072-0.673,0.315c-0.146,0.271-0.075,0.102-0.151-0.104c-0.038-0.104-0.116-0.209-0.213-0.266
		c-0.103-0.06-0.226-0.072-0.341-0.048c-0.294,0.061-0.504-0.035-0.749-0.118c0.61-0.702,0.887-1.748,1.025-2.617
		c0.16-1.001,0.227-2.455-0.449-3.292c-0.064-0.079-0.179-0.008-0.184,0.076c-0.029,0.489,0.099,0.987,0.15,1.472
		C-183.699,65.099-183.732,65.697-183.826,66.278z"/>
	<path opacity="0.7" fill="#FFFFFF" d="M-182.154,34.584c-0.083-0.394-0.152-0.787-0.214-1.181c-0.012-1.545-0.018-3.09-0.015-4.635
		c0.003-1.443,0.014-2.886,0.028-4.329c0.011-0.319,0.014-0.639,0.011-0.958c0.033-2.938,0.085-5.875,0.158-8.811
		c0.12-4.812,0.586-9.672,0.466-14.482c-0.005-0.207-0.295-0.269-0.329-0.051c-0.703,4.624-0.72,9.448-0.904,14.13
		c-0.147,3.73-0.226,7.463-0.258,11.196c-0.442,2.606-0.433,5.386-0.062,7.936c0.024,0.162,0.05,0.324,0.078,0.485
		c0.034,2.68,0.094,5.36,0.175,8.039c-0.201,0.477-0.436,0.944-0.684,1.405c-1.132,2.106-2.404,4.17-1.862,6.757
		c0.251,1.2,0.917,2.245,1.527,3.238c0.326,0.53,0.647,1.064,0.94,1.619c0.36,0.681,0.492,1.421,0.752,2.143
		c0.041,0.115,0.175,0.162,0.25,0.091c0.013,0.072,0.023,0.144,0.036,0.216c0.035,0.183,0.261,0.126,0.271-0.042
		c0.143-2.274-0.057-4.563-0.15-6.836c-0.098-2.414-0.178-4.83-0.25-7.245c-0.009-0.301-0.015-0.602-0.023-0.902
		c0.387-0.927,0.635-1.893,0.709-2.941C-181.389,37.805-181.826,36.142-182.154,34.584z M-184.438,50.709
		c-1.057-2.497,0.334-4.742,1.48-6.837c0.077,2.216,0.177,4.43,0.295,6.643c0.071,1.333,0.121,2.678,0.232,4.013
		C-182.999,53.158-183.966,51.823-184.438,50.709z"/>
	<path opacity="0.5" fill="#FFFFFF" d="M63.722,157.08c5.428,3.902,12.848,3.647,18.411,0.184c6.008-3.74,8.597-11.049,6.822-17.822
		c-1.104-4.21-4.291-7.12-6.496-10.728c-0.328-0.537-1.377-0.35-1.155,0.366c1.071,3.448,3.991,5.903,5.368,9.221
		c1.445,3.481,1.28,7.54-0.077,11.009c-2.538,6.488-10.086,9.751-16.681,8.47c-6.804-1.321-11.701-8.263-11.714-14.989
		c-0.007-3.453,1.396-6.744,3.472-9.447c1.049-1.366,2.321-2.517,3.721-3.513c1.337-0.952,2.891-1.535,4.144-2.601
		c0.412-0.351,0.213-1.072-0.345-1.114c-3.165-0.241-6.301,2.418-8.304,4.619c-2.315,2.543-3.826,5.605-4.508,8.969
		C55.036,146.33,58.357,153.223,63.722,157.08z"/>
	<path opacity="0.5" fill="#FFFFFF" d="M67.739,123.946c-0.128-0.419-0.738-0.702-1.023-0.231c-0.479,0.792-0.621,1.684-0.871,2.563
		c-0.203,0.714-0.515,1.457-0.019,2.112c0.088,0.116,0.251,0.168,0.391,0.143c0.402-0.07,0.672-0.302,0.867-0.604
		c0.173,0.19,0.439,0.295,0.767,0.253c1.421-0.179,2.789-0.75,4.224-0.959c1.518-0.221,3.046-0.201,4.568-0.037
		c1.591,0.171,3.103,0.705,4.679,0.922c0.394,0.054,0.625-0.296,0.589-0.622c0.167-1.958-0.328-4.048-0.639-5.972
		c-0.129-0.799-0.601-1.268-1.208-1.572c0.15-1.098-0.564-2.26-1.6-2.744c-1.039-0.485-2.291-0.986-3.435-1.01
		c-1.344-0.028-2.441,0.098-3.571,0.608c-0.161,0.073-0.32,0.412-0.27,0.572c0.237,0.753,2.133,0.469,3.247,0.389
		c1.733-0.125,4.102,0.142,4.751,1.863c-0.202-0.054-0.406-0.101-0.61-0.143c-1.922-0.396-3.828-0.541-5.787-0.456
		c-1.019,0.044-2.187,0.125-3.297,0.351c0.036-0.167,0.045-0.203,0.025-0.094c0.015-0.048,0.032-0.095,0.051-0.141
		c0.005-0.013,0.007-0.019,0.011-0.029c0.008-0.008,0.019-0.022,0.04-0.053c0.082-0.121,0.161-0.233,0.218-0.372
		c0.134-0.327,0.003-0.719-0.279-0.921c-0.075-0.054-0.153-0.091-0.231-0.114c0.788-1.558,1.384-2.971,3.461-3.41
		c0.903-0.191,1.878,0.058,2.712,0.394c0.837,0.337,1.341,1.144,2.169,1.442c0.186,0.067,0.453-0.058,0.449-0.28
		c-0.022-1.206-0.977-1.983-2.15-2.412c0.851-0.574-0.717-2.21-1.254-2.455c-1.134-0.518-2.918-0.113-3.413,1.159
		c-0.134,0.343-0.25,0.908,0.202,1.079c0.494,0.186,0.932-0.657,1.213-0.914c0.711-0.651,1.694-0.339,2.249,0.323
		c0.088,0.105,0.202,0.386,0.35,0.609c-0.978-0.243-2.012-0.273-2.738-0.131c-1.888,0.371-4.403,2.655-4.036,4.791
		c-0.494,0.388-0.646,1.288-0.396,1.827c0.01,0.022,0.026,0.037,0.038,0.057c-0.372,0.13-0.726,0.284-1.051,0.468
		c-0.722,0.41-0.391,1.435,0.431,1.36c1.333-0.121,2.653-0.61,3.989-0.806c1.612-0.236,3.254-0.232,4.875-0.118
		c0.678,0.048,1.35,0.15,2.02,0.261c1.523,0.252,1.579,1.015,1.826,2.317c0.214,1.131,0.364,2.303,0.697,3.411
		c-2.057-1.185-4.762-1.444-7.046-1.444c-1.38,0-2.741,0.194-4.084,0.502c-0.492,0.113-1.481,0.285-2.181,0.655
		C67.855,125.549,67.978,124.73,67.739,123.946z"/>
	<path opacity="0.5" fill="#FFFFFF" d="M77.613,134.299c0.276,1.186,0.689,2.342,1.186,3.451c0.24,0.536,0.522,1.052,0.81,1.564
		c0.224,0.398,1.053,1.196,0.862,1.66c-0.052,0.127,0.112,0.241,0.214,0.153c0.108-0.093,0.216-0.185,0.325-0.278
		c0.082-0.07,0.11-0.187,0.064-0.285c-0.997-2.108-1.897-4.162-2.371-6.46c-0.448-2.172-0.222-4.357-0.534-6.525
		c-0.047-0.328-0.516-0.354-0.63-0.058C76.742,129.585,77.126,132.204,77.613,134.299z"/>
	<path opacity="0.5" fill="#FFFFFF" d="M66.508,141.062c1.886-1.535,2.781-4.618,3.366-6.877c0.593-2.288,1.384-5.601,0.253-7.827
		c-0.127-0.25-0.502-0.25-0.604,0.023c-0.392,1.041-0.401,2.213-0.47,3.314c-0.083,1.329-0.306,2.653-0.616,3.948
		c-0.29,1.212-0.684,2.4-1.135,3.56c-0.459,1.179-1.138,2.299-1.391,3.545C65.845,141.075,66.282,141.247,66.508,141.062z"/>
	<path opacity="0.5" fill="#FFFFFF" d="M65.821,140.91c0.206,2.304,3.085,4.247,5.404,3.941c1.218,0.848,2.999,0.696,4.407,0.378
		c1.186-0.268,2.38-0.923,2.954-1.941c1.498-0.242,2.85-1.29,2.382-3.022c-0.049-0.18-0.305-0.137-0.286,0.051
		c0.128,1.221-0.774,1.971-1.815,2.248c0.067-0.288,0.089-0.598,0.055-0.928c-0.162-1.599-2.127-2.346-3.239-1.182
		c-1.12,1.173,0.25,2.556,1.447,2.808c0.106,0.022,0.215,0.039,0.325,0.052c-0.249,0.252-0.55,0.457-0.852,0.619
		c-1.17,0.632-2.901,0.866-4.179,0.509c0.373-0.223,0.708-0.533,0.98-0.948c0.759-1.158,0.025-3.135-1.541-2.897
		c-1.668,0.253-2.29,1.966-1.473,3.35c-0.734-0.051-1.471-0.342-2.058-0.718c-0.937-0.6-1.441-1.529-1.85-2.529
		C66.323,140.312,65.787,140.536,65.821,140.91z M77.832,142.685c-0.585-0.018-1.178-0.224-1.596-0.642
		c-0.674-0.674,0.124-1.464,0.873-1.417c0.825,0.052,1.031,1.219,0.868,1.822c-0.022,0.082-0.051,0.161-0.084,0.238
		C77.873,142.686,77.852,142.686,77.832,142.685z M71.59,141.591c0.675-0.357,1.225,0.178,1.212,0.855
		c-0.014,0.68-0.61,1.09-1.175,1.321c-0.059,0.024-0.119,0.045-0.18,0.064C70.805,143.152,70.578,142.126,71.59,141.591z"/>
	<path opacity="0.5" fill="#FFFFFF" d="M75.181,71.408c0.019-5.683,0.036-11.365,0.051-17.048c0.059-0.052,0.118-0.105,0.174-0.159
		c2.392-2.293,2.74-5.383,2.236-8.549c-0.28-1.762-0.88-3.44-1.427-5.13c-0.504-1.554-0.74-3.077-0.942-4.626
		c0-4.578-0.014-9.157-0.063-13.734c-0.105-9.816,0.246-19.796-0.594-29.581c-0.03-0.35-0.496-0.323-0.526,0.015
		c-0.847,9.508-0.552,19.205-0.689,28.747c-0.063,4.387-0.095,8.775-0.115,13.163c-0.275,1.094-0.228,2.268-0.013,3.449
		c-0.012,4.04-0.016,8.08-0.02,12.119c-0.001,0.985-0.002,1.971-0.003,2.956c-0.53,0.387-1.108,0.731-1.691,1.059
		c-2.622,1.475-4.806,3.048-5.398,6.212c-0.597,3.192,0.993,6.31,2.943,8.672c1.198,1.451,2.651,2.636,4.133,3.791
		c0,2.012-0.003,4.025-0.001,6.037c0.008,7.502-0.152,15.047,0.237,22.548c-0.708,3.358-0.793,6.817,0.165,10.37
		c0.016,0.06,0.094,0.038,0.099-0.016c0.095-1.098,0.191-2.197,0.299-3.295c0.043,0.101,0.209,0.129,0.224-0.004
		c0.191-1.724,0.34-3.452,0.457-5.183c0.243-1.402,0.542-2.794,0.939-4.165c1.185-4.095,3.481-7.517,5.279-11.318
		C84.194,80.846,80.194,75.659,75.181,71.408z M75.633,49.411c-0.069,0.492-0.206,0.933-0.392,1.336
		c0.006-2.042,0.012-4.084,0.018-6.126C75.66,46.187,75.86,47.794,75.633,49.411z M68.395,61.152
		c0.045-2.933,2.592-4.115,4.852-5.43c-0.005,4.69-0.008,9.38-0.01,14.07C70.61,67.532,68.338,64.884,68.395,61.152z M78.426,88.861
		c-1.242,2.372-2.435,4.808-3.391,7.306c0.135-5.223,0.089-10.458,0.113-15.677c0.01-2.07,0.015-4.139,0.023-6.209
		c0.778,0.624,1.537,1.267,2.24,1.968c1.523,1.517,2.698,3.397,3.001,5.565C80.759,84.297,79.533,86.745,78.426,88.861z"/>
	<path opacity="0.5" fill="#FFFFFF" d="M523.53,58.18c2.083,1.498,4.931,1.4,7.066,0.071c2.306-1.435,3.3-4.241,2.618-6.84
		c-0.424-1.616-1.647-2.733-2.493-4.117c-0.126-0.206-0.529-0.134-0.443,0.14c0.411,1.323,1.532,2.266,2.06,3.539
		c0.555,1.336,0.491,2.894-0.029,4.225c-0.974,2.49-3.871,3.742-6.402,3.251c-2.611-0.507-4.491-3.171-4.496-5.753
		c-0.003-1.325,0.536-2.588,1.333-3.626c0.403-0.524,0.891-0.966,1.428-1.348c0.513-0.365,1.11-0.589,1.59-0.998
		c0.158-0.135,0.082-0.411-0.132-0.428c-1.215-0.092-2.418,0.928-3.187,1.773c-0.889,0.976-1.468,2.151-1.73,3.442
		C520.196,54.054,521.471,56.7,523.53,58.18z"/>
	<path opacity="0.5" fill="#FFFFFF" d="M525.071,45.464c-0.049-0.161-0.283-0.27-0.393-0.089c-0.184,0.304-0.239,0.646-0.334,0.984
		c-0.078,0.274-0.198,0.559-0.007,0.811c0.034,0.045,0.096,0.064,0.15,0.055c0.154-0.027,0.258-0.116,0.333-0.232
		c0.066,0.073,0.168,0.113,0.294,0.097c0.545-0.069,1.07-0.288,1.621-0.368c0.583-0.085,1.169-0.077,1.753-0.014
		c0.611,0.066,1.191,0.27,1.796,0.354c0.151,0.021,0.24-0.113,0.226-0.239c0.064-0.751-0.126-1.553-0.245-2.292
		c-0.05-0.306-0.231-0.487-0.464-0.603c0.058-0.421-0.217-0.867-0.614-1.053c-0.399-0.186-0.879-0.378-1.318-0.387
		c-0.516-0.011-0.937,0.038-1.371,0.233c-0.062,0.028-0.123,0.158-0.104,0.219c0.091,0.289,0.819,0.18,1.246,0.149
		c0.665-0.048,1.574,0.054,1.823,0.715c-0.077-0.021-0.156-0.039-0.234-0.055c-0.738-0.152-1.469-0.208-2.221-0.175
		c-0.391,0.017-0.839,0.048-1.265,0.135c0.014-0.064,0.017-0.078,0.009-0.036c0.006-0.018,0.012-0.037,0.02-0.054
		c0.002-0.005,0.003-0.007,0.004-0.011c0.003-0.003,0.007-0.008,0.015-0.02c0.031-0.047,0.062-0.089,0.084-0.143
		c0.051-0.125,0.001-0.276-0.107-0.354c-0.029-0.021-0.059-0.035-0.089-0.044c0.303-0.598,0.531-1.14,1.328-1.309
		c0.347-0.073,0.721,0.022,1.041,0.151c0.321,0.129,0.515,0.439,0.832,0.554c0.071,0.026,0.174-0.022,0.172-0.108
		c-0.008-0.463-0.375-0.761-0.825-0.926c0.326-0.22-0.275-0.848-0.481-0.942c-0.435-0.199-1.12-0.043-1.31,0.445
		c-0.051,0.132-0.096,0.349,0.078,0.414c0.19,0.072,0.358-0.252,0.466-0.351c0.273-0.25,0.65-0.13,0.863,0.124
		c0.034,0.04,0.077,0.148,0.134,0.234c-0.375-0.093-0.772-0.105-1.051-0.05c-0.725,0.142-1.69,1.019-1.549,1.839
		c-0.19,0.149-0.248,0.494-0.152,0.701c0.004,0.008,0.01,0.014,0.015,0.022c-0.143,0.05-0.279,0.109-0.403,0.18
		c-0.277,0.157-0.15,0.551,0.165,0.522c0.511-0.046,1.018-0.234,1.531-0.309c0.619-0.09,1.249-0.089,1.871-0.045
		c0.26,0.018,0.518,0.058,0.775,0.1c0.585,0.097,0.606,0.389,0.701,0.889c0.082,0.434,0.14,0.884,0.268,1.309
		c-0.79-0.455-1.828-0.554-2.704-0.554c-0.529,0-1.052,0.075-1.567,0.193c-0.189,0.043-0.568,0.109-0.837,0.252
		C525.116,46.079,525.163,45.764,525.071,45.464z"/>
	<path opacity="0.5" fill="#FFFFFF" d="M528.861,49.437c0.106,0.455,0.264,0.899,0.455,1.325c0.092,0.206,0.2,0.404,0.311,0.6
		c0.086,0.153,0.404,0.459,0.331,0.637c-0.02,0.049,0.043,0.092,0.082,0.059c0.042-0.036,0.083-0.071,0.125-0.107
		c0.031-0.027,0.042-0.072,0.025-0.109c-0.383-0.809-0.728-1.597-0.91-2.479c-0.172-0.834-0.085-1.672-0.205-2.504
		c-0.018-0.126-0.198-0.136-0.242-0.022C528.527,47.628,528.674,48.633,528.861,49.437z"/>
	<path opacity="0.5" fill="#FFFFFF" d="M524.599,52.033c0.724-0.589,1.067-1.772,1.292-2.639c0.227-0.878,0.531-2.15,0.097-3.004
		c-0.049-0.096-0.193-0.096-0.232,0.009c-0.15,0.399-0.154,0.849-0.18,1.272c-0.032,0.51-0.118,1.018-0.236,1.515
		c-0.111,0.465-0.262,0.921-0.436,1.366c-0.176,0.452-0.437,0.882-0.534,1.361C524.344,52.037,524.512,52.103,524.599,52.033z"/>
	<path opacity="0.5" fill="#FFFFFF" d="M524.335,51.974c0.079,0.884,1.184,1.63,2.074,1.512c0.467,0.325,1.151,0.267,1.691,0.145
		c0.455-0.103,0.913-0.354,1.134-0.745c0.575-0.093,1.094-0.495,0.914-1.16c-0.019-0.069-0.117-0.052-0.11,0.02
		c0.049,0.468-0.297,0.756-0.697,0.863c0.026-0.111,0.034-0.229,0.021-0.356c-0.062-0.614-0.816-0.9-1.243-0.453
		c-0.43,0.45,0.096,0.981,0.555,1.078c0.041,0.009,0.082,0.015,0.125,0.02c-0.095,0.097-0.211,0.175-0.327,0.238
		c-0.449,0.243-1.113,0.332-1.604,0.195c0.143-0.086,0.272-0.204,0.376-0.364c0.291-0.445,0.01-1.203-0.591-1.112
		c-0.64,0.097-0.879,0.755-0.565,1.286c-0.282-0.02-0.565-0.131-0.79-0.275c-0.36-0.23-0.553-0.587-0.71-0.97
		C524.528,51.744,524.322,51.831,524.335,51.974z M528.945,52.655c-0.224-0.007-0.452-0.086-0.612-0.246
		c-0.258-0.259,0.047-0.562,0.335-0.544c0.317,0.02,0.396,0.468,0.333,0.699c-0.009,0.032-0.019,0.062-0.032,0.091
		C528.96,52.656,528.953,52.656,528.945,52.655z M526.549,52.235c0.259-0.137,0.47,0.068,0.465,0.328
		c-0.005,0.261-0.234,0.418-0.451,0.507c-0.023,0.009-0.046,0.017-0.069,0.025C526.248,52.835,526.161,52.441,526.549,52.235z"/>
	<path opacity="0.5" fill="#FFFFFF" d="M527.927,25.3c0.007-2.181,0.014-4.362,0.019-6.543c0.023-0.02,0.045-0.04,0.067-0.061
		c0.918-0.88,1.052-2.066,0.858-3.281c-0.108-0.676-0.338-1.32-0.548-1.969c-0.193-0.597-0.284-1.181-0.362-1.775
		c0-1.757-0.005-3.514-0.024-5.271c-0.04-3.767,0.094-7.597-0.228-11.353c-0.012-0.134-0.19-0.124-0.202,0.006
		c-0.325,3.649-0.212,7.371-0.264,11.033c-0.024,1.684-0.036,3.368-0.044,5.052c-0.106,0.42-0.088,0.87-0.005,1.324
		c-0.005,1.55-0.006,3.101-0.008,4.651c0,0.378-0.001,0.756-0.001,1.134c-0.203,0.149-0.425,0.281-0.649,0.407
		c-1.006,0.566-1.844,1.17-2.072,2.384c-0.229,1.225,0.381,2.422,1.13,3.328c0.46,0.557,1.017,1.012,1.586,1.455
		c0,0.772-0.001,1.545,0,2.317c0.003,2.879-0.058,5.775,0.091,8.654c-0.272,1.289-0.304,2.616,0.063,3.98
		c0.006,0.023,0.036,0.014,0.038-0.006c0.037-0.421,0.073-0.843,0.115-1.264c0.017,0.039,0.08,0.049,0.086-0.002
		c0.073-0.662,0.131-1.325,0.175-1.989c0.093-0.538,0.208-1.072,0.36-1.599c0.455-1.572,1.336-2.885,2.026-4.344
		C531.386,28.922,529.851,26.932,527.927,25.3z M528.101,16.858c-0.027,0.189-0.079,0.358-0.15,0.513
		c0.002-0.784,0.005-1.567,0.007-2.351C528.111,15.62,528.188,16.237,528.101,16.858z M525.323,21.364
		c0.017-1.126,0.995-1.579,1.862-2.084c-0.002,1.8-0.003,3.6-0.004,5.4C526.173,23.812,525.301,22.796,525.323,21.364z
		 M529.173,31.998c-0.477,0.91-0.934,1.845-1.301,2.804c0.052-2.005,0.034-4.014,0.043-6.017c0.004-0.794,0.006-1.589,0.009-2.383
		c0.298,0.24,0.59,0.486,0.86,0.755c0.585,0.582,1.035,1.304,1.152,2.136C530.068,30.247,529.598,31.186,529.173,31.998z"/>
	<path opacity="0.5" fill="#FFFFFF" d="M425.757,612.19c3.639,2.616,8.613,2.445,12.343,0.123c4.028-2.507,5.764-7.407,4.573-11.948
		c-0.74-2.822-2.876-4.773-4.355-7.192c-0.22-0.36-0.923-0.235-0.774,0.245c0.718,2.312,2.675,3.958,3.599,6.182
		c0.969,2.334,0.858,5.055-0.051,7.38c-1.702,4.349-6.761,6.537-11.183,5.678c-4.562-0.886-7.844-5.539-7.853-10.049
		c-0.004-2.315,0.936-4.521,2.328-6.333c0.703-0.916,1.556-1.687,2.495-2.355c0.897-0.638,1.938-1.029,2.778-1.744
		c0.276-0.235,0.143-0.718-0.231-0.747c-2.122-0.161-4.224,1.621-5.567,3.096c-1.552,1.705-2.565,3.757-3.022,6.013
		C419.934,604.983,422.16,609.604,425.757,612.19z"/>
	<path opacity="0.5" fill="#FFFFFF" d="M428.449,589.977c-0.086-0.281-0.495-0.471-0.686-0.155
		c-0.321,0.531-0.417,1.129-0.584,1.718c-0.136,0.479-0.345,0.977-0.013,1.416c0.059,0.078,0.168,0.113,0.262,0.096
		c0.27-0.047,0.451-0.203,0.581-0.405c0.116,0.128,0.294,0.198,0.514,0.17c0.953-0.12,1.87-0.503,2.831-0.643
		c1.018-0.148,2.042-0.135,3.062-0.025c1.067,0.115,2.08,0.472,3.137,0.618c0.264,0.036,0.419-0.198,0.395-0.417
		c0.112-1.312-0.22-2.713-0.429-4.003c-0.087-0.535-0.403-0.85-0.81-1.054c0.101-0.736-0.378-1.515-1.073-1.839
		c-0.696-0.325-1.536-0.661-2.303-0.677c-0.901-0.018-1.636,0.066-2.394,0.408c-0.108,0.049-0.215,0.276-0.181,0.383
		c0.159,0.505,1.43,0.314,2.177,0.261c1.162-0.084,2.75,0.095,3.185,1.249c-0.135-0.036-0.272-0.068-0.409-0.096
		c-1.288-0.265-2.566-0.362-3.879-0.306c-0.683,0.029-1.466,0.084-2.21,0.235c0.024-0.112,0.03-0.136,0.016-0.063
		c0.01-0.032,0.021-0.064,0.034-0.095c0.004-0.009,0.005-0.013,0.007-0.019c0.005-0.005,0.012-0.015,0.026-0.035
		c0.055-0.081,0.108-0.156,0.146-0.249c0.09-0.219,0.002-0.482-0.187-0.618c-0.05-0.036-0.102-0.061-0.155-0.076
		c0.529-1.045,0.928-1.992,2.32-2.286c0.605-0.128,1.259,0.039,1.818,0.264c0.561,0.226,0.899,0.767,1.454,0.967
		c0.124,0.045,0.303-0.039,0.301-0.188c-0.014-0.809-0.655-1.33-1.441-1.617c0.57-0.385-0.481-1.481-0.841-1.646
		c-0.76-0.347-1.956-0.076-2.288,0.777c-0.09,0.23-0.167,0.609,0.135,0.723c0.331,0.125,0.625-0.44,0.813-0.613
		c0.477-0.436,1.136-0.228,1.508,0.217c0.059,0.07,0.135,0.259,0.235,0.408c-0.656-0.163-1.349-0.183-1.835-0.088
		c-1.266,0.248-2.952,1.78-2.706,3.212c-0.331,0.26-0.433,0.864-0.266,1.225c0.007,0.015,0.017,0.025,0.025,0.038
		c-0.249,0.087-0.487,0.19-0.705,0.314c-0.484,0.275-0.262,0.962,0.289,0.912c0.893-0.081,1.778-0.409,2.674-0.54
		c1.08-0.158,2.182-0.156,3.268-0.079c0.454,0.032,0.905,0.101,1.354,0.175c1.021,0.169,1.059,0.68,1.224,1.554
		c0.144,0.758,0.244,1.544,0.467,2.287c-1.379-0.794-3.193-0.968-4.723-0.968c-0.925,0-1.838,0.13-2.738,0.336
		c-0.33,0.076-0.993,0.191-1.462,0.439C428.527,591.052,428.609,590.503,428.449,589.977z"/>
	<path opacity="0.5" fill="#FFFFFF" d="M435.069,596.918c0.185,0.795,0.462,1.57,0.795,2.314c0.161,0.359,0.35,0.706,0.543,1.049
		c0.15,0.267,0.706,0.802,0.578,1.113c-0.035,0.085,0.075,0.161,0.144,0.103c0.073-0.062,0.145-0.124,0.218-0.186
		c0.055-0.047,0.074-0.125,0.043-0.191c-0.668-1.413-1.272-2.79-1.59-4.331c-0.3-1.456-0.149-2.921-0.358-4.374
		c-0.032-0.22-0.346-0.237-0.422-0.039C434.485,593.758,434.742,595.513,435.069,596.918z"/>
	<path opacity="0.5" fill="#FFFFFF" d="M427.625,601.452c1.264-1.029,1.864-3.096,2.257-4.61c0.397-1.534,0.928-3.755,0.17-5.247
		c-0.085-0.167-0.336-0.168-0.405,0.015c-0.263,0.698-0.269,1.484-0.315,2.221c-0.056,0.891-0.205,1.779-0.413,2.646
		c-0.194,0.813-0.458,1.609-0.761,2.387c-0.308,0.79-0.763,1.542-0.933,2.376C427.18,601.461,427.473,601.576,427.625,601.452z"/>
	<path opacity="0.5" fill="#FFFFFF" d="M427.164,601.35c0.138,1.545,2.068,2.847,3.623,2.642c0.817,0.569,2.01,0.467,2.954,0.253
		c0.795-0.18,1.595-0.619,1.98-1.301c1.004-0.162,1.91-0.865,1.597-2.026c-0.033-0.121-0.205-0.092-0.192,0.034
		c0.086,0.818-0.519,1.321-1.217,1.507c0.045-0.193,0.06-0.401,0.037-0.622c-0.109-1.072-1.426-1.573-2.171-0.792
		c-0.751,0.787,0.168,1.713,0.97,1.882c0.071,0.015,0.144,0.026,0.218,0.035c-0.167,0.169-0.369,0.306-0.571,0.415
		c-0.784,0.424-1.945,0.58-2.801,0.341c0.25-0.149,0.474-0.357,0.657-0.636c0.509-0.777,0.017-2.102-1.033-1.942
		c-1.118,0.17-1.535,1.318-0.987,2.246c-0.492-0.034-0.986-0.229-1.38-0.481c-0.628-0.402-0.966-1.025-1.24-1.695
		C427.5,600.949,427.141,601.099,427.164,601.35z M435.216,602.54c-0.392-0.012-0.79-0.15-1.07-0.43
		c-0.452-0.452,0.083-0.982,0.585-0.95c0.553,0.035,0.691,0.817,0.582,1.222c-0.015,0.055-0.034,0.108-0.056,0.159
		C435.243,602.54,435.229,602.54,435.216,602.54z M431.031,601.806c0.452-0.239,0.821,0.12,0.812,0.573
		c-0.009,0.456-0.409,0.73-0.788,0.885c-0.04,0.016-0.08,0.03-0.121,0.043C430.505,602.853,430.352,602.165,431.031,601.806z"/>
	<path opacity="0.5" fill="#FFFFFF" d="M433.439,554.757c0.013-3.81,0.024-7.619,0.034-11.429c0.039-0.035,0.079-0.07,0.117-0.106
		c1.603-1.537,1.837-3.609,1.499-5.731c-0.188-1.181-0.59-2.306-0.957-3.439c-0.338-1.042-0.496-2.063-0.632-3.101
		c0-3.069-0.009-6.139-0.042-9.207c-0.07-6.581,0.165-13.271-0.398-19.831c-0.02-0.235-0.333-0.216-0.353,0.01
		c-0.568,6.374-0.37,12.875-0.462,19.271c-0.042,2.941-0.064,5.883-0.077,8.825c-0.185,0.733-0.153,1.52-0.009,2.312
		c-0.008,2.708-0.011,5.417-0.013,8.124c-0.001,0.661-0.001,1.321-0.002,1.982c-0.355,0.26-0.743,0.49-1.133,0.71
		c-1.758,0.989-3.222,2.044-3.619,4.165c-0.401,2.14,0.666,4.23,1.973,5.813c0.803,0.972,1.777,1.767,2.77,2.542
		c0,1.349-0.002,2.698,0,4.047c0.006,5.03-0.102,10.087,0.159,15.116c-0.475,2.251-0.532,4.57,0.111,6.952
		c0.011,0.04,0.063,0.025,0.066-0.011c0.064-0.736,0.128-1.473,0.201-2.209c0.029,0.068,0.14,0.086,0.15-0.003
		c0.128-1.156,0.228-2.314,0.306-3.475c0.163-0.94,0.363-1.873,0.629-2.792c0.794-2.745,2.334-5.039,3.539-7.588
		C439.48,561.084,436.799,557.607,433.439,554.757z M433.742,540.01c-0.046,0.33-0.138,0.626-0.263,0.896
		c0.004-1.369,0.008-2.738,0.012-4.107C433.76,537.849,433.894,538.926,433.742,540.01z M428.889,547.881
		c0.03-1.966,1.737-2.759,3.253-3.64c-0.004,3.144-0.005,6.288-0.007,9.432C430.374,552.158,428.851,550.383,428.889,547.881z
		 M435.614,566.457c-0.832,1.59-1.632,3.223-2.273,4.898c0.091-3.502,0.059-7.011,0.076-10.51c0.007-1.387,0.01-2.775,0.015-4.162
		c0.521,0.418,1.03,0.85,1.502,1.319c1.021,1.017,1.809,2.277,2.012,3.73C437.178,563.398,436.356,565.039,435.614,566.457z"/>
	<path opacity="0.2" fill="#FFFFFF" d="M131.145,645.687c3.639,2.616,8.613,2.445,12.343,0.123
		c4.028-2.507,5.764-7.407,4.573-11.948c-0.74-2.822-2.877-4.773-4.355-7.192c-0.22-0.36-0.923-0.235-0.774,0.245
		c0.718,2.312,2.675,3.958,3.599,6.182c0.969,2.334,0.858,5.055-0.051,7.38c-1.702,4.349-6.761,6.537-11.183,5.678
		c-4.562-0.886-7.844-5.539-7.853-10.049c-0.004-2.315,0.936-4.521,2.328-6.333c0.703-0.916,1.556-1.687,2.495-2.355
		c0.897-0.638,1.938-1.029,2.778-1.744c0.276-0.235,0.143-0.718-0.231-0.747c-2.122-0.161-4.224,1.621-5.567,3.096
		c-1.552,1.705-2.565,3.757-3.022,6.013C125.322,638.48,127.548,643.101,131.145,645.687z"/>
	<path opacity="0.2" fill="#FFFFFF" d="M133.838,623.474c-0.086-0.281-0.495-0.471-0.686-0.155
		c-0.321,0.531-0.417,1.129-0.584,1.718c-0.136,0.479-0.345,0.977-0.013,1.416c0.059,0.078,0.168,0.113,0.262,0.096
		c0.269-0.047,0.451-0.203,0.581-0.405c0.116,0.128,0.294,0.198,0.514,0.17c0.953-0.12,1.87-0.503,2.831-0.643
		c1.018-0.148,2.042-0.135,3.062-0.025c1.067,0.115,2.08,0.472,3.137,0.618c0.264,0.036,0.419-0.198,0.395-0.417
		c0.112-1.312-0.22-2.713-0.429-4.003c-0.087-0.535-0.403-0.85-0.81-1.054c0.101-0.736-0.378-1.515-1.073-1.839
		c-0.696-0.325-1.536-0.661-2.303-0.677c-0.901-0.018-1.636,0.066-2.394,0.408c-0.108,0.049-0.215,0.276-0.181,0.383
		c0.159,0.505,1.43,0.314,2.177,0.261c1.162-0.084,2.75,0.095,3.185,1.249c-0.135-0.036-0.272-0.068-0.409-0.096
		c-1.288-0.265-2.566-0.362-3.879-0.306c-0.683,0.029-1.466,0.084-2.21,0.235c0.024-0.112,0.031-0.136,0.016-0.063
		c0.01-0.032,0.021-0.064,0.034-0.095c0.004-0.009,0.005-0.013,0.007-0.019c0.005-0.005,0.012-0.015,0.026-0.035
		c0.055-0.081,0.108-0.156,0.146-0.249c0.09-0.219,0.002-0.482-0.187-0.618c-0.05-0.036-0.102-0.061-0.155-0.076
		c0.529-1.045,0.928-1.992,2.32-2.286c0.605-0.128,1.259,0.039,1.818,0.264c0.561,0.226,0.899,0.767,1.454,0.967
		c0.124,0.045,0.304-0.039,0.301-0.188c-0.014-0.809-0.655-1.33-1.441-1.617c0.57-0.385-0.481-1.481-0.841-1.646
		c-0.76-0.347-1.956-0.076-2.288,0.777c-0.09,0.23-0.167,0.609,0.135,0.723c0.331,0.125,0.625-0.44,0.813-0.612
		c0.477-0.436,1.136-0.228,1.508,0.217c0.059,0.07,0.135,0.259,0.235,0.408c-0.656-0.163-1.349-0.183-1.835-0.088
		c-1.266,0.248-2.952,1.78-2.706,3.212c-0.331,0.26-0.433,0.863-0.266,1.225c0.007,0.015,0.017,0.025,0.025,0.038
		c-0.249,0.087-0.487,0.19-0.705,0.314c-0.484,0.275-0.262,0.962,0.289,0.912c0.893-0.081,1.778-0.409,2.674-0.54
		c1.08-0.158,2.182-0.156,3.268-0.079c0.454,0.032,0.905,0.101,1.354,0.175c1.021,0.169,1.058,0.68,1.224,1.554
		c0.144,0.758,0.244,1.544,0.467,2.287c-1.379-0.794-3.193-0.968-4.723-0.968c-0.925,0-1.838,0.13-2.738,0.336
		c-0.33,0.076-0.993,0.191-1.462,0.439C133.916,624.549,133.998,623.999,133.838,623.474z"/>
	<path opacity="0.2" fill="#FFFFFF" d="M140.457,630.414c0.185,0.795,0.462,1.57,0.795,2.314c0.161,0.359,0.35,0.706,0.543,1.049
		c0.15,0.267,0.706,0.802,0.578,1.113c-0.035,0.085,0.075,0.161,0.144,0.103c0.073-0.062,0.145-0.124,0.218-0.186
		c0.055-0.047,0.074-0.125,0.043-0.191c-0.668-1.413-1.272-2.79-1.59-4.331c-0.3-1.456-0.149-2.921-0.358-4.374
		c-0.032-0.22-0.346-0.237-0.422-0.039C139.873,627.254,140.131,629.01,140.457,630.414z"/>
	<path opacity="0.2" fill="#FFFFFF" d="M133.013,634.949c1.264-1.029,1.864-3.096,2.257-4.61c0.397-1.534,0.928-3.755,0.17-5.247
		c-0.085-0.167-0.336-0.168-0.405,0.015c-0.263,0.698-0.269,1.484-0.315,2.221c-0.056,0.891-0.205,1.779-0.413,2.646
		c-0.194,0.813-0.458,1.609-0.761,2.387c-0.308,0.79-0.763,1.542-0.933,2.376C132.568,634.957,132.861,635.072,133.013,634.949z"/>
	<path opacity="0.2" fill="#FFFFFF" d="M132.552,634.846c0.138,1.545,2.068,2.847,3.623,2.642c0.817,0.568,2.01,0.467,2.954,0.253
		c0.795-0.18,1.595-0.619,1.98-1.301c1.004-0.162,1.91-0.865,1.597-2.026c-0.033-0.121-0.205-0.092-0.192,0.034
		c0.086,0.818-0.519,1.321-1.217,1.507c0.045-0.193,0.06-0.401,0.037-0.622c-0.109-1.072-1.426-1.573-2.171-0.792
		c-0.751,0.787,0.168,1.713,0.97,1.882c0.071,0.015,0.144,0.026,0.218,0.035c-0.167,0.169-0.369,0.306-0.571,0.415
		c-0.784,0.424-1.945,0.58-2.801,0.341c0.25-0.149,0.474-0.357,0.657-0.636c0.509-0.777,0.017-2.102-1.033-1.942
		c-1.118,0.17-1.535,1.318-0.987,2.246c-0.492-0.034-0.986-0.229-1.38-0.481c-0.628-0.402-0.966-1.025-1.24-1.695
		C132.889,634.445,132.53,634.596,132.552,634.846z M140.604,636.036c-0.392-0.012-0.79-0.15-1.07-0.43
		c-0.452-0.452,0.083-0.982,0.585-0.95c0.553,0.035,0.691,0.817,0.582,1.222c-0.015,0.055-0.034,0.108-0.056,0.159
		C140.631,636.037,140.618,636.037,140.604,636.036z M136.419,635.303c0.452-0.239,0.821,0.12,0.812,0.573
		c-0.009,0.456-0.409,0.73-0.788,0.885c-0.04,0.016-0.08,0.03-0.121,0.043C135.893,636.35,135.741,635.662,136.419,635.303z"/>
	<path opacity="0.2" fill="#FFFFFF" d="M138.827,588.253c0.013-3.81,0.024-7.619,0.034-11.429c0.04-0.035,0.079-0.07,0.117-0.106
		c1.603-1.537,1.837-3.609,1.499-5.731c-0.188-1.181-0.59-2.306-0.957-3.439c-0.338-1.042-0.496-2.063-0.632-3.101
		c0-3.069-0.009-6.139-0.042-9.207c-0.07-6.581,0.165-13.271-0.398-19.831c-0.02-0.235-0.333-0.216-0.353,0.01
		c-0.567,6.374-0.37,12.875-0.462,19.271c-0.042,2.941-0.064,5.883-0.077,8.824c-0.185,0.733-0.153,1.52-0.009,2.312
		c-0.008,2.708-0.011,5.417-0.013,8.124c-0.001,0.661-0.001,1.321-0.002,1.982c-0.356,0.26-0.743,0.49-1.133,0.71
		c-1.758,0.989-3.222,2.044-3.619,4.165c-0.401,2.14,0.666,4.23,1.973,5.813c0.803,0.972,1.777,1.767,2.77,2.542
		c0,1.349-0.002,2.698,0,4.047c0.006,5.03-0.102,10.087,0.159,15.116c-0.475,2.251-0.532,4.57,0.111,6.952
		c0.011,0.04,0.063,0.025,0.066-0.011c0.064-0.736,0.128-1.473,0.201-2.209c0.029,0.068,0.14,0.086,0.15-0.003
		c0.128-1.156,0.228-2.314,0.306-3.475c0.163-0.94,0.363-1.873,0.629-2.792c0.794-2.745,2.334-5.039,3.539-7.588
		C144.869,594.581,142.187,591.103,138.827,588.253z M139.13,573.507c-0.046,0.33-0.138,0.626-0.263,0.896
		c0.004-1.369,0.008-2.738,0.012-4.107C139.148,571.345,139.282,572.423,139.13,573.507z M134.278,581.378
		c0.03-1.966,1.737-2.759,3.253-3.64c-0.004,3.144-0.005,6.288-0.007,9.432C135.762,585.655,134.239,583.88,134.278,581.378z
		 M141.002,599.953c-0.832,1.59-1.632,3.223-2.273,4.898c0.091-3.502,0.059-7.011,0.076-10.51c0.007-1.387,0.01-2.775,0.015-4.162
		c0.521,0.418,1.03,0.85,1.502,1.319c1.021,1.017,1.809,2.277,2.012,3.73C142.567,596.894,141.745,598.535,141.002,599.953z"/>
	<path opacity="0.5" fill="#FFFFFF" d="M597.161,264.616c3.639,2.616,8.613,2.445,12.343,0.123
		c4.028-2.507,5.764-7.407,4.573-11.948c-0.74-2.822-2.877-4.773-4.355-7.192c-0.22-0.36-0.923-0.235-0.774,0.245
		c0.718,2.312,2.675,3.958,3.599,6.182c0.969,2.334,0.858,5.055-0.051,7.38c-1.702,4.349-6.761,6.537-11.183,5.678
		c-4.562-0.886-7.844-5.539-7.853-10.049c-0.004-2.315,0.936-4.521,2.328-6.333c0.703-0.916,1.556-1.687,2.495-2.355
		c0.897-0.638,1.938-1.029,2.778-1.744c0.276-0.235,0.143-0.718-0.231-0.747c-2.122-0.161-4.224,1.621-5.567,3.096
		c-1.552,1.705-2.565,3.757-3.022,6.013C591.337,257.409,593.564,262.03,597.161,264.616z"/>
	<path opacity="0.5" fill="#FFFFFF" d="M599.853,242.403c-0.086-0.281-0.495-0.471-0.686-0.155
		c-0.321,0.531-0.417,1.129-0.584,1.718c-0.136,0.479-0.345,0.977-0.013,1.416c0.059,0.078,0.168,0.113,0.262,0.096
		c0.269-0.047,0.451-0.203,0.581-0.405c0.116,0.128,0.294,0.198,0.514,0.17c0.953-0.12,1.87-0.503,2.831-0.643
		c1.018-0.148,2.042-0.135,3.062-0.025c1.067,0.115,2.08,0.472,3.137,0.618c0.264,0.036,0.419-0.198,0.395-0.417
		c0.112-1.312-0.22-2.713-0.429-4.003c-0.087-0.535-0.403-0.85-0.81-1.054c0.101-0.736-0.378-1.515-1.073-1.839
		c-0.696-0.325-1.536-0.661-2.303-0.677c-0.901-0.019-1.636,0.066-2.394,0.408c-0.108,0.049-0.215,0.276-0.181,0.383
		c0.159,0.505,1.43,0.314,2.177,0.261c1.162-0.084,2.75,0.095,3.185,1.249c-0.135-0.036-0.273-0.068-0.409-0.096
		c-1.288-0.265-2.566-0.362-3.88-0.306c-0.683,0.029-1.466,0.084-2.21,0.235c0.024-0.112,0.03-0.136,0.016-0.063
		c0.01-0.032,0.021-0.064,0.034-0.095c0.004-0.009,0.005-0.013,0.007-0.019c0.005-0.005,0.012-0.015,0.026-0.035
		c0.055-0.081,0.108-0.156,0.146-0.249c0.09-0.219,0.002-0.482-0.187-0.618c-0.05-0.036-0.102-0.061-0.155-0.076
		c0.529-1.045,0.928-1.992,2.32-2.286c0.605-0.128,1.259,0.039,1.818,0.264c0.561,0.226,0.899,0.767,1.454,0.967
		c0.124,0.045,0.303-0.039,0.301-0.188c-0.015-0.809-0.655-1.33-1.441-1.617c0.57-0.385-0.481-1.481-0.841-1.646
		c-0.76-0.347-1.956-0.076-2.288,0.777c-0.09,0.23-0.167,0.609,0.135,0.723c0.331,0.125,0.625-0.44,0.813-0.613
		c0.477-0.436,1.136-0.228,1.508,0.217c0.059,0.07,0.135,0.259,0.235,0.408c-0.656-0.163-1.349-0.183-1.835-0.088
		c-1.266,0.248-2.952,1.78-2.706,3.212c-0.331,0.26-0.433,0.864-0.266,1.225c0.007,0.015,0.017,0.025,0.025,0.038
		c-0.249,0.087-0.487,0.19-0.705,0.314c-0.484,0.275-0.262,0.962,0.289,0.912c0.893-0.081,1.778-0.409,2.674-0.54
		c1.08-0.158,2.182-0.156,3.268-0.079c0.454,0.032,0.905,0.101,1.354,0.175c1.021,0.169,1.059,0.68,1.224,1.554
		c0.144,0.758,0.244,1.544,0.467,2.287c-1.379-0.794-3.193-0.968-4.723-0.968c-0.925,0-1.838,0.13-2.738,0.336
		c-0.33,0.076-0.993,0.191-1.462,0.439C599.931,243.478,600.013,242.928,599.853,242.403z"/>
	<path opacity="0.5" fill="#FFFFFF" d="M606.473,249.343c0.185,0.795,0.462,1.57,0.795,2.314c0.161,0.359,0.35,0.706,0.543,1.049
		c0.15,0.267,0.706,0.802,0.578,1.113c-0.035,0.085,0.075,0.161,0.144,0.103c0.073-0.062,0.145-0.124,0.218-0.186
		c0.055-0.047,0.074-0.125,0.043-0.191c-0.668-1.413-1.272-2.79-1.59-4.331c-0.3-1.456-0.149-2.921-0.358-4.374
		c-0.032-0.22-0.346-0.237-0.422-0.039C605.889,246.183,606.146,247.939,606.473,249.343z"/>
	<path opacity="0.5" fill="#FFFFFF" d="M599.028,253.878c1.264-1.029,1.864-3.096,2.257-4.61c0.397-1.534,0.928-3.755,0.17-5.247
		c-0.085-0.167-0.336-0.168-0.405,0.015c-0.263,0.698-0.269,1.484-0.315,2.221c-0.056,0.891-0.205,1.779-0.413,2.646
		c-0.194,0.813-0.458,1.609-0.761,2.387c-0.308,0.79-0.763,1.542-0.933,2.376C598.583,253.886,598.877,254.001,599.028,253.878z"/>
	<path opacity="0.5" fill="#FFFFFF" d="M598.568,253.775c0.138,1.545,2.068,2.847,3.623,2.642c0.817,0.569,2.01,0.467,2.954,0.253
		c0.795-0.18,1.595-0.619,1.98-1.301c1.004-0.162,1.91-0.865,1.597-2.026c-0.033-0.121-0.205-0.092-0.192,0.034
		c0.086,0.818-0.519,1.321-1.217,1.507c0.045-0.193,0.06-0.401,0.037-0.622c-0.109-1.072-1.426-1.573-2.171-0.792
		c-0.751,0.787,0.168,1.713,0.97,1.882c0.071,0.015,0.144,0.026,0.218,0.035c-0.167,0.169-0.369,0.306-0.571,0.415
		c-0.784,0.424-1.945,0.58-2.801,0.341c0.25-0.149,0.474-0.357,0.657-0.636c0.509-0.777,0.017-2.102-1.033-1.942
		c-1.118,0.17-1.535,1.318-0.987,2.246c-0.492-0.034-0.986-0.229-1.38-0.481c-0.628-0.402-0.966-1.025-1.24-1.695
		C598.904,253.374,598.545,253.525,598.568,253.775z M606.62,254.965c-0.392-0.012-0.79-0.15-1.07-0.43
		c-0.452-0.452,0.083-0.982,0.585-0.95c0.553,0.035,0.691,0.817,0.582,1.222c-0.015,0.055-0.034,0.108-0.056,0.159
		C606.647,254.966,606.633,254.966,606.62,254.965z M602.435,254.232c0.452-0.239,0.821,0.12,0.812,0.573
		c-0.009,0.456-0.409,0.73-0.788,0.885c-0.04,0.016-0.08,0.03-0.121,0.043C601.909,255.279,601.756,254.591,602.435,254.232z"/>
	<path opacity="0.5" fill="#FFFFFF" d="M604.843,207.182c0.013-3.81,0.024-7.619,0.034-11.429c0.039-0.035,0.079-0.07,0.117-0.106
		c1.603-1.537,1.837-3.609,1.499-5.731c-0.188-1.181-0.59-2.306-0.957-3.439c-0.338-1.042-0.496-2.063-0.632-3.101
		c0-3.069-0.009-6.139-0.042-9.207c-0.07-6.581,0.165-13.271-0.398-19.831c-0.02-0.235-0.333-0.216-0.353,0.01
		c-0.568,6.374-0.37,12.875-0.462,19.271c-0.042,2.941-0.064,5.883-0.077,8.824c-0.185,0.733-0.153,1.52-0.009,2.312
		c-0.008,2.708-0.011,5.417-0.013,8.124c-0.001,0.661-0.002,1.321-0.002,1.982c-0.355,0.26-0.742,0.49-1.133,0.71
		c-1.758,0.989-3.222,2.044-3.619,4.165c-0.401,2.14,0.666,4.23,1.973,5.813c0.803,0.972,1.777,1.767,2.771,2.542
		c0,1.349-0.002,2.698,0,4.047c0.006,5.03-0.102,10.087,0.159,15.116c-0.475,2.251-0.532,4.57,0.111,6.952
		c0.011,0.04,0.063,0.025,0.066-0.011c0.064-0.736,0.128-1.473,0.201-2.209c0.029,0.068,0.14,0.086,0.15-0.003
		c0.128-1.156,0.228-2.314,0.306-3.475c0.163-0.94,0.363-1.873,0.629-2.792c0.794-2.745,2.334-5.039,3.539-7.588
		C610.884,213.51,608.203,210.032,604.843,207.182z M605.145,192.436c-0.046,0.33-0.138,0.626-0.263,0.896
		c0.004-1.369,0.008-2.738,0.012-4.107C605.163,190.274,605.298,191.352,605.145,192.436z M600.293,200.307
		c0.03-1.966,1.737-2.759,3.253-3.64c-0.004,3.144-0.005,6.288-0.007,9.432C601.778,204.584,600.255,202.809,600.293,200.307z
		 M607.018,218.882c-0.832,1.59-1.632,3.223-2.273,4.898c0.091-3.502,0.059-7.011,0.076-10.51c0.007-1.387,0.01-2.775,0.015-4.162
		c0.521,0.418,1.03,0.85,1.502,1.319c1.021,1.017,1.809,2.277,2.012,3.73C608.582,215.823,607.76,217.464,607.018,218.882z"/>
	<path opacity="0.2" fill="#FFFFFF" d="M-201.251,628.611c0.101,6.729,2.772,12.918,8.212,16.999
		c5.25,3.939,11.898,5.518,18.39,5.101c11.765-0.756,21.987-8.417,26.358-19.292c2.275-5.661,2.66-12.404,0.206-18.069
		c-2.064-4.767-6.027-8.783-11.19-9.945c-1.02-0.23-1.368,1.17-0.424,1.537c6.137,2.383,10.234,8.108,10.962,14.58
		c0.79,7.014-2.076,14.14-6.633,19.381c-8.909,10.246-25.845,13.176-36.739,4.293c-7.334-5.98-7.843-16.609-4.951-25.035
		c1.45-4.224,4.484-7.378,8.262-9.633c1.756-1.048,3.637-1.846,5.501-2.676c1.989-0.886,3.923-1.717,5.853-2.726
		c0.686-0.359,0.167-1.241-0.484-1.148c-1.56,0.222-3.026,0.435-4.533,0.903c-1.588,0.494-3.128,1.078-4.651,1.746
		c-2.855,1.254-5.54,2.991-7.779,5.167C-199.86,614.622-201.352,621.924-201.251,628.611z"/>
	<path opacity="0.2" fill="#FFFFFF" d="M-167.389,613.395c0.62,1.761,1.404,3.461,2.272,5.112c0.755,1.435,1.715,3.251,3.158,4.094
		c0.342,0.2,0.717-0.11,0.649-0.479c-0.295-1.592-1.439-3.108-2.205-4.515c-0.885-1.627-1.627-3.332-2.281-5.064
		c-0.629-1.668-1.127-3.395-1.565-5.122c-0.219-0.863-0.423-1.729-0.634-2.594c-0.159-0.65-0.213-1.251-0.703-1.719
		c-0.065-0.062-0.16-0.048-0.21,0.024c-0.79,1.13-0.198,3.383,0.019,4.668C-168.566,609.713-168.032,611.567-167.389,613.395z"/>
	<path opacity="0.2" fill="#FFFFFF" d="M-185.696,624.101c2.561-2.627,3.943-6.472,5.363-9.796c0.771-1.805,1.457-3.643,2.108-5.494
		c0.608-1.729,1.274-3.539,1.251-5.392c-0.004-0.372-0.464-0.491-0.669-0.196c-0.979,1.405-1.485,3.081-2.081,4.675
		c-0.689,1.841-1.427,3.661-2.187,5.474c-1.426,3.401-3.589,6.734-4.441,10.334C-186.439,624.075-185.987,624.399-185.696,624.101z"
		/>
	<path opacity="0.2" fill="#FFFFFF" d="M-180.129,627.316c1.05-0.14,1.446-0.055,1.832,0.941c0.203,0.523,0.417,1.007,0.834,1.394
		c0.88,0.818,2.187,0.312,2.823-0.539c0.517-0.692,0.807-1.522,1.348-2.197c1.395-1.741,2.139,1.152,2.263,2.049
		c0.07,0.506,0.755,0.758,1.164,0.503c2.086-1.301,4.038-3.125,5.074-5.391c0.367-0.803-0.67-1.468-1.189-0.717
		c-1.093,1.579-2.228,2.953-3.724,4.072c-0.272-1.042-0.781-2.055-1.851-2.418c-1.657-0.562-2.868,0.575-3.628,1.946
		c-0.316,0.57-1.035,2.144-1.576,0.977c-0.249-0.537-0.385-1.159-0.807-1.601c-0.46-0.481-0.952-0.657-1.608-0.718
		c-0.803-0.075-1.795,0.568-2.555,0.063c-0.327-0.217-0.799,0.125-0.683,0.504C-182.08,627.286-181.166,627.454-180.129,627.316z"/>
	<path opacity="0.2" fill="#FFFFFF" d="M-184.432,598.787c-0.879,0.872-1.574,1.966-1.223,3.195c0.383,1.342,2.34,2.723,3.265,1.046
		c0.192-0.349,0-0.711-0.299-0.906c-0.35-0.229-0.873-0.48-0.676-1.013c0.232-0.628,0.956-1.115,1.451-1.512
		c1.013-0.815,2.14-1.507,3.308-2.075c2.448-1.19,5.139-1.727,7.851-1.707c2.596,0.019,5.193,0.757,7.471,1.977
		c1.18,0.631,2.152,1.512,2.604,2.794c0.285,0.807,0.066,1.639-0.446,2.288c-0.109,0.138-0.241,0.247-0.38,0.348
		c-0.053-0.06-0.118-0.114-0.199-0.159c-2.892-1.598-6.533-1.976-9.78-2.076c-1.748-0.054-3.492,0.098-5.218,0.369
		c-1.555,0.244-3.221,0.56-4.445,1.61c-0.273,0.235-0.299,0.829,0.17,0.874c1.491,0.141,2.936-0.271,4.397-0.519
		c1.578-0.268,3.182-0.368,4.781-0.385c3.298-0.035,6.316,0.842,9.513,1.432c0.017,0.014,0.035,0.028,0.055,0.04
		c1.28,0.734,2.573-0.854,3.007-1.907c0.654-1.587-0.067-3.407-1.099-4.64c-0.137-0.164-0.283-0.321-0.433-0.473
		c0.018-0.02,0.035-0.041,0.05-0.064c1.619-2.443,0.078-5.385-1.956-7.26c1.501-2.34-0.85-4.975-2.944-6.045
		c0.193-0.144,0.262-0.46,0.049-0.671c-2.832-2.804-6.921-4.566-10.93-4.114c-1.759,0.199-3.492,0.947-4.806,2.137
		c-1.014,0.918-2.688,2.819-2.193,4.321c-0.672,0.594-1.237,1.309-1.562,1.848c-0.821,1.362-1.219,4.212,0.081,5.482
		c-0.137,0.221-0.258,0.449-0.359,0.682C-186.036,595.337-185.48,597.421-184.432,598.787z M-183.345,588.247
		c0.464-0.667,1.164-1.193,1.892-1.539c0.639-0.304,1.19-0.479,1.577-1.1c0.121-0.194,0.052-0.503-0.124-0.642
		c-0.405-0.321-0.847-0.43-1.296-0.395c0.251-0.515,0.504-1.038,0.886-1.468c1.132-1.276,2.798-1.908,4.452-2.115
		c3.151-0.393,5.921,0.967,8.615,2.373c-1.181-0.333-2.414-0.488-3.631-0.571c-1.731-0.118-3.826-0.085-5.278,0.975
		c-0.427,0.312-0.359,1.093,0.229,1.179c1.274,0.187,2.53-0.086,3.805-0.147c1.436-0.068,2.861,0.138,4.26,0.444
		c2.297,0.503,4.019,1.769,4.279,4.002c-0.281-0.197-0.562-0.371-0.839-0.518c-1.775-0.942-3.897-1.166-5.872-1.112
		c-2.075,0.056-4.517,0.41-6.117,1.817c-0.241,0.212-0.059,0.649,0.231,0.697c1.569,0.26,3.087-0.231,4.636-0.453
		c1.708-0.244,3.405-0.161,5.066,0.299c1.593,0.44,3.001,1.421,3.931,2.78c0.817,1.193,0.915,2.48,0.976,3.838
		c-2.643-2.01-6.532-2.735-9.636-2.832c-4.257-0.133-8.486,1.438-11.868,3.963c-0.031,0.023-0.063,0.048-0.094,0.071
		c-0.358-1.744-0.76-3.375,1.014-4.591c0.515-0.353,1.079-0.573,1.235-1.222c0.12-0.498-0.486-0.863-0.897-0.871
		c-0.859-0.017-1.617,0.349-2.227,0.906c-0.02-0.225-0.043-0.452-0.053-0.683C-184.241,590.244-183.969,589.145-183.345,588.247z"/>
	<path opacity="0.2" fill="#FFFFFF" d="M-174.772,487.565c0.138-15.806,0.741-31.62,1.734-47.395
		c0.989-15.713,3.139-31.465,3.643-47.189c0.029-0.898-1.36-1.054-1.555-0.186c-3.354,14.963-4.37,30.811-5.505,46.078
		c-0.899,12.094-1.479,24.201-1.773,36.321c-2.418,3.957-3.529,8.479-3.883,13.129c-0.192,2.523,0.28,5.058,1.039,7.45
		c0.939,2.959,2.652,5.68,2.147,8.913c-0.351,2.245-2.039,4.157-2.467,6.446c-0.339,1.813,0.121,3.699,0.678,5.412
		c0.808,2.487,2.126,4.76,2.877,7.065c0.073,1.832,0.152,3.664,0.237,5.495c-0.188,0.621-0.461,1.256-0.838,1.908
		c-2.107,3.649-5.969,6.059-8.461,9.432c-2.55,3.451-3.821,7.747-3.135,12.041c0.773,4.845,3.431,8.148,7.079,11.25
		c4.664,3.965,9.922,7.936,8.204,14.869c-0.063,0.253,0.281,0.481,0.462,0.26c0.499-0.606,0.871-1.218,1.147-1.831
		c0.251,1.347,0.513,2.691,0.798,4.029c0.101,0.475,0.824,0.338,0.822-0.125c-0.072-15.314-1.651-30.652-2.378-45.95
		c-0.089-1.869-0.17-3.738-0.245-5.608c0.47-1.995,0.326-4.083-0.223-6.123C-174.754,511.364-174.876,499.461-174.772,487.565z
		 M-178.402,484.975c-0.005,0.43-0.013,0.861-0.018,1.291c-0.023,2.265-0.031,4.529-0.032,6.793
		C-179.155,490.348-178.944,487.655-178.402,484.975z M-183.259,559.446c-4.356-4.598-4.768-11.456-1.315-16.661
		c1.985-2.992,4.879-5.233,7.26-7.92c0.594,11.3,1.261,22.763,2.846,34.03C-176.884,565.192-180.995,561.836-183.259,559.446z"/>
	<g opacity="0.4">
		<path opacity="0.6" fill="#D89612" d="M639.593,293.704c0,20.335-15.987,36.135-35.709,36.135s-35.709-15.8-35.709-36.135
			s15.987-49.798,35.709-49.798C623.606,243.906,639.593,273.369,639.593,293.704z"/>
		<path opacity="0.6" fill="#EDD600" d="M627.06,282.609c0,15.354-10.376,24.27-23.176,24.27s-23.176-8.915-23.176-24.27
			s10.376-38.702,23.176-38.702S627.06,267.254,627.06,282.609z"/>
		<ellipse opacity="0.6" fill="#F2E325" cx="603.884" cy="260.545" rx="12.522" ry="16.699"/>
	</g>
	<path opacity="0.4" fill="#FFFFFF" d="M-44.449,371.376c1.999,1.359,4.679,1.196,6.656-0.109c2.136-1.409,3.002-4.076,2.296-6.507
		c-0.439-1.511-1.619-2.533-2.45-3.816c-0.124-0.191-0.501-0.113-0.414,0.143c0.42,1.236,1.499,2.096,2.028,3.282
		c0.555,1.244,0.535,2.713,0.077,3.98c-0.856,2.369-3.553,3.62-5.949,3.22c-2.472-0.413-4.308-2.875-4.377-5.306
		c-0.035-1.248,0.441-2.451,1.165-3.448c0.366-0.504,0.815-0.932,1.312-1.305c0.474-0.357,1.03-0.582,1.473-0.98
		c0.146-0.131,0.067-0.389-0.135-0.399c-1.146-0.057-2.254,0.934-2.958,1.748c-0.813,0.941-1.329,2.062-1.544,3.285
		C-47.691,367.573-46.425,370.033-44.449,371.376z"/>
	<path opacity="0.4" fill="#FFFFFF" d="M-43.313,359.361c-0.05-0.15-0.273-0.247-0.372-0.074c-0.166,0.291-0.209,0.615-0.291,0.935
		c-0.067,0.26-0.172,0.532,0.013,0.764c0.033,0.041,0.092,0.058,0.143,0.048c0.145-0.029,0.24-0.116,0.308-0.227
		c0.064,0.067,0.161,0.102,0.28,0.084c0.512-0.078,1.001-0.298,1.518-0.387c0.547-0.094,1.099-0.102,1.651-0.057
		c0.577,0.047,1.128,0.225,1.7,0.289c0.143,0.016,0.223-0.113,0.207-0.231c0.042-0.709-0.157-1.46-0.288-2.152
		c-0.054-0.287-0.229-0.453-0.452-0.557c0.044-0.398-0.225-0.812-0.605-0.976c-0.38-0.165-0.838-0.335-1.251-0.332
		c-0.486,0.003-0.881,0.059-1.285,0.254c-0.057,0.028-0.112,0.152-0.092,0.209c0.093,0.27,0.775,0.149,1.177,0.11
		c0.625-0.062,1.484,0.012,1.735,0.628c-0.073-0.018-0.148-0.033-0.222-0.046c-0.698-0.125-1.389-0.159-2.096-0.11
		c-0.368,0.026-0.789,0.066-1.188,0.158c0.012-0.061,0.015-0.074,0.008-0.034c0.005-0.017,0.011-0.035,0.017-0.052
		c0.002-0.005,0.002-0.007,0.004-0.01c0.003-0.003,0.007-0.008,0.014-0.019c0.028-0.045,0.056-0.086,0.075-0.136
		c0.045-0.119-0.006-0.26-0.11-0.33c-0.028-0.019-0.056-0.031-0.085-0.039c0.27-0.571,0.472-1.087,1.219-1.265
		c0.325-0.078,0.679,0.003,0.984,0.116c0.306,0.114,0.496,0.401,0.798,0.501c0.068,0.022,0.163-0.025,0.16-0.106
		c-0.019-0.436-0.372-0.708-0.8-0.851c0.302-0.215-0.28-0.792-0.477-0.875c-0.415-0.176-1.056-0.013-1.223,0.451
		c-0.045,0.125-0.082,0.331,0.083,0.388c0.18,0.063,0.331-0.246,0.43-0.342c0.251-0.242,0.609-0.139,0.816,0.095
		c0.033,0.037,0.077,0.138,0.132,0.217c-0.356-0.078-0.73-0.08-0.991-0.021c-0.679,0.152-1.566,1.002-1.413,1.77
		c-0.175,0.145-0.221,0.472-0.126,0.664c0.004,0.008,0.01,0.013,0.014,0.02c-0.133,0.051-0.26,0.109-0.375,0.179
		c-0.257,0.155-0.128,0.522,0.169,0.488c0.481-0.056,0.953-0.246,1.434-0.329c0.58-0.1,1.174-0.115,1.761-0.089
		c0.245,0.011,0.489,0.042,0.733,0.075c0.553,0.076,0.58,0.352,0.682,0.82c0.088,0.407,0.154,0.829,0.284,1.226
		c-0.755-0.409-1.735-0.477-2.56-0.455c-0.499,0.013-0.989,0.096-1.471,0.22c-0.177,0.045-0.532,0.117-0.782,0.258
		C-43.255,359.94-43.219,359.642-43.313,359.361z"/>
	<path opacity="0.4" fill="#FFFFFF" d="M-39.645,363.009c0.111,0.426,0.271,0.84,0.462,1.236c0.092,0.192,0.199,0.375,0.308,0.558
		c0.085,0.142,0.392,0.422,0.327,0.592c-0.018,0.046,0.043,0.086,0.079,0.053c0.038-0.034,0.076-0.069,0.115-0.103
		c0.029-0.026,0.038-0.069,0.02-0.104c-0.38-0.752-0.725-1.486-0.919-2.313c-0.183-0.781-0.122-1.573-0.255-2.353
		c-0.02-0.118-0.19-0.123-0.228-0.015C-40.005,361.314-39.841,362.257-39.645,363.009z"/>
	<path opacity="0.4" fill="#FFFFFF" d="M-43.594,365.56c0.667-0.573,0.961-1.696,1.151-2.518c0.192-0.833,0.447-2.038,0.017-2.832
		c-0.048-0.089-0.184-0.086-0.218,0.014c-0.132,0.38-0.124,0.804-0.138,1.202c-0.017,0.481-0.086,0.962-0.185,1.433
		c-0.093,0.441-0.224,0.874-0.376,1.298c-0.155,0.431-0.39,0.842-0.469,1.295C-43.834,365.571-43.674,365.629-43.594,365.56z"/>
	<path opacity="0.4" fill="#FFFFFF" d="M-43.844,365.511c0.096,0.831,1.155,1.506,1.991,1.373c0.448,0.295,1.091,0.223,1.596,0.095
		c0.426-0.108,0.851-0.356,1.049-0.73c0.539-0.102,1.018-0.493,0.832-1.115c-0.019-0.065-0.112-0.046-0.103,0.021
		c0.058,0.44-0.261,0.72-0.635,0.83c0.021-0.105,0.026-0.217,0.011-0.336c-0.074-0.577-0.791-0.828-1.182-0.396
		c-0.394,0.435,0.115,0.921,0.55,1.001c0.039,0.007,0.078,0.012,0.118,0.016c-0.087,0.093-0.195,0.17-0.302,0.232
		c-0.417,0.24-1.04,0.341-1.506,0.224c0.133-0.084,0.251-0.199,0.345-0.352c0.263-0.426-0.021-1.133-0.585-1.032
		c-0.601,0.107-0.809,0.733-0.501,1.225c-0.266-0.011-0.535-0.11-0.751-0.24c-0.344-0.208-0.535-0.539-0.693-0.896
		C-43.669,365.29-43.86,365.377-43.844,365.511z M-39.486,366.039c-0.212-0.001-0.428-0.07-0.583-0.217
		c-0.25-0.237,0.031-0.53,0.302-0.521c0.299,0.011,0.384,0.431,0.331,0.65c-0.007,0.03-0.017,0.059-0.028,0.087
		C-39.471,366.038-39.479,366.039-39.486,366.039z M-41.753,365.703c0.241-0.136,0.445,0.053,0.446,0.298
		c0.002,0.246-0.21,0.4-0.412,0.489c-0.021,0.009-0.043,0.017-0.064,0.025C-42.022,366.274-42.113,365.906-41.753,365.703z"/>
	<path opacity="0.4" fill="#FFFFFF" d="M-38.986,346.031c-0.683-0.93-1.843-1.103-2.852-1.515c-0.007-0.412-0.011-0.823-0.014-1.235
		c0.018-0.006,0.036-0.011,0.054-0.017c0.421-0.135,0.782-0.38,1.077-0.712c0.631-0.711,0.141-1.411-0.4-1.946
		c-0.675-0.667-0.345-2.023-0.273-2.859c0.061-0.715,0.051-1.47-0.345-2.052c0.05-1.62,0.11-3.24,0.166-4.859
		c0.047-1.348,0.084-2.696,0.118-4.044c0.033-1.339,0.177-2.709,0.05-4.044c-0.018-0.192-0.318-0.281-0.359-0.056
		c-0.226,1.239-0.212,2.524-0.285,3.779c-0.079,1.347-0.163,2.693-0.232,4.041c-0.084,1.66-0.161,3.321-0.226,4.982
		c-0.011,0.039-0.013,0.083-0.005,0.128c-0.039,1.006-0.074,2.013-0.1,3.02c-0.036,1.357-0.051,2.716-0.045,4.074
		c-0.471,0.184-0.898,0.442-1.122,0.945c-0.08,0.18-0.069,0.331,0.053,0.487c0.308,0.395,0.688,0.653,1.101,0.85
		c0.013,0.59,0.029,1.18,0.051,1.77c0.032,0.866,0.068,1.746,0.125,2.629c-0.327,0.057-0.649,0.125-0.954,0.231
		c-1.013,0.352-2.256,1.689-1.69,2.88c0.595,1.252,2.192,1.247,3.24,1.915c0.054,0.034,0.111,0.014,0.143-0.027
		c0.017,0.063,0.032,0.126,0.05,0.188c0.046,0.165,0.295,0.141,0.296-0.036c0.006-1.557-0.106-3.119-0.22-4.679
		c0.733-0.146,1.425-0.323,2.06-0.769C-38.464,348.356-38.218,347.076-38.986,346.031z M-41.404,342.14
		c-0.12,0.135-0.282,0.225-0.45,0.296c0-0.492,0.002-0.984,0.007-1.476c0.051,0.07,0.105,0.139,0.161,0.206
		C-41.473,341.418-40.951,341.631-41.404,342.14z M-42.951,343.827c0.087-0.102,0.191-0.182,0.306-0.248
		c0.002,0.17,0.004,0.339,0.006,0.509C-42.749,344.009-42.853,343.923-42.951,343.827z M-44.506,351.62
		c0.194-1.001,1.213-1.381,2.106-1.586c0.11,1.387,0.29,2.77,0.623,4.097C-42.504,353.114-44.82,353.237-44.506,351.62z
		 M-40.403,348.884c-0.38,0.191-0.797,0.293-1.223,0.373c-0.059-0.826-0.115-1.651-0.148-2.476c-0.02-0.49-0.034-0.98-0.046-1.471
		c0.781,0.26,1.595,0.466,2.231,1.023C-38.529,347.262-39.466,348.413-40.403,348.884z"/>
</g>
</svg>
