<?xml version="1.0" encoding="utf-8"?>
<!-- Generator: Adobe Illustrator 17.0.0, SVG Export Plug-In . SVG Version: 6.00 Build 0)  -->
<!DOCTYPE svg PUBLIC "-//W3C//DTD SVG 1.1//EN" "http://www.w3.org/Graphics/SVG/1.1/DTD/svg11.dtd">
<svg version="1.1" id="Слой_1" xmlns="http://www.w3.org/2000/svg" xmlns:xlink="http://www.w3.org/1999/xlink" x="0px" y="0px"
	 width="18.836px" height="48.326px" viewBox="0 0 18.836 48.326" enable-background="new 0 0 18.836 48.326" xml:space="preserve">
<g opacity="0.5">
	<path fill="#5DA39A" d="M17.386,17.827c0.86,3.522,1.865,7.967,1.017,8.813c-1.295,1.29-2.263,1.339-2.263,1.339
		c-0.128-0.633-0.224-1.12-0.264-1.339l-0.149-0.002c0.285-0.237,0.424-0.408,0.424-0.408l-0.579-3.103
		c0.778,0.173,1.435-0.003,1.874-0.514c0.748-0.871-0.451-3.578-0.746-4.209c0.302-0.269,0.463-0.512,0.463-0.512
		s-0.001-0.004-0.004-0.01L17.386,17.827z"/>
	<path fill="#5DA39A" d="M17.386,17.827l-0.228,0.056c-0.037-0.101-0.393-0.971-2.087-3.006c-0.068-0.082-0.138-0.159-0.208-0.231
		c1.237,0.805,1.756-0.001,1.756-0.001C16.798,15.457,17.082,16.585,17.386,17.827z"/>
	<path fill="#5DA39A" d="M8.933,13.042v1.153c0,0-0.757-0.331-1.543-0.284v-0.004c0,0,0.084-0.999,0.352-1.073
		C8.12,12.953,8.52,13.025,8.933,13.042z"/>
	<path fill="#5DA39A" d="M13.243,13.74c-0.524-0.094-1.011-0.022-1.396,0.09c-0.507,0.147-0.835,0.365-0.835,0.365v-1.148
		l-0.231-0.013c0.817-0.061,1.539-0.335,2.129-0.77c0,0,0,0,0.001,0c0.065-0.011,3.301-0.535,3.532,1.433
		c0.026,0.225,0.088,0.549,0.176,0.948c0,0-0.519,0.806-1.756,0.001c0-0.001-0.001-0.001-0.001-0.001
		C14.33,14.092,13.768,13.833,13.243,13.74z"/>
	<path fill="#84DBB3" d="M13.009,17.115c-0.264-0.081-0.675,0.232-0.675,0.232s-0.285-0.946-0.569-0.946
		c-0.274,0-0.04,0.888-0.025,0.943c-0.011-0.023-0.1-0.209-0.224-0.397c0,0-0.152-1.951,0.332-3.118
		c0.385-0.112,0.872-0.184,1.396-0.09C12.673,14.794,13.009,17.115,13.009,17.115z"/>
	<path fill="#E0BDBA" d="M15.323,7.194c0.637,0.118,1.12,0.676,1.12,1.347c0,0.758-0.614,1.372-1.372,1.372
		c-0.189,0-0.37-0.038-0.534-0.108l-0.026-0.007C14.608,9.4,14.66,8.98,14.66,8.541l-0.045-1.293
		c0.143-0.051,0.296-0.078,0.456-0.078C15.157,7.171,15.241,7.178,15.323,7.194z"/>
	<path fill="#E0BDBA" d="M4.193,7.218c0.114-0.031,0.235-0.048,0.36-0.048v1.304c0,0.497,0.079,0.974,0.225,1.421
		C4.704,9.907,4.629,9.913,4.553,9.913c-0.757,0-1.371-0.614-1.371-1.372C3.182,7.909,3.61,7.376,4.193,7.218z"/>
	<path fill="#3C2C17" d="M4.369,3.563c0.388,0.413,1.106,0.366,1.71,0.195c-0.936,0.837-1.526,2.054-1.526,3.41v0.004
		c-0.125,0-0.245,0.017-0.36,0.048c-0.815-3.182,0.15-3.588,0.15-3.588L4.369,3.563z"/>
	<path fill="#3C2C17" d="M17.041,46.442c0.602,0.353,1.23,0.829,1.068,1.202c-0.295,0.682-3.792-0.095-3.792-0.095L14.189,46.3
		c0.854,0.4,1.873-0.363,1.873-0.363s0.147,0.065,0.362,0.171C16.598,46.195,16.818,46.31,17.041,46.442z"/>
	<path fill="#E8CCC3" d="M15.571,23.127c-0.725-0.161-1.556-0.623-2.415-1.399c-1.779-1.607-2.993-4.08-2.751-4.381
		c0.236-0.293,0.727,0.377,0.752,0.412c-0.021-0.051-0.462-1.16-0.146-1.219c0.168-0.031,0.36,0.189,0.504,0.408
		c0.124,0.189,0.213,0.374,0.224,0.397c-0.015-0.056-0.249-0.943,0.025-0.943c0.284,0,0.569,0.946,0.569,0.946
		s0.411-0.313,0.675-0.232c0.263,0.081,0.134,0.89,0,1.239c0,0,0.645,1.186,2.062,2.26c-0.106-0.324-0.235-0.898-0.359-1.515
		l0.022-0.004c0.885,0.085,1.555-0.327,1.965-0.691c0.295,0.631,1.494,3.338,0.746,4.209C17.006,23.125,16.348,23.3,15.571,23.127z"
		/>
	<path fill="#3E6ECA" d="M14.712,19.1c0.124,0.617,0.253,1.191,0.359,1.515c-1.417-1.074-2.062-2.26-2.062-2.26
		c0.134-0.349,0.263-1.158,0-1.239c0,0-0.336-2.321,0.235-3.375c0.524,0.093,1.086,0.353,1.619,0.904c0,0,0.001,0,0.001,0.001
		c0.07,0.072,0.14,0.149,0.208,0.231c1.695,2.035,2.05,2.905,2.087,3.006c0.003,0.006,0.004,0.01,0.004,0.01
		s-0.161,0.243-0.463,0.512c-0.41,0.364-1.08,0.776-1.965,0.691L14.712,19.1z"/>
	<path fill="#EBB25E" d="M7.545,35.564c-0.771-0.234-1.32-0.599-1.32-0.599l0.593-7.864c0.904,0.427,2.67,1.088,4.801,0.999
		c2.142-0.089,3.48-0.94,4.107-1.463l0.149,0.002c0.04,0.22,0.136,0.707,0.264,1.339c0.477,2.363,1.388,6.754,1.388,6.754
		c-0.397,0.462-0.956,0.702-1.548,0.809c-0.737,0.134-1.525,0.065-2.113-0.033c-0.547-0.092-0.921-0.208-0.921-0.208L12.608,30.1
		c-1.024,0.154-1.86,0.024-2.354-0.1l0.089,5.279c-0.275,0.19-0.563,0.314-0.853,0.387C8.81,35.839,8.117,35.737,7.545,35.564z"/>
	<path fill="#3E6ECA" d="M6.86,18.272l-1.302,3.013c-0.199-0.034-0.399-0.123-0.595-0.249c-0.51-0.329-0.992-0.911-1.353-1.43
		c-0.33-0.476-0.559-0.899-0.615-1.027c-0.141-0.324,2.515-3.737,3.486-4.383c0.277-0.184,0.596-0.264,0.909-0.284
		c0.786-0.047,1.543,0.284,1.543,0.284s1.21,1.011,2.079,0c0,0,0.328-0.217,0.835-0.365c-0.483,1.167-0.332,3.118-0.332,3.118
		c-0.144-0.218-0.335-0.439-0.504-0.408c-0.316,0.059,0.125,1.168,0.146,1.219c-0.025-0.035-0.516-0.705-0.752-0.412
		c-0.243,0.301,0.971,2.774,2.751,4.381c0.859,0.776,1.69,1.238,2.415,1.399l0.579,3.103c0,0-0.139,0.17-0.424,0.408
		c-0.627,0.523-1.965,1.374-4.107,1.463c-2.131,0.089-3.897-0.572-4.801-0.999c-0.418-0.197-0.651-0.345-0.651-0.345
		s0.274-2.752,0.415-4.376C6.678,21.291,6.794,19.4,6.86,18.272z"/>
	<path fill="#FFFFFF" d="M15.992,44.496c0.016,0.635,0.038,1.142,0.069,1.441c0,0-0.285-0.979-0.647-0.779
		c-0.361,0.2,0.647,0.779,0.647,0.779S15.043,46.7,14.189,46.3l-0.048-1.614h0.003c0.719,0.259,1.839-0.19,1.839-0.19H15.992z"/>
	<path fill="#E8CCC3" d="M15.992,44.496h-0.01c0,0-1.12,0.449-1.839,0.19h-0.003l-0.274-9.178c0.588,0.098,1.375,0.168,2.113,0.033
		l0.004,0.021C15.983,35.563,15.916,41.473,15.992,44.496z"/>
	<path fill="#3C2C17" d="M15.3,3.655c0.701,0.997,0.027,3.515,0.027,3.515l-0.004,0.023c-0.082-0.016-0.166-0.023-0.252-0.023
		c-0.161,0-0.313,0.027-0.456,0.078c-0.997-1.383-1.027-3.917-1.027-3.917L13.7,3.098C13.7,3.098,14.599,2.657,15.3,3.655z"/>
	<path fill="#E8CCC3" d="M7.742,12.833c-1.401-0.444-2.509-1.544-2.964-2.938C4.632,9.448,4.553,8.971,4.553,8.474V7.171V7.167
		c0-1.355,0.59-2.573,1.526-3.41c0,0,0,0,0.001-0.001c0.397-0.112,0.746-0.279,0.919-0.404L7.003,3.29
		c0.641,0.178,1.608-0.271,1.608-0.271l0.006-0.015c1.604,0.716,4.97,0.327,4.97,0.327s0.031,2.533,1.027,3.917l0.045,1.293
		c0,0.438-0.051,0.859-0.149,1.257c-0.251,1.022-0.811,1.885-1.6,2.465c-0.001,0-0.001,0-0.001,0
		c-0.591,0.435-1.312,0.709-2.129,0.77c-0.114,0.009-0.23,0.013-0.349,0.013H9.124c-0.065,0-0.128-0.002-0.191-0.004
		C8.52,13.025,8.12,12.953,7.742,12.833z"/>
	<path fill="#3C2C17" d="M7.003,3.29L6.999,3.353C6.826,3.477,6.477,3.645,6.08,3.757C6.079,3.757,6.079,3.757,6.079,3.757
		c-0.604,0.171-1.321,0.218-1.71-0.195C4.296,3.484,4.235,3.39,4.188,3.277C3.73,2.172,5.186,0.824,5.706,0.769
		c0.501-0.052,0.241,0.419,0.22,0.456C5.97,1.165,6.685,0.178,7.182,0.23c0.512,0.053,0.241,0.62,0.241,0.62s0.541-0.81,1.189-0.756
		c0.648,0.054,0.566,0.756,0.566,0.756s3.237-0.486,4.342,0.27c1.106,0.755,0.18,1.977,0.18,1.977l-0.113,0.234
		c0,0-3.366,0.388-4.97-0.327L8.611,3.019C8.611,3.019,7.644,3.468,7.003,3.29z"/>
	<path fill="#E8CCC3" d="M11.012,13.046v1.148c-0.869,1.011-2.079,0-2.079,0v-1.153c0.063,0.003,0.127,0.004,0.191,0.004h1.307
		c0.119,0,0.235-0.004,0.349-0.013L11.012,13.046z"/>
	<path fill="#FFFFFF" d="M9.506,44.909l0.003,1.614c-0.843,0.424-1.882-0.309-1.882-0.309s0.99-0.608,0.623-0.798
		c-0.367-0.189-0.623,0.798-0.623,0.798c0.022-0.296,0.034-0.803,0.038-1.442C7.723,44.794,8.814,45.181,9.506,44.909z"/>
	<path fill="#3C2C17" d="M6.661,46.747c0.22-0.138,0.435-0.259,0.607-0.351c0,0,0,0,0.001,0c0.212-0.113,0.357-0.181,0.357-0.181
		s1.039,0.733,1.882,0.309l-0.092,1.251c0,0-3.473,0.879-3.788,0.206C5.456,47.612,6.069,47.119,6.661,46.747z"/>
	<path fill="#E8CCC3" d="M9.489,35.666l0.017,9.243c-0.692,0.272-1.783-0.115-1.841-0.136c0.023-3.061-0.118-9.124-0.12-9.209
		C8.117,35.737,8.81,35.839,9.489,35.666z"/>
	<path fill="#E8CCC3" d="M3.61,19.605c0.36,0.519,0.842,1.101,1.353,1.43c-0.35,1.126-3.2,5.791-3.387,6.097
		c-0.024-0.03-0.047-0.062-0.072-0.093c-0.301-0.374-1.025-0.71-1.431-0.878C0.118,26.089,2.815,21.821,3.61,19.605z"/>
	
		<path fill="none" stroke="#3D2150" stroke-width="0.1844" stroke-linecap="round" stroke-linejoin="round" stroke-miterlimit="10" d="
		M12.931,12.263c0.789-0.58,1.348-1.443,1.6-2.465C14.628,9.4,14.68,8.979,14.68,8.541l-0.045-1.293"/>
	
		<path fill="none" stroke="#3D2150" stroke-width="0.1844" stroke-linecap="round" stroke-linejoin="round" stroke-miterlimit="10" d="
		M6.099,3.757c-0.936,0.837-1.526,2.054-1.526,3.41V7.17v1.304c0,0.497,0.079,0.974,0.225,1.421
		c0.456,1.395,1.564,2.494,2.964,2.938c0.378,0.12,0.778,0.192,1.191,0.208c0.063,0.003,0.127,0.004,0.191,0.004h1.307
		c0.119,0,0.235-0.004,0.349-0.013c0.817-0.061,1.539-0.335,2.129-0.77"/>
	
		<path fill="none" stroke="#3D2150" stroke-width="0.1844" stroke-linecap="round" stroke-linejoin="round" stroke-miterlimit="10" d="
		M14.634,7.248L14.634,7.248c0.144-0.051,0.297-0.078,0.457-0.078c0.086,0,0.17,0.008,0.252,0.023
		c0.637,0.118,1.12,0.676,1.12,1.347c0,0.758-0.614,1.372-1.372,1.372c-0.189,0-0.37-0.038-0.534-0.108"/>
	
		<path fill="none" stroke="#3D2150" stroke-width="0.1844" stroke-linecap="round" stroke-linejoin="round" stroke-miterlimit="10" d="
		M4.798,9.895C4.724,9.907,4.649,9.913,4.572,9.913c-0.757,0-1.371-0.614-1.371-1.372c0-0.633,0.428-1.166,1.011-1.323
		C4.327,7.187,4.448,7.17,4.572,7.17"/>
	
		<path fill="none" stroke="#3D2150" stroke-width="0.1844" stroke-linecap="round" stroke-linejoin="round" stroke-miterlimit="10" d="
		M8.953,13.038v0.004v1.153c0,0,1.21,1.011,2.079,0v-1.148"/>
	
		<path fill="none" stroke="#230031" stroke-width="0.1844" stroke-linecap="round" stroke-linejoin="round" stroke-miterlimit="10" d="
		M5.944,1.227c0,0,0.001-0.001,0.002-0.003c0.021-0.037,0.281-0.508-0.22-0.456C5.206,0.823,3.75,2.172,4.208,3.277
		C4.255,3.39,4.316,3.484,4.389,3.563c0.388,0.413,1.106,0.366,1.71,0.195c0,0,0,0,0.001-0.001c0.397-0.112,0.746-0.279,0.919-0.404
		"/>
	
		<path fill="none" stroke="#230031" stroke-width="0.1844" stroke-linecap="round" stroke-linejoin="round" stroke-miterlimit="10" d="
		M15.347,7.17c0,0,0.674-2.518-0.027-3.515c-0.702-0.998-1.6-0.558-1.6-0.558s0.926-1.223-0.18-1.977
		c-1.106-0.756-4.342-0.27-4.342-0.27s0.081-0.702-0.566-0.756S7.443,0.85,7.443,0.85s0.271-0.567-0.241-0.62
		C6.705,0.178,5.99,1.165,5.946,1.225"/>
	
		<path fill="none" stroke="#230031" stroke-width="0.1844" stroke-linecap="round" stroke-linejoin="round" stroke-miterlimit="10" d="
		M7.876,1.551c-0.229,0.717,0.129,1.17,0.761,1.453c1.604,0.716,4.97,0.327,4.97,0.327s0.031,2.533,1.027,3.917"/>
	
		<path fill="none" stroke="#230031" stroke-width="0.1844" stroke-linecap="round" stroke-linejoin="round" stroke-miterlimit="10" d="
		M8.631,3.019c0,0-0.967,0.449-1.608,0.271C6.625,3.18,6.352,2.829,6.511,1.983"/>
	
		<path fill="none" stroke="#230031" stroke-width="0.1844" stroke-linecap="round" stroke-linejoin="round" stroke-miterlimit="10" d="
		M4.363,3.631c0,0-0.965,0.406-0.15,3.588"/>
	
		<path fill="none" stroke="#3D2150" stroke-width="0.1844" stroke-linecap="round" stroke-linejoin="round" stroke-miterlimit="10" d="
		M8.953,14.195c0,0-0.757-0.331-1.543-0.284c-0.313,0.019-0.632,0.099-0.909,0.284c-0.971,0.647-3.628,4.06-3.486,4.383
		c0.057,0.128,0.285,0.551,0.615,1.027c0.36,0.519,0.842,1.101,1.353,1.43c0.196,0.126,0.396,0.215,0.595,0.249l1.302-3.013"/>
	
		<path fill="none" stroke="#3D2150" stroke-width="0.1844" stroke-linecap="round" stroke-linejoin="round" stroke-miterlimit="10" d="
		M6.933,17.347c0,0-0.02,0.37-0.053,0.924c-0.066,1.128-0.182,3.02-0.278,4.109c-0.141,1.625-0.415,4.376-0.415,4.376
		s0.233,0.148,0.651,0.345c0.904,0.427,2.67,1.088,4.801,0.999c2.142-0.089,3.48-0.94,4.107-1.463
		c0.285-0.237,0.424-0.408,0.424-0.408l-0.579-3.103v-0.001"/>
	
		<path fill="none" stroke="#3D2150" stroke-width="0.1844" stroke-linecap="round" stroke-linejoin="round" stroke-miterlimit="10" d="
		M14.883,14.645c0.07,0.072,0.14,0.149,0.208,0.231c1.695,2.035,2.05,2.905,2.087,3.006c0.003,0.006,0.004,0.01,0.004,0.01
		s-0.161,0.243-0.463,0.512c-0.41,0.364-1.08,0.776-1.965,0.691"/>
	
		<path fill="none" stroke="#3D2150" stroke-width="0.1844" stroke-linecap="round" stroke-linejoin="round" stroke-miterlimit="10" d="
		M11.032,14.195c0,0,0.328-0.217,0.835-0.365c0.385-0.112,0.872-0.184,1.396-0.09c0.524,0.093,1.087,0.353,1.619,0.904"/>
	
		<path fill="none" stroke="#3D2150" stroke-width="0.1844" stroke-linecap="round" stroke-linejoin="round" stroke-miterlimit="10" d="
		M14.269,16.54c0,0,0.223,1.361,0.463,2.56c0.124,0.617,0.253,1.191,0.359,1.515"/>
	
		<path fill="none" stroke="#3D2150" stroke-width="0.1844" stroke-linecap="round" stroke-linejoin="round" stroke-miterlimit="10" d="
		M11.761,17.347c0,0,0-0.001-0.001-0.003c-0.015-0.056-0.249-0.943,0.025-0.943c0.284,0,0.569,0.946,0.569,0.946
		s0.411-0.313,0.675-0.232c0.263,0.081,0.134,0.89,0,1.239c0,0,0.645,1.186,2.062,2.26c0.196,0.149,0.407,0.296,0.634,0.437"/>
	
		<path fill="none" stroke="#3D2150" stroke-width="0.1844" stroke-linecap="round" stroke-linejoin="round" stroke-miterlimit="10" d="
		M11.179,17.761c0,0,0-0.001-0.001-0.002c-0.021-0.051-0.462-1.16-0.146-1.219c0.168-0.031,0.36,0.189,0.504,0.408
		c0.124,0.189,0.213,0.374,0.224,0.397"/>
	
		<path fill="none" stroke="#3D2150" stroke-width="0.1844" stroke-linecap="round" stroke-linejoin="round" stroke-miterlimit="10" d="
		M16.719,18.404c0.295,0.631,1.494,3.338,0.746,4.209c-0.44,0.511-1.097,0.687-1.875,0.514c-0.725-0.161-1.556-0.623-2.415-1.399
		c-1.779-1.607-2.993-4.08-2.751-4.381c0.236-0.293,0.727,0.377,0.752,0.412"/>
	
		<path fill="none" stroke="#3D2150" stroke-width="0.1844" stroke-linecap="round" stroke-linejoin="round" stroke-miterlimit="10" d="
		M6.838,27.101l-0.593,7.864c0,0,0.55,0.365,1.32,0.599c0.573,0.174,1.265,0.275,1.944,0.102c0.291-0.073,0.579-0.197,0.853-0.387
		L10.274,30v-0.014"/>
	
		<path fill="none" stroke="#3D2150" stroke-width="0.1844" stroke-linecap="round" stroke-linejoin="round" stroke-miterlimit="10" d="
		M9.783,29.843c0,0,0.176,0.077,0.49,0.156c0.495,0.124,1.331,0.255,2.354,0.1c0.212-0.031,0.432-0.076,0.659-0.134"/>
	
		<path fill="none" stroke="#3D2150" stroke-width="0.1844" stroke-linecap="round" stroke-linejoin="round" stroke-miterlimit="10" d="
		M12.628,30.1l0.338,5.201c0,0,0.374,0.116,0.921,0.208c0.588,0.098,1.375,0.168,2.113,0.033c0.592-0.107,1.151-0.347,1.548-0.809
		c0,0-0.91-4.39-1.388-6.754c-0.128-0.633-0.224-1.12-0.264-1.339"/>
	
		<path fill="none" stroke="#3D2150" stroke-width="0.1844" stroke-linecap="round" stroke-linejoin="round" stroke-miterlimit="10" d="
		M13.029,17.115c0,0-0.336-2.321,0.235-3.375"/>
	
		<path fill="none" stroke="#3D2150" stroke-width="0.1844" stroke-linecap="round" stroke-linejoin="round" stroke-miterlimit="10" d="
		M11.536,16.948c0,0-0.152-1.951,0.332-3.118"/>
	
		<path fill="none" stroke="#3D2150" stroke-width="0.1844" stroke-linecap="round" stroke-linejoin="round" stroke-miterlimit="10" d="
		M7.41,13.907c0,0,0.084-0.999,0.352-1.073"/>
	
		<path fill="none" stroke="#3D2150" stroke-width="0.1844" stroke-linecap="round" stroke-linejoin="round" stroke-miterlimit="10" d="
		M12.93,12.263C12.93,12.263,12.93,12.263,12.93,12.263c0.066-0.011,3.301-0.535,3.533,1.433c0.026,0.225,0.088,0.549,0.176,0.948
		c0.179,0.813,0.463,1.941,0.767,3.183c0.86,3.522,1.865,7.968,1.017,8.813c-1.295,1.29-2.263,1.339-2.263,1.339"/>
	
		<path fill="none" stroke="#3D2150" stroke-width="0.1844" stroke-linecap="round" stroke-linejoin="round" stroke-miterlimit="10" d="
		M16.639,14.644c0,0-0.519,0.806-1.756,0.001c0-0.001-0.001-0.001-0.001-0.001"/>
	
		<path fill="none" stroke="#3D2150" stroke-width="0.1844" stroke-linecap="round" stroke-linejoin="round" stroke-miterlimit="10" d="
		M7.289,46.396c0.212-0.113,0.357-0.181,0.357-0.181c0.022-0.296,0.034-0.803,0.038-1.442c0.023-3.061-0.118-9.124-0.12-9.209
		c0-0.001,0-0.001,0-0.001"/>
	
		<path fill="none" stroke="#3D2150" stroke-width="0.1844" stroke-linecap="round" stroke-linejoin="round" stroke-miterlimit="10" d="
		M9.509,35.617v0.049l0.017,9.243l0.003,1.614l-0.092,1.251c0,0-3.473,0.879-3.788,0.206c-0.172-0.368,0.442-0.861,1.033-1.233
		c0.22-0.138,0.435-0.259,0.607-0.351"/>
	
		<path fill="none" stroke="#3D2150" stroke-width="0.1844" stroke-linecap="round" stroke-linejoin="round" stroke-miterlimit="10" d="
		M7.682,44.772c0,0,0.001,0,0.003,0.001c0.059,0.021,1.149,0.408,1.841,0.136"/>
	
		<path fill="none" stroke="#3D2150" stroke-width="0.1844" stroke-linecap="round" stroke-linejoin="round" stroke-miterlimit="10" d="
		M7.646,46.215c0,0,1.039,0.733,1.882,0.309"/>
	
		<path fill="none" stroke="#3D2150" stroke-width="0.1844" stroke-linecap="round" stroke-linejoin="round" stroke-miterlimit="10" d="
		M7.575,46.209c0,0-0.108-1.014-0.498-0.881C6.686,45.462,7.575,46.209,7.575,46.209z"/>
	
		<path fill="none" stroke="#3D2150" stroke-width="0.1844" stroke-linecap="round" stroke-linejoin="round" stroke-miterlimit="10" d="
		M7.646,46.215c0,0,0.257-0.987,0.623-0.798C8.636,45.606,7.646,46.215,7.646,46.215z"/>
	
		<path fill="none" stroke="#3D2150" stroke-width="0.1844" stroke-linecap="round" stroke-linejoin="round" stroke-miterlimit="10" d="
		M13.887,35.509l0.274,9.178l0.048,1.614l0.129,1.248c0,0,3.497,0.777,3.792,0.095c0.161-0.373-0.466-0.848-1.068-1.202
		c-0.223-0.132-0.443-0.247-0.618-0.333c-0.216-0.106-0.362-0.171-0.362-0.171c-0.031-0.298-0.053-0.805-0.069-1.441
		c-0.077-3.023-0.01-8.933-0.01-8.933"/>
	
		<path fill="none" stroke="#3D2150" stroke-width="0.1844" stroke-linecap="round" stroke-linejoin="round" stroke-miterlimit="10" d="
		M16.003,44.496c0,0-1.12,0.449-1.839,0.19"/>
	
		<path fill="none" stroke="#3D2150" stroke-width="0.1844" stroke-linecap="round" stroke-linejoin="round" stroke-miterlimit="10" d="
		M16.081,45.937c0,0-1.018,0.763-1.873,0.363"/>
	
		<path fill="none" stroke="#3D2150" stroke-width="0.1844" stroke-linecap="round" stroke-linejoin="round" stroke-miterlimit="10" d="
		M16.151,45.929c0,0,0.079-1.017,0.473-0.895C17.019,45.157,16.151,45.929,16.151,45.929z"/>
	
		<path fill="none" stroke="#3D2150" stroke-width="0.1844" stroke-linecap="round" stroke-linejoin="round" stroke-miterlimit="10" d="
		M16.081,45.937c0,0-0.285-0.979-0.647-0.779C15.073,45.358,16.081,45.937,16.081,45.937z"/>
	
		<path fill="none" stroke="#3D2150" stroke-width="0.1844" stroke-linecap="round" stroke-linejoin="round" stroke-miterlimit="10" d="
		M0.092,26.162C0.092,26.162,0.092,26.162,0.092,26.162c0.046-0.073,2.743-4.342,3.538-6.557"/>
	
		<path fill="none" stroke="#3D2150" stroke-width="0.1844" stroke-linecap="round" stroke-linejoin="round" stroke-miterlimit="10" d="
		M1.585,27.149c0,0,0.003-0.005,0.01-0.016c0.187-0.306,3.037-4.972,3.387-6.097"/>
	<path fill="#D591A4" d="M9.618,5.651c0.755-0.001,0.886,2.983,0.544,3.361C9.781,9.433,9.072,9.267,8.937,8.91
		C8.823,8.611,8.725,5.653,9.618,5.651z"/>
	
		<path fill="none" stroke="#3D2150" stroke-width="0.2766" stroke-linecap="round" stroke-linejoin="round" stroke-miterlimit="10" d="
		M11.221,9.623c0,0-0.438,0.614-1.366,0.614c-1.041,0-1.243-0.614-1.243-0.614"/>
	<path fill="#3C2C17" d="M13.051,5.22c0,0.371-1.938,0.147-1.861-0.324C11.301,4.216,13.051,4.57,13.051,5.22z"/>
	<path fill="#3C2C17" d="M6.155,5.287c0,0.371,1.938,0.147,1.861-0.324C7.904,4.283,6.154,4.637,6.155,5.287z"/>
	<path fill="#260734" d="M4.887,6.054c0,0,0.165,0.045,0.36,0C5.441,6.009,6.259,5.62,7.038,5.666
		C7.817,5.712,8.08,5.892,8.274,6.004c0.195,0.113,0.359,0.24,0.457,0.255c0.098,0.015,0.094-0.112,0.24-0.113
		c0.146,0,1.231-0.016,1.292,0.001c0.062,0.017,0.169,0.126,0.242,0.114c0.073-0.013,0.383-0.327,1.051-0.484
		c0.669-0.157,1.343-0.066,1.843,0.08c0.5,0.146,0.624,0.18,0.736,0.197c0.112,0.017,0.259,0,0.264,0.045
		c0.005,0.045,0.045,0.331,0,0.365c-0.045,0.033-0.331,0.09-0.349,0.196c-0.017,0.107-0.046,0.674-0.226,1.163
		c-0.18,0.489-0.726,1.343-1.777,1.302c-1.051-0.04-1.396-0.59-1.665-0.998c-0.218-0.332-0.134-0.593-0.149-0.746
		c-0.022-0.214,0-0.392-0.044-0.561c-0.045-0.169-0.354-0.214-0.607-0.209C9.33,6.62,9.032,6.636,9.032,6.827
		c0,0.191-0.014,0.456-0.02,0.557c-0.012,0.213-0.079,0.69-0.617,1.253C7.986,9.065,7.299,9.176,6.822,9.062
		C6.344,8.95,5.732,8.736,5.429,7.915C5.126,7.094,5.295,6.763,5.154,6.611c-0.14-0.152-0.253-0.062-0.309-0.158
		C4.789,6.357,4.76,6.036,4.887,6.054z"/>
	<path fill="#000021" d="M10.557,6.877c0.233-0.773,1.152-0.973,1.666-0.967c0.514,0.006,1.333,0.234,1.443,1.03
		c0.11,0.797-0.515,1.941-1.523,1.94C11.135,8.88,10.191,8.093,10.557,6.877z"/>
	<path fill="#000021" d="M8.607,6.868c-0.231-0.773-1.15-0.974-1.664-0.969C6.428,5.904,5.61,6.13,5.498,6.926
		C5.387,7.723,6.01,8.869,7.018,8.87C8.026,8.87,8.971,8.086,8.607,6.868z"/>
	<path fill="#86838A" d="M10.557,6.877c0.233-0.773,1.152-0.973,1.666-0.967c0.514,0.006,1.333,0.234,1.443,1.03
		c0.11,0.797-0.515,1.941-1.523,1.94C11.135,8.88,10.191,8.093,10.557,6.877z"/>
	<path fill="#86838A" d="M8.607,6.868c-0.231-0.773-1.15-0.974-1.664-0.969C6.428,5.904,5.61,6.13,5.498,6.926
		C5.387,7.723,6.01,8.869,7.018,8.87C8.026,8.87,8.971,8.086,8.607,6.868z"/>
	<g opacity="0.2">
		<defs>
			<path id="SVGID_1_" opacity="0.2" d="M10.557,6.877c0.233-0.773,1.152-0.973,1.666-0.967c0.514,0.006,1.333,0.234,1.443,1.03
				c0.11,0.797-0.515,1.941-1.523,1.94C11.135,8.88,10.191,8.093,10.557,6.877z"/>
		</defs>
		<clipPath id="SVGID_2_">
			<use xlink:href="#SVGID_1_"  overflow="visible"/>
		</clipPath>
		
			<linearGradient id="SVGID_3_" gradientUnits="userSpaceOnUse" x1="-687.024" y1="-179.4457" x2="-689.7076" y2="-176.5377" gradientTransform="matrix(-0.9693 -0.2459 -0.0935 0.3681 -671.5137 -97.2708)">
			<stop  offset="0" style="stop-color:#FFFFFF"/>
			<stop  offset="1" style="stop-color:#FFFFFF;stop-opacity:0.1"/>
		</linearGradient>
		<polygon clip-path="url(#SVGID_2_)" fill="url(#SVGID_3_)" points="10.079,6.101 14.297,7.172 14.419,6.691 10.201,5.621 		"/>
		
			<linearGradient id="SVGID_4_" gradientUnits="userSpaceOnUse" x1="-686.3035" y1="-230.5042" x2="-688.9871" y2="-227.5963" gradientTransform="matrix(-0.9693 -0.2459 -0.0661 0.2604 -669.6069 -102.4619)">
			<stop  offset="0" style="stop-color:#FFFFFF"/>
			<stop  offset="1" style="stop-color:#FFFFFF;stop-opacity:0.1"/>
		</linearGradient>
		<polygon clip-path="url(#SVGID_2_)" fill="url(#SVGID_4_)" points="9.799,6.552 14.018,7.622 14.104,7.282 9.886,6.212 		"/>
	</g>
	<g opacity="0.2">
		<defs>
			<path id="SVGID_5_" opacity="0.2" d="M8.607,6.868c-0.231-0.773-1.15-0.974-1.664-0.969C6.428,5.904,5.61,6.13,5.498,6.926
				C5.387,7.723,6.01,8.869,7.018,8.87C8.026,8.87,8.971,8.086,8.607,6.868z"/>
		</defs>
		<clipPath id="SVGID_6_">
			<use xlink:href="#SVGID_5_"  overflow="visible"/>
		</clipPath>
		
			<linearGradient id="SVGID_7_" gradientUnits="userSpaceOnUse" x1="-682.2447" y1="-176.4665" x2="-684.9283" y2="-173.5585" gradientTransform="matrix(-0.9693 -0.2459 -0.0935 0.3681 -671.5137 -97.2708)">
			<stop  offset="0" style="stop-color:#FFFFFF"/>
			<stop  offset="1" style="stop-color:#FFFFFF;stop-opacity:0.1"/>
		</linearGradient>
		<polygon clip-path="url(#SVGID_6_)" fill="url(#SVGID_7_)" points="5.168,6.023 9.386,7.093 9.508,6.613 5.29,5.542 		"/>
		
			<linearGradient id="SVGID_8_" gradientUnits="userSpaceOnUse" x1="-681.5243" y1="-226.2925" x2="-684.2076" y2="-223.3848" gradientTransform="matrix(-0.9693 -0.2459 -0.0661 0.2604 -669.6069 -102.4619)">
			<stop  offset="0" style="stop-color:#FFFFFF"/>
			<stop  offset="1" style="stop-color:#FFFFFF;stop-opacity:0.1"/>
		</linearGradient>
		<polygon clip-path="url(#SVGID_6_)" fill="url(#SVGID_8_)" points="4.888,6.473 9.107,7.544 9.193,7.204 4.974,6.133 		"/>
	</g>
</g>
</svg>
