<?xml version="1.0" encoding="utf-8"?>
<!-- Generator: Adobe Illustrator 17.0.0, SVG Export Plug-In . SVG Version: 6.00 Build 0)  -->
<!DOCTYPE svg PUBLIC "-//W3C//DTD SVG 1.1//EN" "http://www.w3.org/Graphics/SVG/1.1/DTD/svg11.dtd">
<svg version="1.1" id="Слой_2" xmlns="http://www.w3.org/2000/svg" xmlns:xlink="http://www.w3.org/1999/xlink" x="0px" y="0px"
	 width="1255.187px" height="1415.22px" viewBox="0 0 1255.187 1415.22" enable-background="new 0 0 1255.187 1415.22"
	 xml:space="preserve">
<g>
	
		<radialGradient id="SVGID_1_" cx="2990.3115" cy="1294.1368" r="289.4308" gradientTransform="matrix(-1 0 0 -0.9268 3443.3191 1673.0436)" gradientUnits="userSpaceOnUse">
		<stop  offset="0" style="stop-color:#FFFFFF"/>
		<stop  offset="0.629" style="stop-color:#E6E6E7"/>
		<stop  offset="0.8265" style="stop-color:#D7D8D9"/>
		<stop  offset="1" style="stop-color:#D1D2D3"/>
	</radialGradient>
	<path fill="url(#SVGID_1_)" d="M269.991,556.257c16.77,22.142,50.508,17.712,50.508,17.712s-7.231,19.414,15.447,39.698
		c22.679,20.283,56.004,6.367,56.004,6.367s9.98,28.711,55.249,28.677c19.193-0.015,31.81-6.299,40.091-14.014
		c19.771,5.544,39.843-3.225,39.843-3.225s10.518,28.545,55.779,27.783c49.873-0.845,54.66-43.262,54.66-43.262
		c36.359,8.592,42.639-20.415,42.639-20.415c29.104,5.789,57.34-31.582,39.621-62.396c-19.201-33.394-64.631-21.13-64.631-21.13
		s-0.1-5.747-3.672-12.188c3.566-10.608,2.898-22.385-4.229-31.456c-17.185-21.869-50.834-16.895-50.834-16.895
		s6.865-19.529-16.189-39.443c-23.057-19.916-56.115-5.462-56.115-5.462s-10.518-28.545-55.778-27.782
		c-49.875,0.843-54.661,43.262-54.661,43.262c-36.36-8.592-42.638,20.414-42.638,20.414c-22.938-4.562-45.317,17.684-45.107,42.399
		c-17.832,0.668-24.817,13.393-24.817,13.393C274.195,496.831,253.221,534.113,269.991,556.257z"/>
	<radialGradient id="SVGID_2_" cx="470.8806" cy="448.4605" r="52.515" gradientUnits="userSpaceOnUse">
		<stop  offset="0" style="stop-color:#5EA097"/>
		<stop  offset="1" style="stop-color:#495286"/>
	</radialGradient>
	<circle fill="url(#SVGID_2_)" cx="468.504" cy="403.364" r="17.552"/>
	<g opacity="0.4">
		<radialGradient id="SVGID_3_" cx="468.351" cy="413.9926" r="26.4694" gradientUnits="userSpaceOnUse">
			<stop  offset="0" style="stop-color:#5EA097"/>
			<stop  offset="1" style="stop-color:#495286"/>
		</radialGradient>
		<path fill="url(#SVGID_3_)" d="M458.225,403.364c0-8.446,5.968-15.495,13.916-17.17c-1.174-0.247-2.39-0.382-3.637-0.382
			c-9.693,0-17.552,7.858-17.552,17.552c0,9.694,7.858,17.552,17.552,17.552c1.247,0,2.463-0.135,3.637-0.382
			C464.193,418.859,458.225,411.81,458.225,403.364z"/>
	</g>
	<path fill="#D1D2D3" d="M473.518,386.439c0,0.768-0.623,1.392-1.392,1.392l0,0c-0.769,0-1.392-0.623-1.392-1.392v-15.258
		c0-0.769,0.623-1.392,1.392-1.392l0,0c0.77,0,1.392,0.623,1.392,1.392V386.439z"/>
	<path fill="#D1D2D3" d="M489.343,341.197c-7.722,0.451-12.665,9.433-15.46,16.915V-17.752h-3v384.091
		c-4.184,0.493-8.818-0.235-13.73-2.831c-0.792-0.419-1.631,0.349-1.873,1.713c-0.244,1.364,0.201,2.809,0.994,3.228
		c4.228,2.235,8.277,3.174,12.053,3.174c1.177,0,2.328-0.092,3.449-0.263c0.113,0.087,0.234,0.15,0.362,0.187
		c0.412,0.12,0.817-0.066,1.134-0.468c9.129-2.025,16.108-9.329,19.266-15.646c1.95-3.904,2.588-7.624,1.795-10.474
		C493.826,343.139,492.552,341.011,489.343,341.197z M490.264,352.061c-2.588,5.178-8.076,11.069-15.344,13.398
		c1.953-6.661,6.559-18.631,14.524-19.097c0.099-0.006,0.193-0.008,0.285-0.008c1.214,0,1.799,0.486,1.897,0.839
		C491.775,347.723,491.536,349.516,490.264,352.061z"/>
	<text transform="matrix(1 0 0 1 341.1655 519.0396)"><tspan x="0" y="0" font-family="'Georgia'" font-size="24">Starting my journey </tspan><tspan x="-8.543" y="36" font-family="'Georgia'" font-size="24">from gathering  </tspan><tspan x="225.75" y="36" fill="#CA5FA0" font-family="'Georgia'" font-size="24">ideas</tspan></text>
</g>
<path fill="#D1D2D3" d="M642.439,831.125c0,0.681-0.552,1.232-1.233,1.232l0,0c-0.681,0-1.232-0.552-1.232-1.232v-13.512
	c0-0.681,0.552-1.233,1.232-1.233l0,0c0.681,0,1.233,0.552,1.233,1.233V831.125z"/>
<g>
	<rect x="840.648" y="-484.117" fill="none" width="708.467" height="708.467"/>
	<path fill="#D1D2D3" d="M1077.835,636.719c-9.508,0.322-15.598,6.744-19.039,12.094V-1.785h-3.694v656.478
		c-5.151,0.349-10.861-0.169-16.908-2.024c-0.976-0.299-2.01,0.249-2.309,1.223c-0.298,0.975,0.25,2.01,1.224,2.308
		c5.21,1.598,10.195,2.27,14.845,2.27c1.448,0,2.865-0.065,4.245-0.189c0.14,0.063,0.291,0.108,0.447,0.133
		c0.505,0.083,1.005-0.047,1.396-0.334c11.241-1.447,19.837-6.668,23.724-11.184c2.403-2.791,3.189-5.45,2.212-7.489
		C1083.355,638.107,1081.784,636.573,1077.835,636.719z M1078.968,644.487c-3.187,3.702-9.943,7.913-18.896,9.578
		c2.405-4.762,8.079-13.32,17.888-13.653c0.12-0.004,0.238-0.006,0.35-0.006c1.497,0,2.216,0.348,2.337,0.6
		C1080.829,641.386,1080.535,642.668,1078.968,644.487z"/>
	
		<radialGradient id="SVGID_4_" cx="1713.1042" cy="1387.0948" r="216.629" gradientTransform="matrix(1 0 0 -1 -611.1689 2123.176)" gradientUnits="userSpaceOnUse">
		<stop  offset="0" style="stop-color:#FFFFFF"/>
		<stop  offset="0.629" style="stop-color:#E6E6E7"/>
		<stop  offset="0.8265" style="stop-color:#D7D8D9"/>
		<stop  offset="1" style="stop-color:#D1D2D3"/>
	</radialGradient>
	<path fill="url(#SVGID_4_)" d="M1241.396,785.959c-15.753,21.005-45.95,15.756-45.95,15.756s5.909,19.038-15.098,38.073
		c-21.005,19.034-50.542,4.595-50.542,4.595s-9.848,27.567-50.544,26.256c-26.999-0.872-39.091-16.154-44.443-28.183
		c-5.026,1.959-11.243,3.632-18.95,4.77c-40.041,5.907-52.511-26.913-52.511-26.913c-28.883,9.848-38.729-11.159-38.729-11.159
		c-24.287,0.656-42.011-36.102-26.258-57.105c15.753-21.006,45.949-15.757,45.949-15.757s-5.907-19.036,15.099-38.071
		c21.005-19.035,50.543-4.595,50.543-4.595s9.847-27.568,50.544-26.256c26.999,0.87,39.091,16.154,44.443,28.184
		c5.026-1.959,11.243-3.633,18.95-4.77c40.041-5.907,52.511,26.912,52.511,26.912c28.883-9.847,38.729,11.16,38.729,11.16
		C1239.425,728.197,1257.148,764.955,1241.396,785.959z"/>
	<radialGradient id="SVGID_5_" cx="1054.9484" cy="703.9985" r="47.034" gradientUnits="userSpaceOnUse">
		<stop  offset="0" style="stop-color:#5EA097"/>
		<stop  offset="1" style="stop-color:#495286"/>
	</radialGradient>
	<circle fill="url(#SVGID_5_)" cx="1054.164" cy="691.824" r="15.719"/>
	<g opacity="0.4">
		<radialGradient id="SVGID_6_" cx="1054.027" cy="701.3436" r="23.7066" gradientUnits="userSpaceOnUse">
			<stop  offset="0" style="stop-color:#5EA097"/>
			<stop  offset="1" style="stop-color:#495286"/>
		</radialGradient>
		<path fill="url(#SVGID_6_)" d="M1044.958,691.824c0-7.564,5.344-13.877,12.464-15.377c-1.051-0.221-2.141-0.343-3.258-0.343
			c-8.682,0-15.72,7.038-15.72,15.719c0,8.683,7.038,15.721,15.72,15.721c1.117,0,2.207-0.12,3.258-0.343
			C1050.302,705.702,1044.958,699.388,1044.958,691.824z"/>
	</g>
	<path fill="#D1D2D3" d="M1058.346,676.718c0,0.945-0.767,1.713-1.715,1.713l0,0c-0.947,0-1.714-0.767-1.714-1.713v-18.79
		c0-0.948,0.767-1.715,1.714-1.715l0,0c0.948,0,1.715,0.767,1.715,1.715V676.718z"/>
	<rect x="656.886" y="291.004" fill="none" width="644.7" height="644.7"/>
	<text transform="matrix(1 0 0 1 989.5595 779.0021)"><tspan x="0" y="0" fill="#D55074" font-family="'Georgia'" font-size="36">#</tspan><tspan x="23.15" y="0" font-family="'Georgia'" font-size="36">diversity</tspan></text>
</g>
<g>
	
		<radialGradient id="SVGID_7_" cx="3091.6038" cy="187.3835" r="132.1912" gradientTransform="matrix(-1 0 0 1 3891.7664 0)" gradientUnits="userSpaceOnUse">
		<stop  offset="0" style="stop-color:#FFFFFF"/>
		<stop  offset="0.629" style="stop-color:#E6E6E7"/>
		<stop  offset="0.8265" style="stop-color:#D7D8D9"/>
		<stop  offset="1" style="stop-color:#D1D2D3"/>
	</radialGradient>
	<path fill="url(#SVGID_7_)" d="M869.733,131.652c0,0-2.703-29.901-35.234-30.95c-29.521-0.951-36.664,19.046-36.664,19.046
		s-21.425-10.475-36.662,3.333c-15.237,13.807-10.951,27.616-10.951,27.616s-21.904-3.809-33.33,11.429
		c-11.427,15.236,1.428,41.898,19.045,41.422c0,0,7.143,15.238,28.093,8.096c0,0,9.046,23.806,38.09,19.522
		c29.044-4.286,29.044-19.047,29.044-19.047s10.476,16.191,29.521,12.857c19.045-3.332,19.523-19.998,19.523-19.998
		s29.518,9.047,42.376-14.283c11.861-21.528-6.191-48.09-25.237-44.281C897.348,146.412,893.539,125.937,869.733,131.652z"/>
	<radialGradient id="SVGID_8_" cx="825.4038" cy="144.8124" r="33.3903" gradientUnits="userSpaceOnUse">
		<stop  offset="0" style="stop-color:#5EA097"/>
		<stop  offset="1" style="stop-color:#495286"/>
	</radialGradient>
	<circle fill="url(#SVGID_8_)" cx="823.893" cy="116.139" r="11.16"/>
	<g opacity="0.4">
		<radialGradient id="SVGID_9_" cx="823.7957" cy="122.8969" r="16.8299" gradientUnits="userSpaceOnUse">
			<stop  offset="0" style="stop-color:#5EA097"/>
			<stop  offset="1" style="stop-color:#495286"/>
		</radialGradient>
		<path fill="url(#SVGID_9_)" d="M817.357,116.139c0-5.37,3.794-9.852,8.848-10.917c-0.746-0.157-1.52-0.243-2.313-0.243
			c-6.164,0-11.16,4.997-11.16,11.16c0,6.164,4.996,11.16,11.16,11.16c0.793,0,1.566-0.086,2.313-0.243
			C821.151,125.991,817.357,121.509,817.357,116.139z"/>
	</g>
	<path fill="#D1D2D3" d="M826.439,107.425c0,0.681-0.552,1.232-1.233,1.232l0,0c-0.681,0-1.232-0.552-1.232-1.232V93.913
		c0-0.681,0.552-1.233,1.232-1.233l0,0c0.681,0,1.233,0.552,1.233,1.233V107.425z"/>
	<path fill="#D1D2D3" d="M840.453,78.663c-6.837,0.232-11.216,4.85-13.691,8.696V-5.707h-2.657v97.295
		c-3.705,0.253-7.809-0.121-12.159-1.456c-0.707-0.217-1.446,0.179-1.66,0.88c-0.215,0.701,0.179,1.444,0.88,1.66
		c3.745,1.149,7.33,1.632,10.674,1.632c1.043,0,2.062-0.047,3.055-0.135c0.1,0.044,0.207,0.076,0.318,0.095
		c0.363,0.061,0.723-0.034,1.004-0.239c8.085-1.041,14.267-4.796,17.063-8.044c1.727-2.007,2.292-3.919,1.59-5.385
		C844.424,79.661,843.297,78.572,840.453,78.663z M841.269,84.248c-2.291,2.661-7.149,5.688-13.583,6.887
		c1.739-3.426,5.828-9.578,12.857-9.817c0.087-0.003,0.171-0.004,0.253-0.004c1.075,0,1.593,0.25,1.68,0.431
		C842.607,82.018,842.395,82.939,841.269,84.248z"/>
	<text transform="matrix(1 0 0 1 762.3578 176.9352)"><tspan x="0" y="0" fill="#101112" font-family="'Georgia'" font-size="24">#</tspan><tspan x="15.434" y="0" font-family="'Georgia'" font-size="24">creativity</tspan></text>
</g>
<g>
	
		<radialGradient id="SVGID_10_" cx="139.2684" cy="413.1336" r="162.0848" gradientTransform="matrix(0.9995 0.0314 -0.0314 0.9995 28.034 -98.1724)" gradientUnits="userSpaceOnUse">
		<stop  offset="0" style="stop-color:#FFFFFF"/>
		<stop  offset="0.629" style="stop-color:#E6E6E7"/>
		<stop  offset="0.8265" style="stop-color:#D7D8D9"/>
		<stop  offset="1" style="stop-color:#D1D2D3"/>
	</radialGradient>
	<path fill="url(#SVGID_10_)" d="M71.145,248.149c0,0,4.465-36.54,44.371-36.574c36.216-0.029,44.2,24.752,44.2,24.752
		s26.66-12.012,44.802,5.497c18.143,17.508,12.357,34.266,12.357,34.266s26.99-3.824,40.407,15.289
		c13.416,19.113-3.363,51.293-24.936,50.031c0,0-9.339,18.4-34.74,8.84c0,0-12.002,28.828-47.432,22.457
		c-35.43-6.369-34.861-24.46-34.861-24.46s-13.461,19.439-36.673,14.619c-23.211-4.816-23.157-25.259-23.157-25.259
		s-36.524,9.951-51.382-19.136c-13.708-26.839,9.438-58.697,32.631-53.297C36.733,265.174,42.19,240.229,71.145,248.149z"/>
	<radialGradient id="SVGID_11_" cx="110.8587" cy="264.0587" r="37.7047" gradientUnits="userSpaceOnUse">
		<stop  offset="0" style="stop-color:#5EA097"/>
		<stop  offset="1" style="stop-color:#495286"/>
	</radialGradient>
	<circle fill="url(#SVGID_11_)" cx="109.153" cy="231.681" r="12.602"/>
	<g opacity="0.4">
		<radialGradient id="SVGID_12_" cx="109.0422" cy="239.3117" r="19.0043" gradientUnits="userSpaceOnUse">
			<stop  offset="0" style="stop-color:#5EA097"/>
			<stop  offset="1" style="stop-color:#495286"/>
		</radialGradient>
		<path fill="url(#SVGID_12_)" d="M101.773,231.681c0-6.064,4.284-11.125,9.99-12.328c-0.842-0.178-1.715-0.275-2.611-0.275
			c-6.959,0-12.602,5.642-12.602,12.602c0,6.96,5.643,12.602,12.602,12.602c0.896,0,1.77-0.097,2.611-0.274
			C106.057,242.806,101.773,237.745,101.773,231.681z"/>
	</g>
	<path fill="#D1D2D3" d="M109.892,219.205c0,0.769-0.623,1.392-1.391,1.392l0,0c-0.77,0-1.393-0.623-1.393-1.392v-15.258
		c0-0.769,0.623-1.392,1.393-1.392l0,0c0.768,0,1.391,0.623,1.391,1.392V219.205z"/>
	<path fill="#D1D2D3" d="M125.719,186.726c-7.721,0.262-12.666,5.476-15.46,9.819V0h-3v201.321
		c-4.185,0.288-8.818-0.137-13.729-1.644c-0.793-0.245-1.631,0.202-1.875,0.994c-0.242,0.792,0.203,1.631,0.994,1.874
		c4.229,1.297,8.278,1.843,12.053,1.843c1.178,0,2.328-0.053,3.449-0.153c0.114,0.05,0.236,0.087,0.363,0.108
		c0.411,0.07,0.816-0.038,1.133-0.271c9.131-1.175,16.109-5.415,19.266-9.083c1.951-2.267,2.589-4.426,1.796-6.081
		C130.201,187.853,128.92,186.618,125.719,186.726z M126.638,193.033c-2.588,3.006-8.074,6.426-15.344,7.778
		c1.953-3.867,6.56-10.816,14.525-11.086c0.098-0.003,0.193-0.005,0.284-0.005c1.215,0,1.8,0.282,1.897,0.487
		C128.15,190.515,127.911,191.555,126.638,193.033z"/>
	<text transform="matrix(1 0 0 1 68.0769 304.9352)"><tspan x="0" y="0" fill="#59AD62" font-family="'Georgia'" font-size="24">#</tspan><tspan x="15.434" y="0" font-family="'Georgia'" font-size="24">different</tspan></text>
</g>
<g>
	<path fill="#D1D2D3" d="M208.336,887.538c-7.721,0.581-12.665,12.149-15.459,21.788V-17.752h-3v937.677
		c-4.188,0.644-8.819-0.303-13.73-3.645c-0.799-0.551-1.632,0.448-1.874,2.206c-0.243,1.755,0.202,3.619,0.994,4.157
		c4.229,2.88,8.277,4.091,12.052,4.091c1.179,0,2.329-0.119,3.45-0.34c0.114,0.11,0.235,0.193,0.362,0.238
		c0.415,0.152,0.816-0.087,1.133-0.6c9.13-2.607,16.108-12.016,19.266-20.154c1.95-5.03,2.588-9.821,1.795-13.495
		C212.818,890.039,211.554,887.27,208.336,887.538z M209.256,901.535c-2.587,6.668-8.074,14.257-15.343,17.257
		c1.953-8.579,6.56-24.003,14.524-24.601c0.099-0.007,0.193-0.011,0.284-0.011c1.215,0,1.8,0.626,1.898,1.081
		C210.767,895.947,210.528,898.255,209.256,901.535z"/>
	
		<radialGradient id="SVGID_13_" cx="3731.6108" cy="1128.2765" r="214.757" gradientTransform="matrix(-1 0 0 -1 3888.0808 2123.176)" gradientUnits="userSpaceOnUse">
		<stop  offset="0" style="stop-color:#FFFFFF"/>
		<stop  offset="0.629" style="stop-color:#E6E6E7"/>
		<stop  offset="0.8265" style="stop-color:#D7D8D9"/>
		<stop  offset="1" style="stop-color:#D1D2D3"/>
	</radialGradient>
	<path fill="url(#SVGID_13_)" d="M18.214,1044.346c15.617,20.823,45.553,15.619,45.553,15.619s-5.857,18.873,14.968,37.744
		c20.823,18.869,50.106,4.556,50.106,4.556s9.763,27.327,50.107,26.027c26.766-0.863,38.754-16.014,44.059-27.938
		c4.983,1.941,11.145,3.6,18.786,4.728c39.695,5.856,52.058-26.681,52.058-26.681c28.633,9.763,38.395-11.062,38.395-11.062
		c24.077,0.649,41.648-35.789,26.031-56.612c-15.617-20.824-45.552-15.62-45.552-15.62s5.856-18.872-14.969-37.743
		c-20.823-18.87-50.105-4.556-50.105-4.556s-9.762-27.329-50.107-26.027c-26.766,0.861-38.754,16.014-44.059,27.938
		c-4.982-1.941-11.146-3.601-18.786-4.728c-39.695-5.856-52.058,26.68-52.058,26.68c-28.633-9.762-38.395,11.063-38.395,11.063
		C20.169,987.083,2.598,1023.523,18.214,1044.346z"/>
	<radialGradient id="SVGID_14_" cx="195.0328" cy="984.8937" r="38.1923" gradientUnits="userSpaceOnUse">
		<stop  offset="0" style="stop-color:#5EA097"/>
		<stop  offset="1" style="stop-color:#495286"/>
	</radialGradient>
	<circle fill="url(#SVGID_14_)" cx="193.305" cy="952.096" r="12.765"/>
	<g opacity="0.4">
		<radialGradient id="SVGID_15_" cx="193.1937" cy="959.8264" r="19.2504" gradientUnits="userSpaceOnUse">
			<stop  offset="0" style="stop-color:#5EA097"/>
			<stop  offset="1" style="stop-color:#495286"/>
		</radialGradient>
		<path fill="url(#SVGID_15_)" d="M185.829,952.096c0-6.143,4.34-11.269,10.121-12.486c-0.853-0.18-1.738-0.278-2.645-0.278
			c-7.05,0-12.765,5.715-12.765,12.765c0,7.051,5.715,12.766,12.765,12.766c0.907,0,1.792-0.098,2.645-0.278
			C190.169,963.366,185.829,958.239,185.829,952.096z"/>
	</g>
	<path fill="#D1D2D3" d="M194.184,941.407c0,0.769-0.623,1.392-1.392,1.392l0,0c-0.77,0-1.393-0.623-1.393-1.392v-15.258
		c0-0.768,0.623-1.392,1.393-1.392l0,0c0.768,0,1.392,0.623,1.392,1.392V941.407z"/>
	<text transform="matrix(1 0 0 1 117.9795 1038.9349)"><tspan x="0" y="0" fill="#F3EB49" font-family="'Georgia'" font-size="36">#</tspan><tspan x="23.15" y="0" font-family="'Georgia'" font-size="36">sketch</tspan></text>
</g>
<g>
	<path fill="#D1D2D3" d="M656.609,782.501c-7.721,0.502-12.665,10.501-15.459,18.833V0h-3v810.495
		c-4.188,0.556-8.819-0.262-13.729-3.151c-0.799-0.476-1.632,0.388-1.874,1.907c-0.243,1.517,0.202,3.128,0.994,3.593
		c4.228,2.489,8.277,3.536,12.052,3.536c1.179,0,2.329-0.103,3.45-0.294c0.114,0.096,0.235,0.167,0.362,0.206
		c0.415,0.131,0.816-0.075,1.133-0.519c9.13-2.253,16.108-10.387,19.266-17.42c1.95-4.348,2.588-8.489,1.795-11.664
		C661.092,784.662,659.828,782.268,656.609,782.501z M657.529,794.599c-2.587,5.764-8.074,12.323-15.343,14.916
		c1.953-7.416,6.56-20.747,14.524-21.264c0.099-0.006,0.193-0.009,0.284-0.009c1.215,0,1.8,0.541,1.898,0.935
		C659.041,789.768,658.802,791.763,657.529,794.599z"/>
	
		<radialGradient id="SVGID_16_" cx="3271.0183" cy="902.4881" r="120.293" gradientTransform="matrix(-1 0 0 1 3891.7664 0)" gradientUnits="userSpaceOnUse">
		<stop  offset="0" style="stop-color:#FFFFFF"/>
		<stop  offset="0.629" style="stop-color:#E6E6E7"/>
		<stop  offset="0.8265" style="stop-color:#D7D8D9"/>
		<stop  offset="1" style="stop-color:#D1D2D3"/>
	</radialGradient>
	<path fill="url(#SVGID_16_)" d="M684.057,851.773c0,0-2.46-27.209-32.063-28.165c-26.864-0.865-33.364,17.332-33.364,17.332
		s-19.497-9.532-33.362,3.033c-13.866,12.564-9.966,25.13-9.966,25.13s-19.932-3.466-30.33,10.4
		c-10.398,13.865,1.299,38.127,17.331,37.693c0,0,6.5,13.867,25.565,7.367c0,0,8.232,21.663,34.661,17.765
		c26.43-3.9,26.43-17.333,26.43-17.333s9.533,14.733,26.864,11.699c17.331-3.032,17.766-18.198,17.766-18.198
		s26.861,8.233,38.562-12.997c10.794-19.59-5.634-43.761-22.965-40.295C709.186,865.205,705.72,846.572,684.057,851.773z"/>
	<radialGradient id="SVGID_17_" cx="643.7175" cy="863.7488" r="30.3849" gradientUnits="userSpaceOnUse">
		<stop  offset="0" style="stop-color:#5EA097"/>
		<stop  offset="1" style="stop-color:#495286"/>
	</radialGradient>
	<circle fill="url(#SVGID_17_)" cx="642.343" cy="837.656" r="10.155"/>
	<g opacity="0.4">
		<radialGradient id="SVGID_18_" cx="642.254" cy="843.8058" r="15.3151" gradientUnits="userSpaceOnUse">
			<stop  offset="0" style="stop-color:#5EA097"/>
			<stop  offset="1" style="stop-color:#495286"/>
		</radialGradient>
		<path fill="url(#SVGID_18_)" d="M636.395,837.656c0-4.887,3.452-8.965,8.052-9.935c-0.679-0.143-1.383-0.221-2.104-0.221
			c-5.609,0-10.155,4.547-10.155,10.156c0,5.609,4.546,10.156,10.155,10.156c0.722,0,1.425-0.078,2.104-0.221
			C639.848,846.621,636.395,842.543,636.395,837.656z"/>
	</g>
	<text transform="matrix(1 0 0 1 579.5009 899.9352)"><tspan x="0" y="0" fill="#82C2B6" font-family="'Georgia'" font-size="24">#</tspan><tspan x="15.434" y="0" font-family="'Georgia'" font-size="24">searching</tspan></text>
</g>
</svg>
